<svg width="110" height="110" viewBox="0 0 110 110" fill="none" xmlns="http://www.w3.org/2000/svg">
<path d="M84.3334 46.567C82.8667 46.9337 82.1334 48.767 82.8667 50.2337C84.7001 54.6337 85.4334 59.4004 85.4334 64.167C85.4334 86.167 67.4667 103.767 45.8334 103.767C24.2001 103.767 6.2334 86.167 6.2334 64.167C6.2334 42.167 23.8334 24.567 45.8334 24.567C49.8667 24.567 54.2667 25.3004 58.3001 26.4004C59.7667 26.767 61.2334 26.0337 61.6001 24.567C61.9667 23.1004 61.2334 21.6337 59.7667 21.267C55.3667 19.8004 50.6001 19.067 45.8334 19.067C20.9001 19.067 0.733398 39.2337 0.733398 64.167C0.733398 89.1004 20.9001 109.267 45.8334 109.267C70.7667 109.267 90.9334 89.1004 90.9334 64.167C90.9334 58.667 89.8334 53.167 88.0001 48.0337C87.6334 46.9337 85.8001 46.2004 84.3334 46.567ZM45.8334 55.0004C47.3001 55.0004 48.7667 53.9004 48.7667 52.067C48.7667 50.2337 47.6667 49.1337 45.8334 49.1337C37.7667 49.1337 31.1667 55.7337 31.1667 63.8004C31.1667 71.867 37.7667 78.467 45.8334 78.467C53.9001 78.467 60.5001 71.867 60.5001 63.8004C60.5001 62.3337 59.4001 60.867 57.5667 60.867C55.7334 60.867 55.0001 62.7004 55.0001 64.167C55.0001 69.3004 50.9667 73.3337 45.8334 73.3337C40.7001 73.3337 36.6667 69.3004 36.6667 64.167C36.6667 59.0337 40.7001 55.0004 45.8334 55.0004ZM59.4001 40.7004C60.1334 39.2337 59.4001 37.767 57.9334 37.0337C54.2667 35.2004 49.8667 34.467 45.8334 34.467C29.3334 34.467 15.7667 47.667 15.7667 64.167C15.7667 80.667 29.3334 94.2337 45.8334 94.2337C62.3334 94.2337 75.9001 80.667 75.9001 64.167C75.9001 59.767 75.1667 55.7337 73.3334 52.067C72.6001 50.6004 71.1334 49.867 69.6667 50.6004C68.2001 51.3337 67.8334 52.8004 68.2001 54.267C69.6667 57.567 70.4001 60.867 70.4001 64.167C70.4001 77.7337 59.4001 88.7337 45.8334 88.7337C32.2667 88.7337 21.2667 77.7337 21.2667 64.167C21.2667 50.6004 32.2667 39.6004 45.8334 39.6004C49.5001 39.6004 52.8001 40.3337 55.7334 41.8004C57.2001 42.5337 58.6667 41.8004 59.4001 40.7004ZM109.267 22.367C108.9 21.267 108.167 20.5337 107.067 20.5337L92.0334 17.967L89.4667 2.93369C89.4667 1.83369 88.7334 1.10036 87.6334 0.733689C86.5334 0.367022 85.4334 0.733689 84.7001 1.46702L66.7334 19.4337C66.0001 20.167 65.6334 20.9004 66.0001 22.0004L68.9334 37.4004L45.8334 60.5004H45.4667C43.2667 60.5004 41.4334 62.3337 41.4334 64.5337C41.4334 66.7337 43.2667 68.567 45.4667 68.567C47.6667 68.567 49.5001 66.7337 49.5001 64.5337L72.9667 41.067L88.0001 44.0004H88.3667C89.1001 44.0004 89.8334 43.6337 90.2001 43.267L108.167 25.3004C109.267 24.567 109.633 23.467 109.267 22.367ZM71.8667 22.0004L85.0667 8.80036L86.9001 19.067L74.0667 31.9004L71.8667 22.0004ZM88.0001 38.1337L78.1001 36.3004L90.9334 23.467L100.833 25.3004L88.0001 38.1337Z" fill="#FA5B37"/>
</svg>
