<svg width="88" height="114" viewBox="0 0 88 114" fill="none" xmlns="http://www.w3.org/2000/svg">
<path d="M43.9998 10.8638C44.3494 10.8638 44.6847 10.7249 44.9319 10.4777C45.1791 10.2305 45.318 9.89524 45.318 9.54563V1.63654C45.318 1.28694 45.1791 0.951653 44.9319 0.704446C44.6847 0.457239 44.3494 0.318359 43.9998 0.318359C43.6502 0.318359 43.3149 0.457239 43.0677 0.704446C42.8205 0.951653 42.6816 1.28694 42.6816 1.63654V9.54563C42.6816 9.89524 42.8205 10.2305 43.0677 10.4777C43.3149 10.7249 43.6502 10.8638 43.9998 10.8638Z" fill="#FA5B37"/>
<path d="M33.8559 11.0548C33.8983 11.2246 33.9741 11.3842 34.0789 11.5243C34.1836 11.6644 34.3152 11.7823 34.466 11.871C34.6168 11.9598 34.7837 12.0176 34.9571 12.0412C35.1305 12.0648 35.3068 12.0536 35.4758 12.0083C35.6448 11.963 35.8031 11.8846 35.9414 11.7775C36.0798 11.6704 36.1955 11.5368 36.2817 11.3846C36.3679 11.2324 36.4229 11.0645 36.4436 10.8907C36.4643 10.717 36.4501 10.5409 36.4021 10.3727L35.7199 7.82635C35.626 7.49257 35.4043 7.20923 35.1029 7.03774C34.8016 6.86625 34.4448 6.82041 34.1098 6.91015C33.7749 6.9999 33.4888 7.218 33.3136 7.51721C33.1383 7.81641 33.088 8.17262 33.1736 8.50865L33.8559 11.0548Z" fill="#FA5B37"/>
<path d="M18.8333 20.5147C19.0815 20.7568 19.4152 20.8913 19.7619 20.8891C20.1086 20.8869 20.4404 20.7482 20.6856 20.503C20.9308 20.2578 21.0695 19.926 21.0717 19.5792C21.0739 19.2325 20.9394 18.8989 20.6973 18.6507L18.8333 16.7866C18.7115 16.6617 18.5661 16.5622 18.4055 16.4939C18.2449 16.4256 18.0723 16.3898 17.8978 16.3887C17.7233 16.3876 17.5503 16.4211 17.3889 16.4874C17.2274 16.5537 17.0808 16.6514 16.9574 16.7748C16.834 16.8982 16.7363 17.0448 16.67 17.2063C16.6038 17.3677 16.5702 17.5407 16.5713 17.7152C16.5724 17.8897 16.6082 18.0623 16.6765 18.2229C16.7448 18.3834 16.8443 18.5289 16.9693 18.6507L18.8333 20.5147Z" fill="#FA5B37"/>
<path d="M11.2355 33.6742L8.68931 32.9919C8.35328 32.9064 7.99707 32.9567 7.69787 33.1319C7.39867 33.3072 7.18056 33.5933 7.09082 33.9282C7.00107 34.2631 7.04691 34.6199 7.21841 34.9213C7.3899 35.2227 7.67323 35.4443 8.00702 35.5383L10.5534 36.2204C10.7216 36.2685 10.8977 36.2826 11.0714 36.262C11.2451 36.2413 11.413 36.1862 11.5653 36.1C11.7175 36.0138 11.8511 35.8982 11.9581 35.7598C12.0652 35.6214 12.1437 35.4631 12.189 35.2941C12.2342 35.1251 12.2454 34.9488 12.2219 34.7755C12.1983 34.6021 12.1404 34.4352 12.0517 34.2844C11.963 34.1336 11.8451 34.002 11.705 33.8972C11.5648 33.7925 11.4052 33.7167 11.2355 33.6742V33.6742Z" fill="#FA5B37"/>
<path d="M10.5534 51.416L8.00705 52.0983C7.83744 52.1409 7.678 52.2168 7.538 52.3216C7.39801 52.4264 7.28027 52.558 7.19164 52.7087C7.103 52.8594 7.04525 53.0263 7.02173 53.1996C6.99822 53.3729 7.00942 53.5491 7.05469 53.718C7.09995 53.8869 7.17837 54.0451 7.28537 54.1835C7.39238 54.3218 7.52584 54.4374 7.67797 54.5236C7.83011 54.6098 7.99787 54.6649 8.17151 54.6857C8.34514 54.7064 8.52117 54.6924 8.68934 54.6445L11.2355 53.9622C11.4053 53.9198 11.5649 53.844 11.705 53.7392C11.8451 53.6344 11.963 53.5028 12.0517 53.3521C12.1405 53.2013 12.1983 53.0343 12.2219 52.861C12.2455 52.6876 12.2343 52.5113 12.189 52.3423C12.1437 52.1733 12.0653 52.015 11.9582 51.8766C11.8511 51.7383 11.7175 51.6226 11.5653 51.5364C11.4131 51.4502 11.2452 51.3951 11.0714 51.3745C10.8977 51.3538 10.7216 51.3679 10.5534 51.416V51.416Z" fill="#FA5B37"/>
<path d="M18.8333 67.1206L16.9693 68.9847C16.8443 69.1065 16.7448 69.2519 16.6765 69.4125C16.6082 69.5731 16.5724 69.7456 16.5713 69.9202C16.5702 70.0947 16.6038 70.2677 16.67 70.4291C16.7363 70.5905 16.834 70.7372 16.9574 70.8606C17.0808 70.984 17.2274 71.0817 17.3889 71.1479C17.5503 71.2142 17.7233 71.2478 17.8978 71.2467C18.0723 71.2456 18.2449 71.2098 18.4055 71.1415C18.5661 71.0732 18.7115 70.9737 18.8333 70.8487L20.6973 68.9847C20.8223 68.8628 20.9218 68.7174 20.9901 68.5568C21.0584 68.3962 21.0942 68.2237 21.0953 68.0492C21.0964 67.8747 21.0628 67.7017 20.9966 67.5403C20.9303 67.3788 20.8326 67.2321 20.7092 67.1087C20.5858 66.9853 20.4392 66.8877 20.2777 66.8214C20.1163 66.7551 19.9433 66.7216 19.7688 66.7227C19.5943 66.7238 19.4217 66.7595 19.2611 66.8278C19.1006 66.8962 18.9551 66.9957 18.8333 67.1206Z" fill="#FA5B37"/>
<path d="M25.7219 14.7959C25.8967 15.0987 26.1847 15.3197 26.5224 15.4102C26.8601 15.5008 27.22 15.4534 27.5228 15.2786C27.8257 15.1038 28.0466 14.8159 28.1372 14.4781C28.2277 14.1404 28.1804 13.7805 28.0056 13.4777L24.051 6.62804C23.9645 6.4781 23.8492 6.34667 23.7119 6.24126C23.5745 6.13585 23.4178 6.05853 23.2505 6.0137C23.0833 5.96888 22.9089 5.95743 22.7372 5.98001C22.5656 6.0026 22.4001 6.05877 22.2501 6.14532C22.1002 6.23188 21.9687 6.34711 21.8633 6.48446C21.7579 6.62181 21.6806 6.77857 21.6358 6.9458C21.5909 7.11303 21.5795 7.28745 21.6021 7.4591C21.6247 7.63075 21.6808 7.79628 21.7674 7.94622L25.7219 14.7959Z" fill="#FA5B37"/>
<path d="M14.9785 25.5393L8.12884 21.5848C7.97889 21.4982 7.81337 21.4421 7.64172 21.4195C7.47006 21.3969 7.29564 21.4083 7.12842 21.4532C6.96119 21.498 6.80442 21.5753 6.66708 21.6807C6.52973 21.7861 6.41449 21.9175 6.32794 22.0675C6.24139 22.2174 6.18521 22.383 6.16263 22.5546C6.14005 22.7263 6.15149 22.9007 6.19632 23.0679C6.24114 23.2351 6.31847 23.3919 6.42388 23.5293C6.52928 23.6666 6.66071 23.7818 6.81066 23.8684L13.6603 27.8229C13.9632 27.9977 14.323 28.0451 14.6607 27.9546C14.9985 27.864 15.2864 27.643 15.4612 27.3402C15.636 27.0374 15.6834 26.6775 15.5928 26.3398C15.5023 26.0021 15.2813 25.7141 14.9785 25.5393V25.5393Z" fill="#FA5B37"/>
<path d="M11.0455 43.8182C11.0455 43.4686 10.9066 43.1333 10.6594 42.8861C10.4122 42.6389 10.0769 42.5 9.72727 42.5H1.81818C1.46858 42.5 1.13329 42.6389 0.886087 42.8861C0.63888 43.1333 0.5 43.4686 0.5 43.8182C0.5 44.1678 0.63888 44.5031 0.886087 44.7503C1.13329 44.9975 1.46858 45.1364 1.81818 45.1364H9.72727C10.0769 45.1364 10.4122 44.9975 10.6594 44.7503C10.9066 44.5031 11.0455 44.1678 11.0455 43.8182Z" fill="#FA5B37"/>
<path d="M13.6603 59.8133L6.81066 63.7678C6.50783 63.9426 6.28685 64.2306 6.19632 64.5683C6.1058 64.9061 6.15314 65.2659 6.32794 65.5687C6.50274 65.8716 6.79068 66.0926 7.12842 66.1831C7.46615 66.2736 7.82602 66.2263 8.12884 66.0515L14.9785 62.0969C15.1285 62.0104 15.2599 61.8951 15.3653 61.7578C15.4707 61.6204 15.548 61.4637 15.5928 61.2964C15.6377 61.1292 15.6491 60.9548 15.6265 60.7831C15.604 60.6115 15.5478 60.446 15.4612 60.296C15.3747 60.1461 15.2594 60.0146 15.1221 59.9092C14.9847 59.8038 14.828 59.7265 14.6608 59.6817C14.4935 59.6368 14.3191 59.6254 14.1475 59.648C13.9758 59.6706 13.8103 59.7267 13.6603 59.8133Z" fill="#FA5B37"/>
<path d="M27.5228 72.3561C27.22 72.1814 26.8602 72.1341 26.5225 72.2247C26.1848 72.3152 25.8968 72.5361 25.7219 72.8388L21.7674 79.6885C21.6808 79.8384 21.6247 80.0039 21.6021 80.1756C21.5795 80.3473 21.5909 80.5217 21.6358 80.6889C21.6806 80.8561 21.7579 81.0129 21.8633 81.1502C21.9687 81.2876 22.1002 81.4028 22.2501 81.4894C22.4001 81.5759 22.5656 81.6321 22.7372 81.6547C22.9089 81.6773 23.0833 81.6658 23.2505 81.621C23.5883 81.5305 23.8762 81.3095 24.051 81.0067L28.0056 74.157C28.0921 74.0071 28.1483 73.8415 28.1709 73.6699C28.1935 73.4982 28.1821 73.3238 28.1373 73.1565C28.0924 72.9893 28.0151 72.8325 27.9097 72.6952C27.8042 72.5579 27.6728 72.4426 27.5228 72.3561V72.3561Z" fill="#FA5B37"/>
<path d="M52.5296 11.9865C52.6968 12.0317 52.8713 12.0435 53.043 12.0211C53.2148 11.9987 53.3804 11.9425 53.5304 11.8559C53.6804 11.7693 53.8118 11.6539 53.9171 11.5164C54.0223 11.3788 54.0994 11.2218 54.1438 11.0544L54.8261 8.50822C54.9103 8.17266 54.8592 7.81743 54.6839 7.51919C54.5085 7.22096 54.2229 7.00361 53.8888 6.91406C53.5546 6.82452 53.1986 6.86994 52.8976 7.04053C52.5966 7.21113 52.3748 7.49321 52.2799 7.82593L51.5976 10.3723C51.5072 10.7099 51.5546 11.0696 51.7293 11.3724C51.9041 11.6751 52.1919 11.896 52.5296 11.9865Z" fill="#FA5B37"/>
<path d="M68.2341 20.9008C68.4072 20.901 68.5786 20.867 68.7386 20.8008C68.8985 20.7345 69.0438 20.6373 69.166 20.5147L71.03 18.6507C71.155 18.5289 71.2545 18.3834 71.3228 18.2229C71.3911 18.0623 71.4269 17.8897 71.428 17.7152C71.4291 17.5407 71.3955 17.3677 71.3293 17.2063C71.263 17.0448 71.1653 16.8982 71.0419 16.7748C70.9185 16.6514 70.7719 16.5537 70.6104 16.4874C70.449 16.4211 70.276 16.3876 70.1015 16.3887C69.927 16.3898 69.7544 16.4256 69.5938 16.4939C69.4333 16.5622 69.2878 16.6617 69.166 16.7866L67.302 18.6507C67.1177 18.835 66.9922 19.0699 66.9413 19.3256C66.8905 19.5813 66.9166 19.8463 67.0164 20.0871C67.1161 20.3279 67.2851 20.5338 67.5018 20.6786C67.7185 20.8235 67.9734 20.9008 68.2341 20.9008Z" fill="#FA5B37"/>
<path d="M77.4462 36.2204L79.9925 35.5383C80.3263 35.4443 80.6096 35.2227 80.7811 34.9213C80.9526 34.6199 80.9984 34.2631 80.9087 33.9282C80.8189 33.5933 80.6008 33.3072 80.3016 33.1319C80.0024 32.9567 79.6462 32.9064 79.3102 32.9919L76.764 33.6742C76.5943 33.7167 76.4347 33.7925 76.2945 33.8972C76.1544 34.002 76.0365 34.1336 75.9478 34.2844C75.8591 34.4352 75.8012 34.6021 75.7776 34.7755C75.7541 34.9488 75.7653 35.1251 75.8105 35.2941C75.8558 35.4631 75.9343 35.6214 76.0414 35.7598C76.1484 35.8982 76.282 36.0138 76.4342 36.1C76.5865 36.1862 76.7544 36.2413 76.9281 36.262C77.1018 36.2826 77.2779 36.2685 77.4462 36.2204Z" fill="#FA5B37"/>
<path d="M75.8318 52.3479C75.7416 52.6856 75.7891 53.0452 75.9639 53.3479C76.1386 53.6506 76.4264 53.8715 76.7639 53.9622L79.3101 54.6445C79.4783 54.6924 79.6543 54.7064 79.8279 54.6857C80.0016 54.6649 80.1693 54.6098 80.3215 54.5236C80.4736 54.4374 80.607 54.3217 80.7141 54.1834C80.8211 54.0451 80.8995 53.8869 80.9447 53.718C80.99 53.5491 81.0012 53.3728 80.9777 53.1996C80.9542 53.0263 80.8964 52.8594 80.8078 52.7087C80.7192 52.5579 80.6014 52.4263 80.4614 52.3215C80.3214 52.2167 80.162 52.1408 79.9924 52.0983L77.446 51.416C77.1084 51.3255 76.7487 51.3729 76.4459 51.5477C76.1432 51.7225 75.9223 52.0103 75.8318 52.3479V52.3479Z" fill="#FA5B37"/>
<path d="M69.1663 67.1206C69.0445 66.9957 68.8991 66.8962 68.7385 66.8278C68.5779 66.7595 68.4053 66.7238 68.2308 66.7227C68.0563 66.7216 67.8833 66.7551 67.7219 66.8214C67.5605 66.8877 67.4138 66.9853 67.2904 67.1087C67.167 67.2321 67.0693 67.3788 67.003 67.5403C66.9368 67.7017 66.9032 67.8747 66.9043 68.0492C66.9054 68.2237 66.9412 68.3962 67.0095 68.5568C67.0778 68.7174 67.1773 68.8628 67.3023 68.9847L69.1663 70.8487C69.2881 70.9737 69.4336 71.0732 69.5941 71.1415C69.7547 71.2098 69.9273 71.2456 70.1018 71.2467C70.2763 71.2478 70.4493 71.2142 70.6107 71.1479C70.7722 71.0817 70.9188 70.984 71.0422 70.8606C71.1656 70.7372 71.2633 70.5905 71.3296 70.4291C71.3958 70.2677 71.4294 70.0947 71.4283 69.9202C71.4272 69.7456 71.3914 69.5731 71.3231 69.4125C71.2548 69.2519 71.1553 69.1065 71.0304 68.9847L69.1663 67.1206Z" fill="#FA5B37"/>
<path d="M60.4777 15.2806C60.7806 15.4552 61.1404 15.5025 61.4781 15.4119C61.8158 15.3214 62.1037 15.1006 62.2786 14.7978L66.2332 7.94818C66.408 7.64535 66.4553 7.28549 66.3648 6.94775C66.2743 6.61002 66.0533 6.32208 65.7505 6.14728C65.4476 5.97248 65.0878 5.92513 64.75 6.01566C64.4123 6.10619 64.1244 6.32717 63.9496 6.63L59.995 13.4797C59.9084 13.6296 59.8522 13.7951 59.8296 13.9668C59.807 14.1384 59.8185 14.3129 59.8633 14.4801C59.9081 14.6473 59.9855 14.8041 60.0909 14.9415C60.1963 15.0788 60.3278 15.194 60.4777 15.2806Z" fill="#FA5B37"/>
<path d="M73.6822 27.9993C73.9132 27.9995 74.1401 27.9386 74.34 27.8229L81.1896 23.8684C81.3396 23.7818 81.471 23.6666 81.5764 23.5293C81.6818 23.3919 81.7592 23.2351 81.804 23.0679C81.8488 22.9007 81.8603 22.7263 81.8377 22.5546C81.8151 22.383 81.7589 22.2174 81.6724 22.0675C81.5858 21.9175 81.4706 21.7861 81.3332 21.6807C81.1959 21.5753 81.0391 21.498 80.8719 21.4532C80.7047 21.4083 80.5302 21.3969 80.3586 21.4195C80.1869 21.4421 80.0214 21.4982 79.8715 21.5848L73.0218 25.5393C72.7703 25.6844 72.5737 25.9085 72.4626 26.1768C72.3515 26.445 72.3321 26.7425 72.4074 27.0229C72.4827 27.3033 72.6484 27.5511 72.879 27.7276C73.1095 27.9042 73.3918 27.9997 73.6822 27.9993Z" fill="#FA5B37"/>
<path d="M86.1814 42.5H78.2723C77.9227 42.5 77.5874 42.6389 77.3402 42.8861C77.093 43.1333 76.9541 43.4686 76.9541 43.8182C76.9541 44.1678 77.093 44.5031 77.3402 44.7503C77.5874 44.9975 77.9227 45.1364 78.2723 45.1364H86.1814C86.531 45.1364 86.8663 44.9975 87.1135 44.7503C87.3607 44.5031 87.4995 44.1678 87.4995 43.8182C87.4995 43.4686 87.3607 43.1333 87.1135 42.8861C86.8663 42.6389 86.531 42.5 86.1814 42.5Z" fill="#FA5B37"/>
<path d="M81.1894 63.7678L74.3398 59.8133C74.1898 59.7267 74.0243 59.6706 73.8527 59.648C73.681 59.6254 73.5066 59.6368 73.3394 59.6817C73.1721 59.7265 73.0154 59.8038 72.878 59.9092C72.7407 60.0146 72.6254 60.1461 72.5389 60.296C72.4523 60.446 72.3962 60.6115 72.3736 60.7831C72.351 60.9548 72.3624 61.1292 72.4073 61.2964C72.4521 61.4637 72.5294 61.6204 72.6348 61.7578C72.7402 61.8951 72.8717 62.0104 73.0216 62.0969L79.8713 66.0515C80.1741 66.2263 80.534 66.2736 80.8717 66.1831C81.2094 66.0926 81.4974 65.8716 81.6722 65.5687C81.847 65.2659 81.8943 64.9061 81.8038 64.5683C81.7133 64.2306 81.4923 63.9426 81.1894 63.7678Z" fill="#FA5B37"/>
<path d="M62.2785 72.8409C62.192 72.691 62.0768 72.5596 61.9394 72.4541C61.8021 72.3487 61.6453 72.2714 61.4781 72.2266C61.3108 72.1818 61.1364 72.1703 60.9648 72.1929C60.7931 72.2155 60.6276 72.2717 60.4777 72.3582C60.3277 72.4448 60.1963 72.56 60.0909 72.6973C59.9855 72.8347 59.9081 72.9915 59.8633 73.1587C59.8185 73.3259 59.807 73.5003 59.8296 73.672C59.8522 73.8436 59.9084 74.0092 59.9949 74.1591L63.9495 81.0088C64.1243 81.3116 64.4122 81.5326 64.75 81.6231C65.0877 81.7136 65.4475 81.6663 65.7504 81.4915C66.0532 81.3167 66.2742 81.0288 66.3647 80.691C66.4552 80.3533 66.4079 79.9934 66.2331 79.6906L62.2785 72.8409Z" fill="#FA5B37"/>
<path d="M53.227 76.7734H34.7725V79.4098H53.227V76.7734Z" fill="#FA5B37"/>
<path d="M53.2268 82.0449H47.9541V101.818H53.2268V82.0449Z" fill="#FA5B37"/>
<path d="M45.318 82.0449H42.6816V101.818H45.318V82.0449Z" fill="#FA5B37"/>
<path d="M45.318 51.7266H42.6816V74.1356H45.318V51.7266Z" fill="#FA5B37"/>
<path d="M36.0913 41.1816C35.0425 41.1816 34.0366 41.5983 33.295 42.3399C32.5534 43.0815 32.1367 44.0874 32.1367 45.1362C32.1367 46.185 32.5534 47.1908 33.295 47.9325C34.0366 48.6741 35.0425 49.0907 36.0913 49.0907H40.0458V45.1362C40.0447 44.0877 39.6277 43.0825 38.8863 42.3412C38.1449 41.5998 37.1397 41.1828 36.0913 41.1816V41.1816Z" fill="#FA5B37"/>
<path d="M44.0001 16.1367C37.4699 16.1373 31.1501 18.4464 26.1576 22.6557C21.1651 26.865 17.8212 32.7037 16.717 39.1399C15.6129 45.5761 16.8194 52.1955 20.1234 57.8282C23.4274 63.4608 28.6162 67.7443 34.7728 69.9214V74.1367H40.0456V51.7276H36.091C34.7875 51.7276 33.5132 51.3411 32.4293 50.6169C31.3454 49.8926 30.5007 48.8633 30.0018 47.6589C29.503 46.4546 29.3724 45.1294 29.6268 43.8509C29.8811 42.5724 30.5088 41.398 31.4305 40.4762C32.3523 39.5545 33.5267 38.9268 34.8052 38.6725C36.0837 38.4181 37.4089 38.5487 38.6133 39.0475C39.8176 39.5464 40.8469 40.3911 41.5712 41.475C42.2954 42.5589 42.6819 43.8332 42.6819 45.1367V49.0913H45.3183V45.1367C45.3183 43.8332 45.7048 42.5589 46.4291 41.475C47.1533 40.3911 48.1826 39.5464 49.387 39.0475C50.5913 38.5487 51.9165 38.4181 53.195 38.6725C54.4735 38.9268 55.6479 39.5545 56.5697 40.4762C57.4914 41.398 58.1192 42.5724 58.3735 43.8509C58.6278 45.1294 58.4973 46.4546 57.9984 47.6589C57.4996 48.8633 56.6548 49.8926 55.5709 50.6169C54.487 51.3411 53.2128 51.7276 51.9092 51.7276H47.9547V74.1367H53.2274V69.9214C59.384 67.7443 64.5728 63.4608 67.8768 57.8282C71.1808 52.1955 72.3874 45.5761 71.2832 39.1399C70.179 32.7037 66.8352 26.865 61.8427 22.6557C56.8501 18.4464 50.5303 16.1373 44.0001 16.1367V16.1367Z" fill="#FA5B37"/>
<path d="M40.0452 82.0449H34.7725V101.818H40.0452V82.0449Z" fill="#FA5B37"/>
<path d="M55.8632 45.1362C55.8632 44.0874 55.4466 43.0815 54.7049 42.3399C53.9633 41.5983 52.9575 41.1816 51.9086 41.1816C50.8598 41.1816 49.854 41.5983 49.1124 42.3399C48.3707 43.0815 47.9541 44.0874 47.9541 45.1362V49.0907H51.9086C52.9571 49.0896 53.9623 48.6726 54.7037 47.9312C55.445 47.1898 55.862 46.1846 55.8632 45.1362V45.1362Z" fill="#FA5B37"/>
<path d="M42.9999 113.222C43.1236 113.366 43.277 113.482 43.4496 113.562C43.6223 113.641 43.8101 113.682 44.0001 113.682C44.1902 113.682 44.378 113.641 44.5507 113.562C44.7233 113.482 44.8767 113.366 45.0004 113.222L52.5156 104.455H35.4854L42.9999 113.222Z" fill="#FA5B37"/>
</svg>
