<svg width="100" height="98" viewBox="0 0 100 98" fill="none" xmlns="http://www.w3.org/2000/svg">
<path d="M98.7388 94.7442H95.5894V49.7918C95.5899 49.5706 95.5293 49.3533 95.4137 49.1617C95.2982 48.9702 95.1318 48.8111 94.9313 48.7006C94.7308 48.5902 94.5033 48.5322 94.2719 48.5326C94.0405 48.5331 93.8133 48.5918 93.6132 48.703L89.6152 50.9196L87.9178 13.9516C87.8994 13.6296 87.7526 13.3266 87.5075 13.1049C87.2625 12.8832 86.9379 12.7595 86.6004 12.7594H74.3682C74.0292 12.7591 73.7032 12.8839 73.4581 13.1077C73.2131 13.3316 73.068 13.6372 73.0532 13.9608L70.8462 61.325L66.074 63.9597V49.7918C66.0745 49.5706 66.0139 49.3533 65.8983 49.1617C65.7828 48.9702 65.6163 48.8111 65.4158 48.7006C65.2154 48.5902 64.9879 48.5322 64.7565 48.5326C64.5251 48.5331 64.2978 48.5918 64.0978 48.703L59.1549 51.4433L57.4311 13.9516C57.4139 13.6296 57.2677 13.3263 57.023 13.1044C56.7782 12.8825 56.4535 12.759 56.1161 12.7594H43.8839C43.5449 12.7591 43.2189 12.8839 42.9738 13.1077C42.7288 13.3316 42.5837 13.6372 42.5689 13.9608L40.3691 61.8579L36.5585 63.9689V49.7918C36.559 49.5706 36.4984 49.3533 36.3829 49.1617C36.2673 48.9702 36.1009 48.8111 35.9004 48.7006C35.6999 48.5902 35.4725 48.5322 35.2411 48.5326C35.0096 48.5331 34.7824 48.5918 34.5824 48.703L28.6922 51.967L26.9469 13.9516C26.9296 13.6296 26.7834 13.3263 26.5387 13.1044C26.2939 12.8825 25.9692 12.759 25.6318 12.7594H13.3996C13.0606 12.7591 12.7346 12.8839 12.4896 13.1077C12.2445 13.3316 12.0994 13.6372 12.0846 13.9608L9.85113 62.4L5.06692 65.0554C4.86748 65.1656 4.70188 65.3241 4.58669 65.5147C4.4715 65.7054 4.41078 65.9217 4.4106 66.1418V94.7442H1.26119C0.921833 94.758 0.601189 94.8966 0.36619 95.1309C0.131191 95.3652 0 95.6772 0 96.0018C0 96.3263 0.131191 96.6383 0.36619 96.8726C0.601189 97.107 0.921833 97.2455 1.26119 97.2594H98.7388C99.0782 97.2455 99.3988 97.107 99.6338 96.8726C99.8688 96.6383 100 96.3263 100 96.0018C100 95.6772 99.8688 95.3652 99.6338 95.1309C99.3988 94.8966 99.0782 94.758 98.7388 94.7442ZM75.628 15.2678H85.3406L87.0452 52.346L73.5604 59.8182L75.628 15.2678ZM45.1437 15.2678H54.8563L56.5825 52.8674L43.0737 60.3534L45.1437 15.2678ZM14.6594 15.2678H24.372L26.1222 53.3981L12.563 60.9093L14.6594 15.2678ZM7.04311 66.8654L33.926 51.9739V66.1418C33.9255 66.363 33.9861 66.5803 34.1017 66.7719C34.2172 66.9634 34.3837 67.1225 34.5842 67.233C34.7846 67.3434 35.0121 67.4014 35.2435 67.401C35.4749 67.4005 35.7022 67.3418 35.9022 67.2306L42.1529 63.7621C42.2529 63.721 42.3473 63.6686 42.4342 63.6059L58.5875 54.6476H58.6092L63.4318 51.9739V66.1418C63.4314 66.363 63.4919 66.5803 63.6075 66.7719C63.7231 66.9634 63.8895 67.1225 64.09 67.233C64.2905 67.3434 64.5179 67.4014 64.7493 67.401C64.9808 67.4005 65.208 67.3418 65.408 67.2306L89.0526 54.1377H89.067L92.9473 51.9877V94.7579H7.04311V66.8654Z" fill="#FA5B37"/>
<path d="M31.6431 69.4955H14.1579C13.985 69.4955 13.8138 69.528 13.6541 69.5913C13.4944 69.6546 13.3494 69.7474 13.2272 69.8643C13.1051 69.9812 13.0082 70.12 12.9423 70.2727C12.8763 70.4254 12.8426 70.589 12.8429 70.7542V87.4603C12.8426 87.6254 12.8763 87.7891 12.9423 87.9418C13.0082 88.0945 13.1051 88.2333 13.2272 88.3502C13.3494 88.4671 13.4944 88.5599 13.6541 88.6231C13.8138 88.6864 13.985 88.719 14.1579 88.719H31.6431C31.9926 88.719 32.3277 88.5864 32.5747 88.3503C32.8218 88.1143 32.9606 87.7941 32.9606 87.4603V70.7634C32.9619 70.5973 32.9287 70.4327 32.8631 70.2789C32.7974 70.1251 32.7006 69.9853 32.5781 69.8674C32.4557 69.7495 32.31 69.656 32.1495 69.5922C31.9891 69.5283 31.817 69.4955 31.6431 69.4955ZM30.3281 77.8496H24.2168V72.0222H30.3281V77.8496ZM21.5843 72.0222V77.8611H15.4754V72.0222H21.5843ZM15.4754 80.374H21.5843V86.213H15.4754V80.374ZM24.2168 86.213V80.374H30.3281V86.213H24.2168Z" fill="#FA5B37"/>
<path d="M59.0522 69.4955H41.5646C41.3917 69.4955 41.2205 69.528 41.0608 69.5913C40.9011 69.6546 40.756 69.7474 40.6339 69.8643C40.5117 69.9812 40.4149 70.12 40.349 70.2727C40.283 70.4254 40.2493 70.589 40.2496 70.7542V87.4603C40.2493 87.6254 40.283 87.7891 40.349 87.9418C40.4149 88.0945 40.5117 88.2333 40.6339 88.3502C40.756 88.4671 40.9011 88.5599 41.0608 88.6231C41.2205 88.6864 41.3917 88.719 41.5646 88.719H59.0522C59.2251 88.719 59.3963 88.6864 59.556 88.6231C59.7157 88.5599 59.8608 88.4671 59.983 88.3502C60.1051 88.2333 60.2019 88.0945 60.2679 87.9418C60.3338 87.7891 60.3676 87.6254 60.3673 87.4603V70.7634C60.3689 70.5974 60.336 70.4328 60.2706 70.2791C60.2053 70.1253 60.1087 69.9854 59.9864 69.8675C59.8641 69.7496 59.7186 69.6561 59.5583 69.5922C59.3979 69.5283 59.2259 69.4955 59.0522 69.4955ZM57.7348 77.8496H51.6259V72.0222H57.7348V77.8496ZM48.9934 72.0222V77.8611H42.8821V72.0222H48.9934ZM42.8821 80.374H48.9934V86.213H42.8821V80.374ZM51.6259 86.213V80.374H57.7348V86.213H51.6259Z" fill="#FA5B37"/>
<path d="M86.4589 69.4955H68.9713C68.7984 69.4955 68.6272 69.528 68.4675 69.5913C68.3078 69.6546 68.1627 69.7474 68.0406 69.8643C67.9184 69.9812 67.8216 70.12 67.7557 70.2727C67.6897 70.4254 67.6559 70.589 67.6562 70.7542V87.4603C67.6559 87.6254 67.6897 87.7891 67.7557 87.9418C67.8216 88.0945 67.9184 88.2333 68.0406 88.3502C68.1627 88.4671 68.3078 88.5599 68.4675 88.6231C68.6272 88.6864 68.7984 88.719 68.9713 88.719H86.4589C86.6318 88.719 86.803 88.6864 86.9627 88.6231C87.1224 88.5599 87.2675 88.4671 87.3896 88.3502C87.5118 88.2333 87.6086 88.0945 87.6746 87.9418C87.7405 87.7891 87.7743 87.6254 87.774 87.4603V70.7634C87.7756 70.5974 87.7427 70.4328 87.6773 70.2791C87.612 70.1253 87.5153 69.9854 87.3931 69.8675C87.2708 69.7496 87.1253 69.6561 86.965 69.5922C86.8046 69.5283 86.6326 69.4955 86.4589 69.4955ZM85.1414 77.8496H79.0326V72.0222H85.1414V77.8496ZM76.4001 72.0222V77.8611H70.2888V72.0222H76.4001ZM70.2888 80.374H76.4001V86.213H70.2888V80.374ZM79.0326 86.213V80.374H85.1414V86.213H79.0326Z" fill="#FA5B37"/>
<path d="M79.9603 10.7794C80.2981 10.8565 80.6541 10.8033 80.9511 10.6313C81.2481 10.4593 81.4622 10.1824 81.547 9.86058C81.6119 9.6125 82.2682 7.44869 85.5306 7.44869C89.834 7.44869 92.0073 4.1915 92.5555 2.47102C92.6061 2.31326 92.6238 2.1475 92.6074 1.98322C92.591 1.81894 92.541 1.65935 92.46 1.51356C92.3791 1.36777 92.2689 1.23864 92.1358 1.13353C92.0026 1.02843 91.8491 0.949415 91.684 0.901C91.5189 0.852585 91.3454 0.835719 91.1734 0.851362C91.0015 0.867006 90.8345 0.914855 90.6819 0.992176C90.5293 1.0695 90.3941 1.17478 90.2841 1.302C90.1741 1.42923 90.0914 1.57591 90.0407 1.73367C89.9975 1.86461 88.9349 4.93574 85.5306 4.93574C81.1671 4.93574 79.34 7.78636 78.9818 9.30011C78.9103 9.61993 78.9727 9.95378 79.1556 10.2302C79.3384 10.5067 79.6273 10.7038 79.9603 10.7794Z" fill="#FA5B37"/>
<path d="M49.6933 10.7794C50.0311 10.8565 50.3872 10.8033 50.6842 10.6313C50.9812 10.4593 51.1953 10.1824 51.2801 9.86058C51.345 9.6125 52.0013 7.44869 55.2637 7.44869C59.5671 7.44869 61.7404 4.1915 62.2886 2.47102C62.3392 2.31326 62.3569 2.1475 62.3405 1.98322C62.3241 1.81894 62.2741 1.65935 62.1931 1.51356C62.1122 1.36777 62.002 1.23864 61.8689 1.13353C61.7357 1.02843 61.5822 0.949415 61.4171 0.901C61.2519 0.852585 61.0785 0.835719 60.9065 0.851362C60.7346 0.867006 60.5675 0.914855 60.415 0.992176C60.1068 1.14833 59.8762 1.41506 59.7738 1.73367C59.7306 1.86461 58.6679 4.93574 55.2637 4.93574C50.9002 4.93574 49.0731 7.78636 48.7149 9.30011C48.6434 9.61993 48.7058 9.95378 48.8886 10.2302C49.0715 10.5067 49.3603 10.7038 49.6933 10.7794Z" fill="#FA5B37"/>
<path d="M19.4297 10.7794C19.7675 10.8565 20.1235 10.8033 20.4205 10.6313C20.7175 10.4593 20.9316 10.1824 21.0164 9.86058C21.0813 9.6125 21.7376 7.44869 25 7.44869C29.301 7.44869 31.4767 4.1915 32.0249 2.47102C32.0756 2.31326 32.0932 2.1475 32.0768 1.98322C32.0605 1.81894 32.0104 1.65935 31.9295 1.51356C31.8485 1.36777 31.7383 1.23864 31.6052 1.13353C31.472 1.02843 31.3185 0.949415 31.1534 0.901C30.9883 0.852585 30.8148 0.835719 30.6428 0.851362C30.4709 0.867006 30.3039 0.914855 30.1513 0.992176C29.8431 1.14833 29.6125 1.41506 29.5102 1.73367C29.4669 1.86461 28.4043 4.93574 25 4.93574C20.6365 4.93574 18.8094 7.78636 18.4512 9.30011C18.3797 9.61993 18.4421 9.95378 18.625 10.2302C18.8078 10.5067 19.0966 10.7038 19.4297 10.7794Z" fill="#FA5B37"/>
</svg>
