<svg width="94" height="89" viewBox="0 0 94 89" fill="none" xmlns="http://www.w3.org/2000/svg">
<path d="M92.7771 75.2025C92.8653 75.0378 92.9393 74.8767 92.9937 74.6983C93.0458 74.529 93.0733 74.3608 93.093 74.1817C93.1146 73.9868 93.1181 73.7989 93.0984 73.6003C93.0897 73.5114 93.1181 73.4277 93.1008 73.3382L86.0583 37.2069C86.0327 37.0771 85.9547 36.9766 85.9132 36.8547C85.8728 36.7345 85.8754 36.6094 85.8179 36.4924C85.7888 36.4333 85.7345 36.3984 85.7019 36.3424C85.5972 36.16 85.4665 36.01 85.3268 35.8572C85.2143 35.7347 85.1117 35.6112 84.9815 35.5111C84.8239 35.3893 84.6507 35.3058 84.4704 35.2188C84.3136 35.143 84.1659 35.066 83.9983 35.0192C83.8295 34.9725 83.6572 34.9625 83.4786 34.9474C83.2715 34.9285 83.072 34.9167 82.8626 34.9437C82.7995 34.9518 82.7415 34.9304 82.6778 34.9425C82.5513 34.9667 82.4541 35.043 82.3351 35.0823C82.2109 35.1234 82.0811 35.1211 81.9605 35.1807L71.3741 40.3076C73.0646 36.9671 74.4447 32.817 74.4447 28.0917C74.4447 13.1491 62.2189 0.984396 47.1648 0.90625C47.1272 0.90625 47.0972 0.90625 47.0671 0.90625C47.0371 0.90625 47.007 0.90625 46.9695 0.90625C31.9116 0.984396 19.6858 13.1491 19.6858 28.0917C19.6858 32.7728 21.0424 36.8901 22.7136 40.2166L9.50702 46.6123C9.45209 46.639 9.41969 46.6888 9.36734 46.7183C9.16851 46.829 9.00113 46.9684 8.83469 47.1228C8.72225 47.2272 8.61004 47.323 8.51684 47.4421C8.39782 47.5945 8.31355 47.7635 8.22669 47.9405C8.14335 48.1089 8.06612 48.2708 8.01729 48.4517C7.99945 48.5185 7.95414 48.5697 7.94076 48.6385L0.898244 84.7698C0.880638 84.8607 0.909277 84.9459 0.900592 85.0363C0.880872 85.2308 0.884628 85.4185 0.905991 85.6159C0.927353 85.8085 0.963035 85.9878 1.02219 86.1692C1.0506 86.2581 1.04074 86.3495 1.07853 86.4369C1.12713 86.549 1.206 86.6351 1.26657 86.7376C1.32009 86.8283 1.36751 86.9162 1.43066 87.0004C1.61071 87.2412 1.81823 87.4502 2.05697 87.6198C2.08773 87.6419 2.10932 87.6721 2.14101 87.6928C2.42694 87.8798 2.74691 87.9987 3.08002 88.0754C3.11711 88.084 3.14434 88.1098 3.1819 88.117C3.36594 88.1517 3.54647 88.1677 3.72323 88.1682C3.72558 88.1682 3.72793 88.1691 3.73028 88.1691C3.73075 88.1691 3.73098 88.1689 3.73145 88.1689C3.73239 88.1689 3.73309 88.1691 3.73403 88.1691C4.10423 88.1691 4.45706 88.0856 4.78924 87.9545C4.81529 87.9445 4.84252 87.9494 4.86835 87.9384L30.7566 76.9461L62.3841 88.0054C62.406 88.0131 62.4278 88.0096 62.4496 88.0166C62.7379 88.1103 63.0377 88.1691 63.3457 88.1691C63.6997 88.1691 64.0391 88.0856 64.3638 87.9628C64.4032 87.9482 64.4445 87.9549 64.4837 87.9384L91.4068 76.5068C91.4934 76.4701 91.5488 76.398 91.6298 76.354C91.8017 76.261 91.9524 76.1558 92.0993 76.0326C92.2421 75.913 92.3705 75.7928 92.4855 75.6507C92.6003 75.5095 92.6909 75.3628 92.7771 75.2025ZM13.332 51.1213L25.7165 45.1238L30.9578 52.1862L28.9686 71.4845L7.5938 80.5604L13.332 51.1213ZM32.8194 71.6066L34.3502 56.7573L44.6933 70.6942C45.2379 71.4273 46.1995 71.859 47.1159 71.859C48.0324 71.859 48.8963 71.4255 49.4409 70.6942L58.6307 58.3086L61.0176 81.4667L32.8194 71.6066ZM64.8892 81.5453L62.0228 53.7366L64.9631 49.7737L81.1085 41.9545L86.9959 72.159L64.8892 81.5453ZM47.0671 6.62206C58.9887 6.64811 68.6754 16.2694 68.6754 28.0917C68.6754 33.6717 66.1664 38.3791 64.0405 41.3691C64.033 41.3784 64.0255 41.3858 64.018 41.3951L47.0671 64.2416L30.1763 41.4807C30.1651 41.4677 30.1576 41.4547 30.1463 41.4416C28.0054 38.4535 25.455 33.7126 25.455 28.0917C25.455 16.2694 35.1455 6.64811 47.0671 6.62206Z" fill="#FA5B37"/>
<path d="M47.1165 40.1452C53.8135 40.1452 59.2634 34.7383 59.2634 28.0921C59.2634 21.446 53.8135 16.0391 47.1165 16.0391C40.4158 16.0391 34.9658 21.446 34.9658 28.0921C34.9658 34.7383 40.4158 40.1452 47.1165 40.1452ZM47.1165 19.8496C51.6951 19.8496 55.4173 23.5466 55.4173 28.0921C55.4173 32.6376 51.6951 36.3347 47.1165 36.3347C42.5379 36.3347 38.812 32.6376 38.812 28.0921C38.812 23.5466 42.5379 19.8496 47.1165 19.8496Z" fill="#FA5B37"/>
</svg>
