<svg width="94" height="94" viewBox="0 0 94 94" fill="none" xmlns="http://www.w3.org/2000/svg">
<path d="M19.6088 21.369C25.0117 21.369 29.3915 17.0331 29.3915 11.6845C29.3915 6.33589 25.0117 2 19.6088 2C14.206 2 9.82617 6.33589 9.82617 11.6845C9.82617 17.0331 14.206 21.369 19.6088 21.369Z" stroke="#FA5B37" stroke-width="4" stroke-linecap="round" stroke-linejoin="round"/>
<path d="M47 52.3594H90.0438" stroke="#FA5B37" stroke-width="4" stroke-linecap="round" stroke-linejoin="round"/>
<path d="M92.0004 23.3066L85.1095 42.0597C84.8356 42.8071 84.3361 43.4529 83.6788 43.9096C83.0215 44.3663 82.2381 44.6117 81.4351 44.6126H62.6523" stroke="#FA5B37" stroke-width="4" stroke-linecap="round" stroke-linejoin="round"/>
<path d="M64.6094 52.3594V91.0974" stroke="#FA5B37" stroke-width="4" stroke-linecap="round" stroke-linejoin="round"/>
<path d="M7.8696 69.791L2 91.097" stroke="#FA5B37" stroke-width="4" stroke-linecap="round" stroke-linejoin="round"/>
<path d="M2 32.9902L7.8696 69.7913H19.6088" stroke="#FA5B37" stroke-width="4" stroke-linecap="round" stroke-linejoin="round"/>
<path d="M48.4863 91.0973C47.3364 91.098 46.2116 90.7643 45.2515 90.1376C44.2915 89.5109 43.5386 88.6188 43.0863 87.5722L36.8254 73.3127C36.373 72.268 35.621 71.3775 34.6626 70.7516C33.7042 70.1258 32.5814 69.7919 31.4332 69.7914H19.6079C18.0512 69.7914 16.5582 69.1792 15.4574 68.0895C14.3567 66.9997 13.7383 65.5218 13.7383 63.9807V32.9902C13.7383 31.8029 14.1058 30.6441 14.7912 29.6697C15.4765 28.6954 16.447 27.9523 17.5719 27.5405C18.6967 27.1286 19.9221 27.0678 21.0829 27.3662C22.2438 27.6645 23.2845 28.3078 24.0649 29.2094L31.1084 37.3444C32.0276 38.406 33.1681 39.2579 34.4515 39.8417C35.7349 40.4255 37.1308 40.7272 38.5432 40.7262H48.9559C50.5126 40.7262 52.0056 41.3384 53.1063 42.4281C54.2071 43.5178 54.8255 44.9958 54.8255 46.5369C54.8255 48.078 54.2071 49.556 53.1063 50.6457C52.0056 51.7354 50.5126 52.3476 48.9559 52.3476H38.5471C33.8243 52.3539 29.231 50.8195 25.4775 47.9818V58.17H31.4332C34.8804 58.1709 38.2515 59.1735 41.1284 61.0535C44.0054 62.9334 46.2617 65.6079 47.6176 68.7455L53.8785 83.0049C54.2595 83.8882 54.4133 84.8512 54.3263 85.8077C54.2393 86.7642 53.9142 87.6845 53.38 88.4862C52.8458 89.2879 52.1192 89.946 51.2652 90.4017C50.4112 90.8573 49.4565 91.0963 48.4863 91.0973V91.0973Z" stroke="#FA5B37" stroke-width="4" stroke-linecap="round" stroke-linejoin="round"/>
</svg>
