<svg width="88" height="88" viewBox="0 0 88 88" fill="none" xmlns="http://www.w3.org/2000/svg">
<path d="M18.1488 28.0842C23.3051 28.0842 27.5332 23.8904 27.5332 18.6998C27.5332 13.5092 23.3395 9.31543 18.1488 9.31543C12.9582 9.31543 8.79883 13.5436 8.79883 18.6998C8.79883 23.8561 12.9926 28.0842 18.1488 28.0842ZM18.1488 12.8904C21.3457 12.8904 23.9926 15.5029 23.9926 18.7342C23.9926 21.9654 21.3801 24.5779 18.1488 24.5779C14.9176 24.5779 12.3051 21.9654 12.3051 18.7342C12.3051 15.5029 14.952 12.8904 18.1488 12.8904Z" fill="#FA5B37"/>
<path d="M29.2523 38.9466C28.2898 38.8779 27.4305 39.6341 27.3617 40.5966L25.918 61.1873C25.918 61.256 25.8836 61.2904 25.8836 61.3591L24.5773 81.3998C24.543 82.156 23.8898 82.7748 23.1336 82.7748H13.1648C12.4086 82.7748 11.7555 82.1904 11.7211 81.3998L10.4148 61.3591C10.3805 60.6373 9.86484 59.9841 9.17734 59.7779C8.79922 59.6748 7.69922 59.331 7.52734 59.1591C7.38984 58.9529 7.32109 57.8529 7.28672 57.3029L6.08359 36.0591V36.0248C8.31797 35.3716 10.518 34.6498 12.7523 33.9279C13.7492 35.0966 14.7461 36.231 15.7773 37.3998L16.843 38.6029C17.1867 38.981 17.668 39.2216 18.1836 39.2216C18.6992 39.2216 19.1805 39.0154 19.5242 38.6029L20.7617 37.1935C21.7586 36.0591 22.6867 34.9935 23.6148 33.8935L39.0148 37.3654C39.2555 37.4341 39.5305 37.4341 39.7711 37.3654L53.6586 34.5123C54.6211 34.306 55.2399 33.3779 55.0336 32.4154C54.8274 31.4529 53.8992 30.8341 52.9367 31.0404L39.4273 33.8248L24.2336 30.3873C24.1648 30.3529 24.0617 30.3529 23.993 30.3529C23.5461 30.3185 22.0336 30.2841 21.1055 31.3841C20.143 32.5185 19.1805 33.6185 18.1836 34.7529C17.1867 33.6185 16.2242 32.5185 15.2617 31.3841C14.368 30.3529 13.2336 30.0091 11.9961 30.4216C9.62422 31.2123 7.25234 31.9685 4.88047 32.6904C3.36797 33.1716 2.54297 34.306 2.54297 35.8529C2.54297 35.956 2.54297 36.231 2.54297 36.2654L3.71172 57.2341L3.74609 57.5779C3.95234 60.6373 4.39922 61.806 6.97734 62.8029L8.21484 81.6748C8.38672 84.2873 10.5867 86.3498 13.1992 86.3498H23.168C25.7805 86.3498 27.9805 84.2873 28.1523 81.6748L29.4586 61.806C29.4586 61.7373 29.4586 61.7029 29.493 61.6341L30.9367 40.8716C30.9367 39.8748 30.2148 39.0154 29.2523 38.9466Z" fill="#FA5B37"/>
<path d="M83.702 1.6499H18.1488C17.1863 1.6499 16.3613 2.44053 16.3613 3.4374C16.3613 4.43428 17.152 5.2249 18.1488 5.2249H81.9145V51.2874H34.8895C33.927 51.2874 33.102 52.078 33.102 53.0749C33.102 54.0374 33.8926 54.8624 34.8895 54.8624H83.702C84.6645 54.8624 85.4895 54.0718 85.4895 53.0749V3.4374C85.4895 2.4749 84.6988 1.6499 83.702 1.6499Z" fill="#FA5B37"/>
</svg>
