<svg width="76" height="58" viewBox="0 0 76 58" fill="none" xmlns="http://www.w3.org/2000/svg">
<path d="M74.7188 8.37501L71.75 5.40625L44.25 32.9063C40.8125 36.3438 35.0312 36.3438 31.5938 32.9063L4.09375 5.56251L1.125 8.53125L21.5937 29L1.125 49.4688L4.09375 52.4375L24.5625 31.9687L28.625 36.0313C31.125 38.5313 34.4062 39.9375 37.8438 39.9375C41.2812 39.9375 44.5625 38.5313 47.0625 36.0313L51.125 31.9687L71.5938 52.4375L74.5625 49.4688L54.0937 29L74.7188 8.37501Z" fill="#FA5B37"/>
<path d="M68.9375 57.75H7.21876C3.62501 57.75 0.65625 54.7812 0.65625 51.1875V7.125C0.65625 3.53125 3.62501 0.5625 7.21876 0.5625H68.9375C72.5312 0.5625 75.5 3.53125 75.5 7.125V51.1875C75.5 54.7812 72.5312 57.75 68.9375 57.75ZM7.0625 4.78125C5.8125 4.78125 4.87501 5.71874 4.87501 6.96874V51.0313C4.87501 52.2813 5.8125 53.2188 7.0625 53.2188H68.7812C70.0312 53.2188 70.9688 52.2813 70.9688 51.0313V6.96874C70.9688 5.71874 70.0312 4.78125 68.7812 4.78125H7.0625Z" fill="#FA5B37"/>
</svg>
