<svg width="33" height="52" viewBox="0 0 33 52" fill="none" xmlns="http://www.w3.org/2000/svg">
<path d="M31.9888 24.3136L1.80134 0.735455C1.72246 0.673354 1.62767 0.634761 1.52784 0.624108C1.42801 0.613454 1.32721 0.631173 1.237 0.675229C1.14679 0.719285 1.07083 0.787892 1.01786 0.87317C0.96488 0.958448 0.93703 1.05694 0.937506 1.15733V6.33367C0.937506 6.6618 1.09152 6.97653 1.34599 7.17742L25.4531 26.0011L1.34599 44.8247C1.08483 45.0256 0.937506 45.3404 0.937506 45.6685V50.8448C0.937506 51.2935 1.45313 51.5413 1.80134 51.2667L31.9888 27.6886C32.2454 27.4884 32.453 27.2324 32.5957 26.94C32.7385 26.6476 32.8127 26.3265 32.8127 26.0011C32.8127 25.6757 32.7385 25.3546 32.5957 25.0621C32.453 24.7697 32.2454 24.5137 31.9888 24.3136Z" fill="white" fill-opacity="0.85"/>
</svg>
