<svg width="27" height="42" viewBox="0 0 27 42" fill="none" xmlns="http://www.w3.org/2000/svg">
<path d="M26.3585 5.26582V1.12475C26.3585 0.765822 25.946 0.567608 25.6674 0.78725L1.5174 19.6498C1.31222 19.8093 1.14619 20.0136 1.03198 20.2471C0.917768 20.4806 0.858398 20.7371 0.858398 20.9971C0.858398 21.257 0.917768 21.5135 1.03198 21.747C1.14619 21.9805 1.31222 22.1848 1.5174 22.3444L25.6674 41.2069C25.9513 41.4265 26.3585 41.2283 26.3585 40.8694V36.7283C26.3585 36.4658 26.2353 36.214 26.0317 36.0533L6.74598 20.9998L26.0317 5.94082C26.2353 5.78011 26.3585 5.52832 26.3585 5.26582V5.26582Z" fill="#E4E3E3"/>
</svg>
