<svg width="19" height="31" viewBox="0 0 19 31" fill="none" xmlns="http://www.w3.org/2000/svg">
<path d="M0.589841 16.4831L18.1992 30.237C18.2452 30.2732 18.3005 30.2957 18.3588 30.302C18.417 30.3082 18.4758 30.2978 18.5284 30.2721C18.581 30.2464 18.6253 30.2064 18.6563 30.1567C18.6872 30.1069 18.7034 30.0495 18.7031 29.9909L18.7031 26.9714C18.7031 26.78 18.6133 26.5964 18.4648 26.4792L4.40234 15.4987L18.4648 4.51825C18.6172 4.40106 18.7031 4.21747 18.7031 4.02606L18.7031 1.00653C18.7031 0.744812 18.4023 0.600281 18.1992 0.760437L0.589841 14.5143C0.440172 14.6311 0.319097 14.7804 0.23582 14.951C0.152544 15.1216 0.109258 15.3089 0.109258 15.4987C0.109258 15.6885 0.152544 15.8759 0.23582 16.0464C0.319097 16.217 0.440172 16.3663 0.589841 16.4831Z" fill="#FA5B37"/>
</svg>
