<svg width="32" height="32" viewBox="0 0 32 32" fill="none" xmlns="http://www.w3.org/2000/svg">
<path d="M31.0002 18.0001C30.6729 15.1076 29.2818 12.4401 27.0973 10.5162C24.9128 8.59225 22.0909 7.54931 19.1802 7.59011H4.00022L7.25022 3.00011C7.32804 2.89169 7.38337 2.7688 7.41295 2.63867C7.44254 2.50854 7.44578 2.3738 7.42248 2.2424C7.39918 2.111 7.34982 1.98559 7.2773 1.87356C7.20478 1.76154 7.11057 1.66516 7.00022 1.59011C6.78385 1.43828 6.51616 1.3783 6.25569 1.42328C5.99522 1.46825 5.76315 1.61452 5.61022 1.83011L1.15022 8.08011C1.04737 8.22655 0.992188 8.40115 0.992188 8.58011C0.992188 8.75906 1.04737 8.93366 1.15022 9.08011L5.62022 15.3401C5.78222 15.5268 6.00761 15.6468 6.25291 15.6771C6.49821 15.7074 6.74604 15.6458 6.94858 15.5041C7.15112 15.3625 7.29402 15.1508 7.34972 14.91C7.40543 14.6692 7.36998 14.4163 7.25022 14.2001L4.00022 9.59011H19.1802C21.6308 9.55741 24.0034 10.4507 25.8239 12.0914C27.6445 13.7321 28.7788 15.9994 29.0002 18.4401C29.0878 19.7392 28.9078 21.0425 28.4711 22.2692C28.0345 23.4959 27.3506 24.6198 26.4618 25.5714C25.5731 26.523 24.4984 27.2819 23.3043 27.8012C22.1103 28.3204 20.8223 28.589 19.5202 28.5901H2.00022C1.735 28.5901 1.48065 28.6955 1.29311 28.883C1.10558 29.0705 1.00022 29.3249 1.00022 29.5901C1.00022 29.8553 1.10558 30.1097 1.29311 30.2972C1.48065 30.4848 1.735 30.5901 2.00022 30.5901H19.5002C21.1062 30.5958 22.6957 30.2653 24.1663 29.62C25.6369 28.9746 26.9562 28.0286 28.0394 26.8428C29.1225 25.657 29.9455 24.2576 30.4554 22.7347C30.9653 21.2118 31.1509 19.599 31.0002 18.0001Z" fill="#FA5B37"/>
<path d="M5.60018 15.77L1.13018 9.51005C1.0313 9.36205 0.978516 9.18805 0.978516 9.01005C0.978516 8.83205 1.0313 8.65805 1.13018 8.51005L5.60018 2.23005C5.67673 2.12268 5.77376 2.0315 5.88568 1.96178C5.9976 1.89205 6.12221 1.84515 6.25233 1.82377C6.38245 1.8024 6.51552 1.80697 6.64386 1.83722C6.77221 1.86747 6.89331 1.92281 7.00018 2.00005C7.10756 2.07659 7.19873 2.17362 7.26845 2.28554C7.33818 2.39747 7.38508 2.52208 7.40646 2.6522C7.42783 2.78232 7.42326 2.91538 7.39301 3.04373C7.36276 3.17207 7.30742 3.29317 7.23018 3.40005L3.23018 9.00005L7.23018 14.6C7.30742 14.7069 7.36276 14.828 7.39301 14.9564C7.42326 15.0847 7.42783 15.2178 7.40646 15.3479C7.38508 15.478 7.33818 15.6026 7.26845 15.7146C7.19873 15.8265 7.10756 15.9235 7.00018 16C6.89331 16.0773 6.77221 16.1326 6.64386 16.1629C6.51552 16.1931 6.38245 16.1977 6.25233 16.1763C6.12221 16.1549 5.9976 16.108 5.88568 16.0383C5.77376 15.9686 5.67673 15.8774 5.60018 15.77Z" fill="#FA5B37"/>
<path d="M19.16 8.00017H2C1.73478 8.00017 1.48043 8.10552 1.29289 8.29306C1.10536 8.4806 1 8.73495 1 9.00017C1 9.26538 1.10536 9.51974 1.29289 9.70727C1.48043 9.89481 1.73478 10.0002 2 10.0002H19.16C21.614 9.96239 23.9916 10.8534 25.8164 12.4946C27.6412 14.1358 28.7783 16.4059 29 18.8502C29.0877 20.151 28.9071 21.4559 28.4692 22.684C28.0314 23.912 27.3457 25.0369 26.4548 25.9888C25.5639 26.9406 24.4868 27.6992 23.2903 28.2172C22.0939 28.7352 20.8038 29.0018 19.5 29.0002H2C1.73478 29.0002 1.48043 29.1055 1.29289 29.2931C1.10536 29.4806 1 29.735 1 30.0002C1 30.2654 1.10536 30.5197 1.29289 30.7073C1.48043 30.8948 1.73478 31.0002 2 31.0002H19.5C21.1079 31.0061 22.6991 30.6752 24.1713 30.0286C25.6434 29.382 26.9637 28.4341 28.0472 27.2461C29.1306 26.0581 29.9531 24.6563 30.4617 23.1309C30.9703 21.6056 31.1537 19.9907 31 18.3902C30.6699 15.4969 29.2746 12.8301 27.0858 10.9094C24.8971 8.98869 22.0716 7.95159 19.16 8.00017Z" fill="#FA5B37"/>
</svg>
