<svg width="7" height="12" viewBox="0 0 7 12" fill="none" xmlns="http://www.w3.org/2000/svg">
<path d="M6.83986 2.06646V1.03119C6.83986 0.941456 6.73674 0.891902 6.6671 0.946813L0.629595 5.66244C0.578298 5.70233 0.536791 5.75341 0.508238 5.81179C0.479686 5.87016 0.464844 5.93429 0.464844 5.99927C0.464844 6.06425 0.479686 6.12838 0.508238 6.18675C0.536791 6.24512 0.578298 6.29621 0.629595 6.3361L6.6671 11.0517C6.73808 11.1066 6.83986 11.0571 6.83986 10.9673V9.93208C6.83986 9.86646 6.80906 9.80351 6.75817 9.76333L1.93674 5.99994L6.75817 2.23521C6.80906 2.19503 6.83986 2.13208 6.83986 2.06646Z" fill="black"/>
</svg>
