<svg width="50" height="68" viewBox="0 0 50 68" fill="none" xmlns="http://www.w3.org/2000/svg">
<path d="M49.0545 58.5781V44.2823C49.0545 39.4444 46.1259 34.9646 41.2592 31.9461C43.4464 28.7157 44.7268 24.818 44.7268 20.6233C44.7268 9.49213 35.7217 0.435547 24.6541 0.435547C13.5912 0.435547 4.59087 9.49213 4.59087 20.6233C4.59087 24.8719 5.90846 28.8115 8.14595 32.0683C3.40146 35.0868 0.545898 39.5222 0.545898 44.2823V58.5793H4.61842V44.2823C4.61842 40.7919 6.94576 37.4692 10.8051 35.1934C13.4283 37.7195 16.721 39.5378 20.3947 40.3427L16.2215 60.6934L24.8014 67.5568L33.3812 60.6934L29.1338 40.284C32.7692 39.4468 36.0308 37.6213 38.618 35.0952C42.5863 37.371 44.982 40.7284 44.982 44.2823V58.5793H49.0545V58.5781ZM24.8014 62.3428L20.7121 59.0728L24.1438 42.3359H25.4003L28.8847 59.0752L24.8014 62.3428ZM24.6541 36.7373C15.837 36.7373 8.6622 29.5086 8.6622 20.6233C8.6622 11.7356 15.8358 4.50927 24.6541 4.50927C33.4759 4.50927 40.6531 11.7356 40.6531 20.6233C40.6531 29.5086 33.4759 36.7373 24.6541 36.7373Z" fill="#FA5B37"/>
</svg>
