<svg width="95" height="95" viewBox="0 0 95 95" fill="none" xmlns="http://www.w3.org/2000/svg">
<path d="M58.5051 26.5999H16.7051V30.3999H58.5051V26.5999Z" fill="#FA5B37"/>
<path d="M58.5051 38H16.7051V41.8H58.5051V38Z" fill="#FA5B37"/>
<path d="M49.0051 49.3999H16.7051V53.1999H49.0051V49.3999Z" fill="#FA5B37"/>
<path d="M39.5051 60.7998H16.7051V64.5998H39.5051V60.7998Z" fill="#FA5B37"/>
<path d="M39.5051 72.2H16.7051V76H39.5051V72.2Z" fill="#FA5B37"/>
<path d="M73.7059 35.3133V16.3133L59.2925 1.8999H1.50586V93.0999H73.7059V59.6865L93.4925 39.8999L81.3059 27.7133L73.7059 35.3133ZM71.8059 42.5865L78.6193 49.3999L55.8193 72.1999H49.0059V65.3865L71.8059 42.5865ZM60.4059 8.3865L67.2193 15.1999H60.4059V8.3865ZM69.9059 89.2999H5.30586V5.6999H56.6059V18.9999H69.9059V39.1133L45.2059 63.8133V75.9999H57.3925L69.9059 63.4865V89.2999ZM81.3059 46.7133L74.4925 39.8999L81.3059 33.0865L88.1193 39.8999L81.3059 46.7133Z" fill="#FA5B37"/>
</svg>
