<svg width="64" height="54" viewBox="0 0 64 54" fill="none" xmlns="http://www.w3.org/2000/svg">
<path d="M42.3975 28.0033H21.6029V28.3742C21.6029 29.3679 21.1922 30.2755 20.543 30.9313L20.5364 30.9379C19.8806 31.5938 18.973 31.9979 17.9793 31.9979H15.6276C14.6339 31.9979 13.7263 31.5872 13.0705 30.9379L13.0639 30.9313C12.408 30.2755 12.0039 29.3679 12.0039 28.3742V28.0033H6.00207V50.0035C6.00207 50.5533 6.22731 51.0501 6.59166 51.4145C6.95601 51.7789 7.45286 52.0041 8.0027 52.0041H56.0044C56.5542 52.0041 57.051 51.7789 57.4154 51.4145C57.7797 51.0501 58.005 50.5533 58.005 50.0035V28.0033H52.0031V28.3742C52.0031 29.3679 51.5924 30.2755 50.9432 30.9313L50.9366 30.9379C50.2807 31.5938 49.3732 31.9979 48.3795 31.9979H46.0277C45.0341 31.9979 44.1265 31.5872 43.4707 30.9379L43.464 30.9313C42.8082 30.2755 42.4041 29.3679 42.4041 28.3742V28.0033H42.3975ZM16.9989 10.0043V4.1018C16.9989 2.97562 17.4626 1.94881 18.1979 1.20686C18.9399 0.464908 19.96 0.0078125 21.0929 0.0078125H42.9076C44.0337 0.0078125 45.0606 0.471533 45.8025 1.20686V1.21348C46.5445 1.95544 47.0016 2.97562 47.0016 4.1018V10.0043H62.9999H64.0002V11.0046V22.1869C64.0002 23.7834 63.3444 25.2408 62.2911 26.2941C61.6551 26.9301 60.8734 27.4203 59.999 27.7118V50.0035C59.999 51.1031 59.5485 52.1035 58.8264 52.8255C58.1043 53.5476 57.104 53.9981 56.0044 53.9981H8.0027C6.90302 53.9981 5.90271 53.5476 5.18063 52.8255C4.45855 52.1035 4.00808 51.1031 4.00808 50.0035V27.7118C3.13363 27.4203 2.35193 26.9301 1.71598 26.2941C0.662669 25.2408 0.00683594 23.7834 0.00683594 22.1869V11.0046V10.0043H1.00715H17.0055H16.9989ZM44.9943 10.0043V4.1018C44.9943 3.52546 44.7558 3.00212 44.3782 2.62452C44.0006 2.24692 43.4773 2.00843 42.9009 2.00843H21.0862C20.5099 2.00843 19.9865 2.24692 19.6089 2.62452C19.2313 3.00212 18.9929 3.52546 18.9929 4.1018V10.0043H44.9877H44.9943ZM51.9899 26.0026H58.1772H58.2236C59.2504 25.9894 60.1845 25.5588 60.8668 24.8831C61.5557 24.1941 61.9863 23.2336 61.9863 22.1869V12.0049H1.98758V22.1869C1.98758 23.2336 2.41818 24.1875 3.10714 24.8831C3.78947 25.5654 4.72353 25.9894 5.75034 26.0026H5.79671H11.9841V24.002V23.0017H12.9844H20.5828H21.5831V24.002V26.0026H42.3776V24.002V23.0017H43.3779H50.9763H51.9766V24.002V26.0026H51.9899ZM49.9892 25.0023H44.3915V28.3809C44.3915 28.8247 44.5703 29.2354 44.8618 29.5269L44.8684 29.5335C45.1599 29.825 45.5706 30.0039 46.0145 30.0039H48.3662C48.8101 30.0039 49.2208 29.825 49.5123 29.5335L49.5189 29.5269C49.8104 29.2354 49.9892 28.8247 49.9892 28.3809V25.0023ZM19.5957 25.0023H13.9979V28.3809C13.9979 28.8247 14.1768 29.2354 14.4683 29.5269L14.4749 29.5335C14.7664 29.825 15.1771 30.0039 15.621 30.0039H17.9727C18.4165 30.0039 18.8272 29.825 19.1187 29.5335L19.1254 29.5269C19.4168 29.2354 19.5957 28.8247 19.5957 28.3809V25.0023Z" fill="white"/>
</svg>
