<svg width="62" height="56" viewBox="0 0 62 56" fill="none" xmlns="http://www.w3.org/2000/svg">
<path d="M49.2544 25.1183V3.32391H13.7244C8.19565 3.32391 3.66571 7.85385 3.66571 13.3834V52.6758H49.2544V46.1064C44.0485 45.3595 40.1711 40.8816 40.1711 35.612C40.1711 30.3425 44.0493 25.8645 49.2544 25.1183ZM9.89529 46.2529C7.89834 46.2529 7.89834 43.2161 9.89529 43.2161H31.3872C33.3842 43.2161 33.3842 46.2529 31.3872 46.2529H9.89529ZM9.89529 39.759C7.89834 39.759 7.89834 36.7222 9.89529 36.7222H31.3872C33.3842 36.7222 33.3842 39.759 31.3872 39.759H9.89529ZM9.89529 33.265C7.89834 33.265 7.89834 30.2282 9.89529 30.2282H31.3872C33.3842 30.2282 33.3842 33.265 31.3872 33.265H9.89529ZM28.7408 17.1071C26.7438 17.1071 26.7438 14.071 28.7408 14.071H41.5741C43.5711 14.071 43.5711 17.1071 41.5741 17.1071H28.7408ZM28.7408 22.5187C26.7438 22.5187 26.7438 19.4826 28.7408 19.4826H41.5741C43.5711 19.4826 43.5711 22.5187 41.5741 22.5187H28.7408ZM11.346 10.8233H23.2522C24.09 10.8233 24.7703 11.5036 24.7703 12.3421V24.2476C24.7703 25.0861 24.09 25.7656 23.2522 25.7656H11.346C10.5075 25.7656 9.82792 25.0861 9.82792 24.2476V12.3421C9.82792 11.5036 10.5075 10.8233 11.346 10.8233ZM21.7335 13.8601H12.8647V22.7296H21.7335V13.8601ZM58.3384 35.612C58.3384 31.4336 54.9516 28.0467 50.7731 28.0467C46.5947 28.0467 43.2079 31.4336 43.2079 35.612C43.2079 39.7905 46.594 43.1773 50.7731 43.1773C54.9509 43.1773 58.3384 39.7897 58.3384 35.612ZM56.9603 44.2223L61.1533 52.284C62.0738 54.0547 59.3812 55.4548 58.4607 53.6842L54.2691 45.6239C53.6349 45.845 52.9737 46.0083 52.2912 46.1064V54.1938C52.2912 55.0323 51.6116 55.7126 50.7731 55.7126H2.14767C1.3092 55.7126 0.628906 55.0323 0.628906 54.1938V13.3834C0.628906 6.17764 6.51871 0.287109 13.7244 0.287109H50.7731C51.6116 0.287109 52.2912 0.967406 52.2912 1.80588V25.1183C57.497 25.8652 61.3752 30.3425 61.3752 35.612C61.3752 39.0391 59.732 42.2275 56.9603 44.2223Z" fill="#FA5B37"/>
</svg>
