<svg width="103" height="91" viewBox="0 0 103 91" fill="none" xmlns="http://www.w3.org/2000/svg">
<path d="M85.2344 64.0802C92.1594 64.0802 97.7724 58.4672 97.7724 51.5421C97.7724 44.6183 92.1594 39.0053 85.2344 39.0053C78.3564 39.0053 72.6975 44.5711 72.6975 51.5421C72.6975 58.5131 78.3564 64.0802 85.2344 64.0802ZM95.9147 65.6329L102.049 76.7832C103.674 79.7435 99.1738 82.2139 97.5492 79.2549L91.4191 68.1108C89.4943 68.8301 87.4096 69.2232 85.2344 69.2232C83.1323 69.2232 81.1158 68.8561 79.2456 68.1827V88.0564C79.2456 89.4764 78.0935 90.6285 76.6735 90.6285H22.7857C10.2861 90.6285 0.0683594 80.412 0.0683594 67.9123V2.94369C0.0683594 1.5237 1.22047 0.371582 2.64047 0.371582H49.9814C50.6659 0.380263 51.2749 0.625817 51.7585 1.08468L78.1369 22.6115C78.8066 23.0753 79.2456 23.8492 79.2456 24.7247V34.9028C81.1158 34.2294 83.1323 33.8623 85.2344 33.8623C94.9982 33.8623 102.915 41.7783 102.915 51.5421C102.915 57.0993 100.326 62.2832 95.9147 65.6329ZM74.1026 37.8073V27.2969H49.9814C48.5614 27.2969 47.4105 26.1447 47.4105 24.7247V5.51456H5.21133V67.9123C5.21133 77.572 13.1248 85.4855 22.7857 85.4855H74.1026V65.2782C69.9555 61.9136 67.5545 56.8959 67.5545 51.5421C67.5545 46.1896 69.9555 41.1718 74.1026 37.8073ZM14.2236 66.3274C10.8417 66.3274 10.8417 61.1844 14.2236 61.1844H60.5575C63.9394 61.1844 63.9394 66.3274 60.5575 66.3274H14.2236ZM14.2236 57.2618C10.8417 57.2618 10.8417 52.12 14.2236 52.12H60.5575C63.9394 52.12 63.9394 57.2618 60.5575 57.2618H14.2236ZM14.2236 48.1962C10.8417 48.1962 10.8417 43.0544 14.2236 43.0544H60.5575C63.9394 43.0544 63.9394 48.1962 60.5575 48.1962H14.2236ZM13.4684 11.9547H34.8724C36.2924 11.9547 37.4433 13.1056 37.4433 14.5256V35.9309C37.4433 37.3497 36.2924 38.5018 34.8724 38.5018H13.4684C12.0484 38.5018 10.8963 37.3497 10.8963 35.9309V14.5256C10.8963 13.1056 12.0484 11.9547 13.4684 11.9547ZM32.3015 17.0977H16.0392V33.3588H32.3015V17.0977ZM69.4693 22.1539L52.5522 8.34958V22.1539H69.4693Z" fill="#FA5B37"/>
</svg>
