<svg width="84" height="84" viewBox="0 0 84 84" fill="none" xmlns="http://www.w3.org/2000/svg">
<g clip-path="url(#clip0_793_1114)">
<path d="M34.1239 68.2498C27.0112 68.2465 20.0775 66.0198 14.2928 61.8813C8.50814 57.7427 4.16193 51.8993 1.86228 45.1687C-0.437382 38.438 -0.575439 31.1568 1.46742 24.3439C3.51028 17.5309 7.63185 11.5269 13.2555 7.17206C18.8791 2.81719 25.7234 0.329265 32.8309 0.0563738C39.9383 -0.216518 46.9532 1.73928 52.8942 5.65012C58.8352 9.56096 63.405 15.2312 65.9643 21.8675C68.5235 28.5038 68.9442 35.7741 67.1674 42.6613C66.9813 43.3218 66.5439 43.8833 65.949 44.2253C65.354 44.5673 64.6487 44.6628 63.9843 44.4912C63.3198 44.3196 62.749 43.8946 62.394 43.3072C62.0391 42.7198 61.9283 42.0168 62.0854 41.3488C62.6964 38.9895 63.0034 36.5618 62.9989 34.1248C62.9989 28.4138 61.3054 22.8311 58.1325 18.0827C54.9597 13.3342 50.4501 9.63322 45.1738 7.44774C39.8976 5.26225 34.0918 4.69043 28.4906 5.80458C22.8894 6.91873 17.7444 9.66881 13.7062 13.707C9.66791 17.7453 6.91783 22.8903 5.80368 28.4915C4.68954 34.0927 5.26136 39.8985 7.44684 45.1747C9.63232 50.451 13.3333 54.9606 18.0818 58.1334C22.8302 61.3063 28.4129 62.9998 34.1239 62.9998C40.0165 63.0192 45.7706 61.2137 50.5957 57.8311C53.4229 55.8903 55.869 53.4461 57.8119 50.6203C58.2056 50.0456 58.8114 49.6508 59.4962 49.5228C60.181 49.3948 60.8885 49.5441 61.4632 49.9378C62.0379 50.3315 62.4327 50.9373 62.5607 51.6221C62.6887 52.3069 62.5394 53.0144 62.1457 53.5891C59.8424 56.9368 56.9457 59.8345 53.5987 62.1388C47.8931 66.1364 41.0905 68.271 34.1239 68.2498Z" fill="#FA5B37"/>
<path d="M75.8056 84.0002C73.6339 83.9943 71.5522 83.1322 70.0122 81.6009L50.2486 61.8373C49.7704 61.3422 49.5058 60.6791 49.5118 59.9909C49.5178 59.3026 49.7939 58.6442 50.2806 58.1575C50.7673 57.6708 51.4256 57.3948 52.1139 57.3888C52.8022 57.3828 53.4653 57.6474 53.9603 58.1255L73.724 77.8892C74.2761 78.4412 75.0248 78.7514 75.8056 78.7514C76.5864 78.7514 77.3351 78.4412 77.8872 77.8892C78.4393 77.3371 78.7495 76.5883 78.7495 75.8075C78.7495 75.0268 78.4393 74.278 77.8872 73.7259L58.1236 53.9623C57.6454 53.4672 57.3808 52.8041 57.3868 52.1159C57.3928 51.4276 57.6689 50.7692 58.1556 50.2825C58.6423 49.7958 59.3006 49.5198 59.9889 49.5138C60.6772 49.5078 61.3403 49.7724 61.8353 50.2505L81.599 70.0142C82.7449 71.1599 83.5252 72.6198 83.8414 74.2091C84.1576 75.7984 83.9953 77.4457 83.3752 78.9428C82.7551 80.4399 81.7049 81.7194 80.3575 82.6197C79.0101 83.5199 77.426 84.0003 75.8056 84.0002Z" fill="#FA5B37"/>
<path d="M49.875 39.375H18.375C16.9826 39.375 15.6473 38.8219 14.6627 37.8373C13.6781 36.8527 13.125 35.5174 13.125 34.125V26.25C13.125 25.5538 13.4016 24.8861 13.8938 24.3938C14.3861 23.9016 15.0538 23.625 15.75 23.625H52.5C53.1962 23.625 53.8639 23.9016 54.3562 24.3938C54.8484 24.8861 55.125 25.5538 55.125 26.25V34.125C55.125 35.5174 54.5719 36.8527 53.5873 37.8373C52.6027 38.8219 51.2674 39.375 49.875 39.375ZM18.375 28.875V34.125H49.875V28.875H18.375Z" fill="#FA5B37"/>
<path d="M44.625 55.125H23.625C21.5364 55.125 19.5334 54.2953 18.0565 52.8185C16.5797 51.3416 15.75 49.3386 15.75 47.25V36.75C15.75 36.0538 16.0266 35.3861 16.5188 34.8938C17.0111 34.4016 17.6788 34.125 18.375 34.125H49.875C50.5712 34.125 51.2389 34.4016 51.7312 34.8938C52.2234 35.3861 52.5 36.0538 52.5 36.75V47.25C52.5 49.3386 51.6703 51.3416 50.1935 52.8185C48.7166 54.2953 46.7136 55.125 44.625 55.125ZM21 39.375V47.25C21 47.9462 21.2766 48.6139 21.7688 49.1062C22.2611 49.5984 22.9288 49.875 23.625 49.875H44.625C45.3212 49.875 45.9889 49.5984 46.4812 49.1062C46.9734 48.6139 47.25 47.9462 47.25 47.25V39.375H21Z" fill="#FA5B37"/>
<path d="M44.625 28.875H23.625C22.9288 28.875 22.2611 28.5984 21.7688 28.1062C21.2766 27.6139 21 26.9462 21 26.25V21C21 18.9114 21.8297 16.9084 23.3065 15.4315C24.7834 13.9547 26.7864 13.125 28.875 13.125H39.375C41.4636 13.125 43.4666 13.9547 44.9435 15.4315C46.4203 16.9084 47.25 18.9114 47.25 21V26.25C47.25 26.9462 46.9734 27.6139 46.4812 28.1062C45.9889 28.5984 45.3212 28.875 44.625 28.875ZM26.25 23.625H42V21C42 20.3038 41.7234 19.6361 41.2312 19.1438C40.7389 18.6516 40.0712 18.375 39.375 18.375H28.875C28.1788 18.375 27.5111 18.6516 27.0188 19.1438C26.5266 19.6361 26.25 20.3038 26.25 21V23.625Z" fill="#FA5B37"/>
</g>
<defs>
<clipPath id="clip0_793_1114">
<rect width="84" height="84" fill="white"/>
</clipPath>
</defs>
</svg>
