<svg width="79" height="95" viewBox="0 0 79 95" fill="none" xmlns="http://www.w3.org/2000/svg">
<path d="M2.4939 0.488281H76.4604C77.8378 0.488281 78.9543 1.53729 78.9543 2.83151V91.9061C78.9543 93.2003 77.8378 94.2493 76.4604 94.2493H2.4939C1.11646 94.2493 0 93.2003 0 91.9061V2.83151C0 1.53729 1.11646 0.488281 2.4939 0.488281ZM48.3967 72.8356C45.1162 72.8356 45.1162 68.1479 48.3967 68.1479H62.5917C65.8722 68.1479 65.8722 72.8356 62.5917 72.8356H48.3967ZM48.3967 82.8681C45.1162 82.8681 45.1162 78.1805 48.3967 78.1805H62.5917C65.8722 78.1805 65.8722 82.8681 62.5917 82.8681H48.3967ZM16.3626 65.7003H33.8127C35.1901 65.7003 36.3078 66.7504 36.3078 68.0446V82.9725C36.3078 84.2667 35.1901 85.3158 33.8127 85.3158H16.3626C14.9852 85.3158 13.8687 84.2667 13.8687 82.9725V68.0446C13.8687 66.7504 14.9852 65.7003 16.3626 65.7003ZM31.3176 70.3879H18.8577V80.6282H31.3176V70.3879ZM12.3886 59.866C9.10686 59.866 9.10686 55.1784 12.3886 55.1784H66.3011C69.5816 55.1784 69.5816 59.866 66.3011 59.866H12.3886ZM12.3886 50.0776C9.10686 50.0776 9.10686 45.39 12.3886 45.39H66.3011C69.5816 45.39 69.5816 50.0776 66.3011 50.0776H12.3886ZM50.4665 18.4508C47.1848 18.4508 47.1848 13.7632 50.4665 13.7632H63.7492C67.0297 13.7632 67.0297 18.4508 63.7492 18.4508H50.4665ZM50.4665 38.6384C47.1848 38.6384 47.1848 33.9509 50.4665 33.9509H63.7492C67.0297 33.9509 67.0297 38.6384 63.7492 38.6384H50.4665ZM50.4665 28.5446C47.1848 28.5446 47.1848 23.857 50.4665 23.857H63.7492C67.0297 23.857 67.0297 28.5446 63.7492 28.5446H50.4665ZM28.3307 11.9887C34.94 11.9887 40.2988 17.0237 40.2988 23.2337C40.2988 24.8073 39.9544 26.3058 39.3334 27.6659C42.278 30.4167 43.9502 34.162 43.9502 38.0697C43.9502 41.152 38.9612 41.152 38.9612 38.0697C38.9612 35.6515 38.0707 33.3707 36.3936 31.544C34.2658 33.3673 31.436 34.4788 28.3307 34.4788C25.2254 34.4788 22.3956 33.3673 20.269 31.544C18.5907 33.3707 17.7002 35.6526 17.7002 38.0697C17.7002 41.152 12.7112 41.152 12.7112 38.0697C12.7112 34.162 14.3834 30.4167 17.328 27.6659C16.707 26.3058 16.3626 24.8073 16.3626 23.2337C16.3626 17.0237 21.7214 11.9887 28.3307 11.9887ZM28.3307 16.6763C24.4763 16.6763 21.3516 19.6122 21.3516 23.2337C21.3516 26.8553 24.4763 29.7912 28.3307 29.7912C32.1851 29.7912 35.3098 26.8553 35.3098 23.2337C35.3098 19.6122 32.1851 16.6763 28.3307 16.6763ZM73.9653 5.17588H4.98901V89.5617H73.9653V5.17588Z" fill="#FA5B37"/>
</svg>
