<svg width="75" height="100" viewBox="0 0 75 100" fill="none" xmlns="http://www.w3.org/2000/svg">
<path d="M8.81811 48.441C9.35244 44.3741 11.0148 40.6412 13.4713 37.5762C16.2617 34.0881 20.0985 31.461 24.4845 30.1697L25.3603 29.9099L26.0133 30.5482C27.5199 32.0176 29.3158 33.205 31.3048 34.0065C33.212 34.7783 35.3123 35.2088 37.509 35.2088C39.7057 35.2088 41.7985 34.7783 43.7058 34.0065C45.6947 33.205 47.4907 32.0176 48.9972 30.5482L49.6503 29.9099L50.526 30.1697C54.9194 31.461 58.7488 34.0956 61.5393 37.5762C63.9957 40.6412 65.6581 44.3741 66.1924 48.441H68.5821C70.341 48.441 71.9514 49.1609 73.1091 50.326C74.2743 51.4912 74.9941 53.0942 74.9941 54.853V87.3956C74.9941 89.57 74.1036 91.5515 72.6713 92.9839C71.239 94.4162 69.2575 95.3067 67.083 95.3067H60.9085V96.8652H68.597V99.9896H6.25033V96.8652H14.0873V95.3067H7.90528C5.73083 95.3067 3.74934 94.4162 2.31702 92.9839C0.884701 91.5515 -0.00585938 89.57 -0.00585938 87.3956V54.853C-0.00585938 53.0942 0.71401 51.4837 1.87916 50.326C3.04431 49.1609 4.64732 48.441 6.40617 48.441H8.79584H8.81811ZM34.3772 70.3117H40.6259V73.4361H34.3772V70.3117ZM57.7841 95.3142H17.2191V96.8726H57.7841V95.3142ZM63.0384 48.441C62.5263 45.1088 61.1311 42.0512 59.1051 39.528C56.8787 36.7524 53.8953 34.6076 50.4741 33.4202C48.8265 34.8748 46.9341 36.0622 44.871 36.8934C42.5926 37.8211 40.099 38.3257 37.5016 38.3257C34.8967 38.3257 32.4105 37.8137 30.1322 36.8934C28.069 36.0548 26.1766 34.8748 24.5291 33.4202C21.1078 34.6002 18.1245 36.7524 15.8981 39.528C13.872 42.0512 12.4768 45.1088 11.9648 48.441H63.0458H63.0384ZM68.5747 51.5654H6.42844C5.51561 51.5654 4.69185 51.9365 4.09814 52.5302L4.09072 52.5376C3.49701 53.1313 3.12594 53.9551 3.12594 54.8679V87.4104C3.12594 88.724 3.6677 89.9188 4.52858 90.7871C5.39687 91.6554 6.59171 92.1898 7.90528 92.1898H67.083C68.3966 92.1898 69.5914 91.648 70.4597 90.7871C71.328 89.9188 71.8623 88.724 71.8623 87.4104V54.8679C71.8623 53.9551 71.4913 53.1313 70.8976 52.5376L70.8902 52.5302C70.2964 51.9365 69.4727 51.5654 68.5599 51.5654H68.5747ZM37.5016 0.00195312C41.702 0.00195312 45.5092 1.70886 48.2625 4.46218C51.0158 7.21549 52.7227 11.0226 52.7227 15.2231C52.7227 19.4236 51.0158 23.2233 48.2625 25.9766L48.2551 25.984C45.5018 28.7374 41.6946 30.4443 37.5016 30.4443C33.3085 30.4443 29.5014 28.7374 26.7481 25.984L26.7406 25.9766C23.9873 23.2233 22.2804 19.4162 22.2804 15.2231C22.2804 11.0301 23.9873 7.22291 26.7406 4.4696L26.7481 4.46218C29.5014 1.70886 33.3085 0.00195312 37.5016 0.00195312ZM46.0584 6.67373C43.8691 4.48444 40.8486 3.13376 37.5016 3.13376C34.1545 3.13376 31.1341 4.48444 28.9448 6.66631L28.9373 6.67373C26.7555 8.85561 25.4048 11.8835 25.4048 15.2305C25.4048 18.5776 26.7555 21.598 28.9373 23.7873L28.9448 23.7948C31.1266 25.9766 34.1545 27.3273 37.5016 27.3273C40.8412 27.3273 43.8691 25.9692 46.0584 23.7873C48.2402 21.598 49.5983 18.5701 49.5983 15.2305C49.5983 11.8909 48.2402 8.86303 46.0584 6.67373Z" fill="#FA5B37" stroke="#FA5B37"/>
</svg>
