<svg width="94" height="101" viewBox="0 0 94 101" fill="none" xmlns="http://www.w3.org/2000/svg">
<path d="M2.69736 0H91.3026C92.7925 0 94 1.13071 94 2.52573V98.4743C94 99.8693 92.7925 101 91.3026 101H2.69736C1.20754 101 0 99.8693 0 98.4743V2.52573C0 1.13071 1.20754 0 2.69736 0ZM78.5529 5.05269V56.0715C78.5529 59.3939 73.1568 59.3939 73.1568 56.0715V5.05269H5.39604V95.9473H88.604V5.05269H78.5529ZM15.0537 63.1128C11.5056 63.1128 11.5056 58.0601 15.0537 58.0601H60.8632C64.4126 58.0601 64.4126 63.1128 60.8632 63.1128H15.0537ZM15.0537 84.278C11.5056 84.278 11.5056 79.2253 15.0537 79.2253H60.8632C64.4126 79.2253 64.4126 84.278 60.8632 84.278H15.0537ZM15.0537 73.6954C11.5056 73.6954 11.5056 68.6427 15.0537 68.6427H60.8632C64.4126 68.6427 64.4126 73.6954 60.8632 73.6954H15.0537ZM37.9578 20.3185C43.9981 20.3185 48.8949 24.9037 48.8949 30.5584C48.8949 33.0646 47.9331 35.3603 46.3374 37.1395C48.4049 38.4024 50.1208 40.1107 51.3349 42.1225C53.1854 39.6457 54.2714 36.6305 54.2714 33.3779C54.2714 24.9416 46.9673 18.1023 37.9578 18.1023C28.9483 18.1023 21.6456 24.9416 21.6456 33.3779C21.6456 36.6305 22.7316 39.6457 24.5821 42.1225C25.7962 40.1107 27.5134 38.4012 29.5795 37.1395C27.9838 35.3603 27.022 33.0646 27.022 30.5584C27.022 24.9037 31.9188 20.3185 37.9578 20.3185ZM41.1701 40.3506C40.1547 40.6418 39.0765 40.7997 37.9578 40.7997C36.8405 40.7997 35.7623 40.6418 34.7469 40.3506C31.9293 41.2439 29.6658 43.296 28.6124 45.8989C31.2588 47.6341 34.4816 48.6522 37.9578 48.6522C41.4354 48.6522 44.6568 47.6341 47.3045 45.8989C46.2512 43.296 43.9877 41.2439 41.1701 40.3506ZM37.9578 25.3711C34.8985 25.3711 32.418 27.6937 32.418 30.5584C32.418 33.4244 34.8985 35.747 37.9578 35.747C41.0185 35.747 43.4989 33.4244 43.4989 30.5584C43.4989 27.6937 41.0185 25.3711 37.9578 25.3711ZM37.9578 13.0496C49.9483 13.0496 59.6674 22.1516 59.6674 33.3779C59.6674 44.6042 49.9483 53.7061 37.9578 53.7061C25.9687 53.7061 16.2495 44.6042 16.2495 33.3779C16.2495 22.1516 25.97 13.0496 37.9578 13.0496Z" fill="#FA5B37"/>
</svg>
