<svg width="115" height="98" viewBox="0 0 115 98" fill="none" xmlns="http://www.w3.org/2000/svg">
<g clip-path="url(#clip0_787_281)">
<path d="M76.1824 50.541H38.8172V51.2105C38.8172 53.0039 38.0792 54.6418 36.9127 55.8255L36.9008 55.8374C35.7223 57.021 34.0915 57.7504 32.306 57.7504H28.0802C26.2947 57.7504 24.6639 57.0091 23.4855 55.8374L23.4736 55.8255C22.2951 54.6418 21.569 53.0039 21.569 51.2105V50.541H10.7844V90.2463C10.7844 91.2386 11.1891 92.1353 11.8438 92.7929C12.4985 93.4505 13.3913 93.857 14.3793 93.857H100.632C101.62 93.857 102.513 93.4505 103.168 92.7929C103.822 92.1353 104.227 91.2386 104.227 90.2463V50.541H93.4425V51.2105C93.4425 53.0039 92.7045 54.6418 91.538 55.8255L91.526 55.8374C90.3476 57.021 88.7168 57.7504 86.9313 57.7504H82.7055C80.92 57.7504 79.2892 57.0091 78.1108 55.8374L78.0989 55.8255C76.9204 54.6418 76.1943 53.0039 76.1943 51.2105V50.541H76.1824ZM30.5443 18.057V7.40433C30.5443 5.37184 31.3775 3.51868 32.6988 2.17963C34.032 0.840578 35.8651 0.015625 37.9007 0.015625H77.099C79.1226 0.015625 80.9676 0.852533 82.3008 2.17963V2.19159C83.634 3.53064 84.4554 5.37184 84.4554 7.40433V18.057H113.202H115V19.8623V40.0438C115 42.9251 113.821 45.5554 111.929 47.4564C110.786 48.6041 109.381 49.4889 107.81 50.0149V90.2463C107.81 92.231 107.001 94.0363 105.703 95.3395C104.406 96.6427 102.608 97.4557 100.632 97.4557H14.3793C12.4033 97.4557 10.6059 96.6427 9.30838 95.3395C8.01089 94.0363 7.20145 92.231 7.20145 90.2463V50.0149C5.63018 49.4889 4.22557 48.6041 3.08283 47.4564C1.19017 45.5554 0.0117188 42.9251 0.0117188 40.0438V19.8623V18.057H1.80915H30.5562H30.5443ZM80.8486 18.057V7.40433C80.8486 6.36417 80.4201 5.41966 79.7416 4.73818C79.0631 4.0567 78.1227 3.62629 77.0871 3.62629H37.8887C36.8531 3.62629 35.9128 4.0567 35.2343 4.73818C34.5558 5.41966 34.1272 6.36417 34.1272 7.40433V18.057H80.8367H80.8486ZM93.4187 46.9303H104.537H104.62C106.465 46.9064 108.143 46.1293 109.369 44.9098C110.607 43.6664 111.381 41.9328 111.381 40.0438V21.6676H3.57087V40.0438C3.57087 41.9328 4.3446 43.6544 5.58257 44.9098C6.80863 46.1412 8.48703 46.9064 10.3321 46.9303H10.4154H21.5333V43.3197V41.5143H23.3307H36.9841H38.7815V43.3197V46.9303H76.1467V43.3197V41.5143H77.9441H91.5975H93.3949V43.3197V46.9303H93.4187ZM89.8238 45.125H79.7654V51.2225C79.7654 52.0235 80.0868 52.7648 80.6105 53.2908L80.6224 53.3028C81.1462 53.8288 81.8842 54.1516 82.6817 54.1516H86.9075C87.705 54.1516 88.443 53.8288 88.9668 53.3028L88.9787 53.2908C89.5024 52.7648 89.8238 52.0235 89.8238 51.2225V45.125ZM35.2105 45.125H25.152V51.2225C25.152 52.0235 25.4734 52.7648 25.9971 53.2908L26.009 53.3028C26.5328 53.8288 27.2708 54.1516 28.0683 54.1516H32.2941C33.0916 54.1516 33.8296 53.8288 34.3534 53.3028L34.3653 53.2908C34.8891 52.7648 35.2105 52.0235 35.2105 51.2225V45.125Z" fill="#FA5B37"/>
</g>
<defs>
<clipPath id="clip0_787_281">
<rect width="115" height="97.4576" fill="white"/>
</clipPath>
</defs>
</svg>
