<svg width="60" height="60" viewBox="0 0 60 60" fill="none" xmlns="http://www.w3.org/2000/svg">
<path d="M8.30742 0.736328H51.6892C52.497 0.736328 53.1519 1.39114 53.1519 2.19902V57.801C53.1519 58.6089 52.497 59.2637 51.6892 59.2637H8.30742C7.49953 59.2637 6.84473 58.6089 6.84473 57.801V2.19902C6.84473 1.39114 7.49953 0.736328 8.30742 0.736328ZM35.2297 45.8968C33.3056 45.8968 33.3056 42.9708 35.2297 42.9708H43.5551C45.4791 42.9708 45.4791 45.8968 43.5551 45.8968H35.2297ZM35.2297 52.1593C33.3056 52.1593 33.3056 49.2332 35.2297 49.2332H43.5551C45.4791 49.2332 45.4791 52.1593 43.5551 52.1593H35.2297ZM16.4415 41.4429H26.6761C27.4839 41.4429 28.1395 42.0984 28.1395 42.9063V52.2245C28.1395 53.0324 27.4839 53.6872 26.6761 53.6872H16.4415C15.6336 53.6872 14.9788 53.0324 14.9788 52.2245V42.9063C14.9788 42.0984 15.6336 41.4429 16.4415 41.4429ZM25.2127 44.369H17.9049V50.7611H25.2127V44.369ZM14.1107 37.801C12.1859 37.801 12.1859 34.8749 14.1107 34.8749H45.7307C47.6547 34.8749 47.6547 37.801 45.7307 37.801H14.1107ZM14.1107 31.6909C12.1859 31.6909 12.1859 28.7648 14.1107 28.7648H45.7307C47.6547 28.7648 47.6547 31.6909 45.7307 31.6909H14.1107ZM36.4436 11.9489C34.5189 11.9489 34.5189 9.02277 36.4436 9.02277H44.234C46.158 9.02277 46.158 11.9489 44.234 11.9489H36.4436ZM36.4436 24.5504C34.5189 24.5504 34.5189 21.6243 36.4436 21.6243H44.234C46.158 21.6243 46.158 24.5504 44.234 24.5504H36.4436ZM36.4436 18.2496C34.5189 18.2496 34.5189 15.3235 36.4436 15.3235H44.234C46.158 15.3235 46.158 18.2496 44.234 18.2496H36.4436ZM23.4608 7.91512C27.3372 7.91512 30.4802 11.0581 30.4802 14.9345C30.4802 15.9167 30.2782 16.8521 29.914 17.7011C31.641 19.4182 32.6218 21.7561 32.6218 24.1953C32.6218 26.1194 29.6957 26.1194 29.6957 24.1953C29.6957 22.6859 29.1734 21.2622 28.1898 20.1219C26.9418 21.26 25.2821 21.9538 23.4608 21.9538C21.6396 21.9538 19.9799 21.26 18.7326 20.1219C17.7483 21.2622 17.226 22.6866 17.226 24.1953C17.226 26.1194 14.2999 26.1194 14.2999 24.1953C14.2999 21.7561 15.2807 19.4182 17.0077 17.7011C16.6435 16.8521 16.4415 15.9167 16.4415 14.9345C16.4415 11.0581 19.5844 7.91512 23.4608 7.91512ZM23.4608 10.8412C21.2002 10.8412 19.3676 12.6738 19.3676 14.9345C19.3676 17.1951 21.2002 19.0277 23.4608 19.0277C25.7215 19.0277 27.5541 17.1951 27.5541 14.9345C27.5541 12.6738 25.7215 10.8412 23.4608 10.8412ZM50.2258 3.66241H9.77081V56.3376H50.2258V3.66241Z" fill="white"/>
</svg>
