<svg width="96" height="60" viewBox="0 0 96 60" fill="none" xmlns="http://www.w3.org/2000/svg">
<path d="M95.1499 30.1589L84.3332 24.1441L67.5997 2.92714C67.0241 2.19881 66.2906 1.61081 65.4544 1.2076C64.6183 0.804383 63.7015 0.596494 62.7732 0.599645H12.6217C11.2554 0.600022 9.92851 1.05719 8.85197 1.89845C7.77542 2.73971 7.01106 3.91675 6.68042 5.2424L0.224672 30.9306C0.21287 31.0283 0.21287 31.127 0.224672 31.2246V48.3746C0.224672 48.6995 0.353734 49.0111 0.583466 49.2409C0.813199 49.4706 1.12478 49.5996 1.44967 49.5996H6.42317C6.73487 52.2856 8.02275 54.7633 10.0419 56.5617C12.0611 58.3601 14.6707 59.3537 17.3747 59.3537C20.0786 59.3537 22.6883 58.3601 24.7074 56.5617C26.7266 54.7633 28.0145 52.2856 28.3262 49.5996H62.7732C63.0849 52.2856 64.3727 54.7633 66.3919 56.5617C68.4111 58.3601 71.0207 59.3537 73.7247 59.3537C76.4286 59.3537 79.0383 58.3601 81.0574 56.5617C83.0766 54.7633 84.3645 52.2856 84.6762 49.5996H94.5497C94.8746 49.5996 95.1861 49.4706 95.4159 49.2409C95.6456 49.0111 95.7747 48.6995 95.7747 48.3746V31.2246C95.7743 31.0076 95.7163 30.7945 95.6065 30.6072C95.4967 30.42 95.3391 30.2653 95.1499 30.1589ZM47.2279 3.04964H62.7732C63.3293 3.0485 63.8785 3.17359 64.3792 3.41549C64.88 3.65739 65.3194 4.00979 65.6642 4.44614L81.0012 23.8746H47.2279V3.04964ZM44.7779 3.04964V23.8746H13.1239L18.3302 3.04964H44.7779ZM17.3747 56.9496C15.6787 56.9496 14.0208 56.4467 12.6107 55.5045C11.2005 54.5623 10.1014 53.223 9.45241 51.6562C8.80338 50.0893 8.63357 48.3651 8.96444 46.7017C9.29531 45.0384 10.112 43.5104 11.3112 42.3112C12.5105 41.112 14.0384 40.2953 15.7018 39.9644C17.3652 39.6335 19.0893 39.8034 20.6562 40.4524C22.2231 41.1014 23.5623 42.2005 24.5045 43.6106C25.4468 45.0208 25.9497 46.6787 25.9497 48.3746C25.9497 50.6489 25.0462 52.83 23.4381 54.4381C21.83 56.0462 19.6489 56.9496 17.3747 56.9496ZM73.7247 56.9496C72.0287 56.9496 70.3708 56.4467 68.9607 55.5045C67.5505 54.5623 66.4514 53.223 65.8024 51.6562C65.1534 50.0893 64.9836 48.3651 65.3144 46.7017C65.6453 45.0384 66.462 43.5104 67.6612 42.3112C68.8605 41.112 70.3884 40.2953 72.0518 39.9644C73.7152 39.6335 75.4393 39.8034 77.0062 40.4524C78.5731 41.1014 79.9123 42.2005 80.8545 43.6106C81.7968 45.0208 82.2997 46.6787 82.2997 48.3746C82.2997 50.6489 81.3962 52.83 79.7881 54.4381C78.18 56.0462 75.9989 56.9496 73.7247 56.9496ZM93.3247 47.1496H84.6762C84.3645 44.4637 83.0766 41.986 81.0574 40.1876C79.0383 38.3892 76.4286 37.3956 73.7247 37.3956C71.0207 37.3956 68.4111 38.3892 66.3919 40.1876C64.3727 41.986 63.0849 44.4637 62.7732 47.1496H28.3262C28.0145 44.4637 26.7266 41.986 24.7074 40.1876C22.6883 38.3892 20.0786 37.3956 17.3747 37.3956C14.6707 37.3956 12.0611 38.3892 10.0419 40.1876C8.02275 41.986 6.73487 44.4637 6.42317 47.1496H2.67467V31.3716L9.05692 5.8304C9.25624 5.03592 9.71526 4.33079 10.3611 3.82699C11.0069 3.32319 11.8026 3.0496 12.6217 3.04964H15.8067L10.3677 24.8056C10.3218 24.9864 10.3178 25.1753 10.356 25.3579C10.3942 25.5405 10.4736 25.7119 10.5882 25.8591C10.7035 26.0051 10.8506 26.1229 11.0183 26.2036C11.186 26.2842 11.3699 26.3256 11.5559 26.3246H83.2062L93.3247 31.9474V47.1496Z" fill="#FA5B37"/>
</svg>
