<svg width="72" height="72" viewBox="0 0 72 72" fill="none" xmlns="http://www.w3.org/2000/svg">
<path d="M57.5382 22.4332C58.6199 22.4309 59.6821 22.1451 60.6189 21.6043C61.5558 21.0635 62.3345 20.2866 62.8774 19.351C62.9861 19.1632 63.0433 18.9502 63.0433 18.7332C63.0433 18.5163 62.9861 18.3032 62.8774 18.1155C62.3363 17.1783 61.558 16.4001 60.6207 15.8591C59.6835 15.318 58.6204 15.0332 57.5382 15.0332C56.4561 15.0332 55.3929 15.318 54.4557 15.8591C53.5185 16.4001 52.7402 17.1783 52.1991 18.1155C52.0904 18.3032 52.0332 18.5163 52.0332 18.7332C52.0332 18.9502 52.0904 19.1632 52.1991 19.351C52.742 20.2865 53.5207 21.0635 54.4575 21.6043C55.3943 22.1451 56.4565 22.4309 57.5382 22.4332ZM57.5382 17.4999C58.0582 17.5011 58.5722 17.6115 59.0469 17.8239C59.5216 18.0364 59.9464 18.3462 60.2937 18.7332C59.9472 19.1212 59.5226 19.4317 59.0477 19.6442C58.5729 19.8567 58.0585 19.9666 57.5382 19.9666C57.018 19.9666 56.5036 19.8567 56.0288 19.6442C55.5539 19.4317 55.1293 19.1212 54.7827 18.7332C55.1301 18.3462 55.5548 18.0364 56.0295 17.8239C56.5041 17.6115 57.0181 17.5011 57.5382 17.4999Z" fill="#FA5B37"/>
<path d="M65.5488 62.3266C64.7385 61.662 63.7816 60.953 62.6968 60.2117C68.0559 57.0172 71.767 50.3105 71.767 43.3991C71.767 37.1344 69.2985 29.6266 63.7836 26.976C61.5029 25.8799 57.9941 25.311 53.386 27.8364C53.1657 25.634 52.4965 23.7928 51.8665 22.0641C50.6762 18.7983 49.7361 16.2187 51.9034 11.884L49.6973 10.7808C47.0549 16.0656 48.3227 19.5444 49.549 22.9088C50.262 24.8652 50.9886 26.8612 50.9827 29.3758C50.921 29.4203 50.8614 29.4623 50.8 29.5079C47.4147 26.9897 44.5245 26.1042 42.1667 26.0498V18.7324C42.1653 18.4658 42.0789 18.2066 41.92 17.9924L34.767 8.45475V1.46576C34.767 1.13865 34.6371 0.824952 34.4058 0.593657C34.1745 0.362362 33.8608 0.232422 33.5337 0.232422H11.3337C11.0066 0.232422 10.6929 0.362362 10.4616 0.593657C10.2303 0.824952 10.1003 1.13865 10.1003 1.46576V8.45475L2.947 17.9924C2.78815 18.2066 2.70174 18.4658 2.70033 18.7324V45.4258C1.59566 46.0954 0.792054 47.1655 0.457052 48.4131C-0.0638769 50.2103 0.0643896 52.8222 3.63412 55.0629C4.46313 55.5717 5.3349 56.0072 6.23954 56.3647C2.58378 58.3522 2.1461 60.7892 2.15921 61.8945C2.18619 64.1532 3.95078 66.1186 6.65471 66.9027C7.0566 67.0174 7.47273 67.0745 7.89066 67.0723C10.113 67.0723 12.8565 65.569 16.069 62.5861C17.0349 61.6893 17.919 60.7763 18.6578 59.9697C18.7882 61.0655 19.1784 62.1143 19.796 63.0288C21.2936 65.2467 24.1511 66.836 29.3505 68.3429C34.3478 69.7913 43.7919 71.1642 51.8064 71.6084C53.6729 71.7116 55.4275 71.7625 57.0413 71.7625C58.9983 71.7791 60.9546 71.6787 62.8996 71.4617C66.687 70.9943 68.6769 69.9972 69.1617 68.3243C69.6466 66.6514 68.4987 64.7469 65.5488 62.3266ZM50.6616 32.2875C50.4875 33.0962 50.2602 33.8926 49.9812 34.6714C49.4841 34.558 49.0157 34.3435 48.605 34.0413C48.1944 33.7392 47.8503 33.3557 47.5941 32.9148L45.4589 34.15C46.0004 35.0872 46.7791 35.8655 47.7166 36.4066C48.6541 36.9476 49.7174 37.2324 50.7999 37.2324C51.8823 37.2324 52.9457 36.9476 53.8832 36.4066C54.8207 35.8655 55.5993 35.0872 56.1408 34.15L54.0056 32.9148C53.693 33.4528 53.2501 33.9035 52.7176 34.2252C53.0592 33.0764 53.2874 31.8968 53.3988 30.7035C56.8733 28.4492 60.0647 27.9249 62.7146 29.1986C66.5924 31.0627 69.3003 36.9019 69.3003 43.3991C69.3003 49.8343 65.4859 56.2728 60.3383 58.6752C59.0866 57.8943 57.7187 57.0888 56.2529 56.2702C49.2433 52.3594 40.5279 48.4693 35.5312 47.0212C34.4547 46.7092 33.4623 46.4548 32.5418 46.2555C32.3827 45.3116 32.302 44.3562 32.3003 43.3991C32.3003 36.9019 35.0083 31.0627 38.8856 29.1993C41.9945 27.7049 45.848 28.6834 50.0298 32.0288C50.2116 32.1732 50.4307 32.2629 50.6616 32.2875ZM5.167 19.9658H24.9003V27.3658H5.167V19.9658ZM27.367 19.9658H39.7003V26.3072C39.0506 26.4627 38.4193 26.6868 37.817 26.976C32.3022 29.6266 29.8337 37.1344 29.8337 43.3991C29.8347 44.2104 29.8859 45.0208 29.9869 45.8258C29.1177 45.7209 28.2407 45.6967 27.367 45.7534V19.9658ZM28.6003 17.4991L33.5337 10.9213L38.467 17.4991H28.6003ZM12.567 2.69909H32.3003V7.63242H12.567V2.69909ZM11.9503 10.0991H31.067L25.517 17.4991H6.40033L11.9503 10.0991ZM5.167 29.8324H24.9003V46.2862C24.8043 46.3235 24.7089 46.362 24.6153 46.403C23.6047 46.8442 22.7141 47.5204 22.0174 48.3751C21.8239 47.299 21.566 46.0569 21.2298 44.7843C19.8924 39.7227 17.9923 36.802 15.5822 36.1036C12.8781 35.3198 10.3356 36.0373 9.10534 37.9317C8.50409 38.858 7.56969 41.152 9.59621 44.7863C8.64042 44.6048 7.67065 44.5068 6.69787 44.4934H6.65162C6.15522 44.4916 5.65933 44.5254 5.16777 44.5947L5.167 29.8324ZM7.34075 64.5335C5.70473 64.0594 4.63882 63.0119 4.6251 61.865C4.60969 60.5581 6.04344 58.7034 10.1156 57.4175C10.368 57.3377 10.588 57.1789 10.7432 56.9644C10.8983 56.75 10.9804 56.4913 10.9772 56.2266C10.974 55.962 10.8858 55.7053 10.7255 55.4947C10.5652 55.284 10.3415 55.1305 10.0872 55.0569C4.50778 53.4395 2.13223 51.491 2.82598 49.0999C3.23853 47.6763 4.48589 46.9668 6.60522 46.9668C8.04591 46.9668 9.88989 47.2949 12.1481 47.9493C12.4024 48.023 12.6736 48.0129 12.9217 47.9206C13.1697 47.8283 13.3815 47.6586 13.5257 47.4366C13.6699 47.2146 13.7389 46.9521 13.7224 46.6879C13.7059 46.4237 13.6049 46.1718 13.4342 45.9695C10.6812 42.7053 10.4611 40.3714 11.1732 39.2754C11.798 38.3136 13.2589 37.9986 14.8949 38.4727C17.5649 39.2466 19.4852 46.6298 20.0302 51.7677L18.7904 56.0451C15.5825 60.0953 10.0115 65.3071 7.34152 64.5335H7.34075ZM66.7936 67.6396C66.6212 68.2344 63.5231 69.7878 51.943 69.1468C49.9994 69.0389 47.9725 68.8764 45.9492 68.6712L47.1535 64.5156L44.7844 63.8289L43.4605 68.3972C38.188 67.7715 33.1873 66.8881 30.0373 65.9751C25.5005 64.6602 22.9723 63.3262 21.8403 61.6498C20.8074 60.1202 20.7892 58.0098 21.7786 54.5931C22.7681 51.1765 23.9129 49.4028 25.6036 48.6626C26.3221 48.3481 27.1899 48.1894 28.2479 48.1894C29.9194 48.1894 32.0651 48.5859 34.8433 49.3909C35.2145 49.4988 35.6095 49.6222 36.0215 49.7566L32.9381 60.3957L35.3072 61.0823L38.3512 50.5792C43.2024 52.4013 49.6328 55.4025 55.0499 58.4249C56.3673 59.1599 57.5422 59.849 58.5915 60.4939L57.317 64.893L59.686 65.5798L60.7586 61.8798C65.8916 65.3073 66.9262 67.1807 66.7936 67.6396Z" fill="#FA5B37"/>
</svg>
