<svg width="81" height="81" viewBox="0 0 81 81" fill="none" xmlns="http://www.w3.org/2000/svg">
<path d="M15.1875 35.4375C15.1875 49.3594 26.5781 60.75 40.5 60.75C54.4219 60.75 65.8125 49.3594 65.8125 35.4375H15.1875Z" stroke="#FA5B37" stroke-width="2" stroke-miterlimit="10" stroke-linecap="round" stroke-linejoin="round"/>
<path d="M10.125 35.4375H70.875" stroke="#FA5B37" stroke-width="2" stroke-miterlimit="10" stroke-linecap="round" stroke-linejoin="round"/>
<path d="M50.625 53.1562L63.2812 78.4688" stroke="#FA5B37" stroke-width="2" stroke-miterlimit="10" stroke-linecap="round" stroke-linejoin="round"/>
<path d="M17.7188 78.4688L30.375 53.1562" stroke="#FA5B37" stroke-width="2" stroke-miterlimit="10" stroke-linecap="round" stroke-linejoin="round"/>
<path d="M22.7812 27.8438H35.4375" stroke="#FA5B37" stroke-width="2" stroke-miterlimit="10" stroke-linecap="round" stroke-linejoin="round"/>
<path d="M45.5625 27.8438H58.2188" stroke="#FA5B37" stroke-width="2" stroke-miterlimit="10" stroke-linecap="round" stroke-linejoin="round"/>
<path d="M30.375 2.53125L31.8938 4.05C33.9188 6.075 33.9188 9.1125 31.8938 11.1375C30.8813 12.15 30.375 13.4156 30.375 14.6813V17.7188" stroke="#FA5B37" stroke-width="2" stroke-miterlimit="10" stroke-linecap="round" stroke-linejoin="round"/>
<path d="M40.5 2.53125L42.0188 4.05C44.0438 6.075 44.0438 9.1125 42.0188 11.1375C41.0063 12.15 40.5 13.4156 40.5 14.6813V17.7188" stroke="#FA5B37" stroke-width="2" stroke-miterlimit="10" stroke-linecap="round" stroke-linejoin="round"/>
<path d="M50.625 2.53125L52.1438 4.05C54.1688 6.075 54.1688 9.1125 52.1438 11.1375C51.1313 12.15 50.625 13.4156 50.625 14.6813V17.7188" stroke="#FA5B37" stroke-width="2" stroke-miterlimit="10" stroke-linecap="round" stroke-linejoin="round"/>
</svg>
