<svg width="84" height="84" viewBox="0 0 84 84" fill="none" xmlns="http://www.w3.org/2000/svg">
<path d="M39.375 80.0625C60.3963 80.0625 77.4375 63.0213 77.4375 42C77.4375 20.9787 60.3963 3.9375 39.375 3.9375C18.3537 3.9375 1.3125 20.9787 1.3125 42C1.3125 63.0213 18.3537 80.0625 39.375 80.0625Z" stroke="#FA5B37" stroke-width="2" stroke-miterlimit="10"/>
<path d="M39.375 74.8125C57.4968 74.8125 72.1875 60.1218 72.1875 42C72.1875 23.8782 57.4968 9.1875 39.375 9.1875C21.2532 9.1875 6.5625 23.8782 6.5625 42C6.5625 60.1218 21.2532 74.8125 39.375 74.8125Z" stroke="#FA5B37" stroke-width="2" stroke-miterlimit="10"/>
<path d="M65.625 69.5625H80.0625L82.6875 80.0625H36.75" stroke="#FA5B37" stroke-width="2" stroke-linejoin="round"/>
<path d="M39.375 47.25C42.2745 47.25 44.625 44.8995 44.625 42C44.625 39.1005 42.2745 36.75 39.375 36.75C36.4755 36.75 34.125 39.1005 34.125 42C34.125 44.8995 36.4755 47.25 39.375 47.25Z" stroke="#FA5B37" stroke-width="2" stroke-miterlimit="10"/>
<path d="M39.375 31.5C43.7242 31.5 47.25 27.9742 47.25 23.625C47.25 19.2758 43.7242 15.75 39.375 15.75C35.0258 15.75 31.5 19.2758 31.5 23.625C31.5 27.9742 35.0258 31.5 39.375 31.5Z" stroke="#FA5B37" stroke-width="2" stroke-miterlimit="10"/>
<path d="M22.3128 44.6227C26.6606 44.6227 30.1852 41.0981 30.1852 36.7503C30.1852 32.4025 26.6606 28.8779 22.3128 28.8779C17.965 28.8779 14.4404 32.4025 14.4404 36.7503C14.4404 41.0981 17.965 44.6227 22.3128 44.6227Z" stroke="#FA5B37" stroke-width="2" stroke-miterlimit="10"/>
<path d="M28.875 64.3125C33.2242 64.3125 36.75 60.7867 36.75 56.4375C36.75 52.0883 33.2242 48.5625 28.875 48.5625C24.5258 48.5625 21 52.0883 21 56.4375C21 60.7867 24.5258 64.3125 28.875 64.3125Z" stroke="#FA5B37" stroke-width="2" stroke-miterlimit="10"/>
<path d="M49.875 64.3125C54.2242 64.3125 57.75 60.7867 57.75 56.4375C57.75 52.0883 54.2242 48.5625 49.875 48.5625C45.5258 48.5625 42 52.0883 42 56.4375C42 60.7867 45.5258 64.3125 49.875 64.3125Z" stroke="#FA5B37" stroke-width="2" stroke-miterlimit="10"/>
<path d="M56.4378 44.6227C60.7856 44.6227 64.3102 41.0981 64.3102 36.7503C64.3102 32.4025 60.7856 28.8779 56.4378 28.8779C52.09 28.8779 48.5654 32.4025 48.5654 36.7503C48.5654 41.0981 52.09 44.6227 56.4378 44.6227Z" stroke="#FA5B37" stroke-width="2" stroke-miterlimit="10"/>
<path d="M59.0625 74.8125H76.125" stroke="#FA5B37" stroke-width="2" stroke-miterlimit="10" stroke-linecap="round"/>
</svg>
