<svg width="34" height="34" viewBox="0 0 34 34" fill="none" xmlns="http://www.w3.org/2000/svg">
<path d="M17 0.847656C8.02347 0.847656 0.75 8.12112 0.75 17.0977C0.75 26.0742 8.02347 33.3477 17 33.3477C25.9765 33.3477 33.25 26.0742 33.25 17.0977C33.25 8.12112 25.9765 0.847656 17 0.847656ZM17 31.5169C9.05337 31.5169 2.58077 25.0518 2.58077 17.0977C2.58077 9.15103 9.04585 2.67843 17 2.67843C24.9466 2.67843 31.4192 9.14351 31.4192 17.0977C31.4192 25.0442 24.9465 31.5169 17 31.5169Z" fill="#FA5B37" stroke="#FA5B37" stroke-width="0.5"/>
<path d="M16.7499 7.25098V16.8471H9.61523H9.36523V17.0971V18.4279V18.6779H9.61523H18.3306H18.5806V18.4279V7.25098V7.00098H18.3306H16.9999H16.7499V7.25098Z" fill="#FA5B37" stroke="#FA5B37" stroke-width="0.5"/>
</svg>
