<svg width="90" height="72" viewBox="0 0 90 72" fill="none" xmlns="http://www.w3.org/2000/svg">
<g clip-path="url(#clip0_746_67)">
<path fill-rule="evenodd" clip-rule="evenodd" d="M28.5252 37.5172C30.7403 37.5172 32.9058 36.8603 34.7476 35.6297C36.5894 34.399 38.0249 32.6498 38.8726 30.6032C39.7203 28.5567 39.9421 26.3048 39.51 24.1322C39.0778 21.9596 38.0111 19.9639 36.4448 18.3976C34.8784 16.8312 32.8828 15.7646 30.7102 15.3324C28.5376 14.9002 26.2857 15.122 24.2391 15.9697C22.1926 16.8174 20.4434 18.253 19.2127 20.0948C17.9821 21.9366 17.3252 24.102 17.3252 26.3172C17.33 29.2862 18.5115 32.1322 20.6109 34.2315C22.7102 36.3309 25.5562 37.5124 28.5252 37.5172ZM34.9532 26.3172C34.9532 27.5883 34.5763 28.8308 33.8701 29.8877C33.164 30.9446 32.1603 31.7684 30.9859 32.2549C29.8116 32.7413 28.5194 32.8687 27.2727 32.6208C26.026 32.3729 24.8808 31.7609 23.982 30.8621C23.0831 29.9634 22.4709 28.8183 22.2228 27.5717C21.9747 26.325 22.1018 25.0328 22.5881 23.8584C23.0744 22.684 23.898 21.6802 24.9548 20.9738C26.0116 20.2675 27.2541 19.8904 28.5252 19.8902C30.2286 19.892 31.8617 20.5692 33.0667 21.7732C34.2716 22.9772 34.95 24.6098 34.9532 26.3132V26.3172Z" fill="#FA5B37"/>
<path fill-rule="evenodd" clip-rule="evenodd" d="M28.5252 10.5538C27.8921 10.5538 27.285 10.3023 26.8373 9.85462C26.3897 9.40697 26.1382 8.79983 26.1382 8.16675V2.89975C26.1317 2.58211 26.1886 2.26637 26.3057 1.97101C26.4228 1.67565 26.5976 1.40663 26.8199 1.17968C27.0423 0.952744 27.3077 0.772452 27.6006 0.64937C27.8935 0.526288 28.208 0.462891 28.5257 0.462891C28.8434 0.462891 29.1579 0.526288 29.4508 0.64937C29.7437 0.772452 30.0091 0.952744 30.2315 1.17968C30.4538 1.40663 30.6286 1.67565 30.7457 1.97101C30.8627 2.26637 30.9197 2.58211 30.9132 2.89975V8.17075C30.9119 8.80322 30.6597 9.40934 30.212 9.8561C29.7643 10.3029 29.1577 10.5538 28.5252 10.5538Z" fill="#FA5B37"/>
<path fill-rule="evenodd" clip-rule="evenodd" d="M30.9132 44.4623V49.7303C30.9197 50.0479 30.8627 50.3636 30.7457 50.659C30.6286 50.9544 30.4538 51.2234 30.2315 51.4503C30.0091 51.6773 29.7437 51.8576 29.4508 51.9806C29.1579 52.1037 28.8434 52.1671 28.5257 52.1671C28.208 52.1671 27.8935 52.1037 27.6006 51.9806C27.3077 51.8576 27.0423 51.6773 26.8199 51.4503C26.5976 51.2234 26.4228 50.9544 26.3057 50.659C26.1886 50.3636 26.1317 50.0479 26.1382 49.7303V44.4623C26.1317 44.1446 26.1886 43.8289 26.3057 43.5335C26.4228 43.2382 26.5976 42.9691 26.8199 42.7422C27.0423 42.5152 27.3077 42.335 27.6006 42.2119C27.8935 42.0888 28.208 42.0254 28.5257 42.0254C28.8434 42.0254 29.1579 42.0888 29.4508 42.2119C29.7437 42.335 30.0091 42.5152 30.2315 42.7422C30.4538 42.9691 30.6286 43.2382 30.7457 43.5335C30.8627 43.8289 30.9197 44.1446 30.9132 44.4623Z" fill="#FA5B37"/>
<path fill-rule="evenodd" clip-rule="evenodd" d="M12.7657 26.3148C12.7649 26.9477 12.513 27.5544 12.0653 28.0018C11.6175 28.4491 11.0106 28.7005 10.3777 28.7008H5.10769C4.48295 28.688 3.8881 28.4308 3.4508 27.9845C3.01349 27.5381 2.76855 26.9382 2.76855 26.3133C2.76855 25.6884 3.01349 25.0884 3.4508 24.6421C3.8881 24.1957 4.48295 23.9386 5.10769 23.9258H10.3757C10.6895 23.9257 11.0003 23.9873 11.2902 24.1073C11.5802 24.2273 11.8437 24.4033 12.0656 24.6251C12.2876 24.847 12.4636 25.1104 12.5837 25.4003C12.7039 25.6902 12.7657 26.001 12.7657 26.3148Z" fill="#FA5B37"/>
<path fill-rule="evenodd" clip-rule="evenodd" d="M51.9432 28.6993H46.6732C46.3556 28.7058 46.0398 28.6489 45.7444 28.5318C45.4491 28.4148 45.1801 28.2399 44.9531 28.0176C44.7262 27.7952 44.5459 27.5298 44.4228 27.237C44.2997 26.9441 44.2363 26.6295 44.2363 26.3118C44.2363 25.9941 44.2997 25.6796 44.4228 25.3867C44.5459 25.0938 44.7262 24.8284 44.9531 24.6061C45.1801 24.3837 45.4491 24.2089 45.7444 24.0918C46.0398 23.9748 46.3556 23.9178 46.6732 23.9243H51.9432C52.5679 23.9371 53.1628 24.1943 53.6001 24.6406C54.0374 25.087 54.2823 25.687 54.2823 26.3118C54.2823 26.9367 54.0374 27.5367 53.6001 27.983C53.1628 28.4294 52.5679 28.6865 51.9432 28.6993Z" fill="#FA5B37"/>
<path fill-rule="evenodd" clip-rule="evenodd" d="M17.3797 37.4582C17.6018 37.6798 17.778 37.943 17.8982 38.2327C18.0184 38.5224 18.0803 38.8331 18.0803 39.1467C18.0803 39.4604 18.0184 39.771 17.8982 40.0608C17.778 40.3505 17.6018 40.6137 17.3797 40.8352L13.6557 44.5612C13.2068 45.0051 12.6006 45.2532 11.9694 45.2515C11.3382 45.2498 10.7333 44.9983 10.2869 44.552C9.84048 44.1058 9.58884 43.501 9.58693 42.8697C9.58501 42.2385 9.83299 41.6322 10.2767 41.1832L14.0047 37.4582C14.226 37.2362 14.4891 37.0601 14.7786 36.9399C15.0682 36.8197 15.3786 36.7578 15.6922 36.7578C16.0057 36.7578 16.3161 36.8197 16.6057 36.9399C16.8953 37.0601 17.1583 37.2362 17.3797 37.4582Z" fill="#FA5B37"/>
<path fill-rule="evenodd" clip-rule="evenodd" d="M43.0485 15.1714C42.8267 15.3933 42.5633 15.5693 42.2734 15.6894C41.9835 15.8095 41.6728 15.8713 41.359 15.8713C41.0453 15.8713 40.7346 15.8095 40.4447 15.6894C40.1548 15.5693 39.8914 15.3933 39.6695 15.1714C39.4477 14.9496 39.2717 14.6862 39.1516 14.3963C39.0315 14.1064 38.9697 13.7957 38.9697 13.4819C38.9697 13.1682 39.0315 12.8575 39.1516 12.5676C39.2717 12.2777 39.4477 12.0143 39.6695 11.7924L43.3995 8.06845C43.8504 7.63521 44.4532 7.3961 45.0784 7.40247C45.7037 7.40884 46.3015 7.66019 46.7434 8.10252C47.1854 8.54486 47.4362 9.14288 47.442 9.76813C47.4478 10.3934 47.2082 10.996 46.7745 11.4464L43.0485 15.1714Z" fill="#FA5B37"/>
<path fill-rule="evenodd" clip-rule="evenodd" d="M43.0459 37.4609L46.7729 41.1849C47.1926 41.6378 47.4207 42.2357 47.4092 42.8531C47.3978 43.4705 47.1477 44.0595 46.7114 44.4966C46.2752 44.9336 45.6866 45.1847 45.0692 45.1973C44.4518 45.2098 43.8536 44.9829 43.3999 44.5639L39.6699 40.8369C39.2222 40.3892 38.9707 39.782 38.9707 39.1489C38.9707 38.5158 39.2222 37.9086 39.6699 37.4609C40.1176 37.0132 40.7248 36.7617 41.3579 36.7617C41.991 36.7617 42.5982 37.0132 43.0459 37.4609Z" fill="#FA5B37"/>
<path fill-rule="evenodd" clip-rule="evenodd" d="M15.7002 15.8713C15.3863 15.8713 15.0755 15.8095 14.7856 15.6894C14.4956 15.5693 14.2321 15.3932 14.0102 15.1713L10.2802 11.4453C9.84571 10.9945 9.60557 10.3911 9.61143 9.76506C9.6173 9.13899 9.8687 8.54024 10.3116 8.09766C10.7544 7.65507 11.3533 7.40402 11.9794 7.39853C12.6054 7.39304 13.2086 7.63354 13.6592 8.06828L17.3832 11.7923C17.7167 12.1262 17.9439 12.5513 18.0361 13.0141C18.1284 13.4769 18.0816 13.9566 17.9016 14.3929C17.7216 14.8291 17.4165 15.2023 17.0247 15.4654C16.633 15.7285 16.1721 15.8697 15.7002 15.8713Z" fill="#FA5B37"/>
<path fill-rule="evenodd" clip-rule="evenodd" d="M2.38999 64.7173C4.99734 64.7893 7.58305 64.2257 9.92399 63.0753C12.8655 61.6664 16.0973 60.9696 19.358 61.0413C22.6184 60.9691 25.85 61.6659 28.791 63.0753C31.1328 64.2251 33.7191 64.7886 36.327 64.7173C38.9347 64.7894 41.5207 64.2258 43.862 63.0753C46.8047 61.6658 50.0379 60.969 53.3 61.0413C56.5607 60.9692 59.7926 61.666 62.734 63.0753C65.0751 64.2251 67.6607 64.7886 70.268 64.7173C71.8987 64.7532 73.5259 64.5487 75.097 64.1103C77.111 57.9733 76.773 51.0713 74.088 43.5913C73.1335 40.9469 71.9493 38.3911 70.549 35.9533C68.177 38.4733 64.726 43.1033 66.487 47.3103C66.6154 47.6008 66.6847 47.9141 66.6906 48.2317C66.6966 48.5493 66.6391 48.8649 66.5216 49.16C66.4041 49.4551 66.229 49.7239 66.0064 49.9505C65.7838 50.1771 65.5182 50.3571 65.2252 50.4798C64.9322 50.6026 64.6177 50.6657 64.3001 50.6654C63.9824 50.6651 63.668 50.6015 63.3752 50.4783C63.0824 50.355 62.8172 50.1746 62.5949 49.9477C62.3727 49.7207 62.198 49.4516 62.081 49.1563C59.769 43.6303 62.551 38.2623 65.351 34.6843C62.721 35.2183 59.371 36.8083 56.085 40.9013C55.8888 41.1458 55.6464 41.3493 55.3715 41.5001C55.0967 41.651 54.7948 41.7462 54.4832 41.7804C54.1716 41.8145 53.8563 41.787 53.5553 41.6993C53.2543 41.6116 52.9735 41.4655 52.729 41.2693C52.4845 41.0731 52.281 40.8307 52.1302 40.5558C51.9793 40.281 51.8841 39.9792 51.8499 39.6675C51.8158 39.3559 51.8433 39.0406 51.931 38.7396C52.0187 38.4386 52.1648 38.1578 52.361 37.9133C57.061 32.0623 62.073 30.2883 65.455 29.8293C66.6101 29.6722 67.7787 29.6387 68.941 29.7293C69.2787 28.1747 69.8527 26.681 70.643 25.3003C72.467 22.1223 76.343 18.1413 84.397 17.2003C84.7101 17.1609 85.0278 17.184 85.332 17.2682C85.6361 17.3523 85.9205 17.4959 86.1688 17.6907C86.417 17.8854 86.6243 18.1274 86.7785 18.4027C86.9326 18.6781 87.0307 18.9812 87.0671 19.2946C87.1034 19.6081 87.0773 19.9256 86.9902 20.2289C86.9031 20.5322 86.7567 20.8152 86.5596 21.0616C86.3624 21.3079 86.1184 21.5128 85.8416 21.6643C85.5648 21.8158 85.2608 21.911 84.947 21.9443C80.154 22.5013 76.768 24.3723 74.883 27.5053C74.739 27.7483 74.607 27.9903 74.489 28.2283C74.959 28.1023 75.454 27.9833 75.973 27.8823C78.2477 27.3929 80.6023 27.4115 82.869 27.9368C85.1357 28.4621 87.2585 29.4812 89.086 30.9213C89.5842 31.3125 89.9066 31.8856 89.9823 32.5145C90.0579 33.1434 89.8807 33.7766 89.4895 34.2748C89.0983 34.773 88.5252 35.0954 87.8963 35.1711C87.2674 35.2468 86.6342 35.0695 86.136 34.6783C81.89 31.3443 77.186 32.2363 74.486 33.2203C76.0901 35.9668 77.4439 38.8521 78.531 41.8413C81.014 48.2516 81.7159 55.2144 80.562 61.9913C82.7202 61.318 84.9726 60.9962 87.233 61.0383C87.8666 61.0383 88.4743 61.29 88.9223 61.738C89.3703 62.1861 89.622 62.7937 89.622 63.4273C89.622 64.0609 89.3703 64.6686 88.9223 65.1166C88.4743 65.5646 87.8666 65.8163 87.233 65.8163C84.626 65.7449 82.0408 66.3084 79.7 67.4583C76.7586 68.8674 73.5267 69.5642 70.266 69.4923C67.0065 69.5645 63.7759 68.8677 60.836 67.4583C58.4939 66.3095 55.9077 65.747 53.3 65.8193C50.6929 65.7464 48.1072 66.309 45.766 67.4583C42.8245 68.8673 39.5927 69.5641 36.332 69.4923C33.0716 69.5642 29.8401 68.8674 26.899 67.4583C24.5571 66.3089 21.9707 65.7464 19.363 65.8193C16.7555 65.7461 14.1694 66.3086 11.828 67.4583C8.88486 68.8666 5.65192 69.5633 2.38999 69.4923C2.07235 69.4988 1.7566 69.4419 1.46124 69.3248C1.16589 69.2077 0.896861 69.0329 0.669919 68.8106C0.442978 68.5882 0.262687 68.3228 0.139605 68.0299C0.0165225 67.737 -0.046875 67.4225 -0.046875 67.1048C-0.046875 66.7871 0.0165225 66.4726 0.139605 66.1797C0.262687 65.8868 0.442978 65.6214 0.669919 65.399C0.896861 65.1767 1.16589 65.0019 1.46124 64.8848C1.7566 64.7678 2.07235 64.7108 2.38999 64.7173Z" fill="#FA5B37"/>
</g>
<defs>
<clipPath id="clip0_746_67">
<rect width="90" height="72" fill="white"/>
</clipPath>
</defs>
</svg>
