<svg width="140" height="140" viewBox="0 0 140 140" fill="none" xmlns="http://www.w3.org/2000/svg">
<path d="M37.4258 35.3274H65.2984" stroke="#FA5B37" stroke-width="4" stroke-miterlimit="2.6131" stroke-linecap="round" stroke-linejoin="round"/>
<path d="M65.2988 35.3274C67.3204 35.3274 68.9769 36.9906 68.9769 38.9987" stroke="#FA5B37" stroke-width="4" stroke-miterlimit="2.6131" stroke-linecap="round" stroke-linejoin="round"/>
<path d="M68.9766 38.9988V90.1265" stroke="#FA5B37" stroke-width="4" stroke-miterlimit="2.6131" stroke-linecap="round" stroke-linejoin="round"/>
<path d="M68.9769 90.1265C68.9769 92.138 67.3137 93.7975 65.2988 93.7975" stroke="#FA5B37" stroke-width="4" stroke-miterlimit="2.6131" stroke-linecap="round" stroke-linejoin="round"/>
<path d="M65.2975 93.7974H25.1973" stroke="#FA5B37" stroke-width="4" stroke-miterlimit="2.6131" stroke-linecap="round" stroke-linejoin="round"/>
<path d="M25.1968 93.7975C23.192 93.7975 21.5254 92.1411 21.5254 90.1265" stroke="#FA5B37" stroke-width="4" stroke-miterlimit="2.6131" stroke-linecap="round" stroke-linejoin="round"/>
<path d="M21.5254 90.1265V50.0361L37.4244 35.3274" stroke="#FA5B37" stroke-width="4" stroke-miterlimit="2.6131" stroke-linecap="round" stroke-linejoin="round"/>
<path d="M38.1758 35.3274V48.5624" stroke="#FA5B37" stroke-width="4" stroke-miterlimit="2.6131" stroke-linecap="round" stroke-linejoin="round"/>
<path d="M38.176 48.5623C38.176 49.6408 37.28 50.5332 36.2051 50.5332" stroke="#FA5B37" stroke-width="4" stroke-miterlimit="2.6131" stroke-linecap="round" stroke-linejoin="round"/>
<path d="M36.2038 50.5332H21.5254" stroke="#FA5B37" stroke-width="4" stroke-miterlimit="2.6131" stroke-linecap="round" stroke-linejoin="round"/>
<path d="M78.3359 68.6733H127.597" stroke="#FA5B37" stroke-width="4" stroke-miterlimit="2.6131" stroke-linecap="round" stroke-linejoin="round"/>
<path d="M127.598 68.6733C130.586 68.6733 133 71.0939 133 74.0754" stroke="#FA5B37" stroke-width="4" stroke-miterlimit="2.6131" stroke-linecap="round" stroke-linejoin="round"/>
<path fill-rule="evenodd" clip-rule="evenodd" d="M89.381 79.8494C90.5338 80.8098 91.112 82.2969 91.112 84.2916C91.112 86.2961 90.517 87.7667 89.344 88.6996C88.1675 89.6261 86.3657 90.0993 83.9353 90.0993H80.9975V94.9503H78.2051V78.4023H83.888C86.3993 78.4026 88.2282 78.8893 89.381 79.8494ZM87.4067 86.685C87.9645 86.0867 88.2414 85.2178 88.2414 84.0718C88.2414 82.9257 87.89 82.1146 87.1799 81.6411C86.4631 81.1679 85.358 80.9313 83.8334 80.9313H80.997V87.5639H84.2424C85.7875 87.5639 86.842 87.2663 87.4067 86.685Z" fill="#FA5B37"/>
<path fill-rule="evenodd" clip-rule="evenodd" d="M106.921 80.5729C108.517 82.0062 109.312 84.0211 109.312 86.5971C109.312 89.163 108.537 91.2014 106.996 92.7025C105.448 94.2035 103.081 94.9506 99.8898 94.9506H94.3965V78.4026H100.079C103.047 78.4026 105.329 79.1191 106.921 80.5729ZM106.496 86.6648C106.496 82.8787 104.322 80.9786 99.9847 80.9786H97.1923V92.3239H100.292C102.293 92.3239 103.832 91.8471 104.9 90.897C105.965 89.9369 106.496 88.5307 106.496 86.6648Z" fill="#FA5B37"/>
<path fill-rule="evenodd" clip-rule="evenodd" d="M115.703 81.0057V85.5524H123.045V88.1317H115.703V94.9503H112.91V78.4026H123.944L123.921 81.0057H115.703Z" fill="#FA5B37"/>
<path d="M133 74.0754V99.2777" stroke="#FA5B37" stroke-width="4" stroke-miterlimit="2.6131" stroke-linecap="round" stroke-linejoin="round"/>
<path d="M133 99.2776C133 102.259 130.586 104.673 127.598 104.673" stroke="#FA5B37" stroke-width="4" stroke-miterlimit="2.6131" stroke-linecap="round" stroke-linejoin="round"/>
<path d="M127.598 104.673H12.4023" stroke="#FA5B37" stroke-width="4" stroke-miterlimit="2.6131" stroke-linecap="round" stroke-linejoin="round"/>
<path d="M12.402 104.673C9.4206 104.673 7 102.259 7 99.2773" stroke="#FA5B37" stroke-width="4" stroke-miterlimit="2.6131" stroke-linecap="round" stroke-linejoin="round"/>
<path d="M7 99.2777V74.0754" stroke="#FA5B37" stroke-width="4" stroke-miterlimit="2.6131" stroke-linecap="round" stroke-linejoin="round"/>
<path d="M7 74.0754C7 71.0939 9.4206 68.6733 12.402 68.6733" stroke="#FA5B37" stroke-width="4" stroke-miterlimit="2.6131" stroke-linecap="round" stroke-linejoin="round"/>
<path d="M45.7383 52.3247V85.0284" stroke="#FA5B37" stroke-width="3" stroke-miterlimit="2.6131" stroke-linecap="round" stroke-linejoin="round"/>
<path d="M45.7383 85.0286L56.0893 74.6736" stroke="#FA5B37" stroke-width="3" stroke-miterlimit="2.6131" stroke-linecap="round" stroke-linejoin="round"/>
<path d="M45.737 85.0284L34.4121 73.6968" stroke="#FA5B37" stroke-width="3" stroke-miterlimit="2.6131" stroke-linecap="round" stroke-linejoin="round"/>
</svg>
