<svg width="102" height="102" viewBox="0 0 102 102" fill="none" xmlns="http://www.w3.org/2000/svg">
<path d="M35.8595 35.5764H82.1181C82.4367 35.5764 82.7422 35.4498 82.9675 35.2246C83.1928 34.9993 83.3194 34.6937 83.3194 34.3751C83.3194 34.0565 83.1928 33.751 82.9675 33.5257C82.7422 33.3004 82.4367 33.1738 82.1181 33.1738H35.8595C35.5409 33.1738 35.2353 33.3004 35.0101 33.5257C34.7848 33.751 34.6582 34.0565 34.6582 34.3751C34.6582 34.6937 34.7848 34.9993 35.0101 35.2246C35.2353 35.4498 35.5409 35.5764 35.8595 35.5764Z" fill="#FA5B37"/>
<path d="M35.8595 46.2986H82.1181C82.4367 46.2986 82.7422 46.172 82.9675 45.9467C83.1928 45.7214 83.3194 45.4159 83.3194 45.0973C83.3194 44.7787 83.1928 44.4731 82.9675 44.2478C82.7422 44.0226 82.4367 43.896 82.1181 43.896H35.8595C35.5409 43.896 35.2353 44.0226 35.0101 44.2478C34.7848 44.4731 34.6582 44.7787 34.6582 45.0973C34.6582 45.4159 34.7848 45.7214 35.0101 45.9467C35.2353 46.172 35.5409 46.2986 35.8595 46.2986Z" fill="#FA5B37"/>
<path d="M35.8595 57.0203H82.1181C82.4367 57.0203 82.7422 56.8937 82.9675 56.6684C83.1928 56.4431 83.3194 56.1376 83.3194 55.819C83.3194 55.5004 83.1928 55.1948 82.9675 54.9695C82.7422 54.7442 82.4367 54.6177 82.1181 54.6177H35.8595C35.5409 54.6177 35.2353 54.7442 35.0101 54.9695C34.7848 55.1948 34.6582 55.5004 34.6582 55.819C34.6582 56.1376 34.7848 56.4431 35.0101 56.6684C35.2353 56.8937 35.5409 57.0203 35.8595 57.0203Z" fill="#FA5B37"/>
<path d="M35.8595 67.7346H69.3023C69.6209 67.7346 69.9265 67.608 70.1518 67.3827C70.3771 67.1575 70.5036 66.8519 70.5036 66.5333C70.5036 66.2147 70.3771 65.9092 70.1518 65.6839C69.9265 65.4586 69.6209 65.332 69.3023 65.332H35.8595C35.5409 65.332 35.2353 65.4586 35.0101 65.6839C34.7848 65.9092 34.6582 66.2147 34.6582 66.5333C34.6582 66.8519 34.7848 67.1575 35.0101 67.3827C35.2353 67.608 35.5409 67.7346 35.8595 67.7346Z" fill="#FA5B37"/>
<path d="M91.6406 12.3839H25.8028C25.4858 12.3839 25.1818 12.5098 24.9576 12.734C24.7334 12.9581 24.6075 13.2622 24.6075 13.5792V75.4087H10.3594C10.0424 75.4087 9.73833 75.5346 9.51416 75.7588C9.29 75.983 9.16406 76.287 9.16406 76.604C9.16775 80.0526 10.5393 83.3588 12.9778 85.7973C15.4163 88.2358 18.7225 89.6073 22.1711 89.611H79.8429C83.2914 89.6073 86.5977 88.2358 89.0361 85.7973C91.4746 83.3588 92.8462 80.0526 92.8499 76.604V13.5852C92.8507 13.4265 92.8199 13.2693 92.7593 13.1226C92.6987 12.976 92.6096 12.8429 92.497 12.7311C92.3844 12.6193 92.2507 12.531 92.1037 12.4714C91.9567 12.4118 91.7993 12.382 91.6406 12.3839ZM22.1571 87.2144C19.5536 87.2111 17.0419 86.2515 15.0994 84.5179C13.1569 82.7844 11.9188 80.3977 11.6204 77.8113H66.6048C66.8771 80.8351 68.206 83.6664 70.3581 85.8079C70.8743 86.3218 71.432 86.7923 72.0255 87.2144H22.1571ZM90.4453 76.61C90.4421 79.4215 89.3239 82.1169 87.3359 84.105C85.3478 86.093 82.6524 87.2113 79.8409 87.2144H79.554C78.1614 87.2144 76.7825 86.9401 75.4959 86.4072C74.2093 85.8743 73.0403 85.0932 72.0556 84.1085C71.0709 83.1237 70.2897 81.9547 69.7568 80.6681C69.2239 79.3815 68.9496 78.0026 68.9496 76.61C68.9496 76.293 68.8237 75.989 68.5995 75.7648C68.3753 75.5406 68.0713 75.4147 67.7543 75.4147H27.0061V14.7864H90.4453V76.61Z" fill="#FA5B37"/>
</svg>
