<svg width="96" height="96" viewBox="0 0 96 96" fill="none" xmlns="http://www.w3.org/2000/svg">
<path d="M26.3438 27.8174C26.3438 28.1158 26.4623 28.4019 26.6733 28.6129C26.8843 28.8239 27.1704 28.9424 27.4688 28.9424H71.3869C71.6868 28.9424 71.9744 28.8233 72.1864 28.6113C72.3984 28.3992 72.5176 28.1117 72.5176 27.8118C72.5176 27.5119 72.3984 27.2244 72.1864 27.0123C71.9744 26.8003 71.6868 26.6812 71.3869 26.6812H27.4763C27.327 26.6802 27.179 26.7089 27.0409 26.7657C26.9028 26.8225 26.7774 26.9062 26.6719 27.012C26.5665 27.1177 26.4832 27.2434 26.4269 27.3817C26.3706 27.52 26.3423 27.6681 26.3438 27.8174V27.8174Z" fill="#FA5B37"/>
<path d="M71.387 36.7783H27.4763C27.1765 36.7783 26.8889 36.8974 26.6769 37.1095C26.4648 37.3215 26.3457 37.6091 26.3457 37.9089C26.3457 38.2088 26.4648 38.4964 26.6769 38.7084C26.8889 38.9205 27.1765 39.0396 27.4763 39.0396H71.387C71.6868 39.0396 71.9744 38.9205 72.1864 38.7084C72.3985 38.4964 72.5176 38.2088 72.5176 37.9089C72.5176 37.6091 72.3985 37.3215 72.1864 37.1095C71.9744 36.8974 71.6868 36.7783 71.387 36.7783Z" fill="#FA5B37"/>
<path d="M71.3859 46.875H27.4753C27.1752 46.875 26.8874 46.9942 26.6752 47.2064C26.463 47.4186 26.3438 47.7065 26.3438 48.0066C26.3438 48.3067 26.463 48.5945 26.6752 48.8067C26.8874 49.0189 27.1752 49.1381 27.4753 49.1381H71.3859C71.686 49.1381 71.9739 49.0189 72.1861 48.8067C72.3983 48.5945 72.5175 48.3067 72.5175 48.0066C72.5175 47.7065 72.3983 47.4186 72.1861 47.2064C71.9739 46.9942 71.686 46.875 71.3859 46.875V46.875Z" fill="#FA5B37"/>
<path d="M71.387 56.9604H27.4763C27.1765 56.9604 26.8889 57.0796 26.6769 57.2916C26.4648 57.5036 26.3457 57.7912 26.3457 58.0911C26.3457 58.3909 26.4648 58.6785 26.6769 58.8905C26.8889 59.1026 27.1765 59.2217 27.4763 59.2217H71.387C71.6868 59.2217 71.9744 59.1026 72.1864 58.8905C72.3985 58.6785 72.5176 58.3909 72.5176 58.0911C72.5176 57.7912 72.3985 57.5036 72.1864 57.2916C71.9744 57.0796 71.6868 56.9604 71.387 56.9604Z" fill="#FA5B37"/>
<path d="M55.2582 67.0518H27.4763C27.1765 67.0518 26.8889 67.1709 26.6769 67.3829C26.4648 67.5949 26.3457 67.8825 26.3457 68.1824C26.3457 68.4822 26.4648 68.7698 26.6769 68.9819C26.8889 69.1939 27.1765 69.313 27.4763 69.313H55.2582C55.5581 69.313 55.8457 69.1939 56.0577 68.9819C56.2697 68.7698 56.3888 68.4822 56.3888 68.1824C56.3888 67.8825 56.2697 67.5949 56.0577 67.3829C55.8457 67.1709 55.5581 67.0518 55.2582 67.0518Z" fill="#FA5B37"/>
<path d="M81.4959 22.7341C81.4959 22.7078 81.4959 22.6835 81.4959 22.6591V22.6141C81.4959 22.5935 81.4959 22.571 81.4866 22.5503L81.4753 22.5016C81.4753 22.481 81.4659 22.4622 81.4603 22.4435L81.4434 22.3947C81.4434 22.376 81.4303 22.3572 81.4228 22.3385C81.4167 22.3231 81.4098 22.3081 81.4022 22.2935C81.4022 22.2747 81.3853 22.256 81.3759 22.2372L81.3516 22.196C81.342 22.1778 81.3314 22.1603 81.3197 22.1435L81.2897 22.1003C81.2784 22.0853 81.2672 22.0685 81.2541 22.0535C81.2409 22.0385 81.2297 22.0253 81.2166 22.0103L81.1866 21.9766L67.1616 7.51285C67.1537 7.50377 67.1449 7.4956 67.1353 7.48847C66.9776 7.33505 66.7779 7.23193 66.5616 7.19222V7.19222C66.5277 7.18434 66.4932 7.17932 66.4584 7.17722C66.4385 7.1753 66.4184 7.1753 66.3984 7.17722H66.3516H15.6328C15.3344 7.17722 15.0483 7.29575 14.8373 7.50673C14.6263 7.71771 14.5078 8.00385 14.5078 8.30222V73.2372C14.5078 73.2485 14.5078 73.2597 14.5078 73.271C14.5078 73.2822 14.5078 73.316 14.5078 73.3385C14.5078 73.361 14.5078 73.376 14.5078 73.3947C14.5078 73.4135 14.5078 73.4285 14.5078 73.4472C14.5078 73.466 14.5078 73.4903 14.5228 73.511C14.5257 73.5249 14.5294 73.5387 14.5341 73.5522C14.5401 73.5758 14.5476 73.599 14.5566 73.6216L14.5678 73.6553L14.5997 73.7266C14.5997 73.736 14.5997 73.7453 14.6147 73.7528C14.6297 73.7603 14.6409 73.8035 14.6559 73.8278L14.6691 73.8485C14.6867 73.8765 14.7062 73.9035 14.7272 73.9291V73.9291C14.7566 73.9669 14.7885 74.0026 14.8228 74.036L28.8272 88.4735L28.8666 88.511L28.9116 88.5503C28.9837 88.6091 29.0631 88.6583 29.1478 88.6966L29.1834 88.7135L29.2359 88.7322L29.2903 88.7528L29.3353 88.7641L29.3991 88.7791H29.4497L29.5097 88.7885H29.6222H80.3653C80.6637 88.7885 80.9498 88.6699 81.1608 88.459C81.3718 88.248 81.4903 87.9618 81.4903 87.6635V22.7641C81.4903 22.7641 81.4959 22.7435 81.4959 22.7341ZM67.4728 11.0922L77.6934 21.6335H67.4728V11.0922ZM28.5253 84.9072L18.3047 74.3678H23.8116C25.0631 74.3688 26.2631 74.8663 27.1482 75.7511C28.0334 76.6359 28.5313 77.8357 28.5328 79.0872L28.5253 84.9072ZM79.2347 86.5685H30.7884V79.0872C30.786 77.2371 30.0503 75.4633 28.7426 74.1546C27.4348 72.8458 25.6617 72.1087 23.8116 72.1047H16.7634V9.43097H65.2097V22.7641C65.2097 23.0625 65.3282 23.3486 65.5392 23.5596C65.7502 23.7706 66.0363 23.8891 66.3347 23.8891H79.2291L79.2347 86.5685Z" fill="#FA5B37"/>
</svg>
