<svg width="69" height="64" viewBox="0 0 69 64" fill="none" xmlns="http://www.w3.org/2000/svg">
<path d="M34.0033 63.3345H34.0008C16.7252 63.3345 2.6702 49.2801 2.66895 32.0045C2.66895 14.7282 16.7233 0.673828 33.9996 0.673828C51.2758 0.673828 65.3302 14.7288 65.3302 32.0045C65.3302 49.2795 51.2771 63.3345 34.0033 63.3345ZM33.9996 3.1732C18.1021 3.1732 5.16895 16.1063 5.16895 32.0038C5.1702 47.9013 18.1039 60.8345 34.0008 60.8345H34.0033C49.8989 60.8345 62.8302 47.9013 62.8302 32.0038C62.8302 16.1063 49.8971 3.1732 33.9996 3.1732Z" fill="#FA5B37" stroke="#FA5B37"/>
<path d="M34.299 49.8647C28.7059 49.8647 24.1553 45.5834 24.1553 40.3222C24.1553 39.6322 24.7153 39.0722 25.4053 39.0722C26.0953 39.0722 26.6553 39.6322 26.6553 40.3222C26.6553 44.2053 30.084 47.3647 34.299 47.3647C38.5134 47.3647 41.9421 44.2053 41.9421 40.3222C41.9421 36.4391 38.514 33.2797 34.299 33.2797C28.7059 33.2797 24.1553 28.9991 24.1553 23.7372C24.1553 18.4759 28.7059 14.1953 34.299 14.1953C37.3059 14.1953 40.1378 15.4378 42.0703 17.6047C42.5296 18.1203 42.4846 18.9103 41.9696 19.3697C41.4546 19.8291 40.6634 19.7834 40.2053 19.2691C38.7465 17.6334 36.594 16.6953 34.2996 16.6953C30.0846 16.6953 26.6559 19.8541 26.6559 23.7372C26.6559 27.6203 30.0846 30.7797 34.2996 30.7797C39.8921 30.7797 44.4428 35.0609 44.4428 40.3222C44.4428 45.5834 39.8915 49.8647 34.299 49.8647Z" fill="#FA5B37" stroke="#FA5B37"/>
<path d="M34.0205 54.402C33.3305 54.402 32.7705 53.842 32.7705 53.152V10.9082C32.7705 10.2182 33.3305 9.6582 34.0205 9.6582C34.7105 9.6582 35.2705 10.2182 35.2705 10.9082V53.152C35.2705 53.842 34.7111 54.402 34.0205 54.402Z" fill="#FA5B37" stroke="#FA5B37"/>
</svg>
