<svg width="38" height="48" viewBox="0 0 38 48" fill="none" xmlns="http://www.w3.org/2000/svg">
<path d="M1.64574 0.589844H36.3511C36.9974 0.589844 37.5213 1.11369 37.5213 1.75999V46.2416C37.5213 46.8879 36.9974 47.4118 36.3511 47.4118H1.64574C0.999433 47.4118 0.475586 46.8879 0.475586 46.2416V1.75999C0.475586 1.11369 0.999433 0.589844 1.64574 0.589844ZM23.1835 36.7183C21.6443 36.7183 21.6443 34.3774 23.1835 34.3774H29.8439C31.3831 34.3774 31.3831 36.7183 29.8439 36.7183H23.1835ZM23.1835 41.7282C21.6443 41.7282 21.6443 39.3874 23.1835 39.3874H29.8439C31.3831 39.3874 31.3831 41.7282 29.8439 41.7282H23.1835ZM8.153 33.1551H16.3407C16.987 33.1551 17.5114 33.6795 17.5114 34.3258V41.7804C17.5114 42.4267 16.987 42.9506 16.3407 42.9506H8.153C7.5067 42.9506 6.98285 42.4267 6.98285 41.7804V34.3258C6.98285 33.6795 7.5067 33.1551 8.153 33.1551ZM15.1699 35.4959H9.32372V40.6097H15.1699V35.4959ZM6.28836 30.2416C4.74856 30.2416 4.74856 27.9007 6.28836 27.9007H31.5844C33.1236 27.9007 33.1236 30.2416 31.5844 30.2416H6.28836ZM6.28836 25.3535C4.74856 25.3535 4.74856 23.0126 6.28836 23.0126H31.5844C33.1236 23.0126 33.1236 25.3535 31.5844 25.3535H6.28836ZM24.1547 9.55987C22.6149 9.55987 22.6149 7.219 24.1547 7.219H30.387C31.9262 7.219 31.9262 9.55987 30.387 9.55987H24.1547ZM24.1547 19.6411C22.6149 19.6411 22.6149 17.3002 24.1547 17.3002H30.387C31.9262 17.3002 31.9262 19.6411 30.387 19.6411H24.1547ZM24.1547 14.6005C22.6149 14.6005 22.6149 12.2596 24.1547 12.2596H30.387C31.9262 12.2596 31.9262 14.6005 30.387 14.6005H24.1547ZM13.7685 6.33288C16.8696 6.33288 19.384 8.84723 19.384 11.9484C19.384 12.7341 19.2224 13.4825 18.931 14.1617C20.3126 15.5353 21.0972 17.4057 21.0972 19.357C21.0972 20.8963 18.7564 20.8963 18.7564 19.357C18.7564 18.1495 18.3385 17.0105 17.5516 16.0983C16.5533 17.0088 15.2255 17.5638 13.7685 17.5638C12.3115 17.5638 10.9837 17.0088 9.9859 16.0983C9.19842 17.0105 8.7806 18.15 8.7806 19.357C8.7806 20.8963 6.43973 20.8963 6.43973 19.357C6.43973 17.4057 7.22436 15.5353 8.60598 14.1617C8.31458 13.4825 8.153 12.7341 8.153 11.9484C8.153 8.84723 10.6673 6.33288 13.7685 6.33288ZM13.7685 8.67375C11.96 8.67375 10.4939 10.1398 10.4939 11.9484C10.4939 13.7569 11.96 15.223 13.7685 15.223C15.577 15.223 17.0431 13.7569 17.0431 11.9484C17.0431 10.1398 15.577 8.67375 13.7685 8.67375ZM35.1804 2.93071H2.81645V45.0709H35.1804V2.93071Z" fill="white"/>
</svg>
