<svg width="84" height="64" viewBox="0 0 84 64" fill="none" xmlns="http://www.w3.org/2000/svg">
<path d="M81.784 11.7304L77.2471 10.011V4.05009C77.2468 3.74612 77.1455 3.45087 76.9589 3.21086C76.7724 2.97085 76.5113 2.79973 76.2168 2.72447C54.6196 -2.80772 45.0493 4.12228 41.9999 7.24603C38.9527 4.12009 29.3868 -2.81647 7.78301 2.72447C7.4885 2.79973 7.22741 2.97085 7.04087 3.21086C6.85433 3.45087 6.75295 3.74612 6.7527 4.05009V10.011L2.21582 11.7304C1.95758 11.8307 1.73576 12.0069 1.57957 12.2357C1.42338 12.4645 1.34015 12.7352 1.34082 13.0123V61.9838C1.34105 62.2301 1.40759 62.4718 1.53345 62.6835C1.65932 62.8952 1.83987 63.0691 2.05614 63.187C2.25796 63.2953 2.48332 63.3524 2.71239 63.3532C2.97609 63.3527 3.23416 63.2768 3.45614 63.1345C19.9127 52.4638 41.4749 57.447 41.6893 57.4929C41.709 57.4929 41.7265 57.4929 41.7461 57.4929C41.7765 57.4987 41.8072 57.5024 41.838 57.5038C41.9491 57.5389 42.0682 57.5389 42.1793 57.5038C42.2101 57.5024 42.2408 57.4987 42.2711 57.4929C42.2886 57.4929 42.3083 57.4929 42.328 57.4929C42.5468 57.4426 64.1068 52.4617 80.5611 63.1345C80.7831 63.2768 81.0412 63.3527 81.3049 63.3532C81.534 63.3524 81.7593 63.2953 81.9611 63.187C82.1774 63.0691 82.358 62.8952 82.4838 62.6835C82.6097 62.4718 82.6762 62.2301 82.6765 61.9838V13.0123C82.6758 12.7332 82.59 12.4609 82.4305 12.2319C82.271 12.0028 82.0455 11.8279 81.784 11.7304ZM74.5061 5.12197V49.1082C56.5993 44.9301 47.3658 49.5457 43.3693 52.7985V9.81634C44.7518 8.12322 52.7996 -0.119279 74.5061 5.12197ZM9.49364 5.12197C31.0515 -0.082092 39.2218 8.13634 40.6305 9.82509V52.7985C37.7649 50.4732 32.2174 47.4501 22.7214 47.4501C18.959 47.4501 14.573 47.927 9.49364 49.1082V5.12197ZM4.07301 59.5623V13.9551L6.7527 12.9401V50.8538C6.75278 51.0627 6.80064 51.2688 6.8926 51.4563C6.98456 51.6438 7.1182 51.8078 7.28328 51.9357C7.44836 52.0636 7.64052 52.1521 7.84505 52.1944C8.04958 52.2366 8.26107 52.2315 8.46333 52.1795C24.4715 48.0757 33.2915 51.2585 37.5571 54.0192C30.3865 53.1113 16.4061 52.5863 4.07301 59.5623ZM79.9268 59.5623C67.5499 52.5623 53.5105 53.1179 46.3749 54.0301C50.5749 51.2542 59.3643 48.0342 75.5386 52.1795C75.7411 52.2325 75.9531 52.238 76.158 52.1955C76.3629 52.153 76.5553 52.0637 76.7199 51.9345C76.8845 51.8064 77.0177 51.6426 77.1094 51.4553C77.2011 51.2681 77.249 51.0624 77.2493 50.8538V12.9401L79.929 13.9551L79.9268 59.5623Z" fill="#FA5B37" stroke="#FA5B37"/>
</svg>
