<svg width="74" height="74" viewBox="0 0 74 74" fill="none" xmlns="http://www.w3.org/2000/svg">
<path d="M67.0625 64.75H9.25V6.9375C9.25 6.32419 9.00636 5.73599 8.57268 5.30232C8.13901 4.86864 7.55081 4.625 6.9375 4.625C6.32419 4.625 5.73599 4.86864 5.30232 5.30232C4.86864 5.73599 4.625 6.32419 4.625 6.9375V67.0625C4.625 67.6758 4.86864 68.264 5.30232 68.6977C5.73599 69.1314 6.32419 69.375 6.9375 69.375H67.0625C67.6758 69.375 68.264 69.1314 68.6977 68.6977C69.1314 68.264 69.375 67.6758 69.375 67.0625C69.375 66.4492 69.1314 65.861 68.6977 65.4273C68.264 64.9936 67.6758 64.75 67.0625 64.75Z" fill="#FA5B37"/>
<path d="M16.1873 53.1875C16.7494 53.1867 17.292 52.9812 17.7136 52.6094L36.9998 35.5431L42.388 40.9544C42.6029 41.1711 42.8587 41.3432 43.1405 41.4606C43.4223 41.578 43.7246 41.6384 44.0298 41.6384C44.3351 41.6384 44.6374 41.578 44.9192 41.4606C45.201 41.3432 45.4567 41.1711 45.6717 40.9544L60.1248 26.3856V32.375C60.1248 32.9883 60.3685 33.5765 60.8022 34.0102C61.2358 34.4439 61.824 34.6875 62.4373 34.6875C63.0507 34.6875 63.6388 34.4439 64.0725 34.0102C64.5062 33.5765 64.7498 32.9883 64.7498 32.375V20.8125C64.7498 20.1992 64.5062 19.611 64.0725 19.1773C63.6388 18.7436 63.0507 18.5 62.4373 18.5H50.8748C50.2615 18.5 49.6733 18.7436 49.2397 19.1773C48.806 19.611 48.5623 20.1992 48.5623 20.8125C48.5623 21.4258 48.806 22.014 49.2397 22.4477C49.6733 22.8814 50.2615 23.125 50.8748 23.125H56.8642L43.9373 36.0519L38.6417 30.7331C38.2128 30.3299 37.6463 30.1054 37.0576 30.1054C36.469 30.1054 35.9025 30.3299 35.4736 30.7331L14.6611 49.2331C14.2016 49.6382 13.9216 50.2091 13.8826 50.8204C13.8436 51.4317 14.0487 52.0335 14.453 52.4938C14.6779 52.7236 14.9483 52.9041 15.247 53.0235C15.5456 53.143 15.8659 53.1988 16.1873 53.1875Z" fill="#FA5B37"/>
</svg>
