<svg width="90" height="68" viewBox="0 0 90 68" fill="none" xmlns="http://www.w3.org/2000/svg">
<path d="M90 54.875V1.4375H19.6875V7.0625H0V66.125H33.75V54.875H50.625V63.3125H39.375V66.125H70.3125V63.3125H59.0625V54.875H90ZM19.6875 43.625H8.4375V38H19.6875V43.625ZM19.6875 29.5625H2.8125V21.125H19.6875V29.5625ZM19.6875 9.875V18.3125H2.8125V9.875H19.6875ZM30.9375 63.3125H2.8125V32.375H19.6875V35.1875H5.625V46.4375H19.6875V54.875H30.9375V63.3125ZM22.5 52.0625V4.25H87.1875V52.0625H22.5ZM56.25 63.3125H53.4375V54.875H56.25V63.3125Z" fill="#FA5B37"/>
<path d="M8.4375 57.6875C9.9908 57.6875 11.25 56.4283 11.25 54.875C11.25 53.3217 9.9908 52.0625 8.4375 52.0625C6.8842 52.0625 5.625 53.3217 5.625 54.875C5.625 56.4283 6.8842 57.6875 8.4375 57.6875Z" fill="#FA5B37"/>
<path d="M84.375 7.0625H25.3125V49.25H84.375V7.0625ZM81.5625 46.4375H28.125V9.875H81.5625V46.4375Z" fill="#FA5B37"/>
</svg>
