<svg width="64" height="64" viewBox="0 0 64 64" fill="none" xmlns="http://www.w3.org/2000/svg">
<path d="M59.4029 24.65C59.1873 23.8594 59.4748 22.6195 59.7443 21.4336C60.1576 19.6547 60.6248 17.6422 59.6725 16.025C58.7201 14.3719 56.7256 13.7609 54.9646 13.2398C53.8146 12.8805 52.6107 12.5211 52.0537 11.9641C51.4967 11.407 51.1193 10.2031 50.7779 9.05313C50.2389 7.29219 49.6459 5.29766 47.9928 4.34531C47.3459 3.96797 46.5912 3.78828 45.7107 3.78828C44.6865 3.78828 43.6084 4.03984 42.5842 4.27344C41.6498 4.48906 40.7693 4.68672 40.0146 4.68672C39.7631 4.68672 39.5475 4.66875 39.3498 4.61484C38.6131 4.41719 37.7146 3.57266 36.8521 2.76406C35.5045 1.48828 33.9592 0.0507812 32.0006 0.0507812C30.042 0.0507812 28.5146 1.48828 27.149 2.76406C26.2865 3.57266 25.3881 4.41719 24.6514 4.61484C24.4717 4.66875 24.2381 4.68672 23.9865 4.68672C23.2498 4.68672 22.3514 4.48906 21.417 4.27344C20.3748 4.03984 19.3146 3.78828 18.2904 3.78828C17.392 3.78828 16.6553 3.96797 16.0084 4.34531C14.3553 5.29766 13.7443 7.29219 13.2232 9.05313C12.8639 10.2031 12.5045 11.407 11.9475 11.9641C11.3904 12.5211 10.1865 12.8984 9.03652 13.2398C7.27559 13.7789 5.28105 14.3719 4.32871 16.025C3.37637 17.6602 3.84355 19.6727 4.25684 21.4336C4.52637 22.6195 4.81387 23.8594 4.59824 24.65C4.40059 25.3867 3.55605 26.2852 2.74746 27.1477C1.47168 28.4953 0.0341797 30.0406 0.0341797 31.9992C0.0341797 33.9578 1.47168 35.4852 2.74746 36.8508C3.55605 37.7133 4.40059 38.6117 4.59824 39.3484C4.81387 40.1391 4.52637 41.3789 4.25684 42.5648C3.84355 44.3437 3.37637 46.3562 4.32871 47.9734C5.28105 49.6266 7.27559 50.2375 9.03652 50.7586C10.1865 51.118 11.3904 51.4773 11.9475 52.0344C12.5045 52.5914 12.8818 53.7953 13.2232 54.9453C13.7623 56.7062 14.3553 58.7008 16.0084 59.6531C16.6553 60.0305 17.41 60.2101 18.2904 60.2101C19.3146 60.2101 20.3928 59.9586 21.417 59.725C22.3514 59.5094 23.2318 59.3117 23.9865 59.3117C24.2381 59.3117 24.4537 59.3297 24.6514 59.3836C25.3881 59.5812 26.2865 60.4258 27.149 61.2344C28.4967 62.5102 30.042 63.9476 32.0006 63.9476C33.9592 63.9476 35.4865 62.5102 36.8521 61.2344C37.7146 60.4258 38.6131 59.5812 39.3498 59.3836C39.5295 59.3297 39.7631 59.3117 40.0146 59.3117C40.7514 59.3117 41.6498 59.5094 42.5842 59.725C43.6264 59.9586 44.6865 60.2101 45.7107 60.2101C46.6092 60.2101 47.3459 60.0305 47.9928 59.6531C49.6459 58.7008 50.2568 56.7062 50.7779 54.9453C51.1373 53.7953 51.4967 52.5914 52.0537 52.0344C52.6107 51.4773 53.8146 51.1 54.9646 50.7586C56.7256 50.2195 58.7201 49.6266 59.6725 47.9734C60.6248 46.3383 60.1576 44.3258 59.7443 42.5648C59.4748 41.3789 59.1873 40.1391 59.4029 39.3484C59.6006 38.6117 60.4451 37.7133 61.2537 36.8508C62.5295 35.5031 63.967 33.9578 63.967 31.9992C63.967 30.0406 62.5295 28.5133 61.2537 27.1477C60.4451 26.2852 59.6006 25.3867 59.4029 24.65ZM59.2771 35C58.235 36.1141 57.1748 37.2461 56.7975 38.6477C56.4021 40.1031 56.7795 41.6664 57.1209 43.1758C57.4264 44.5234 57.7498 45.925 57.3365 46.6437C56.9053 47.3805 55.5217 47.7937 54.174 48.207C52.7006 48.6562 51.1732 49.1234 50.1311 50.1656C49.0889 51.2078 48.6217 52.7352 48.1725 54.2086C47.7592 55.5563 47.3459 56.9398 46.6092 57.3711C46.3756 57.4969 46.0701 57.5687 45.6748 57.5687C44.9561 57.5687 44.0756 57.3711 43.1412 57.1555C42.099 56.9219 41.0209 56.6703 39.9787 56.6703C39.4756 56.6703 39.0443 56.7242 38.6311 56.832C37.2295 57.2094 36.0975 58.2695 34.9834 59.3117C33.9412 60.282 32.8631 61.2883 31.9826 61.2883C31.1021 61.2883 30.024 60.282 28.9818 59.3117C27.8678 58.2695 26.7357 57.2094 25.3342 56.832C24.9209 56.7242 24.4717 56.6703 23.9865 56.6703C22.9443 56.6703 21.8662 56.9219 20.824 57.1555C19.8896 57.3711 19.0271 57.5687 18.2904 57.5687C17.8951 57.5687 17.5896 57.4969 17.3561 57.3711C16.6193 56.9398 16.2061 55.5563 15.7928 54.2086C15.3436 52.7352 14.8764 51.2078 13.8342 50.1656C12.792 49.1234 11.2646 48.6562 9.79121 48.207C8.44355 47.7937 7.05996 47.3805 6.62871 46.6437C6.21543 45.925 6.53887 44.5414 6.84434 43.1758C7.18574 41.6664 7.56309 40.1031 7.16777 38.6477C6.79043 37.2461 5.73027 36.1141 4.68809 35C3.71777 33.9578 2.71152 32.8797 2.71152 31.9992C2.71152 31.1008 3.71777 30.0406 4.68809 28.9984C5.73027 27.8844 6.79043 26.7523 7.16777 25.3508C7.56309 23.8953 7.18574 22.332 6.84434 20.8227C6.53887 19.475 6.21543 18.0734 6.62871 17.3547C7.05996 16.618 8.44355 16.2047 9.79121 15.7914C11.2646 15.3422 12.792 14.875 13.8342 13.8328C14.8764 12.7906 15.3436 11.2633 15.7928 9.78984C16.2061 8.44219 16.6193 7.05859 17.3561 6.62734C17.5896 6.50156 17.8951 6.42969 18.2904 6.42969C19.0092 6.42969 19.8896 6.62734 20.824 6.84297C21.8662 7.07656 22.9443 7.32812 23.9865 7.32812C24.4896 7.32812 24.9209 7.27422 25.3342 7.16641C26.7357 6.78906 27.8678 5.72891 28.9818 4.68672C30.024 3.71641 31.1021 2.71016 31.9826 2.71016C32.8631 2.71016 33.9412 3.71641 34.9834 4.68672C36.0975 5.72891 37.2295 6.78906 38.6311 7.16641C39.0443 7.27422 39.4936 7.32812 39.9787 7.32812C41.0209 7.32812 42.099 7.07656 43.1412 6.84297C44.0756 6.62734 44.9381 6.42969 45.6748 6.42969C46.0701 6.42969 46.3756 6.50156 46.6092 6.62734C47.3459 7.05859 47.7592 8.44219 48.1725 9.78984C48.6217 11.2633 49.0889 12.7906 50.1311 13.8328C51.1732 14.875 52.7006 15.3422 54.174 15.7914C55.5217 16.2047 56.9053 16.618 57.3365 17.3547C57.7498 18.0734 57.4264 19.457 57.1209 20.8227C56.7795 22.332 56.4021 23.8953 56.7975 25.3508C57.1748 26.7523 58.235 27.8844 59.2771 28.9984C60.2475 30.0406 61.2537 31.1187 61.2537 31.9992C61.2717 32.8977 60.2654 33.9578 59.2771 35Z" fill="#FA5B37"/>
<path d="M21.7406 28.1531C25.2805 28.1531 28.1375 25.2781 28.1375 21.7563C28.1375 18.2164 25.2625 15.3594 21.7406 15.3594C18.2008 15.3594 15.3438 18.2344 15.3438 21.7563C15.3438 25.2781 18.2187 28.1531 21.7406 28.1531ZM21.7406 18.0367C23.7891 18.0367 25.4422 19.7078 25.4422 21.7383C25.4422 23.7867 23.7711 25.4398 21.7406 25.4398C19.7102 25.4398 18.0391 23.7687 18.0391 21.7383C18.0391 19.7078 19.7102 18.0367 21.7406 18.0367Z" fill="#FA5B37"/>
<path d="M42.2602 35.8438C38.7203 35.8438 35.8633 38.7188 35.8633 42.2406C35.8633 45.7805 38.7383 48.6375 42.2602 48.6375C45.8 48.6375 48.657 45.7625 48.657 42.2406C48.657 38.7188 45.782 35.8438 42.2602 35.8438ZM42.2602 45.9602C40.2117 45.9602 38.5586 44.2891 38.5586 42.2586C38.5586 40.2281 40.2297 38.557 42.2602 38.557C44.2906 38.557 45.9617 40.2281 45.9617 42.2586C45.9617 44.2891 44.2906 45.9602 42.2602 45.9602Z" fill="#FA5B37"/>
<path d="M46.9152 17.0861C46.3941 16.565 45.5316 16.565 45.0105 17.0861L17.0871 44.9916C16.566 45.5127 16.566 46.3752 17.0871 46.8963C17.3566 47.1658 17.698 47.2916 18.0395 47.2916C18.3809 47.2916 18.7223 47.1658 18.9918 46.8963L46.9152 19.0088C47.4363 18.4697 47.4363 17.6252 46.9152 17.0861Z" fill="#FA5B37"/>
</svg>
