<svg width="95" height="95" viewBox="0 0 95 95" fill="none" xmlns="http://www.w3.org/2000/svg">
<path d="M83.9167 64.9167V45.9167H49.0833V29.9741C55.3217 29.1903 60.1667 23.864 60.1667 17.4167C60.1667 10.4326 54.4841 4.75 47.5 4.75C40.5159 4.75 34.8333 10.4326 34.8333 17.4167C34.8333 23.864 39.6783 29.1903 45.9167 29.9741V45.9167H11.0833V64.9167H0V90.25H25.3333V64.9167H14.25V49.0833H45.9167V64.9167H34.8333V90.25H60.1667V64.9167H49.0833V49.0833H80.75V64.9167H69.6667V90.25H95V64.9167H83.9167ZM38 17.4167C38 12.1774 42.2607 7.91667 47.5 7.91667C52.7393 7.91667 57 12.1774 57 17.4167C57 22.6559 52.7393 26.9167 47.5 26.9167C42.2607 26.9167 38 22.6559 38 17.4167ZM22.1667 87.0833H3.16667V68.0833H22.1667V87.0833ZM57 87.0833H38V68.0833H57V87.0833ZM91.8333 87.0833H72.8333V68.0833H91.8333V87.0833Z" fill="#FA5B37"/>
</svg>
