<svg width="80" height="80" viewBox="0 0 80 80" fill="none" xmlns="http://www.w3.org/2000/svg">
<path fill-rule="evenodd" clip-rule="evenodd" d="M48.75 7.5H22.5069C19.7417 7.5 17.5 9.74585 17.5 12.5183V69.9817C17.5 72.7532 19.7273 75 22.4936 75H60.0064C62.7643 75 65 72.7545 65 70.023V26.25V25L50 7.5H48.75ZM47.5 10H22.4889C21.1143 10 20 11.1382 20 12.4886V70.0114C20 71.3858 21.1368 72.5 22.4999 72.5H60.0001C61.3808 72.5 62.5 71.3876 62.5 70.0165V27.5H52.4948C49.7362 27.5 47.5 25.2836 47.5 22.4852V10ZM50 11.25V22.478C50 23.8709 51.1266 25 52.4918 25H61.7499L50 11.25ZM25 25V27.5H42.5V25H25ZM25 17.5V20H42.5V17.5H25ZM25 32.5V35H57.5V32.5H25ZM25 40V42.5H57.5V40H25ZM25 47.5V50H57.5V47.5H25ZM25 55V57.5H57.5V55H25ZM25 62.5V65H57.5V62.5H25Z" fill="#FA5B37"/>
</svg>
