<svg width="64" height="54" viewBox="0 0 64 54" fill="none" xmlns="http://www.w3.org/2000/svg">
<path d="M42.3972 28.0033H21.6027V28.3742C21.6027 29.3679 21.192 30.2755 20.5428 30.9313L20.5361 30.9379C19.8803 31.5938 18.9727 31.9979 17.9791 31.9979H15.6273C14.6336 31.9979 13.7261 31.5872 13.0702 30.9379L13.0636 30.9313C12.4078 30.2755 12.0037 29.3679 12.0037 28.3742V28.0033H6.00183V50.0035C6.00183 50.5533 6.22707 51.0501 6.59142 51.4145C6.95577 51.7789 7.45261 52.0041 8.00245 52.0041H56.0041C56.5539 52.0041 57.0508 51.7789 57.4151 51.4145C57.7795 51.0501 58.0047 50.5533 58.0047 50.0035V28.0033H52.0029V28.3742C52.0029 29.3679 51.5921 30.2755 50.9429 30.9313L50.9363 30.9379C50.2805 31.5938 49.3729 31.9979 48.3792 31.9979H46.0275C45.0338 31.9979 44.1262 31.5872 43.4704 30.9379L43.4638 30.9313C42.808 30.2755 42.4039 29.3679 42.4039 28.3742V28.0033H42.3972ZM16.9986 10.0043V4.1018C16.9986 2.97562 17.4623 1.94881 18.1977 1.20686C18.9396 0.464908 19.9598 0.0078125 21.0926 0.0078125H42.9073C44.0335 0.0078125 45.0603 0.471533 45.8023 1.20686V1.21348C46.5442 1.95544 47.0013 2.97562 47.0013 4.1018V10.0043H62.9997H64V11.0046V22.1869C64 23.7834 63.3441 25.2408 62.2908 26.2941C61.6549 26.9301 60.8732 27.4203 59.9987 27.7118V50.0035C59.9987 51.1031 59.5483 52.1035 58.8262 52.8255C58.1041 53.5476 57.1038 53.9981 56.0041 53.9981H8.00245C6.90277 53.9981 5.90246 53.5476 5.18038 52.8255C4.4583 52.1035 4.00783 51.1031 4.00783 50.0035V27.7118C3.13339 27.4203 2.35169 26.9301 1.71573 26.2941C0.662425 25.2408 0.0065918 23.7834 0.0065918 22.1869V11.0046V10.0043H1.0069H17.0052H16.9986ZM44.9941 10.0043V4.1018C44.9941 3.52546 44.7556 3.00212 44.378 2.62452C44.0004 2.24692 43.477 2.00843 42.9007 2.00843H21.086C20.5096 2.00843 19.9863 2.24692 19.6087 2.62452C19.2311 3.00212 18.9926 3.52546 18.9926 4.1018V10.0043H44.9874H44.9941ZM51.9896 26.0026H58.177H58.2233C59.2501 25.9894 60.1842 25.5588 60.8665 24.8831C61.5555 24.1941 61.9861 23.2336 61.9861 22.1869V12.0049H1.98734V22.1869C1.98734 23.2336 2.41794 24.1875 3.10689 24.8831C3.78922 25.5654 4.72329 25.9894 5.7501 26.0026H5.79647H11.9838V24.002V23.0017H12.9841H20.5825H21.5828V24.002V26.0026H42.3774V24.002V23.0017H43.3777H50.9761H51.9764V24.002V26.0026H51.9896ZM49.989 25.0023H44.3912V28.3809C44.3912 28.8247 44.5701 29.2354 44.8616 29.5269L44.8682 29.5335C45.1597 29.825 45.5704 30.0039 46.0143 30.0039H48.366C48.8098 30.0039 49.2205 29.825 49.512 29.5335L49.5187 29.5269C49.8101 29.2354 49.989 28.8247 49.989 28.3809V25.0023ZM19.5955 25.0023H13.9977V28.3809C13.9977 28.8247 14.1766 29.2354 14.468 29.5269L14.4747 29.5335C14.7661 29.825 15.1769 30.0039 15.6207 30.0039H17.9724C18.4163 30.0039 18.827 29.825 19.1185 29.5335L19.1251 29.5269C19.4166 29.2354 19.5955 28.8247 19.5955 28.3809V25.0023Z" fill="white"/>
</svg>
