<svg width="28" height="28" viewBox="0 0 28 28" fill="none" xmlns="http://www.w3.org/2000/svg">
<path d="M26.3217 0.604004H1.67885C1.08622 0.604004 0.607422 1.0828 0.607422 1.67543V26.3183C0.607422 26.9109 1.08622 27.3897 1.67885 27.3897H26.3217C26.9143 27.3897 27.3931 26.9109 27.3931 26.3183V1.67543C27.3931 1.0828 26.9143 0.604004 26.3217 0.604004ZM25.2503 25.2469H19.0862V17.017H22.5684L23.0907 12.9757H19.0862V10.3942C19.0862 9.22231 19.411 8.42543 21.0885 8.42543H23.228V4.80936C22.8563 4.75914 21.5873 4.64865 20.1074 4.64865C17.0204 4.64865 14.9076 6.53369 14.9076 9.9924V12.9723H11.4188V17.0136H14.911V25.2469H2.75028V2.74686H25.2503V25.2469Z" fill="#DE1026" fill-opacity="0.85"/>
</svg>
