<svg width="30" height="30" viewBox="0 0 30 30" fill="none" xmlns="http://www.w3.org/2000/svg">
<path d="M27.3217 1.60409H2.67885C2.08622 1.60409 1.60742 2.08289 1.60742 2.67552V27.3184C1.60742 27.911 2.08622 28.3898 2.67885 28.3898H27.3217C27.9143 28.3898 28.3931 27.911 28.3931 27.3184V2.67552C28.3931 2.08289 27.9143 1.60409 27.3217 1.60409ZM26.2503 26.247H20.0862V18.017H23.5684L24.0907 13.9757H20.0862V11.3943C20.0862 10.2224 20.411 9.42552 22.0885 9.42552H24.228V5.80945C23.8563 5.75923 22.5873 5.64873 21.1074 5.64873C18.0204 5.64873 15.9076 7.53378 15.9076 10.9925V13.9724H12.4188V18.0137H15.911V26.247H3.75028V3.74695H26.2503V26.247Z" fill="white" fill-opacity="0.85"/>
</svg>
