<svg width="35" height="30" viewBox="0 0 35 30" fill="none" xmlns="http://www.w3.org/2000/svg">
<path d="M30.9719 1.96772C27.0426 -0.925984 21.611 -0.462992 18.2595 3.00945L17.335 3.93543L16.1793 2.77795C14.3303 0.925984 11.9034 0 9.3609 0C4.27597 0 0 4.05118 0 9.25984C0 11.922 1.0401 14.5843 2.88917 16.4362L14.7925 28.3583C15.4859 29.0528 16.2949 29.4 17.2194 29.4C18.144 29.4 19.0685 29.0528 19.6463 28.3583L31.8964 16.2047C32.1275 15.9732 32.4742 15.626 32.7054 15.2787C35.9412 11.1118 35.1323 5.20866 30.9719 1.96772Z" fill="#FA5B37"/>
</svg>
