<svg width="35" height="31" viewBox="0 0 35 31" fill="none" xmlns="http://www.w3.org/2000/svg">
<path d="M17.4997 30.2074C17.0424 30.2085 16.5894 30.1192 16.1667 29.9446C15.7441 29.7699 15.3601 29.5135 15.0369 29.1899L3.12755 17.2805C2.18676 16.3295 1.44462 15.2007 0.944378 13.9601C0.444135 12.7194 0.195788 11.3916 0.213805 10.0539C0.22287 8.82813 0.473682 7.61615 0.951876 6.48742C1.43007 5.3587 2.12625 4.3354 3.00054 3.47615C3.87483 2.6169 4.91004 1.93857 6.0469 1.48003C7.18375 1.02149 8.3999 0.791739 9.62568 0.80394C10.8734 0.791371 12.1109 1.0295 13.2649 1.50419C14.4189 1.97889 15.4658 2.68049 16.3435 3.56738L17.4997 4.72363L18.4479 3.7755C20.085 2.09497 22.2757 1.06469 24.6142 0.875482C26.9527 0.686275 29.2806 1.35096 31.1666 2.74644C32.2402 3.57321 33.1254 4.61924 33.7631 5.81485C34.4008 7.01046 34.7765 8.32822 34.8651 9.68038C34.9537 11.0325 34.7532 12.3881 34.277 13.6567C33.8007 14.9253 33.0597 16.0779 32.1032 17.0377L19.9626 29.1899C19.6394 29.5135 19.2554 29.7699 18.8328 29.9446C18.4101 30.1192 17.9571 30.2085 17.4997 30.2074ZM9.57943 3.10488C7.74159 3.103 5.97512 3.81622 4.6538 5.09363C3.98017 5.74176 3.44447 6.51934 3.07887 7.37969C2.71328 8.24003 2.52532 9.16539 2.5263 10.1002C2.51617 11.1285 2.71025 12.1485 3.09728 13.1012C3.48432 14.0539 4.05661 14.9203 4.78099 15.6502L16.6904 27.5596C16.7979 27.6679 16.9257 27.754 17.0666 27.8127C17.2075 27.8714 17.3587 27.9016 17.5113 27.9016C17.6639 27.9016 17.8151 27.8714 17.956 27.8127C18.0969 27.754 18.2248 27.6679 18.3322 27.5596L30.4844 15.3958C31.1977 14.6674 31.7489 13.7963 32.1016 12.8398C32.4543 11.8833 32.6006 10.8629 32.531 9.84581C32.4692 8.81827 32.1862 7.8162 31.7013 6.90819C31.2163 6.00017 30.5409 5.20766 29.7213 4.58488C28.2831 3.52447 26.5084 3.02308 24.7279 3.17411C22.9474 3.32515 21.2826 4.1183 20.0435 5.40581L18.3207 7.17488C18.2132 7.28325 18.0853 7.36927 17.9444 7.42797C17.8035 7.48667 17.6524 7.51689 17.4997 7.51689C17.3471 7.51689 17.196 7.48667 17.0551 7.42797C16.9142 7.36927 16.7863 7.28325 16.6788 7.17488L14.7132 5.20925C13.3593 3.86717 11.532 3.11132 9.62568 3.10488H9.57943Z" fill="#FA5B37"/>
</svg>
