<svg width="109" height="109" viewBox="0 0 109 109" fill="none" xmlns="http://www.w3.org/2000/svg">
<path d="M91.5217 95.8498L68.0611 45.797C67.9896 45.6453 67.8826 45.5129 67.7493 45.4111C67.6159 45.3093 67.46 45.2411 67.2948 45.2121C67.1295 45.1831 66.9597 45.1942 66.7997 45.2445C66.6396 45.2948 66.494 45.3828 66.3751 45.5011L39.7829 72.0954C39.665 72.2144 39.5774 72.3599 39.5273 72.5197C39.4773 72.6795 39.4663 72.849 39.4953 73.0139C39.5243 73.1789 39.5924 73.3345 39.6939 73.4677C39.7955 73.6009 39.9274 73.7077 40.0788 73.7794L90.1315 97.2378C90.2698 97.3039 90.4211 97.3381 90.5743 97.3379C90.7505 97.3381 90.9239 97.2938 91.0784 97.2091C91.2329 97.1244 91.3634 97.0021 91.458 96.8534C91.5525 96.7047 91.6079 96.5345 91.619 96.3587C91.6302 96.1829 91.5967 96.0071 91.5217 95.8476V95.8498ZM75.2867 87.9728L68.9638 85.0094V52.65L75.2867 66.1409V87.9749V87.9728ZM66.803 48.0303L66.8945 48.2261C66.8828 48.2836 66.8764 48.342 66.8753 48.4007V84.0322L60.5546 81.0709V54.2871L66.803 48.0303ZM58.4662 80.0916L52.1433 77.1282V62.6878L58.4662 56.3671V80.0916ZM50.0549 64.7762V76.1489L42.312 72.5191L50.0549 64.7762ZM77.373 88.9542V70.586L88.405 94.1232L77.373 88.9542Z" fill="#FA5B37"/>
<path d="M29.0052 38.399L28.0174 44.1726C27.9843 44.3648 28.0057 44.5624 28.0791 44.7431C28.1524 44.9237 28.2749 45.0803 28.4326 45.195C28.5903 45.3097 28.7769 45.378 28.9714 45.3922C29.1659 45.4065 29.3605 45.366 29.5331 45.2754L34.7192 42.5483L39.9009 45.2754C40.0516 45.3534 40.2187 45.3943 40.3884 45.3946C40.609 45.3955 40.824 45.3253 41.0016 45.1945C41.1591 45.0799 41.2814 44.9233 41.3544 44.7427C41.4274 44.562 41.4483 44.3645 41.4146 44.1726L40.4289 38.399L44.6228 34.3094C44.7624 34.1735 44.8611 34.0012 44.9077 33.8121C44.9544 33.623 44.9472 33.4246 44.8869 33.2394C44.8267 33.0541 44.7158 32.8895 44.5667 32.764C44.4177 32.6386 44.2366 32.5574 44.0438 32.5296L38.2468 31.6781L35.6537 26.4239C35.3046 25.7129 34.1316 25.7129 33.7824 26.4239L31.1894 31.6866L25.3924 32.5381C25.1996 32.5659 25.0185 32.6471 24.8694 32.7726C24.7204 32.898 24.6095 33.0627 24.5492 33.2479C24.489 33.4331 24.4818 33.6315 24.5284 33.8206C24.5751 34.0097 24.6738 34.182 24.8134 34.3179L29.0052 38.399ZM32.0325 33.675C32.1998 33.6505 32.3587 33.5858 32.4955 33.4864C32.6323 33.3871 32.743 33.256 32.818 33.1044L34.7192 29.2532L36.6181 33.1044C36.6932 33.256 36.8038 33.3871 36.9407 33.4864C37.0775 33.5858 37.2364 33.6505 37.4037 33.675L41.6509 34.2902L38.5767 37.2877C38.455 37.4055 38.3641 37.5513 38.3117 37.7124C38.2594 37.8734 38.2473 38.0449 38.2766 38.2117L39.0004 42.4418L35.2045 40.4491C35.0548 40.3696 34.8877 40.3279 34.7181 40.3279C34.5485 40.3279 34.3814 40.3696 34.2316 40.4491L30.4443 42.4418L31.166 38.2117C31.1955 38.045 31.1838 37.8737 31.1318 37.7127C31.0799 37.5516 30.9893 37.4057 30.868 37.2877L27.7959 34.2924L32.0325 33.675Z" fill="#FA5B37"/>
<path d="M58.5173 23.4412C58.4584 23.6256 58.4519 23.8228 58.4985 24.0108C58.5451 24.1988 58.643 24.3701 58.7813 24.5056L61.1231 26.7836L60.5675 30.0174C60.5335 30.2095 60.5542 30.4073 60.6272 30.5882C60.7002 30.7692 60.8225 30.926 60.9803 31.0407C61.1381 31.1554 61.325 31.2235 61.5196 31.2372C61.7143 31.2509 61.9088 31.2096 62.0811 31.118L64.97 29.5916L67.8568 31.1095C68.0293 31.2008 68.2239 31.2419 68.4185 31.2281C68.6131 31.2143 68.7999 31.1463 68.9578 31.0316C69.1157 30.917 69.2382 30.7604 69.3116 30.5796C69.3849 30.3988 69.406 30.2011 69.3726 30.0088L68.8234 26.7921L71.1652 24.5141C71.3045 24.378 71.403 24.2056 71.4496 24.0164C71.4962 23.8272 71.489 23.6287 71.4288 23.4435C71.3685 23.2582 71.2577 23.0934 71.1088 22.9677C70.9599 22.842 70.7789 22.7605 70.5861 22.7322L67.3587 22.2639L65.911 19.3366C65.564 18.6235 64.3889 18.6235 64.0397 19.3366L62.5899 22.2618L59.3604 22.7301C59.1675 22.7583 58.9864 22.8398 58.8374 22.9654C58.6885 23.0911 58.5776 23.2558 58.5173 23.4412ZM63.433 24.2502C63.6006 24.2258 63.7598 24.1609 63.8967 24.0612C64.0336 23.9614 64.1441 23.8297 64.2185 23.6775L64.97 22.1574L65.7237 23.6775C65.7981 23.8297 65.9086 23.9614 66.0455 24.0612C66.1824 24.1609 66.3416 24.2258 66.5092 24.2502L68.1868 24.4929L66.9712 25.6787C66.8497 25.7965 66.7588 25.9423 66.7065 26.1034C66.6542 26.2644 66.642 26.4358 66.671 26.6026L66.9563 28.2738L65.4554 27.484C65.3054 27.4063 65.139 27.3654 64.97 27.3647C64.8004 27.3651 64.6332 27.4059 64.4825 27.484L62.9816 28.2738L63.2669 26.6026C63.2964 26.436 63.2847 26.2646 63.2327 26.1036C63.1808 25.9425 63.0902 25.7966 62.9689 25.6787L61.7533 24.4929L63.433 24.2502Z" fill="#FA5B37"/>
<path d="M34.8672 66.9605L31.6356 66.4921L30.1922 63.5649C30.1064 63.3901 29.9734 63.2429 29.8082 63.14C29.643 63.037 29.4522 62.9824 29.2576 62.9824C29.0629 62.9824 28.8722 63.037 28.707 63.14C28.5418 63.2429 28.4087 63.3901 28.323 63.5649L26.8753 66.4921L23.6458 66.9605C23.453 66.9887 23.2719 67.0703 23.123 67.1959C22.9742 67.3216 22.8633 67.4864 22.8031 67.6717C22.7429 67.857 22.7357 68.0554 22.7823 68.2446C22.8288 68.4338 22.9274 68.6062 23.0667 68.7424L25.4085 71.0203L24.8593 74.2371C24.8335 74.3868 24.8408 74.5404 24.8806 74.6871C24.9204 74.8337 24.9918 74.9699 25.0897 75.0861C25.1877 75.2023 25.3098 75.2957 25.4476 75.3597C25.5854 75.4238 25.7356 75.457 25.8875 75.4569C26.0566 75.457 26.2231 75.4161 26.3729 75.3377L29.264 73.8198L32.1465 75.3377C32.3201 75.4265 32.5147 75.466 32.7092 75.4517C32.9037 75.4374 33.0905 75.37 33.2493 75.2568C33.4065 75.1424 33.5285 74.9862 33.6015 74.806C33.6745 74.6257 33.6955 74.4287 33.6623 74.2371L33.113 71.0203L35.4548 68.7424C35.5942 68.6062 35.6927 68.4338 35.7393 68.2446C35.7859 68.0554 35.7786 67.857 35.7184 67.6717C35.6582 67.4864 35.5474 67.3216 35.3985 67.1959C35.2496 67.0703 35.0685 66.9887 34.8758 66.9605H34.8672ZM31.2587 69.909C31.1372 70.0269 31.0463 70.1727 30.994 70.3337C30.9417 70.4948 30.9295 70.6662 30.9586 70.833L31.246 72.5042L29.743 71.7143C29.5929 71.6356 29.426 71.5945 29.2565 71.5945C29.0871 71.5945 28.9201 71.6356 28.7701 71.7143L27.267 72.5063L27.5523 70.833C27.5818 70.6663 27.5701 70.495 27.5181 70.3339C27.4662 70.1729 27.3756 70.027 27.2543 69.909L26.0387 68.7232L27.7184 68.4784C27.8859 68.4546 28.0451 68.3902 28.1821 68.2908C28.319 68.1913 28.4295 68.0598 28.5039 67.9078L29.2576 66.3878L30.0176 67.9121C30.0929 68.0634 30.2037 68.1943 30.3404 68.2937C30.4772 68.393 30.636 68.4578 30.8032 68.4826L32.485 68.7275L31.2587 69.909Z" fill="#FA5B37"/>
<path d="M54.5819 48.2671C54.7469 48.3734 54.9392 48.4296 55.1354 48.4289C55.3112 48.4284 55.4841 48.3836 55.638 48.2986C55.7919 48.2136 55.9219 48.0911 56.0159 47.9426C56.11 47.794 56.165 47.6241 56.1759 47.4486C56.1869 47.2731 56.1534 47.0977 56.0785 46.9386C48.6082 31.2699 60.1682 18.1111 60.2874 17.9855C60.3921 17.8678 60.4691 17.728 60.5126 17.5766C60.556 17.4251 60.5649 17.2659 60.5386 17.1105C60.5123 16.9549 60.4509 16.8073 60.3591 16.6789C60.2672 16.5505 60.1473 16.4448 60.0085 16.3697L51.5972 11.7882C51.4684 11.7184 51.3264 11.6765 51.1803 11.6652C51.0343 11.6539 50.8875 11.6735 50.7495 11.7227C50.6116 11.7719 50.4855 11.8496 50.3795 11.9508C50.2736 12.0519 50.1901 12.1743 50.1346 12.3098C39.4092 38.3527 54.4265 48.1734 54.5819 48.2671ZM51.6334 14.1833L57.9179 17.5895C55.5378 20.7531 49.0063 30.908 52.4636 43.2343C49.2234 38.885 45.5213 29.8222 51.6334 14.1833Z" fill="#FA5B37"/>
<path d="M42.7912 61.1723C42.921 61.2277 43.0609 61.2559 43.2021 61.2553C43.3951 61.2567 43.5847 61.2045 43.7499 61.1046C43.915 61.0046 44.0492 60.8608 44.1374 60.6891C44.2257 60.5175 44.2646 60.3247 44.2498 60.1322C44.235 59.9398 44.1671 59.7552 44.0536 59.599C43.6981 59.1072 35.0952 47.5558 18.2768 50.1616C18.0098 50.2037 17.7695 50.3477 17.6064 50.5632C17.4432 50.7788 17.3699 51.0491 17.4019 51.3176L18.2896 58.8113C18.3078 58.9704 18.3623 59.1231 18.449 59.2577C18.5357 59.3923 18.6522 59.5051 18.7895 59.5874C18.9268 59.6697 19.0812 59.7194 19.2407 59.7325C19.4003 59.7455 19.5607 59.7217 19.7096 59.6629C19.799 59.6203 30.0369 55.7116 42.7912 61.1723ZM20.1992 57.2977L19.5861 52.0882C29.1939 50.9088 35.7658 54.7259 39.2913 57.6873C35.9068 56.672 32.3931 56.1528 28.8596 56.1459C25.9333 56.1256 23.0185 56.5132 20.1992 57.2977Z" fill="#FA5B37"/>
</svg>
