<svg width="81" height="81" viewBox="0 0 81 81" fill="none" xmlns="http://www.w3.org/2000/svg">
<path d="M17.0506 19.9393C16.6946 19.9702 16.3653 20.1411 16.135 20.4144C15.9047 20.6877 15.7922 21.0412 15.8221 21.3973L15.9436 22.8553C15.974 23.1919 16.1296 23.5048 16.3795 23.7323C16.6295 23.9598 16.9557 24.0852 17.2936 24.0838H17.4151C17.5927 24.0686 17.7655 24.0183 17.9235 23.9359C18.0815 23.8536 18.2217 23.7408 18.3359 23.604C18.4501 23.4672 18.5361 23.3091 18.5889 23.1389C18.6417 22.9687 18.6603 22.7897 18.6436 22.6123L18.5086 21.1678C18.4777 20.8118 18.3069 20.4825 18.0336 20.2522C17.7603 20.0219 17.4068 19.9094 17.0506 19.9393Z" fill="#FA5B37"/>
<path d="M69.1605 46.1835L65.907 42.93C67.9802 40.5687 69.35 37.6735 69.8607 34.573C70.3715 31.4725 70.0029 28.2908 68.7967 25.3893C67.5906 22.4877 65.5951 19.9823 63.0369 18.1576C60.4787 16.3329 57.4602 15.2618 54.324 15.066L54.432 12.474C54.4519 12.0445 54.3865 11.6153 54.2395 11.2112C54.0925 10.8071 53.8668 10.4361 53.5756 10.1198C53.2843 9.80341 52.9333 9.54792 52.5427 9.36809C52.1521 9.18825 51.7297 9.08762 51.3 9.07202L23.6655 7.80303C23.2371 7.78124 22.8085 7.84441 22.4046 7.9889C22.0006 8.13339 21.6292 8.35635 21.3118 8.64493C20.9943 8.93352 20.7371 9.28204 20.5549 9.67044C20.3727 10.0588 20.269 10.4794 20.25 10.908L20.0745 14.85L13.77 15.4035C12.9135 15.4758 12.1204 15.8841 11.5639 16.5392C11.0074 17.1944 10.7328 18.0431 10.8 18.9L14.85 64.5975C14.9289 65.4589 15.3449 66.2542 16.0073 66.8104C16.6697 67.3667 17.525 67.6388 18.387 67.5675L37.044 65.934L43.2 72.1575C43.642 72.5971 44.1911 72.9135 44.793 73.0755C45.3943 73.2378 46.0278 73.2378 46.629 73.0755L63.153 68.6475C63.7523 68.4879 64.2988 68.1728 64.7373 67.7343C65.1758 67.2958 65.4908 66.7493 65.6505 66.15L70.0785 49.6395C70.2407 49.0335 70.2413 48.3955 70.0803 47.7891C69.9192 47.1828 69.6021 46.6292 69.1605 46.1835ZM64.017 41.04L62.2755 39.2985C62.8433 38.6032 63.3323 37.8471 63.7335 37.044L66.0555 37.8675C65.5161 39.0087 64.8309 40.0751 64.017 41.04ZM54 22.95C55.6167 23.0748 57.1694 23.635 58.4932 24.5713C59.8171 25.5075 60.8626 26.7849 61.5189 28.2676C62.1751 29.7504 62.4175 31.3832 62.2203 32.9926C62.0232 34.6021 61.3938 36.128 60.399 37.4085L57.105 34.1145C56.6627 33.6764 56.1138 33.3612 55.5124 33.2002C54.911 33.0392 54.278 33.038 53.676 33.1965H53.5275L54 22.95ZM66.9735 35.343L64.6785 34.5195C64.9229 33.3803 65.0047 32.2122 64.9215 31.05L67.3245 30.618C67.4648 32.1949 67.3323 33.7841 66.933 35.316L66.9735 35.343ZM66.8925 28.0395L64.4625 28.485C64.1262 27.3946 63.6352 26.358 63.0045 25.407L64.8 23.7735C65.7174 25.0612 66.4111 26.4943 66.852 28.0125L66.8925 28.0395ZM59.292 19.089C60.7187 19.7706 62.0232 20.6828 63.153 21.789L61.263 23.3955C60.4252 22.6197 59.4794 21.9694 58.455 21.465L59.292 19.089ZM56.7 18.1575L55.8765 20.4795C55.2851 20.3551 54.6847 20.2783 54.081 20.25L54.189 17.82C55.0345 17.8558 55.875 17.9688 56.7 18.1575ZM22.95 11.0295C22.9535 10.955 22.9716 10.882 23.0033 10.8145C23.0351 10.747 23.0798 10.6865 23.135 10.6363C23.1902 10.5861 23.2547 10.5474 23.3249 10.5222C23.3951 10.497 23.4695 10.4859 23.544 10.4895L51.2055 11.8395C51.2794 11.8412 51.3522 11.8577 51.4196 11.888C51.487 11.9183 51.5476 11.9618 51.5979 12.0159C51.6483 12.07 51.6873 12.1336 51.7126 12.203C51.7379 12.2724 51.7491 12.3462 51.7455 12.42L50.7465 34.02L49.3965 34.3845L47.7765 15.8085C47.6976 14.9472 47.2817 14.1518 46.6192 13.5956C45.9568 13.0394 45.1015 12.7673 44.2395 12.8385L22.788 14.634L22.95 11.0295ZM18.1035 64.9215C17.9573 64.933 17.8124 64.8874 17.6991 64.7942C17.5858 64.7011 17.513 64.5677 17.496 64.422L13.5 18.7245C13.4888 18.5762 13.5362 18.4294 13.6322 18.3158C13.7281 18.2021 13.8649 18.1308 14.013 18.117L44.4825 15.417C44.5552 15.4115 44.6283 15.4204 44.6976 15.4432C44.7669 15.4661 44.831 15.5024 44.8862 15.55C44.9414 15.5977 44.9866 15.6558 45.0193 15.721C45.0519 15.7862 45.0714 15.8573 45.0765 15.93L46.7505 34.992L42.2415 36.1935C41.9107 35.7594 41.5351 35.3612 41.121 35.0055L31.05 26.595C30.9144 26.4806 30.7576 26.394 30.5886 26.3402C30.4195 26.2864 30.2415 26.2664 30.0647 26.2815C29.8879 26.2965 29.7158 26.3462 29.5583 26.4278C29.4007 26.5094 29.2608 26.6213 29.1465 26.757L20.6955 36.8145C19.4808 38.2371 18.8606 40.0728 18.9636 41.9406C19.0667 43.8084 19.8851 45.5648 21.249 46.845C22.0815 47.5844 23.0756 48.1186 24.1516 48.4046C25.2277 48.6906 26.3558 48.7205 27.4455 48.492C27.0872 49.1623 26.6323 49.7764 26.0955 50.3145C25.892 50.5083 25.754 50.7606 25.7008 51.0365C25.6476 51.3124 25.6817 51.598 25.7985 51.8535C25.9031 52.0863 26.0714 52.2846 26.2841 52.4256C26.4967 52.5665 26.7449 52.6444 27 52.65H27.1215L31.293 52.2855L30.1725 56.7C30.0199 57.2887 30.0203 57.9066 30.1739 58.4949C30.3275 59.0833 30.6291 59.6226 31.05 60.0615L34.5195 63.45L18.1035 64.9215ZM32.076 49.5045L29.8755 49.6935C30.0286 49.4354 30.1682 49.1695 30.294 48.897C30.5045 48.481 30.5848 48.0113 30.5246 47.549C30.4644 47.0867 30.2665 46.6533 29.9565 46.305C29.6547 45.9652 29.2584 45.7233 28.8182 45.6103C28.3781 45.4972 27.9142 45.5182 27.486 45.6705C26.7412 45.9445 25.9361 46.0114 25.1563 45.864C24.3766 45.7166 23.6514 45.3604 23.058 44.8335C22.2173 44.021 21.7206 42.9167 21.6704 41.7487C21.6202 40.5806 22.0202 39.4378 22.788 38.556L30.3615 29.5245L39.285 37.017L37.1115 37.5975C36.5094 37.7588 35.9603 38.0758 35.5195 38.5166C35.0788 38.9573 34.7618 39.5064 34.6005 40.1085L32.076 49.5045ZM63.045 65.4345C63.0055 65.58 62.9287 65.7126 62.8221 65.8191C62.7156 65.9257 62.583 66.0026 62.4375 66.042L45.9 70.47C45.7532 70.499 45.6013 70.4894 45.4593 70.4421C45.3173 70.3947 45.1901 70.3113 45.09 70.2L33.0075 58.05C32.8976 57.9469 32.818 57.8156 32.7775 57.6704C32.7371 57.5252 32.7372 57.3717 32.778 57.2265L37.206 40.7025C37.2455 40.5571 37.3223 40.4245 37.4289 40.3179C37.5355 40.2113 37.6681 40.1345 37.8135 40.095L54.324 35.775C54.466 35.7412 54.614 35.7412 54.756 35.775C54.9041 35.8165 55.039 35.8955 55.1475 36.0045L67.2975 48.1545C67.4062 48.2585 67.4849 48.3899 67.5253 48.5348C67.5657 48.6797 67.5663 48.8328 67.527 48.978L63.045 65.4345Z" fill="#FA5B37"/>
<path d="M49.9497 51.0028L42.9162 43.9828C42.7903 43.8551 42.6405 43.7535 42.4754 43.6838C42.3103 43.614 42.133 43.5775 41.9537 43.5762C41.7745 43.575 41.5967 43.609 41.4306 43.6765C41.2645 43.7439 41.1133 43.8434 40.9857 43.9693C40.8581 44.0951 40.7565 44.2449 40.6867 44.4101C40.6169 44.5752 40.5804 44.7525 40.5791 44.9317C40.5779 45.111 40.6119 45.2887 40.6794 45.4548C40.7468 45.6209 40.8463 45.7721 40.9722 45.8998L48.0057 52.9198C48.1919 53.1108 48.3257 53.3465 48.3942 53.6042C48.4628 53.862 48.4638 54.133 48.3972 54.3913L45.8187 63.9898C45.7718 64.1617 45.7595 64.3413 45.7823 64.5181C45.8052 64.6949 45.8629 64.8653 45.952 65.0197C46.0411 65.1741 46.1599 65.3093 46.3015 65.4175C46.4432 65.5258 46.6048 65.6049 46.7772 65.6503C46.8938 65.6643 47.0116 65.6643 47.1282 65.6503C47.433 65.6607 47.7323 65.5677 47.9775 65.3862C48.2226 65.2048 48.3991 64.9458 48.4782 64.6513L51.0567 55.0528C51.2425 54.3399 51.238 53.5907 51.0438 52.88C50.8496 52.1693 50.4723 51.5221 49.9497 51.0028Z" fill="#FA5B37"/>
<path d="M62.6263 49.7742C62.5315 49.4316 62.3054 49.1402 61.997 48.9632C61.6887 48.7863 61.323 48.7382 60.9793 48.8292L54.7288 50.4897C54.5577 50.5366 54.3974 50.6168 54.2573 50.7256C54.1171 50.8344 53.9998 50.9699 53.9121 51.1241C53.8243 51.2783 53.7678 51.4483 53.7458 51.6244C53.7238 51.8005 53.7367 51.9792 53.7838 52.1502C53.8629 52.4448 54.0394 52.7038 54.2845 52.8852C54.5297 53.0666 54.829 53.1597 55.1338 53.1492C55.2504 53.1625 55.3682 53.1625 55.4848 53.1492L61.7218 51.4752C61.8938 51.4244 62.0539 51.3397 62.1929 51.2263C62.3318 51.1128 62.4467 50.9729 62.5309 50.8145C62.6151 50.6561 62.6669 50.4826 62.6833 50.304C62.6997 50.1254 62.6803 49.9453 62.6263 49.7742Z" fill="#FA5B37"/>
<path d="M41.1207 60.6013C41.0072 61.1314 41.0214 61.6808 41.1622 62.2043C41.3031 62.7278 41.5665 63.2103 41.9307 63.6118C42.6327 64.3273 43.4157 64.1248 43.6722 63.1528C43.7858 62.6227 43.7716 62.0732 43.6308 61.5497C43.4899 61.0262 43.2265 60.5438 42.8622 60.1423C42.1602 59.3998 41.3772 59.6428 41.1207 60.6013Z" fill="#FA5B37"/>
<path d="M40.1351 50.7866C40.2487 50.2566 40.2345 49.7071 40.0936 49.1836C39.9528 48.6601 39.6894 48.1777 39.3251 47.7761C38.6231 47.0741 37.8401 47.2766 37.5836 48.2351C37.47 48.7652 37.4843 49.3147 37.6251 49.8382C37.766 50.3617 38.0294 50.8441 38.3936 51.2456C39.1496 51.9611 39.8786 51.7586 40.1351 50.7866Z" fill="#FA5B37"/>
<path d="M41.85 56.9702C41.9636 56.4402 41.9493 55.8907 41.8085 55.3672C41.6676 54.8437 41.4042 54.3612 41.04 53.9597C40.338 53.2577 39.555 53.4602 39.2985 54.4187C39.1849 54.9488 39.1991 55.4983 39.34 56.0218C39.4808 56.5453 39.7442 57.0277 40.1085 57.4292C40.8645 58.1447 41.6475 57.9422 41.85 56.9702Z" fill="#FA5B37"/>
<path d="M53.9999 44.9146C54.1846 44.8823 54.3558 44.7965 54.4922 44.6678C54.6286 44.5392 54.7243 44.3733 54.7674 44.1908C54.8105 44.0083 54.7992 43.8172 54.7347 43.6411C54.6703 43.465 54.5556 43.3117 54.4049 43.2001C54.0028 42.8368 53.5203 42.574 52.997 42.4332C52.4737 42.2924 51.9245 42.2776 51.3944 42.3901C51.1941 42.4002 51.0023 42.4738 50.8466 42.6001C50.6909 42.7265 50.5794 42.8991 50.5283 43.0931C50.4772 43.287 50.4891 43.4921 50.5623 43.6788C50.6355 43.8655 50.7661 44.0241 50.9354 44.1316C51.3452 44.4995 51.838 44.7629 52.3716 44.8992C52.9052 45.0356 53.4638 45.0408 53.9999 44.9146Z" fill="#FA5B37"/>
<path d="M62.1008 53.8917C61.585 54.0603 61.1165 54.3489 60.734 54.7338C60.3515 55.1187 60.0657 55.5889 59.9003 56.1057C59.6438 57.0642 60.2243 57.6312 61.2503 57.3747C61.7656 57.2052 62.2335 56.9162 62.6159 56.5315C62.9983 56.1467 63.2844 55.6771 63.4508 55.1607C63.6938 54.2022 63.1133 53.6352 62.1008 53.8917Z" fill="#FA5B37"/>
<path d="M52.8928 62.8428C52.379 63.0111 51.912 63.2979 51.5297 63.6802C51.1474 64.0626 50.8605 64.5295 50.6923 65.0433C50.4358 66.0018 51.0163 66.5688 52.0423 66.3123C52.5591 66.1469 53.0293 65.8612 53.4142 65.4786C53.7991 65.0961 54.0877 64.6277 54.2563 64.1118C54.4453 63.1398 53.8648 62.5863 52.8928 62.8428Z" fill="#FA5B37"/>
</svg>
