<svg width="85" height="85" viewBox="0 0 85 85" fill="none" xmlns="http://www.w3.org/2000/svg">
<path d="M17.2666 35.8594C10.3604 28.9531 10.3604 18.0625 17.2666 11.1562L46.751 40.6406L56.5791 50.4688L71.7197 65.6094C74.376 68.2656 74.376 72.25 71.7197 74.9063C69.0635 77.5625 64.2822 77.5625 61.8916 74.375L51.001 60.8281C48.3447 57.375 43.5635 56.3125 39.3135 57.9063L17.2666 35.8594Z" stroke="#FA5B37" stroke-width="2" stroke-miterlimit="10" stroke-linecap="round" stroke-linejoin="round"/>
<path d="M56.5791 32.1406L70.9229 17.7969" stroke="#FA5B37" stroke-width="2" stroke-miterlimit="10" stroke-linecap="round" stroke-linejoin="round"/>
<path d="M50.7334 44.625C51.7959 44.3594 52.5928 44.3594 53.6553 44.0938C57.1084 43.8281 61.0928 41.9688 65.0771 37.9844L78.0928 24.9688" stroke="#FA5B37" stroke-width="2" stroke-miterlimit="10" stroke-linecap="round" stroke-linejoin="round"/>
<path d="M32.6718 51.2656L14.078 66.4063C11.1562 68.5313 10.8905 72.7812 13.5468 75.1719C16.203 77.8281 20.1874 77.2969 22.3124 74.6406L37.453 55.7813" stroke="#FA5B37" stroke-width="2" stroke-miterlimit="10" stroke-linecap="round" stroke-linejoin="round"/>
<path d="M63.75 10.625L50.4688 23.6406C46.4844 27.625 44.3594 31.6094 44.3594 35.0625C44.3594 36.125 44.0938 36.9219 43.8281 37.9844" stroke="#FA5B37" stroke-width="2" stroke-miterlimit="10" stroke-linecap="round" stroke-linejoin="round"/>
</svg>
