<svg width="105" height="79" viewBox="0 0 105 79" fill="none" xmlns="http://www.w3.org/2000/svg">
<path d="M2.70382 61.7367H16.718V2.91232C16.718 1.46528 17.8908 0.29248 19.3378 0.29248H83.738C85.185 0.29248 86.3578 1.46528 86.3578 2.91232V20.1782C91.691 21.1589 96.0663 24.9945 97.6978 30.195C99.0918 34.6322 98.2855 39.4295 95.562 43.1779L104.185 52.2165C106.554 54.7062 102.768 58.3093 100.397 55.8196L91.7845 46.7911C90.6737 47.5228 89.4453 48.1143 88.1132 48.5313C87.5306 48.7146 86.9442 48.8586 86.3578 48.9661V61.7367H100.372C101.819 61.7367 102.993 62.9107 102.993 64.3577C102.993 72.2564 96.5402 78.7081 88.6402 78.7081H14.4356C6.53689 78.7081 0.0839844 72.2564 0.0839844 64.3577C0.0839844 62.9107 1.25678 61.7367 2.70382 61.7367ZM31.7394 46.1187C28.293 46.1187 28.293 40.8778 31.7394 40.8778H55.8209C59.2672 40.8778 59.2672 46.1187 55.8209 46.1187H31.7394ZM31.7394 54.5065C28.293 54.5065 28.293 49.2668 31.7394 49.2668H55.8209C59.2672 49.2668 59.2672 54.5065 55.8209 54.5065H31.7394ZM29.845 10.5747H57.7153C59.1623 10.5747 60.3351 11.7475 60.3351 13.1945V32.9463C60.3351 34.3933 59.1623 35.5661 57.7153 35.5661H29.845C28.3979 35.5661 27.2251 34.3933 27.2251 32.9463V13.1945C27.2251 11.7475 28.3979 10.5747 29.845 10.5747ZM55.0955 15.8143H32.4648V30.3264H55.0955V15.8143ZM92.7046 31.7558C91.049 26.7878 85.9597 24.0264 80.9235 25.6037C75.9543 27.2605 73.1904 32.3498 74.7727 37.391C76.3613 42.4563 81.7008 45.061 86.5575 43.5368C91.4496 42.0026 94.2793 36.7831 92.7046 31.7558ZM21.9589 61.7367H81.1182V48.9635C75.7837 47.9816 71.4097 44.1498 69.7769 38.9467C67.3618 31.2477 71.6675 23.0255 79.3628 20.6104C79.9454 20.4272 80.5318 20.2831 81.1182 20.1757V5.53215H21.9589V61.7367ZM97.3642 66.9776H5.71164C6.87053 70.798 10.4218 73.4684 14.4356 73.4684H88.6402C92.654 73.4684 96.2065 70.7993 97.3642 66.9776Z" fill="#FA5B37"/>
</svg>
