<svg width="84" height="84" viewBox="0 0 84 84" fill="none" xmlns="http://www.w3.org/2000/svg">
<path d="M62.16 74.7636C62.16 78.935 58.7748 82.3202 54.5984 82.3202C50.4252 82.3202 47.04 78.935 47.04 74.7636C47.04 70.5854 50.4252 67.2002 54.5984 67.2002C58.7748 67.2002 62.16 70.5854 62.16 74.7636Z" stroke="#FA5B37" stroke-width="2.1081" stroke-miterlimit="10" stroke-linecap="round" stroke-linejoin="round"/>
<path d="M58.7997 9.24137C58.7997 13.4162 55.4145 16.7997 51.2397 16.7997C47.0649 16.7997 43.6797 13.4162 43.6797 9.24137C43.6797 5.06321 47.0649 1.67969 51.2397 1.67969C55.4145 1.67969 58.7997 5.06321 58.7997 9.24137Z" stroke="#FA5B37" stroke-width="2" stroke-miterlimit="10" stroke-linecap="round" stroke-linejoin="round"/>
<path d="M52.6236 32.1503C52.6236 32.1503 33.9605 76.919 33.2078 78.7031C32.4552 80.4873 31.2607 82.7334 28.0502 81.7523C25.631 81.0131 25.1304 78.7972 25.8814 76.2604C26.6323 73.7236 37.811 45.3517 36.9089 45.2224C36.2856 45.1333 29.2649 57.0815 27.7512 59.3982C26.7012 61.0026 25.1102 62.9262 22.4122 61.7435C20.203 60.7792 19.7258 58.2911 20.6179 56.3591C24.1846 48.6261 35.2793 25.2002 35.2793 25.2002C35.2793 25.2002 16.3541 25.133 11.7593 25.2002C6.9276 25.2707 6.3732 21.0875 11.7593 20.1602C18.0038 19.0883 36.7526 16.8002 36.7526 16.8002C36.7526 16.8002 39.8002 16.5028 42.1992 17.7326C44.4588 18.8918 51.419 22.6566 54.6211 24.4996C57.2352 26.0066 64.4861 31.2112 64.4861 31.2112L74.6551 23.4395C74.6551 23.4395 76.8778 21.8486 78.2134 23.1388C79.7489 24.6256 78.467 26.4266 76.7669 28.1435C75.0617 29.8672 67.7806 34.9442 66.5575 36.0278C66.0132 36.5099 64.7045 37.4692 62.3642 36.5368C60.0206 35.601 52.6236 32.1503 52.6236 32.1503Z" stroke="#FA5B37" stroke-width="2" stroke-miterlimit="10" stroke-linecap="round" stroke-linejoin="round"/>
</svg>
