<svg width="101" height="101" viewBox="0 0 101 101" fill="none" xmlns="http://www.w3.org/2000/svg">
<path d="M82.6507 17.5737L79.1157 16.833V16.2944C79.1157 14.955 78.5837 13.6705 77.6366 12.7235C76.6895 11.7764 75.4051 11.2444 74.0657 11.2444H55.1787L36.7799 6.96871C36.1298 6.81431 35.4555 6.79045 34.7961 6.89853C34.1368 7.0066 33.5054 7.24446 32.9386 7.59831C32.3718 7.95216 31.8809 8.41498 31.4942 8.95994C31.1076 9.5049 30.833 10.1212 30.6862 10.773L30.5852 11.2275H26.9324C25.5931 11.2275 24.3086 11.7596 23.3615 12.7067C22.4144 13.6537 21.8824 14.9382 21.8824 16.2775V48.9174L14.5431 80.7997C14.3912 81.4486 14.3692 82.1212 14.4785 82.7787C14.5878 83.4361 14.8261 84.0654 15.1798 84.6303C15.5334 85.1952 15.9954 85.6846 16.5391 86.0701C17.0827 86.4556 17.6973 86.7297 18.3474 86.8765L21.8824 87.7014V88.1559C21.8824 89.4952 22.4144 90.7797 23.3615 91.7268C24.3086 92.6738 25.5931 93.2059 26.9324 93.2059H45.9877L46.1729 93.29L64.2182 97.4647C64.8683 97.6191 65.5426 97.643 66.202 97.5349C66.8614 97.4268 67.4927 97.1889 68.0595 96.8351C68.6263 96.4812 69.1173 96.0184 69.5039 95.4735C69.8905 94.9285 70.1652 94.3122 70.3119 93.6604L70.4129 93.2059H74.0657C75.4051 93.2059 76.6895 92.6738 77.6366 91.7268C78.5837 90.7797 79.1157 89.4952 79.1157 88.1559V55.4487L86.4551 23.6505C86.6069 23.0016 86.6289 22.329 86.5196 21.6716C86.4103 21.0141 86.172 20.3848 85.8184 19.8199C85.4647 19.255 85.0027 18.7657 84.4591 18.3802C83.9154 17.9946 83.3008 17.7206 82.6507 17.5737ZM21.8824 84.1664L19.1049 83.5099C18.886 83.4623 18.6788 83.3714 18.4955 83.2427C18.3121 83.114 18.1563 82.95 18.0372 82.7603C17.918 82.5706 17.8379 82.3591 17.8016 82.138C17.7653 81.917 17.7734 81.6909 17.8256 81.473L21.8824 63.9664V84.1664ZM36.0224 10.2512L40.2139 11.2275H34.1034C34.2588 10.8663 34.5358 10.5708 34.8864 10.3924C35.2369 10.2141 35.6389 10.1641 36.0224 10.2512ZM64.9757 94.1149L60.8011 93.1385H66.8947C66.7393 93.4998 66.4623 93.7953 66.1117 93.9736C65.7612 94.152 65.3593 94.2019 64.9757 94.1149ZM75.7491 88.0717C75.7491 88.5181 75.5717 88.9463 75.256 89.262C74.9403 89.5777 74.5122 89.755 74.0657 89.755H26.9324C26.4859 89.755 26.0578 89.5777 25.7421 89.262C25.4264 88.9463 25.2491 88.5181 25.2491 88.0717V16.2944C25.2491 15.8479 25.4264 15.4198 25.7421 15.1041C26.0578 14.7884 26.4859 14.611 26.9324 14.611H74.0657C74.5122 14.611 74.9403 14.7884 75.256 15.1041C75.5717 15.4198 75.7491 15.8479 75.7491 16.2944V88.0717ZM83.1726 22.893L79.1157 40.4839V20.1997L81.8932 20.8394C82.1139 20.8868 82.3228 20.9782 82.5075 21.108C82.6921 21.2378 82.8488 21.4034 82.9682 21.595C83.0875 21.7866 83.1671 22.0003 83.2022 22.2233C83.2374 22.4463 83.2273 22.674 83.1726 22.893Z" fill="#FA5B37"/>
<path d="M67.3344 80.5139H35.351V66.8284C35.351 66.3819 35.1737 65.9537 34.858 65.6381C34.5423 65.3224 34.1142 65.145 33.6677 65.145C33.2213 65.145 32.7931 65.3224 32.4774 65.6381C32.1617 65.9537 31.9844 66.3819 31.9844 66.8284V82.1972C31.9844 82.6436 32.1617 83.0718 32.4774 83.3875C32.7931 83.7032 33.2213 83.8805 33.6677 83.8805H67.3344C67.7808 83.8805 68.209 83.7032 68.5247 83.3875C68.8404 83.0718 69.0177 82.6436 69.0177 82.1972C69.0177 81.7507 68.8404 81.3226 68.5247 81.0069C68.209 80.6912 67.7808 80.5139 67.3344 80.5139Z" fill="#FA5B37"/>
<path d="M39.2714 37.4035C41.2061 37.4036 43.0618 36.6362 44.4314 35.2697C45.801 33.9033 46.5726 32.0494 46.5771 30.1147C46.5669 28.7604 46.1761 27.4363 45.4492 26.2935L48.5129 23.2467C48.8299 22.9297 49.008 22.4998 49.008 22.0515C49.008 21.6033 48.8299 21.1734 48.5129 20.8564C48.1959 20.5394 47.766 20.3613 47.3177 20.3613C46.8695 20.3613 46.4396 20.5394 46.1226 20.8564L39.2546 27.7244L35.4334 23.9032C35.118 23.5897 34.6914 23.4137 34.2467 23.4137C33.802 23.4137 33.3753 23.5897 33.0599 23.9032C32.7464 24.2186 32.5704 24.6453 32.5704 25.09C32.5704 25.5347 32.7464 25.9613 33.0599 26.2767C32.347 27.4293 31.9736 28.7595 31.9826 30.1147C31.9826 32.0478 32.7505 33.9018 34.1174 35.2687C35.4844 36.6356 37.3383 37.4035 39.2714 37.4035ZM35.5849 28.8017L38.0931 31.3099C38.4066 31.6209 38.8298 31.7962 39.2714 31.798C39.6954 31.7833 40.0983 31.6089 40.3992 31.3099L42.9074 28.8017C43.0536 29.2245 43.1332 29.6675 43.1431 30.1147C43.0777 31.1127 42.6352 32.0485 41.9053 32.7322C41.1753 33.4159 40.2126 33.7963 39.2125 33.7963C38.2124 33.7963 37.2497 33.4159 36.5197 32.7322C35.7898 32.0485 35.3473 31.1127 35.2819 30.1147C35.305 29.6627 35.4076 29.2182 35.5849 28.8017Z" fill="#FA5B37"/>
<path d="M39.2732 55.853C40.7188 55.8563 42.133 55.4307 43.3366 54.63C44.5402 53.8293 45.4792 52.6894 46.0348 51.3548C46.5903 50.0202 46.7374 48.5507 46.4574 47.1324C46.1774 45.7142 45.4829 44.4108 44.4619 43.3874C43.4408 42.364 42.1391 41.6666 40.7215 41.3833C39.3039 41.1001 37.8341 41.2437 36.4982 41.7962C35.1623 42.3486 34.0203 43.285 33.2168 44.4868C32.4133 45.6886 31.9844 47.1017 31.9844 48.5474C31.9888 50.4807 32.7576 52.3338 34.1231 53.7024C35.4886 55.071 37.3399 55.8441 39.2732 55.853ZM39.2732 44.6252C40.0537 44.6219 40.8176 44.8505 41.4679 45.282C42.1182 45.7135 42.6257 46.3286 42.9259 47.049C43.2262 47.7694 43.3056 48.5628 43.1541 49.3285C43.0027 50.0941 42.6272 50.7976 42.0753 51.3494C41.5234 51.9013 40.82 52.2768 40.0543 52.4283C39.2887 52.5797 38.4953 52.5003 37.7749 52.2001C37.0544 51.8999 36.4394 51.3924 36.0079 50.7421C35.5763 50.0917 35.3477 49.3278 35.351 48.5474C35.3555 47.5085 35.7701 46.5134 36.5047 45.7789C37.2393 45.0443 38.2343 44.6296 39.2732 44.6252Z" fill="#FA5B37"/>
<path d="M67.3341 59.5562H60.7354C60.289 59.5562 59.8608 59.7335 59.5451 60.0492C59.2294 60.3649 59.0521 60.793 59.0521 61.2395C59.0521 61.6859 59.2294 62.1141 59.5451 62.4298C59.8608 62.7455 60.289 62.9228 60.7354 62.9228H63.2772L53.8674 72.3831L47.2519 65.6498C46.9365 65.3363 46.5099 65.1603 46.0652 65.1603C45.6204 65.1603 45.1938 65.3363 44.8784 65.6498L38.8521 71.693C38.6759 71.8439 38.5327 72.0296 38.4317 72.2384C38.3307 72.4473 38.2739 72.6747 38.2649 72.9066C38.256 73.1384 38.295 73.3696 38.3797 73.5856C38.4643 73.8016 38.5927 73.9978 38.7567 74.1618C38.9208 74.3259 39.1169 74.4542 39.333 74.5389C39.549 74.6235 39.7801 74.6626 40.012 74.6536C40.2438 74.6447 40.4713 74.5879 40.6801 74.4868C40.889 74.3858 41.0747 74.2427 41.2256 74.0665L46.0736 69.2185L52.6722 75.834C52.8287 75.9917 53.0149 76.117 53.22 76.2024C53.4252 76.2879 53.6452 76.3319 53.8674 76.3319C54.0896 76.3319 54.3096 76.2879 54.5148 76.2024C54.7199 76.117 54.9061 75.9917 55.0626 75.834L65.6507 65.3131V67.8381C65.6507 68.2846 65.8281 68.7128 66.1438 69.0284C66.4595 69.3441 66.8876 69.5215 67.3341 69.5215C67.7805 69.5215 68.2087 69.3441 68.5244 69.0284C68.8401 68.7128 69.0174 68.2846 69.0174 67.8381V61.2395C69.0174 60.793 68.8401 60.3649 68.5244 60.0492C68.2087 59.7335 67.7805 59.5562 67.3341 59.5562Z" fill="#FA5B37"/>
<path d="M52.738 46.8637H59.9595C60.406 46.8637 60.8341 46.6864 61.1498 46.3707C61.4655 46.055 61.6429 45.6269 61.6429 45.1804C61.6429 44.734 61.4655 44.3058 61.1498 43.9901C60.8341 43.6744 60.406 43.4971 59.9595 43.4971H52.738C52.2916 43.4971 51.8634 43.6744 51.5477 43.9901C51.232 44.3058 51.0547 44.734 51.0547 45.1804C51.0547 45.6269 51.232 46.055 51.5477 46.3707C51.8634 46.6864 52.2916 46.8637 52.738 46.8637Z" fill="#FA5B37"/>
<path d="M52.738 53.6142H66.5919C67.0383 53.6142 67.4665 53.4369 67.7821 53.1212C68.0978 52.8055 68.2752 52.3773 68.2752 51.9309C68.2752 51.4844 68.0978 51.0563 67.7821 50.7406C67.4665 50.4249 67.0383 50.2476 66.5919 50.2476H52.738C52.2916 50.2476 51.8634 50.4249 51.5477 50.7406C51.232 51.0563 51.0547 51.4844 51.0547 51.9309C51.0547 52.3773 51.232 52.8055 51.5477 53.1212C51.8634 53.4369 52.2916 53.6142 52.738 53.6142Z" fill="#FA5B37"/>
<path d="M52.738 28.4316H59.9595C60.406 28.4316 60.8341 28.2543 61.1498 27.9386C61.4655 27.6229 61.6429 27.1947 61.6429 26.7483C61.6429 26.3018 61.4655 25.8737 61.1498 25.558C60.8341 25.2423 60.406 25.0649 59.9595 25.0649H52.738C52.2916 25.0649 51.8634 25.2423 51.5477 25.558C51.232 25.8737 51.0547 26.3018 51.0547 26.7483C51.0547 27.1947 51.232 27.6229 51.5477 27.9386C51.8634 28.2543 52.2916 28.4316 52.738 28.4316Z" fill="#FA5B37"/>
<path d="M52.738 35.165H66.5919C67.0383 35.165 67.4665 34.9877 67.7821 34.672C68.0978 34.3563 68.2752 33.9281 68.2752 33.4817C68.2752 33.0352 68.0978 32.6071 67.7821 32.2914C67.4665 31.9757 67.0383 31.7983 66.5919 31.7983H52.738C52.2916 31.7983 51.8634 31.9757 51.5477 32.2914C51.232 32.6071 51.0547 33.0352 51.0547 33.4817C51.0547 33.9281 51.232 34.3563 51.5477 34.672C51.8634 34.9877 52.2916 35.165 52.738 35.165Z" fill="#FA5B37"/>
</svg>
