<svg width="87" height="66" viewBox="0 0 87 66" fill="none" xmlns="http://www.w3.org/2000/svg">
<g clip-path="url(#clip0_753_181)">
<path d="M53.0124 9.73438H45.7324V17.0144H53.0124V9.73438Z" stroke="#FA5B37" stroke-width="2" stroke-miterlimit="10" stroke-linecap="round" stroke-linejoin="round"/>
<path d="M39.1462 9.73438H31.8662V17.0144H39.1462V9.73438Z" stroke="#FA5B37" stroke-width="2" stroke-miterlimit="10" stroke-linecap="round" stroke-linejoin="round"/>
<path d="M53.0124 22.5605H45.7324V29.8405H53.0124V22.5605Z" stroke="#FA5B37" stroke-width="2" stroke-miterlimit="10" stroke-linecap="round" stroke-linejoin="round"/>
<path d="M39.1462 22.5605H31.8662V29.8405H39.1462V22.5605Z" stroke="#FA5B37" stroke-width="2" stroke-miterlimit="10" stroke-linecap="round" stroke-linejoin="round"/>
<path d="M53.0124 35.041H45.7324V42.321H53.0124V35.041Z" stroke="#FA5B37" stroke-width="2" stroke-miterlimit="10" stroke-linecap="round" stroke-linejoin="round"/>
<path d="M39.1462 35.041H31.8662V42.321H39.1462V35.041Z" stroke="#FA5B37" stroke-width="2" stroke-miterlimit="10" stroke-linecap="round" stroke-linejoin="round"/>
<path d="M48.1597 61.3872V49.9473H36.7197V61.3872" stroke="#FA5B37" stroke-width="2" stroke-miterlimit="10" stroke-linecap="round" stroke-linejoin="round"/>
<path d="M77.28 18.0547H70.6934V24.6414H77.28V18.0547Z" stroke="#FA5B37" stroke-width="2" stroke-miterlimit="10" stroke-linecap="round" stroke-linejoin="round"/>
<path d="M77.28 29.8418H70.6934V36.4285H77.28V29.8418Z" stroke="#FA5B37" stroke-width="2" stroke-miterlimit="10" stroke-linecap="round" stroke-linejoin="round"/>
<path d="M77.28 41.2812H70.6934V47.5213H77.28V41.2812Z" stroke="#FA5B37" stroke-width="2" stroke-miterlimit="10" stroke-linecap="round" stroke-linejoin="round"/>
<path d="M62.373 65.5477H80.6795C81.195 65.5477 81.4397 64.9563 81.4397 64.4408V61.561V9.80126C81.4397 9.28576 81.195 9.04102 80.6795 9.04102H62.373" stroke="#FA5B37" stroke-width="2" stroke-miterlimit="10" stroke-linecap="round" stroke-linejoin="round"/>
<path d="M62.373 47.5213H65.1464V41.2812H62.373" stroke="#FA5B37" stroke-width="2" stroke-miterlimit="10" stroke-linecap="round" stroke-linejoin="round"/>
<path d="M77.28 51.6816H70.6934V57.9216H77.28V51.6816Z" stroke="#FA5B37" stroke-width="2" stroke-miterlimit="10" stroke-linecap="round" stroke-linejoin="round"/>
<path d="M62.373 57.9216H65.1464V51.6816H62.373" stroke="#FA5B37" stroke-width="2" stroke-miterlimit="10" stroke-linecap="round" stroke-linejoin="round"/>
<path d="M62.373 36.4285H65.1464V29.8418H62.373" stroke="#FA5B37" stroke-width="2" stroke-miterlimit="10" stroke-linecap="round" stroke-linejoin="round"/>
<path d="M62.373 24.6414H65.1464V18.0547H62.373" stroke="#FA5B37" stroke-width="2" stroke-miterlimit="10" stroke-linecap="round" stroke-linejoin="round"/>
<path d="M14.8797 23.2539H9.33301V28.8006H14.8797V23.2539Z" stroke="#FA5B37" stroke-width="2" stroke-miterlimit="10" stroke-linecap="round" stroke-linejoin="round"/>
<path d="M14.8797 33.3086H9.33301V38.8553H14.8797V33.3086Z" stroke="#FA5B37" stroke-width="2" stroke-miterlimit="10" stroke-linecap="round" stroke-linejoin="round"/>
<path d="M14.8797 43.3613H9.33301V48.5613H14.8797V43.3613Z" stroke="#FA5B37" stroke-width="2" stroke-miterlimit="10" stroke-linecap="round" stroke-linejoin="round"/>
<path d="M22.1595 65.5481H6.92076C6.47633 65.5481 5.51953 64.6392 5.51953 64.1951V17.0918C5.51953 16.647 6.47598 16.6681 6.92076 16.6681H22.5062" stroke="#FA5B37" stroke-width="2" stroke-miterlimit="10" stroke-linecap="round" stroke-linejoin="round"/>
<path d="M22.5058 48.5613H19.7324V43.3613H22.5058" stroke="#FA5B37" stroke-width="2" stroke-miterlimit="10" stroke-linecap="round" stroke-linejoin="round"/>
<path d="M14.8797 52.0273H9.33301V57.574H14.8797V52.0273Z" stroke="#FA5B37" stroke-width="2" stroke-miterlimit="10" stroke-linecap="round" stroke-linejoin="round"/>
<path d="M22.1591 57.574H19.7324V52.0273H22.1591" stroke="#FA5B37" stroke-width="2" stroke-miterlimit="10" stroke-linecap="round" stroke-linejoin="round"/>
<path d="M22.5058 38.8553H19.7324V33.3086H22.1591" stroke="#FA5B37" stroke-width="2" stroke-miterlimit="10" stroke-linecap="round" stroke-linejoin="round"/>
<path d="M22.1591 28.8006H19.7324V23.2539H22.5058" stroke="#FA5B37" stroke-width="2" stroke-miterlimit="10" stroke-linecap="round" stroke-linejoin="round"/>
<path d="M58.2127 3.84078C58.2127 3.26635 57.7471 2.80078 57.1727 2.80078H27.706C27.1316 2.80078 26.666 3.26635 26.666 3.84078V64.5075C26.666 65.0819 27.1316 65.5475 27.706 65.5475H57.1727C57.7471 65.5475 58.2127 65.7752 58.2127 65.2008V3.84078Z" stroke="#FA5B37" stroke-width="2" stroke-miterlimit="10" stroke-linecap="round" stroke-linejoin="round"/>
<path d="M23.8936 2.80078H60.9869" stroke="#FA5B37" stroke-width="6" stroke-miterlimit="10" stroke-linecap="round" stroke-linejoin="round"/>
<path d="M3.09375 16.666H22.5071" stroke="#FA5B37" stroke-width="6" stroke-miterlimit="10" stroke-linecap="round" stroke-linejoin="round"/>
<path d="M64.1064 9.03906H83.5198" stroke="#FA5B37" stroke-width="6" stroke-miterlimit="10" stroke-linecap="round" stroke-linejoin="round"/>
</g>
<defs>
<clipPath id="clip0_753_181">
<rect width="87" height="66" fill="white"/>
</clipPath>
</defs>
</svg>
