<svg width="87" height="81" viewBox="0 0 87 81" fill="none" xmlns="http://www.w3.org/2000/svg">
<path fill-rule="evenodd" clip-rule="evenodd" d="M72 72H78.0172C82.9782 72 87 67.9669 87 63.0017V35.9983C87 31.0287 82.9783 27 78.0172 27H72V5.99885C72 2.68577 69.3272 0 66.0077 0H20.9923C17.6828 0 15 2.6623 15 5.99885V27H8.98285C4.02176 27 0 31.0331 0 35.9983V63.0017C0 67.9713 4.02171 72 8.98285 72H15V75.0012C15 78.3142 17.6728 81 20.9923 81H66.0077C69.3172 81 72 78.3377 72 75.0012V72ZM15 69H9.02199C5.69501 69 3 66.31 3 62.9917V36.0083C3 32.6806 5.69614 30 9.02199 30H77.978C81.305 30 84 32.69 84 36.0083V62.9917C84 66.3194 81.3039 69 77.978 69H72V51H15V69ZM20.9999 3C19.3431 3 18 4.35911 18 5.99109V27H69V5.99109C69 4.33916 67.6359 3 66.0001 3H20.9999ZM18 54V75.0089C18 76.6608 19.3641 78 20.9999 78H66.0001C67.6569 78 69 76.6409 69 75.0089V54H18ZM69 42C70.6569 42 72 40.6569 72 39C72 37.3431 70.6569 36 69 36C67.3431 36 66 37.3431 66 39C66 40.6569 67.3431 42 69 42ZM21 60V63H66V60H21ZM21 69V72H66V69H21Z" fill="#FA5B37"/>
</svg>
