<svg width="75" height="77" viewBox="0 0 75 77" fill="none" xmlns="http://www.w3.org/2000/svg">
<path d="M31.4002 27.3522C31.7692 27.6093 32.2183 27.7253 32.6657 27.6792C32.9664 27.6521 33.2528 27.5385 33.4904 27.3522C33.7357 27.1461 33.918 26.875 34.0165 26.5701L34.6563 24.4515L41.0832 23.7406L42.2633 25.7028C42.422 25.9779 42.6532 26.2041 42.9316 26.3568C43.2021 26.4832 43.5023 26.5324 43.799 26.499C44.2432 26.4482 44.6532 26.2356 44.9507 25.9019C45.1002 25.7498 45.2137 25.5661 45.2826 25.3642C45.3515 25.1624 45.3741 24.9477 45.3488 24.7359C45.3172 24.4829 45.2298 24.2401 45.0929 24.025L38.6518 13.8301C38.4409 13.5044 38.1394 13.2474 37.7844 13.0908C37.4187 12.9468 37.0236 12.8932 36.6327 12.9344C36.2382 12.9747 35.8609 13.1167 35.5379 13.3467C35.2236 13.5708 34.9894 13.8897 34.8696 14.2567L30.8315 25.6317C30.7385 25.8713 30.7044 26.1297 30.7319 26.3853C30.768 26.5848 30.8462 26.7743 30.9615 26.941C31.0768 27.1078 31.2263 27.248 31.4002 27.3522ZM37.0877 16.9298L39.5618 21.1954L35.5947 21.6362L37.0877 16.9298Z" fill="#FA5B37"/>
<path d="M23.182 57.4251C23.8303 57.1992 24.392 56.7767 24.7887 56.2165C25.2698 55.5033 25.4625 54.6341 25.328 53.7844C25.1934 52.9347 24.7415 52.1676 24.0636 51.638C23.0301 50.9264 21.7903 50.5764 20.5373 50.6427H15.4186C14.9554 50.6189 14.5013 50.7771 14.1531 51.0835C13.8491 51.4323 13.6957 51.8873 13.7265 52.349V63.0415C13.6957 63.5031 13.8491 63.9581 14.1531 64.3069C14.5013 64.6133 14.9554 64.7715 15.4186 64.7477H20.7364C21.6412 64.7628 22.5401 64.5984 23.3811 64.2643C24.0787 63.986 24.6845 63.5181 25.13 62.9135C25.5345 62.3138 25.7431 61.6034 25.7272 60.8802C25.755 60.0984 25.5252 59.329 25.0731 58.6905C24.5942 58.0775 23.9314 57.634 23.182 57.4251ZM17.2954 53.4296H19.9117C20.4416 53.3879 20.9718 53.5068 21.4331 53.7708C21.5996 53.8944 21.7315 54.0587 21.8162 54.2479C21.9009 54.4372 21.9354 54.645 21.9165 54.8515C21.9312 55.0473 21.8943 55.2436 21.8095 55.4207C21.7247 55.5979 21.5949 55.7497 21.4331 55.861C20.9662 56.1093 20.4394 56.2226 19.9117 56.188H17.2954V53.4296ZM21.8597 61.6196C21.3838 61.8863 20.8393 62.0051 20.2956 61.9608H17.3097V58.9607H20.2956C20.8413 58.9125 21.3884 59.0368 21.8597 59.3161C22.0263 59.4549 22.1563 59.6326 22.2381 59.8334C22.3199 60.0343 22.3511 60.2521 22.3289 60.4679C22.343 60.6828 22.3082 60.8982 22.2269 61.0977C22.1456 61.2973 22.02 61.4757 21.8597 61.6196Z" fill="#FA5B37"/>
<path d="M67.3594 38.4996H50.6239L52.3444 38.3005C53.2749 38.2007 54.1759 37.9152 54.9941 37.461C55.8122 37.0067 56.531 36.3929 57.1077 35.6559C57.6929 34.9266 58.1285 34.089 58.3896 33.1912C58.6507 32.2933 58.732 31.3527 58.6291 30.4234L55.9844 6.43633C55.8872 5.50051 55.6052 4.59329 55.1547 3.76727C54.7043 2.94124 54.0944 2.21284 53.3603 1.62429C52.6263 1.03573 51.7827 0.598735 50.8785 0.33862C49.9744 0.0785061 49.0275 0.000451613 48.093 0.108981L22.6556 2.95273C21.7273 3.04902 20.8276 3.3301 20.0096 3.77942C19.1915 4.22873 18.4716 4.8372 17.8923 5.56898C17.3071 6.29825 16.8715 7.13581 16.6104 8.03368C16.3493 8.93155 16.268 9.87211 16.3709 10.8015L19.0156 34.8596C19.1774 36.1951 19.7149 37.4573 20.5655 38.4996H7.64062C5.7551 38.4996 3.9468 39.2486 2.61354 40.5819C1.28027 41.9152 0.53125 43.7235 0.53125 45.609V69.7809C0.53125 71.6664 1.28027 73.4747 2.61354 74.8079C3.9468 76.1412 5.7551 76.8902 7.64062 76.8902H31.8125C32.9162 76.8902 34.0047 76.6333 34.9919 76.1397C35.9791 75.6461 36.8378 74.9294 37.5 74.0465C38.1622 74.9294 39.0209 75.6461 40.0081 76.1397C40.9953 76.6333 42.0838 76.8902 43.1875 76.8902H67.3594C69.2449 76.8902 71.0532 76.1412 72.3865 74.8079C73.7197 73.4747 74.4688 71.6664 74.4688 69.7809V45.609C74.4688 43.7235 73.7197 41.9152 72.3865 40.5819C71.0532 39.2486 69.2449 38.4996 67.3594 38.4996ZM37.5 41.3434C37.1423 40.8625 36.7214 40.4321 36.2488 40.0637L39.0925 39.7366C38.4815 40.1863 37.9442 40.7284 37.5 41.3434ZM20.1105 7.38898C20.8128 6.50798 21.8351 5.94059 22.9542 5.8107L48.4058 2.95273H48.875C49.9295 2.94633 50.949 3.33078 51.7368 4.03187C52.5245 4.73296 53.0246 5.70099 53.1406 6.74914L55.828 30.7646C55.8912 31.3221 55.8439 31.8866 55.6887 32.4258C55.5335 32.9649 55.2734 33.4682 54.9234 33.9067C54.5734 34.3452 54.1403 34.7103 53.6489 34.9812C53.1576 35.2521 52.6176 35.4234 52.06 35.4852L26.6227 38.329C26.0608 38.3982 25.4908 38.3549 24.9458 38.2016C24.4008 38.0483 23.8919 37.788 23.4485 37.436C23.0052 37.0839 22.6363 36.6472 22.3635 36.1511C22.0907 35.6551 21.9193 35.1097 21.8594 34.5468L19.2005 10.5313C19.1379 9.97343 19.1861 9.40868 19.3422 8.86945C19.4984 8.33022 19.7595 7.82711 20.1105 7.38898ZM31.8125 74.0465H7.64062C6.50931 74.0465 5.42433 73.5971 4.62437 72.7971C3.82441 71.9971 3.375 70.9122 3.375 69.7809V45.609C3.375 44.4777 3.82441 43.3927 4.62437 42.5927C5.42433 41.7928 6.50931 41.3434 7.64062 41.3434H31.8125C32.9438 41.3434 34.0288 41.7928 34.8288 42.5927C35.6287 43.3927 36.0781 44.4777 36.0781 45.609V69.7809C36.0781 70.9122 35.6287 71.9971 34.8288 72.7971C34.0288 73.5971 32.9438 74.0465 31.8125 74.0465ZM71.625 69.7809C71.625 70.9122 71.1756 71.9971 70.3756 72.7971C69.5757 73.5971 68.4907 74.0465 67.3594 74.0465H43.1875C42.0562 74.0465 40.9712 73.5971 40.1712 72.7971C39.3713 71.9971 38.9219 70.9122 38.9219 69.7809V45.609C38.9219 44.4777 39.3713 43.3927 40.1712 42.5927C40.9712 41.7928 42.0562 41.3434 43.1875 41.3434H67.3594C68.4907 41.3434 69.5757 41.7928 70.3756 42.5927C71.1756 43.3927 71.625 44.4777 71.625 45.609V69.7809Z" fill="#FA5B37"/>
<path d="M56.4399 53.3727C56.8722 53.3716 57.3027 53.429 57.7196 53.5433C58.1809 53.6933 58.6244 53.8936 59.0419 54.1405C59.2146 54.2611 59.4007 54.3613 59.5965 54.4391C59.7706 54.4974 59.9532 54.5263 60.1368 54.5244C60.3025 54.5256 60.4662 54.4875 60.6144 54.4134C60.7627 54.3392 60.8913 54.2311 60.9899 54.0979C61.2265 53.7988 61.3521 53.427 61.3454 53.0457C61.3521 52.7995 61.2984 52.5554 61.189 52.3347C61.0752 52.1211 60.9088 51.94 60.7055 51.8087C59.3942 50.9061 57.8324 50.4386 56.2408 50.4721C54.9483 50.4396 53.6695 50.7434 52.5297 51.3537C51.4798 51.932 50.6241 52.8075 50.0699 53.8704C49.4993 55.0647 49.2031 56.3716 49.2031 57.6952C49.2031 59.0189 49.4993 60.3257 50.0699 61.5201C50.615 62.6039 51.4716 63.5002 52.5297 64.0937C53.6695 64.7039 54.9483 65.0077 56.2408 64.9752C57.8324 65.0087 59.3942 64.5412 60.7055 63.6387C60.9065 63.5046 61.0723 63.3241 61.189 63.1126C61.2968 62.8914 61.3504 62.6477 61.3454 62.4016C61.3521 62.0203 61.2265 61.6485 60.9899 61.3494C60.8913 61.2162 60.7627 61.1081 60.6144 61.0339C60.4662 60.9598 60.3025 60.9218 60.1368 60.9229C59.9775 60.9201 59.8189 60.9441 59.6675 60.994L59.0419 61.3068C58.459 61.5627 57.9755 61.7618 57.62 61.8897C57.2444 62.0157 56.8503 62.0781 56.4541 62.0746C55.9609 62.1124 55.4657 62.0358 55.007 61.8508C54.5483 61.6658 54.1384 61.3775 53.8094 61.0082C53.1569 60.0484 52.851 58.8949 52.9421 57.7379C52.853 56.5899 53.159 55.4461 53.8094 54.496C54.1314 54.1184 54.5364 53.8204 54.9928 53.6255C55.4492 53.4307 55.9445 53.3441 56.4399 53.3727Z" fill="#FA5B37"/>
</svg>
