<svg width="106" height="89" viewBox="0 0 106 89" fill="none" xmlns="http://www.w3.org/2000/svg">
<path d="M70.2202 46.1543H35.7793V46.7657C35.7793 48.4035 35.099 49.8993 34.0238 50.9802L34.0128 50.9911C32.9266 52.072 31.4234 52.738 29.7776 52.738H25.8826C24.2368 52.738 22.7336 52.0611 21.6474 50.9911L21.6365 50.9802C20.5502 49.8993 19.8809 48.4035 19.8809 46.7657V46.1543H9.94036V82.4139C9.94036 83.3201 10.3134 84.139 10.9169 84.7395C11.5203 85.34 12.3432 85.7112 13.2539 85.7112H92.7566C93.6673 85.7112 94.4902 85.34 95.0937 84.7395C95.6971 84.139 96.0702 83.3201 96.0702 82.4139V46.1543H86.1296V46.7657C86.1296 48.4035 85.4493 49.8993 84.3741 50.9802L84.3631 50.9911C83.2769 52.072 81.7737 52.738 80.1279 52.738H76.2329C74.5871 52.738 73.0839 52.0611 71.9977 50.9911L71.9867 50.9802C70.9005 49.8993 70.2312 48.4035 70.2312 46.7657V46.1543H70.2202ZM28.1538 16.4894V6.76117C28.1538 4.90506 28.9218 3.21273 30.1397 1.98988C31.3686 0.767033 33.0583 0.0136719 34.9345 0.0136719H71.0651C72.9303 0.0136719 74.631 0.777951 75.8598 1.98988V2.0008C77.0887 3.22365 77.8457 4.90506 77.8457 6.76117V16.4894H104.343H106V18.138V36.5681C106 39.1994 104.914 41.6014 103.169 43.3374C102.116 44.3855 100.821 45.1935 99.3727 45.6739V82.4139C99.3727 84.2263 98.6266 85.875 97.4307 87.0651C96.2347 88.2552 94.578 88.9976 92.7566 88.9976H13.2539C11.4325 88.9976 9.77578 88.2552 8.57983 87.0651C7.38389 85.875 6.6378 84.2263 6.6378 82.4139V45.6739C5.1895 45.1935 3.89481 44.3855 2.8415 43.3374C1.09697 41.6014 0.0107422 39.1994 0.0107422 36.5681V18.138V16.4894H1.66751H28.1648H28.1538ZM74.5212 16.4894V6.76117C74.5212 5.81128 74.1263 4.94873 73.5009 4.32639C72.8755 3.70405 72.0087 3.31099 71.0541 3.31099H34.9235C33.9689 3.31099 33.1021 3.70405 32.4767 4.32639C31.8513 4.94873 31.4563 5.81128 31.4563 6.76117V16.4894H74.5103H74.5212ZM86.1076 42.857H96.3554H96.4322C98.1329 42.8352 99.6799 42.1255 100.81 41.0118C101.951 39.8763 102.664 38.2931 102.664 36.5681V19.7867H3.29135V36.5681C3.29135 38.2931 4.00453 39.8654 5.14561 41.0118C6.27572 42.1364 7.82277 42.8352 9.52342 42.857H9.60023H19.848V39.5597V37.911H21.5048H34.0896H35.7464V39.5597V42.857H70.1873V39.5597V37.911H71.8441H84.4289H86.0857V39.5597V42.857H86.1076ZM82.7941 41.2083H73.5228V46.7766C73.5228 47.5082 73.819 48.1851 74.3018 48.6655L74.3128 48.6764C74.7955 49.1568 75.4758 49.4516 76.2109 49.4516H80.106C80.8411 49.4516 81.5213 49.1568 82.0041 48.6764L82.0151 48.6655C82.4978 48.1851 82.7941 47.5082 82.7941 46.7766V41.2083ZM32.4548 41.2083H23.1835V46.7766C23.1835 47.5082 23.4797 48.1851 23.9625 48.6655L23.9735 48.6764C24.4562 49.1568 25.1365 49.4516 25.8716 49.4516H29.7667C30.5018 49.4516 31.182 49.1568 31.6648 48.6764L31.6758 48.6655C32.1586 48.1851 32.4548 47.5082 32.4548 46.7766V41.2083Z" fill="#FA5B37"/>
</svg>
