<svg width="97" height="97" viewBox="0 0 97 97" fill="none" xmlns="http://www.w3.org/2000/svg">
<path d="M43.1252 45.747L43.1261 45.7473C47.99 47.017 53.1468 46.5167 57.6759 44.3359C58.0766 44.1369 58.4741 43.9236 58.8684 43.6959C62.017 41.8759 64.631 39.2593 66.4479 36.109C68.2648 32.9586 69.2204 29.3854 69.2187 25.7487C69.2171 22.1119 68.2582 18.5396 66.4384 15.3909C64.6186 12.2421 62.0021 9.62787 58.8518 7.81082C55.7015 5.99376 52.1284 5.03794 48.4916 5.0394C44.8549 5.04087 41.2825 5.99959 38.1337 7.81919C34.9849 9.63879 32.3705 12.2552 30.5532 15.4054C28.7361 18.5554 27.7801 22.1282 27.7812 25.7647L43.1252 45.747ZM43.1252 45.747C41.3744 45.2935 39.6936 44.6031 38.1296 43.695L38.1294 43.6948M43.1252 45.747L38.1294 43.6948M38.1294 43.6948C34.987 41.8723 32.3776 39.2574 30.5618 36.1111M38.1294 43.6948L30.5618 36.1111M30.5618 36.1111C28.7461 32.9651 27.7874 29.3978 27.7812 25.7654L30.5618 36.1111ZM64.351 44.7635C68.0743 41.6587 70.8093 37.5235 72.2062 32.8673C73.6897 27.9223 73.5897 22.6372 71.9202 17.7519C70.2507 12.8665 67.0953 8.62556 62.8958 5.62269C58.6962 2.61982 53.6627 1.00537 48.5 1.00537C43.3373 1.00537 38.3038 2.61982 34.1042 5.62269C29.9047 8.62556 26.7493 12.8665 25.0798 17.7519C23.4103 22.6372 23.3103 27.9223 24.7938 32.8673C26.1907 37.5235 28.9257 41.6587 32.649 44.7635C23.9715 47.9586 16.4505 53.6971 11.0754 61.2386C5.52635 69.0243 2.53999 78.3449 2.53125 87.9057V87.9062V89.4218V89.9218H3.03125H93.9688H94.4688V89.4218V87.9062V87.9057C94.46 78.3449 91.4737 69.0243 85.9246 61.2386C80.5495 53.6971 73.0285 47.9586 64.351 44.7635ZM81.4943 62.0289C86.8604 68.8735 89.9658 77.212 90.3885 85.8906H74.7656V69.7187V69.2187H74.2656H71.2344H70.7344V69.7187V85.8906H26.2656V69.7187V69.2187H25.7656H22.7344H22.2344V69.7187V85.8906H6.61143C7.03323 77.2112 10.1382 68.8717 15.5044 62.0261C20.9369 55.0961 28.4096 50.0507 36.8641 47.6013C36.879 47.6086 36.8936 47.6158 36.9078 47.6227C36.9809 47.6585 37.0433 47.6889 37.1039 47.7212L37.1039 47.7212L37.1096 47.7242L37.1135 47.7262C37.3456 47.8459 37.586 47.97 37.8323 48.087C38.0184 48.1768 38.2045 48.2597 38.3853 48.3396C38.73 48.4949 39.0778 48.6426 39.4287 48.7825L39.4286 48.7825L39.4349 48.7849L39.5222 48.8184C39.5227 48.8186 39.5233 48.8188 39.5238 48.819C45.2963 51.0832 51.7108 51.0838 57.4836 48.8208L57.5486 48.7974L57.5558 48.7948L57.5628 48.792C57.9226 48.6493 58.2765 48.4978 58.6258 48.3409C58.6656 48.323 58.7076 48.3045 58.7511 48.2854C58.8821 48.2277 59.0269 48.164 59.1671 48.0935C59.4127 47.9744 59.6554 47.85 59.8935 47.7257C59.9319 47.7061 59.9804 47.6822 60.0332 47.6564C60.0662 47.6401 60.1009 47.6231 60.1358 47.6058C68.5897 50.055 76.0619 55.0997 81.4943 62.0289Z" fill="#FA5B37" stroke="#FA5B37"/>
</svg>
