<svg width="88" height="88" viewBox="0 0 88 88" fill="none" xmlns="http://www.w3.org/2000/svg">
<path fill-rule="evenodd" clip-rule="evenodd" d="M66 0H11C4.92525 0 0 4.92525 0 11V77C0 83.0748 4.92525 88 11 88H41.25V82.5H11C7.97087 82.5 5.5 80.0346 5.5 77V11C5.5 7.96537 7.97087 5.5 11 5.5H66C69.0346 5.5 71.5 7.96537 71.5 11V43.3338L77 37.8338V11C77 4.92525 72.0748 0 66 0Z" fill="#FA5B37"/>
<path d="M86.3885 49.5L82.5 45.6115C81.4254 44.5369 80.0188 44 78.6115 44C77.2042 44 75.7969 44.5369 74.723 45.6115L51.1115 69.223C50.0369 70.2976 46.7514 74.4514 46.75 75.8587L44 88L56.1385 85.25C56.1385 85.25 61.7031 81.9631 62.777 80.8885L86.3885 57.277C88.5369 55.1292 88.5369 51.6457 86.3885 49.5ZM60.8382 78.9388C60.5268 79.2344 59.4495 79.9618 58.1336 80.7998L51.0091 73.6753C51.7399 72.6736 52.5532 71.6664 53.0557 71.1672L70.8338 53.3892L78.6115 61.1669L60.8382 78.9388Z" fill="#FA5B37"/>
<path d="M60.5 22H16.5V16.5H60.5V22Z" fill="#FA5B37"/>
<path d="M60.5 33H16.5V27.5H60.5V33Z" fill="#FA5B37"/>
<path d="M60.5 44H16.5V38.5H60.5V44Z" fill="#FA5B37"/>
<path d="M38.5 55H16.5V49.5H38.5V55Z" fill="#FA5B37"/>
</svg>
