<svg width="71" height="71" viewBox="0 0 71 71" fill="none" xmlns="http://www.w3.org/2000/svg">
<path d="M0.609375 70.3906H70.3906V0.609375H0.609375V70.3906ZM3.01562 67.9844V21.0625H67.9844V67.9844H3.01562ZM67.9844 3.01562V18.6562H3.01562V3.01562H67.9844Z" fill="#FA5B37"/>
<path d="M35.5 24.6719C24.1906 24.6719 15.0469 33.8156 15.0469 45.125C15.0469 56.4344 24.1906 65.5781 35.5 65.5781C46.8094 65.5781 55.9531 56.4344 55.9531 45.125C55.9531 33.8156 46.8094 24.6719 35.5 24.6719ZM35.5 63.1719C26.1156 63.1719 18.4156 55.9531 17.5734 46.8094C21.4234 46.4484 23.4687 47.2906 25.6344 48.2531C27.4391 49.0953 29.3641 49.9375 32.1313 49.9375C32.9734 49.9375 34.0563 49.8172 35.1391 49.6969C40.0719 48.8547 42.3578 49.8172 44.8844 50.9C46.6891 51.7422 48.6141 52.5844 51.3813 52.5844C51.6219 52.5844 51.8625 52.5844 52.1031 52.5844C49.0953 58.7203 42.8391 63.1719 35.5 63.1719ZM52.825 49.9375C49.6969 50.2984 47.7719 49.5766 45.7266 48.6141C43.2 47.4109 40.1922 46.2078 34.5375 47.1703C30.6875 47.8922 28.7625 47.05 26.4766 45.9672C24.1906 45.0047 21.6641 43.8016 17.3328 44.2828C17.6937 34.6578 25.6344 26.9578 35.3797 26.9578C45.3656 26.9578 53.4266 35.0188 53.4266 45.0047C53.5469 46.8094 53.3063 48.4937 52.825 49.9375Z" fill="#FA5B37"/>
<path d="M41.5156 13.8438C43.5609 13.8438 45.125 12.2797 45.125 10.2344C45.125 8.18906 43.5609 6.625 41.5156 6.625C39.4703 6.625 37.9062 8.18906 37.9062 10.2344C37.9062 12.2797 39.4703 13.8438 41.5156 13.8438ZM41.5156 9.03125C42.2375 9.03125 42.7188 9.5125 42.7188 10.2344C42.7188 10.9563 42.2375 11.4375 41.5156 11.4375C40.7938 11.4375 40.3125 10.9563 40.3125 10.2344C40.3125 9.5125 40.7938 9.03125 41.5156 9.03125Z" fill="#FA5B37"/>
<path d="M51.1406 13.8438C53.1859 13.8438 54.75 12.2797 54.75 10.2344C54.75 8.18906 53.1859 6.625 51.1406 6.625C49.0953 6.625 47.5312 8.18906 47.5312 10.2344C47.5312 12.2797 49.0953 13.8438 51.1406 13.8438ZM51.1406 9.03125C51.8625 9.03125 52.3438 9.5125 52.3438 10.2344C52.3438 10.9563 51.8625 11.4375 51.1406 11.4375C50.4188 11.4375 49.9375 10.9563 49.9375 10.2344C49.9375 9.5125 50.4188 9.03125 51.1406 9.03125Z" fill="#FA5B37"/>
<path d="M60.7656 13.8438C62.8109 13.8438 64.375 12.2797 64.375 10.2344C64.375 8.18906 62.8109 6.625 60.7656 6.625C58.7203 6.625 57.1562 8.18906 57.1562 10.2344C57.1562 12.2797 58.7203 13.8438 60.7656 13.8438ZM60.7656 9.03125C61.4875 9.03125 61.9688 9.5125 61.9688 10.2344C61.9688 10.9563 61.4875 11.4375 60.7656 11.4375C60.0438 11.4375 59.5625 10.9563 59.5625 10.2344C59.5625 9.5125 60.0438 9.03125 60.7656 9.03125Z" fill="#FA5B37"/>
</svg>
