<svg width="60" height="60" viewBox="0 0 60 60" fill="none" xmlns="http://www.w3.org/2000/svg">
<path d="M13.0112 31.6864L43.1987 55.2645C43.2775 55.3266 43.3723 55.3652 43.4722 55.3759C43.572 55.3865 43.6728 55.3688 43.763 55.3248C43.8532 55.2807 43.9292 55.2121 43.9821 55.1268C44.0351 55.0416 44.063 54.9431 44.0625 54.8427L44.0625 49.6663C44.0625 49.3382 43.9085 49.0235 43.654 48.8226L19.5469 29.9989L43.654 11.1753C43.9152 10.9744 44.0625 10.6596 44.0625 10.3315L44.0625 5.15517C44.0625 4.7065 43.5469 4.45874 43.1987 4.73329L13.0112 28.3114C12.7546 28.5116 12.547 28.7676 12.4043 29.06C12.2615 29.3524 12.1873 29.6735 12.1873 29.9989C12.1873 30.3243 12.2615 30.6454 12.4043 30.9378C12.547 31.2303 12.7546 31.4863 13.0112 31.6864Z" fill="#FA5B37"/>
</svg>
