<svg width="26" height="25" viewBox="0 0 26 25" fill="none" xmlns="http://www.w3.org/2000/svg">
<path d="M25.9742 12.7046C25.9742 11.0193 24.6576 10.124 22.8144 10.124H17.4953C17.864 8.70211 18.0746 7.33285 18.0746 6.17424C18.0746 1.59248 16.8107 0.644531 15.7048 0.644531C14.9675 0.644531 14.4408 0.697195 13.7035 1.17117C13.4929 1.2765 13.3876 1.48715 13.3349 1.69781L12.5449 5.96359C11.7023 8.22814 9.54309 10.1767 7.80518 11.4933V22.7634C8.38448 22.7634 9.12177 23.0794 9.8064 23.448C10.649 23.8693 11.5443 24.2906 12.5449 24.2906H20.0759C21.6558 24.2906 22.8144 23.0267 22.8144 21.9208C22.8144 21.7101 22.8144 21.4994 22.7617 21.3414C23.7623 20.9728 24.3943 20.1302 24.3943 19.1822C24.3943 18.7083 24.289 18.2869 24.131 17.971C24.7103 17.5496 25.3423 16.865 25.3423 16.0224C25.3423 15.6011 25.1316 15.0745 24.8156 14.7058C25.5003 14.1792 25.9742 13.4419 25.9742 12.7046ZM24.3417 12.7046C24.3417 13.7052 23.2884 13.8105 23.1304 14.2845C22.9724 14.8111 23.7623 15.0218 23.7623 15.9697C23.7623 16.9704 22.5511 16.9703 22.3931 17.4443C22.1824 18.0236 22.7617 18.2343 22.7617 19.1822C22.7617 19.2349 22.7617 19.2876 22.7617 19.3402C22.6037 20.1302 21.3925 20.1829 21.1818 20.4988C20.9712 20.8675 21.2345 21.0781 21.2345 21.9208C21.2345 22.3947 20.7078 22.7107 20.0759 22.7107H12.5449C11.9656 22.7107 11.2283 22.3947 10.5437 22.0261C9.91173 21.7101 9.27977 21.3941 8.59513 21.2361V12.8626C10.5437 11.388 13.0716 9.12342 14.0722 6.3849C14.0722 6.33223 14.0722 6.27958 14.1248 6.27958L14.8621 2.32978C15.1255 2.22446 15.3361 2.22445 15.7574 2.22445C15.9154 2.22445 16.5474 3.1724 16.5474 6.17424C16.5474 7.33285 16.3367 8.64945 15.9154 10.124H15.7048C15.2835 10.124 14.9148 10.4927 14.9148 10.914C14.9148 11.3353 15.2835 11.704 15.7048 11.704H22.8144C23.6044 11.704 24.3417 12.0726 24.3417 12.7046Z" fill="white"/>
<path d="M7.01498 24.3433H2.27523C1.37994 24.3433 0.695312 23.6587 0.695312 22.7634V11.7039C0.695312 10.8087 1.37994 10.124 2.27523 10.124H7.01498C7.91027 10.124 8.5949 10.8087 8.5949 11.7039V22.7634C8.5949 23.6587 7.91027 24.3433 7.01498 24.3433ZM2.27523 11.7039V22.7634H7.01498V11.7039H2.27523Z" fill="white"/>
</svg>
