<svg width="37" height="30" viewBox="0 0 37 30" fill="none" xmlns="http://www.w3.org/2000/svg">
<path d="M36.0373 0.423105H0.495967C0.296501 0.423105 0.133301 0.570983 0.133301 0.751722V3.38066C0.133301 3.5614 0.296501 3.70928 0.495967 3.70928H36.0373C36.2368 3.70928 36.4 3.5614 36.4 3.38066V0.751722C36.4 0.570983 36.2368 0.423105 36.0373 0.423105ZM36.0373 26.0553H0.495967C0.296501 26.0553 0.133301 26.2031 0.133301 26.3839V29.0128C0.133301 29.1935 0.296501 29.3414 0.495967 29.3414H36.0373C36.2368 29.3414 36.4 29.1935 36.4 29.0128V26.3839C36.4 26.2031 36.2368 26.0553 36.0373 26.0553ZM36.0373 13.2392H0.495967C0.296501 13.2392 0.133301 13.3871 0.133301 13.5678V16.1967C0.133301 16.3775 0.296501 16.5254 0.495967 16.5254H36.0373C36.2368 16.5254 36.4 16.3775 36.4 16.1967V13.5678C36.4 13.3871 36.2368 13.2392 36.0373 13.2392Z" fill="white" fill-opacity="0.85"/>
</svg>
