<svg width="94" height="94" viewBox="0 0 94 94" fill="none" xmlns="http://www.w3.org/2000/svg">
<path d="M69.2492 36.9585C73.0091 36.9585 76.0571 33.9105 76.0571 30.1506C76.0571 26.3907 73.0091 23.3428 69.2492 23.3428C65.4894 23.3428 62.4414 26.3907 62.4414 30.1506C62.4414 33.9105 65.4894 36.9585 69.2492 36.9585Z" fill="#FA5B37"/>
<path d="M32.0989 90.2213L34.7313 70.4917L33.8785 64.1012L34.1381 63.8662L29.2326 59.3924L29.1913 59.3513C25.9795 56.1345 25.5413 51.1779 27.8771 47.4893L27.7448 47.2941L29.1845 45.834L33.022 41.9965C33.2932 41.725 33.5706 41.5324 33.8507 41.3014C31.7236 40.1404 29.3218 39.5645 26.8558 39.5645H22.9273C19.0527 39.5645 15.3349 40.8906 12.5963 43.629L8.75879 47.2754H8.76669C6.00746 50.2129 6.00746 54.6722 8.76669 57.4362L15.905 64.0259L12.3772 90.4968C12.3069 91.0258 12.72 91.5215 13.253 91.5215H18.6438C19.0859 91.5215 19.4575 91.2142 19.5196 90.7763L22.4402 69.5905C22.4894 69.2312 22.6098 68.9011 22.7833 68.6038C23.7042 67.0336 26.0794 67.0363 26.9963 68.6062C27.1742 68.9035 27.2939 69.2393 27.3431 69.5989L30.264 90.7759C30.3261 91.2141 30.6975 91.5215 31.1398 91.5215H32.1883C32.0734 91.1543 32.0405 90.663 32.0989 90.2213ZM17.1074 55.9351L14.8519 53.6757C14.2488 53.0725 14.2488 52.0975 14.8519 51.4944L17.7059 48.6404C17.8548 48.4911 18.1068 48.6153 18.078 48.8258L17.1074 55.9351Z" fill="#FA5B37"/>
<path d="M24.8899 36.9585C28.6497 36.9585 31.6977 33.9105 31.6977 30.1506C31.6977 26.3907 28.6497 23.3428 24.8899 23.3428C21.13 23.3428 18.082 26.3907 18.082 30.1506C18.082 33.9105 21.13 36.9585 24.8899 36.9585Z" fill="#FA5B37"/>
<path d="M38.8174 11.9288L39.8081 12.1475C39.9864 12.1866 40.1209 12.3257 40.1604 12.5035C40.3135 13.1945 40.5654 13.8477 40.9038 14.4466C40.9891 14.5972 40.9834 14.7822 40.8902 14.9286L40.2748 15.8878C40.1562 16.0729 40.1821 16.3152 40.3377 16.4706L41.3031 17.437C41.4591 17.5923 41.7009 17.6184 41.886 17.5002L42.7579 16.9418C42.9117 16.8433 43.1091 16.8444 43.2628 16.9433C43.8407 17.3131 44.4758 17.6021 45.1518 17.7928C45.3174 17.8398 45.444 17.9735 45.4809 18.1416L45.7259 19.3148C45.7732 19.5285 45.9629 19.7363 46.1826 19.7363H47.5488C47.7685 19.7363 47.9585 19.5285 48.0052 19.3148L48.2257 18.2843C48.2648 18.1053 48.405 17.9527 48.5846 17.914C49.2777 17.7647 49.9333 17.5079 50.5345 17.1724C50.6851 17.0885 50.8691 17.0904 51.0139 17.1833L51.9646 17.7902C52.15 17.9088 52.3923 17.882 52.5477 17.7263L53.5137 16.7601C53.669 16.6048 53.6951 16.3622 53.5772 16.1766L53.0358 15.3317C52.9369 15.1768 52.9387 14.979 53.0388 14.8248C53.4199 14.2382 53.7164 13.5913 53.9116 12.9013C53.9586 12.7361 54.0922 12.6098 54.2608 12.5732L55.3453 12.3369C55.5597 12.2903 55.7211 12.0999 55.7211 11.8805V10.5144C55.7211 10.295 55.5597 10.105 55.3453 10.0576L54.3865 9.84815C54.2066 9.80868 54.0654 9.66786 54.0274 9.48813C53.8765 8.77596 53.6184 8.10364 53.2714 7.48787C53.1867 7.33732 53.191 7.15263 53.2839 7.00704L53.8659 6.09807C53.9843 5.91337 53.9578 5.67066 53.8021 5.51571L52.8361 4.54927C52.6808 4.39395 52.4388 4.36751 52.2537 4.48611L51.4409 5.00642C51.2864 5.10537 51.0888 5.10391 50.9346 5.00385C50.3372 4.61738 49.6781 4.31831 48.9749 4.12425C48.8082 4.07798 48.6808 3.94396 48.6432 3.77469L48.4137 2.69461C48.3663 2.48017 48.1763 2.29492 47.9569 2.29492H46.5908C46.371 2.29492 46.181 2.48017 46.1344 2.69461L45.926 3.66031C45.8869 3.83895 45.747 3.98509 45.5682 4.02401C44.8586 4.17859 44.1879 4.44334 43.5754 4.79327C43.4245 4.879 43.2383 4.8768 43.0924 4.78317L42.1748 4.19604C41.9894 4.07798 41.747 4.10442 41.5917 4.26011L40.6256 5.22618C40.4699 5.3815 40.4439 5.62403 40.5625 5.80891L41.1 6.64848C41.1983 6.80233 41.1975 6.99859 41.0997 7.15245C40.7235 7.74086 40.4323 8.3884 40.2426 9.07798C40.1967 9.24468 40.062 9.37264 39.8931 9.4101L38.8167 9.64932C38.6019 9.69595 38.4629 9.88597 38.4629 10.1057V11.4719C38.4636 11.6914 38.6026 11.8815 38.8174 11.9288ZM47.0701 6.93984C49.3087 6.93984 51.1231 8.75467 51.1231 10.9929C51.1231 13.2314 49.3087 15.0459 47.0701 15.0459C44.8319 15.0459 43.0175 13.2314 43.0175 10.9929C43.0175 8.75467 44.8319 6.93984 47.0701 6.93984Z" fill="#FA5B37"/>
<path d="M24.8174 19.5661C24.8701 19.5736 24.922 19.5769 24.9738 19.5769C25.5321 19.5769 26.0194 19.1646 26.0976 18.5958C26.6047 14.9089 29.7977 12.1291 33.5256 12.1291C34.1528 12.1291 34.6617 11.6204 34.6617 10.993C34.6617 10.3657 34.1529 9.85693 33.5256 9.85693C28.6686 9.85693 24.5077 13.4807 23.8467 18.2857C23.761 18.9074 24.1959 19.4807 24.8174 19.5661Z" fill="#FA5B37"/>
<path d="M60.1339 12.1289C63.8701 12.1289 67.0642 14.9162 67.5638 18.6118C67.6409 19.1822 68.1285 19.5957 68.6879 19.5957C68.7388 19.5957 68.7902 19.5924 68.8418 19.5852C69.4636 19.5009 69.8997 18.929 69.8158 18.3072C69.1642 13.4901 65.0021 9.85693 60.1341 9.85693C59.5066 9.85693 58.998 10.3657 58.998 10.993C58.998 11.6204 59.5064 12.1289 60.1339 12.1289Z" fill="#FA5B37"/>
<path d="M58.1601 79.8736L56.0578 64.11L58.1645 62.1894L63.1957 57.6C65.9553 54.8367 65.9553 50.3585 63.1957 47.5991L63.204 47.5866L59.3665 43.7489C58.9824 43.3648 58.5776 43.0485 58.1563 42.7226C55.5784 40.6533 52.3648 39.5645 49.0353 39.5645H45.1064C41.7773 39.5645 38.5633 40.6533 35.9855 42.7188C35.5645 43.0487 35.1593 43.3887 34.7752 43.7728L30.9377 47.5983L30.9464 47.6051C28.1871 50.3644 28.1871 54.8395 30.9464 57.6031L35.9776 62.1905L38.084 64.1106L35.9816 79.8739L34.5569 90.5602C34.4907 91.0598 34.8542 91.4892 35.3414 91.5389C35.3704 91.5428 35.4035 91.5213 35.4321 91.5213H40.823C41.2647 91.5213 41.6367 91.2158 41.6984 90.7783L44.6193 69.5936C44.6689 69.2343 44.7886 68.9007 44.9621 68.6033C45.8834 67.0378 48.2585 67.04 49.1754 68.6057C49.3529 68.9029 49.473 69.2431 49.5226 69.6031L52.4432 90.7776C52.5049 91.2154 52.8767 91.5213 53.3189 91.5213H58.7098C58.7381 91.5213 58.7715 91.5424 58.8005 91.5386C59.2878 91.4884 59.6518 91.0491 59.5854 90.5492L58.1601 79.8736ZM39.2863 55.9392L37.0309 53.6793C36.4278 53.0762 36.4278 52.1015 37.0309 51.4984L39.8856 48.6441C40.0345 48.4952 40.2862 48.6189 40.2573 48.8255L39.2863 55.9392ZM53.8844 48.8257C53.8561 48.6191 54.1078 48.4954 54.2565 48.6443L57.1109 51.4986C57.714 52.1017 57.714 53.0764 57.1109 53.6795L54.8554 55.9394L53.8844 48.8257Z" fill="#FA5B37"/>
<path d="M85.374 47.5952L85.3819 47.5827L81.5451 43.7945C78.8021 41.056 75.0882 39.5645 71.2134 39.5645H67.2852C64.8168 39.5645 62.4128 40.1413 60.2846 41.3058C60.5646 41.5429 60.8437 41.7689 61.1187 42.0439L66.4045 47.3057L66.2639 47.5008C68.5998 51.1903 68.1615 56.1402 64.949 59.3573L64.8658 59.4339L60.0019 63.8686L60.2626 64.1065L59.4102 70.4998L62.0418 90.2141C62.1005 90.6606 62.0677 91.1543 61.9511 91.5215H63.0014C63.4432 91.5215 63.8151 91.2142 63.8772 90.7763L66.7978 69.5905C66.8474 69.2312 66.9667 68.9011 67.1406 68.6038C68.0618 67.0336 70.437 67.0363 71.3539 68.6062C71.5277 68.9035 71.6469 69.2393 71.701 69.5989L74.6213 90.7759C74.6833 91.2141 75.0547 91.5215 75.4972 91.5215H80.8877C81.4205 91.5215 81.8336 91.0658 81.7634 90.5365L78.2357 64.0968L85.374 57.5908C88.1332 54.8273 88.1332 50.3544 85.374 47.5952ZM79.2888 53.6757L77.0337 55.9351L76.063 48.8258C76.034 48.6154 76.2861 48.4913 76.4348 48.6404L79.2888 51.4944C79.8926 52.0977 79.8926 53.0725 79.2888 53.6757Z" fill="#FA5B37"/>
<path d="M47.0713 23.2246H47.071C43.3111 23.2246 40.2637 26.2574 40.2637 30.0174C40.2637 33.7772 43.3113 36.8105 47.071 36.8105H47.0713C50.8312 36.8105 53.879 33.7772 53.879 30.0174C53.879 26.2574 50.831 23.2246 47.0713 23.2246Z" fill="#FA5B37"/>
</svg>
