<svg width="33" height="52" viewBox="0 0 33 52" fill="none" xmlns="http://www.w3.org/2000/svg">
<path d="M32.1974 6.33032V1.15399C32.1974 0.705324 31.6817 0.457556 31.3335 0.73211L1.14602 24.3102C0.889538 24.5097 0.682 24.7651 0.539238 25.057C0.396477 25.3489 0.322266 25.6695 0.322266 25.9944C0.322266 26.3193 0.396477 26.6399 0.539238 26.9318C0.682 27.2237 0.889538 27.4791 1.14602 27.6785L31.3335 51.2567C31.6884 51.5312 32.1974 51.2835 32.1974 50.8348V45.6585C32.1974 45.3303 32.0434 45.0156 31.7889 44.8147L7.68174 25.9977L31.7889 7.17407C32.0434 6.97318 32.1974 6.65845 32.1974 6.33032V6.33032Z" fill="white" fill-opacity="0.85"/>
</svg>
