<svg width="121" height="88" viewBox="0 0 121 88" fill="none" xmlns="http://www.w3.org/2000/svg">
<path d="M19.2954 36.0585C19.9719 38.5185 23.9079 51.003 34.6704 51.003C45.4329 51.003 49.6149 38.334 50.3529 35.8125C53.1204 35.5665 55.4574 33.5985 56.3799 30.7695C57.1794 28.0635 56.4414 25.3575 54.4734 23.7585C54.5349 21.9135 54.4734 13.4265 49.0614 7.70701C45.8634 4.26301 41.3739 2.54102 35.7159 2.54102C29.3814 2.54102 24.4614 4.38602 21.0789 8.07602C16.2819 13.242 16.0359 20.3145 16.0974 22.4055C14.6829 22.7745 13.7604 24.312 13.6374 26.5875C13.2684 29.97 14.9904 35.259 19.2954 36.0585ZM21.8784 8.87552C25.0149 5.49302 29.6274 3.77102 35.5929 3.77102C40.8819 3.77102 45.0639 5.37001 48.0159 8.50651C52.5669 13.3035 53.0589 20.5605 53.0589 23.082C51.8904 22.5285 49.6764 21.2985 47.0319 19.3305C44.3874 17.301 41.7429 16.686 40.5744 17.8545C40.1439 18.3465 39.6519 19.392 40.9434 21.483C39.0984 20.868 36.1464 19.638 34.3014 18.9C32.7639 18.285 31.5954 17.793 30.9804 17.6085C24.0924 15.1485 18.8649 19.515 17.2044 21.36C17.2044 19.023 17.6964 13.365 21.8784 8.87552ZM14.6829 26.157C14.7444 24.6195 15.2979 23.205 16.5894 23.205H16.8354C17.0814 23.205 17.4504 23.1435 17.6349 22.8975C17.8809 22.59 23.1084 15.8865 30.6729 18.4695C31.2264 18.654 32.4564 19.269 33.8709 19.884C38.2374 21.6675 41.3739 23.0205 42.4194 23.0205H42.4809L43.7109 22.959L42.9729 21.975C41.4969 20.1915 41.1894 19.023 41.5584 18.654C42.0504 18.162 44.0184 18.4695 46.3554 20.253C50.0454 23.0205 52.8744 24.312 53.4279 24.558C55.1499 25.788 55.8264 28.0635 55.1499 30.4005C54.5964 32.307 52.8129 34.5825 49.8609 34.644H49.3689L49.2459 35.136C49.1844 35.259 45.6174 49.8345 34.6704 49.8345C23.8464 49.8345 20.4639 35.5665 20.4024 35.4435L20.2794 35.013L19.8489 34.7055C16.2204 34.275 14.4984 29.355 14.6829 26.157Z" fill="#FA5B37" stroke="#FA5B37"/>
<path d="M115.604 63.5492C118.617 54.3242 112.16 48.7892 110.622 47.6822C110.807 45.9602 111.114 38.8262 104.657 32.9837C107.117 30.4007 108.162 22.9592 105.948 15.7022C104.226 10.0442 99.1833 0.573242 85.0998 0.573242C78.3348 0.573242 73.1073 2.66424 69.6018 6.78474C63.4518 13.9802 64.5588 24.9272 64.8663 27.1412C64.3128 27.6332 63.0828 28.7402 62.0373 30.6467C60.8073 32.8607 59.6388 36.6122 60.9918 41.8397C55.9488 45.7757 53.6118 50.4497 54.1038 55.8002C50.5983 54.1397 47.7693 53.4017 47.4618 53.3402L47.2773 53.0327L45.9858 50.8187L45.2478 49.5887L44.1408 50.3267C42.4803 51.7412 40.6353 52.7867 38.7903 53.4017H37.9908H32.2713H31.4718C29.6268 52.7867 27.7818 51.7412 26.1213 50.3267L25.0143 49.4657L24.2763 50.7572L22.9848 52.9712L22.8618 53.1557C19.6638 54.0782 1.15234 60.2282 1.15234 74.8037C1.15234 75.1727 1.39834 75.4187 1.76734 75.4187C2.13634 75.4187 2.38234 75.1727 2.38234 74.8037C2.38234 61.3352 19.5408 55.4312 23.0463 54.3857C23.7843 55.6772 26.6748 60.4127 29.6268 60.8432L30.6723 61.0277L30.9798 59.9822L31.5333 58.1372C31.7178 58.5677 31.9638 58.9982 32.2713 59.3672L30.3648 78.4937L30.3033 78.9242L30.5493 79.2932L34.0548 84.8282L35.1003 86.4887L36.1458 84.7667L39.4668 79.2318L39.6513 78.8627L39.5898 78.4322L37.8063 59.3057C38.1138 58.9367 38.3598 58.5062 38.5443 58.0757L39.0978 59.9207L39.4053 60.9662L40.4508 60.7817C43.2798 60.3512 46.1703 55.8002 46.9698 54.3857C47.8923 54.6317 67.8183 60.1052 67.8183 74.7422C67.8183 75.1112 68.0643 75.3572 68.4333 75.3572C68.8023 75.3572 69.0483 75.1112 69.0483 74.7422C69.0483 66.8702 63.7593 61.5812 58.4088 58.1372C59.8233 57.7067 61.2993 57.3377 62.7138 56.9687C65.9118 56.1692 68.8638 55.3697 71.3238 53.9552C71.9388 55.0622 76.4898 62.8727 80.7948 63.5492L81.8403 63.7337L82.1478 62.6882L84.3618 55.3082L84.4848 54.9392L84.6078 55.3082L86.8218 62.6882L87.1293 63.7337L88.1748 63.5492C92.1108 62.9342 96.3543 56.2307 97.4613 54.3242C97.5229 54.3242 97.5843 54.3857 97.6458 54.3857C97.8303 54.4472 118.556 59.7977 118.556 74.7422C118.556 75.1112 118.802 75.3572 119.171 75.3572C119.54 75.3572 119.786 75.1112 119.786 74.7422C119.909 70.2527 118.125 66.5628 115.604 63.5492ZM30.9183 55.7387L29.7498 59.6747C27.3513 59.3057 24.5223 54.5702 24.0303 53.7707C24.0303 53.7092 24.0303 53.5862 24.0303 53.5247L25.2603 51.4337C26.9823 52.9097 28.8888 53.6477 30.9798 54.2627C30.9183 54.5702 30.9183 55.1852 30.9183 55.4927C30.8568 55.5542 30.9183 55.6157 30.9183 55.7387ZM36.6378 58.9367L38.4828 78.5552L35.1618 84.0902L31.6563 78.5552L33.5013 58.9367C32.7633 58.2602 32.2713 57.1532 32.2098 55.8617L32.4558 54.8162L32.5788 54.5702H37.6833L37.8063 54.8162L38.0523 55.7387C37.8678 57.0302 37.3758 58.2602 36.6378 58.9367ZM40.3893 59.6747L39.2208 55.7387C39.2208 55.6772 39.2208 55.6157 39.2208 55.4927C39.2208 55.1852 39.2208 54.9392 39.1593 54.6317C41.1888 54.0167 43.0953 52.9097 44.8788 51.4337L46.1703 53.6477C46.1703 53.6477 42.9723 59.2442 40.3893 59.6747ZM81.1023 62.3807C77.2278 61.7657 72.4923 53.4017 72.4923 53.4017L74.4603 50.0807C77.1663 52.3562 80.1798 54.0782 83.3778 55.0007L81.1023 62.3807ZM88.1748 62.3807L85.9608 55.0007C89.1588 54.0782 92.1723 52.4177 94.8783 50.0807L96.8464 53.4017C96.7849 53.3402 92.0493 61.7657 88.1748 62.3807ZM114.62 62.5037C108.531 56.2307 99.1833 53.5862 98.1378 53.2787L97.8303 52.7252L95.8623 49.4042L95.1243 48.1742L94.0173 49.0967C91.3728 51.3107 88.5438 52.9097 85.5919 53.7707L84.6693 54.0167L83.7468 53.7707C80.7948 52.9097 77.9658 51.3107 75.3213 49.0967L74.2143 48.1742L73.4763 49.4042L71.5083 52.7252C71.3853 52.7252 71.2623 52.7252 71.1393 52.7867C68.8023 54.2012 65.7888 55.0007 62.5908 55.8002C60.8073 56.2307 58.9623 56.7227 57.2403 57.3377C56.6253 56.9687 56.0103 56.6612 55.4568 56.3537C54.7188 50.9417 56.9328 46.4522 62.1603 42.5162L62.3448 42.2702L62.2218 41.8397C59.6388 32.2457 65.6043 28.0022 65.8503 27.8177L66.1578 27.5717L66.0963 27.2027C66.0963 27.0797 64.1898 14.9027 70.5243 7.46124C73.7838 3.64824 78.7038 1.68024 85.0998 1.68024C98.4453 1.68024 103.181 10.6592 104.78 15.9482C106.932 23.0207 105.764 30.7082 103.365 32.3687L102.689 32.7992L103.304 33.3527C110.561 39.5642 109.331 47.6822 109.331 47.7437L109.269 48.1127L109.577 48.3587C109.946 48.6662 117.141 53.4632 114.62 62.5037Z" fill="#FA5B37" stroke="#FA5B37"/>
<path d="M46.6621 74.6198V76.3418V81.9998C46.6621 83.4758 47.7691 83.4758 49.3066 83.4758H58.1626C59.6386 83.4758 61.4836 83.5373 61.4836 81.9998V76.3418V74.6198V71.1758H46.7236V74.6198H46.6621ZM47.8921 72.4058H60.1921V74.2508H47.8921V72.4058ZM47.8921 75.4808H60.1921V81.9998C60.1921 82.7993 58.9621 82.2458 58.1011 82.2458H49.3066C48.5071 82.2458 47.8921 82.8608 47.8921 81.9998V75.4808Z" fill="#FA5B37" stroke="#FA5B37"/>
<path d="M84.8536 40.1797C81.1636 40.1797 80.0566 42.1477 79.9951 42.2092L79.8721 42.4552L79.9336 42.7012C79.9336 42.8242 80.7331 45.4072 84.7921 45.4072C88.7896 45.4072 90.0196 42.9472 90.0811 42.8242L90.2656 42.4552L90.0196 42.1477C90.0196 42.0862 88.4821 40.1797 84.8536 40.1797ZM84.8536 44.1772C82.3936 44.1772 81.5326 43.1317 81.2866 42.6397C81.6556 42.2707 82.6396 41.4097 84.8536 41.4097C87.0061 41.4097 88.2361 42.1477 88.7896 42.6397C88.3591 43.1932 87.2521 44.1772 84.8536 44.1772Z" fill="#FA5B37" stroke="#FA5B37"/>
<path d="M99.6755 26.7726L99.614 26.2806H99.0605C98.9375 26.2806 85.1615 26.7111 73.1075 17.2401L72.2465 16.8711L72.1235 17.4246C71.5085 22.1601 69.5405 26.2806 68.4335 28.2486L68.3105 28.4946L68.3721 28.7406C69.5406 34.3371 71.7545 39.9336 74.4605 43.9926C77.597 48.7896 81.2255 51.3111 84.854 51.3111C91.865 51.3111 97.8305 41.7786 100.598 32.3076L100.66 32.1231L100.598 31.6926C100.045 29.8476 99.737 27.2031 99.6755 26.7726ZM84.9155 50.0811C77.966 50.0811 71.8775 39.1341 69.6635 28.6791C70.7705 26.7111 72.4925 23.0211 73.2305 18.7161C84.1775 26.8956 95.924 27.8181 98.5685 27.9411C98.6915 28.8021 98.999 30.5856 99.491 32.1231C96.7235 41.1021 91.25 50.0811 84.9155 50.0811Z" fill="#FA5B37" stroke="#FA5B37"/>
</svg>
