<svg width="92" height="92" viewBox="0 0 92 92" fill="none" xmlns="http://www.w3.org/2000/svg">
<path d="M65.0109 16.4143L64.9843 16.4157C64.1125 16.3532 63.1839 16.323 62.1453 16.323C61.3841 16.323 60.5993 16.3438 59.6728 16.3884C59.5858 16.3927 59.506 16.4179 59.4306 16.4495C58.3388 16.369 57.229 16.3223 56.0999 16.3223C41.6199 16.3223 29.8396 23.1648 29.8396 31.5756C29.8396 33.2388 30.3003 34.7517 31.2074 36.0721C31.7292 36.8311 32.0045 37.8143 32.0045 38.9155V46.1439C27.7897 46.1454 23.7755 46.7002 20.0732 47.7935C11.2384 50.4032 5.75 55.6156 5.75 61.3965C5.75 68.9283 14.5899 72.747 32.0232 72.747C32.5421 72.747 33.051 72.7434 33.5606 72.7362C34.9305 74.5202 37.076 75.6766 39.491 75.6766H45.5371H72.7088H78.7549C82.8827 75.6766 86.2414 72.3122 86.2414 68.1765V37.064C87.6789 35.5179 88.407 33.6729 88.407 31.5763C88.4062 23.7858 78.3682 17.2674 65.0109 16.4143ZM32.0232 71.3095C20.6935 71.3095 7.1875 69.5895 7.1875 61.3965C7.1875 58.4453 8.88878 55.6415 11.8953 53.33C11.822 54.26 11.8781 55.5121 12.2921 57.0775C12.3776 57.3995 12.668 57.613 12.9864 57.613C13.0468 57.613 13.1086 57.6051 13.1704 57.5886C13.5542 57.4865 13.7828 57.0934 13.6814 56.7095C13.0015 54.1415 13.4133 52.6177 13.5722 52.1735C15.1893 51.1744 17.0789 50.2983 19.2057 49.5803C18.7738 51.3973 18.3066 54.8343 19.5931 58.6365C19.6945 58.9362 19.9741 59.1253 20.2738 59.1253C20.35 59.1253 20.4276 59.113 20.5045 59.0872C20.8804 58.96 21.0824 58.5517 20.9544 58.1758C19.5313 53.9725 20.4952 50.1747 20.8358 49.0757C22.8828 48.495 25.0765 48.0766 27.3398 47.8337C26.9639 50.1315 26.1661 56.6449 28.4941 60.1365C28.6328 60.3443 28.8607 60.4564 29.0928 60.4564C29.2294 60.4564 29.3681 60.4176 29.491 60.3356C29.8209 60.1157 29.9101 59.6694 29.6901 59.3387C27.5367 56.1087 28.5265 49.3999 28.8226 47.7C29.8756 47.6238 30.9386 47.5821 32.0045 47.5814V68.1772C32.0045 69.2941 32.2561 70.3507 32.6952 71.3038C32.4702 71.3045 32.2453 71.3038 32.0232 71.3095ZM45.5371 74.2399H39.491C36.1553 74.2399 33.442 71.5201 33.442 68.1772V38.9162C33.442 37.5232 33.079 36.2582 32.3926 35.2585C31.6423 34.1667 31.2771 32.9628 31.2771 31.5763C31.2771 23.9583 42.4127 17.7605 56.0999 17.7605C69.787 17.7605 80.9226 23.9583 80.9226 31.5763C80.9226 32.962 80.5582 34.1667 79.8071 35.2585C79.12 36.2582 78.7577 37.5225 78.7577 38.9162V68.1772C78.7577 71.5201 76.0445 74.2399 72.708 74.2399H45.5371ZM85.0116 36.2697C84.8779 36.4041 84.8032 36.586 84.8032 36.7757V68.1772C84.8032 71.5201 82.0899 74.2399 78.7542 74.2399H77.0982C78.9705 72.875 80.1952 70.6691 80.1952 68.1772V38.9162C80.1952 37.815 80.4705 36.8318 80.9923 36.0728C81.9001 34.7525 82.3601 33.2395 82.3601 31.5763C82.3601 25.8917 76.9753 20.9273 69.0165 18.3039C79.4902 19.9807 86.9688 25.334 86.9688 31.5763C86.9688 33.4055 86.3283 34.94 85.0116 36.2697Z" fill="#FA5B37"/>
<path d="M47.8555 41.1914C47.8555 40.0026 46.888 39.0352 45.6992 39.0352C44.5104 39.0352 43.543 40.0026 43.543 41.1914C43.543 42.3802 44.5104 43.3477 45.6992 43.3477C46.888 43.3477 47.8555 42.3802 47.8555 41.1914ZM44.9805 41.1914C44.9805 40.7954 45.3032 40.4727 45.6992 40.4727C46.0952 40.4727 46.418 40.7954 46.418 41.1914C46.418 41.5874 46.0952 41.9102 45.6992 41.9102C45.3032 41.9102 44.9805 41.5874 44.9805 41.1914Z" fill="#FA5B37"/>
<path d="M40.668 26.0977C39.4792 26.0977 38.5117 27.0651 38.5117 28.2539C38.5117 29.4427 39.4792 30.4102 40.668 30.4102C41.8568 30.4102 42.8242 29.4427 42.8242 28.2539C42.8242 27.0651 41.8568 26.0977 40.668 26.0977ZM40.668 28.9727C40.2719 28.9727 39.9492 28.6499 39.9492 28.2539C39.9492 27.8579 40.2719 27.5352 40.668 27.5352C41.064 27.5352 41.3867 27.8579 41.3867 28.2539C41.3867 28.6499 41.064 28.9727 40.668 28.9727Z" fill="#FA5B37"/>
<path d="M57.918 47.6602C56.7292 47.6602 55.7617 48.6276 55.7617 49.8164C55.7617 51.0052 56.7292 51.9727 57.918 51.9727C59.1068 51.9727 60.0742 51.0052 60.0742 49.8164C60.0742 48.6276 59.1068 47.6602 57.918 47.6602ZM57.918 50.5352C57.5219 50.5352 57.1992 50.2124 57.1992 49.8164C57.1992 49.4204 57.5219 49.0977 57.918 49.0977C58.314 49.0977 58.6367 49.4204 58.6367 49.8164C58.6367 50.2124 58.314 50.5352 57.918 50.5352Z" fill="#FA5B37"/>
<path d="M74.4492 46.9414C74.4492 45.7526 73.4818 44.7852 72.293 44.7852C71.1042 44.7852 70.1367 45.7526 70.1367 46.9414C70.1367 48.1302 71.1042 49.0977 72.293 49.0977C73.4818 49.0977 74.4492 48.1302 74.4492 46.9414ZM72.293 47.6602C71.8969 47.6602 71.5742 47.3374 71.5742 46.9414C71.5742 46.5454 71.8969 46.2227 72.293 46.2227C72.689 46.2227 73.0117 46.5454 73.0117 46.9414C73.0117 47.3374 72.689 47.6602 72.293 47.6602Z" fill="#FA5B37"/>
<path d="M62.9492 59.1602C61.7604 59.1602 60.793 60.1276 60.793 61.3164C60.793 62.5052 61.7604 63.4727 62.9492 63.4727C64.138 63.4727 65.1055 62.5052 65.1055 61.3164C65.1055 60.1276 64.138 59.1602 62.9492 59.1602ZM62.9492 62.0352C62.5532 62.0352 62.2305 61.7124 62.2305 61.3164C62.2305 60.9204 62.5532 60.5977 62.9492 60.5977C63.3452 60.5977 63.668 60.9204 63.668 61.3164C63.668 61.7124 63.3452 62.0352 62.9492 62.0352Z" fill="#FA5B37"/>
<path d="M46.418 59.1602C45.2292 59.1602 44.2617 60.1276 44.2617 61.3164C44.2617 62.5052 45.2292 63.4727 46.418 63.4727C47.6068 63.4727 48.5742 62.5052 48.5742 61.3164C48.5742 60.1276 47.6068 59.1602 46.418 59.1602ZM46.418 62.0352C46.0219 62.0352 45.6992 61.7124 45.6992 61.3164C45.6992 60.9204 46.0219 60.5977 46.418 60.5977C46.814 60.5977 47.1367 60.9204 47.1367 61.3164C47.1367 61.7124 46.814 62.0352 46.418 62.0352Z" fill="#FA5B37"/>
<path d="M64.3867 28.9727C64.3867 27.7838 63.4193 26.8164 62.2305 26.8164C61.0417 26.8164 60.0742 27.7838 60.0742 28.9727C60.0742 30.1615 61.0417 31.1289 62.2305 31.1289C63.4193 31.1289 64.3867 30.1615 64.3867 28.9727ZM61.5117 28.9727C61.5117 28.5766 61.8344 28.2539 62.2305 28.2539C62.6265 28.2539 62.9492 28.5766 62.9492 28.9727C62.9492 29.3687 62.6265 29.6914 62.2305 29.6914C61.8344 29.6914 61.5117 29.3687 61.5117 28.9727Z" fill="#FA5B37"/>
</svg>
