<svg width="84" height="84" viewBox="0 0 84 84" fill="none" xmlns="http://www.w3.org/2000/svg">
<path d="M10.451 60.1562C10.3411 60.1562 10.2323 60.1779 10.1308 60.2199C10.0293 60.262 9.93702 60.3236 9.85933 60.4013C9.78163 60.479 9.72 60.5713 9.67795 60.6728C9.6359 60.7743 9.61426 60.8831 9.61426 60.993V73.0942C9.61426 73.3161 9.70241 73.529 9.85933 73.6859C10.0162 73.8428 10.2291 73.9309 10.451 73.9309C10.6729 73.9309 10.8857 73.8428 11.0426 73.6859C11.1995 73.529 11.2877 73.3161 11.2877 73.0942V60.993C11.2877 60.7711 11.1995 60.5582 11.0426 60.4013C10.8857 60.2444 10.6729 60.1562 10.451 60.1562Z" fill="#FA5B37" stroke="#FA5B37"/>
<path d="M79.3637 10.0684H6.43302C6.21111 10.0684 5.99828 10.1565 5.84137 10.3134C5.68445 10.4703 5.5963 10.6832 5.5963 10.9051V56.0469C4.41704 58.0732 3.79708 60.3764 3.79981 62.7209V73.0946C3.79981 73.3165 3.88797 73.5293 4.04488 73.6863C4.2018 73.8432 4.41462 73.9313 4.63653 73.9313C4.85844 73.9313 5.07127 73.8432 5.22818 73.6863C5.3851 73.5293 5.47325 73.3165 5.47325 73.0946V62.7209C5.47586 59.6324 6.70394 56.6711 8.88788 54.4871C11.0718 52.3032 14.0331 51.0751 17.1217 51.0725H19.7582C26.5832 51.0725 28.529 51.7501 32.4058 53.1003L37.4064 54.8377C37.5612 54.8918 37.7285 54.8991 37.8875 54.8589C38.0464 54.8186 38.1901 54.7325 38.3005 54.6113L47.9064 44.0637C48.2712 43.6731 48.7589 43.4193 49.2881 43.3443C49.8173 43.2694 50.3563 43.378 50.8152 43.652C51.1137 43.8222 51.3701 44.0571 51.5657 44.3396C51.7613 44.6221 51.8911 44.9448 51.9454 45.2841C51.9997 45.6234 51.9772 45.9705 51.8796 46.2999C51.7819 46.6293 51.6116 46.9326 51.3812 47.1875L39.8148 60.0844C39.4924 60.448 39.0805 60.721 38.6201 60.8764C38.1597 61.0318 37.6666 61.0642 37.1898 60.9704L29.6315 58.5488C29.506 58.5082 29.3728 58.4978 29.2425 58.5185C29.1123 58.5392 28.9889 58.5905 28.8823 58.6681C28.7757 58.7458 28.689 58.8475 28.6293 58.9651C28.5696 59.0826 28.5386 59.2127 28.5388 59.3445V73.0946C28.5388 73.3165 28.627 73.5293 28.7839 73.6863C28.9408 73.8432 29.1536 73.9313 29.3755 73.9313C29.5974 73.9313 29.8103 73.8432 29.9672 73.6863C30.1241 73.5293 30.2122 73.3165 30.2122 73.0946V67.8807H79.3637C79.4736 67.8807 79.5824 67.8591 79.6839 67.817C79.7854 67.775 79.8777 67.7133 79.9554 67.6356C80.0331 67.5579 80.0947 67.4657 80.1367 67.3642C80.1788 67.2627 80.2004 67.1539 80.2004 67.044V10.9051C80.2004 10.7952 80.1788 10.6864 80.1367 10.5849C80.0947 10.4834 80.0331 10.3911 79.9554 10.3134C79.8777 10.2357 79.7854 10.1741 79.6839 10.1321C79.5824 10.09 79.4736 10.0684 79.3637 10.0684ZM19.6335 49.3055C18.1409 49.3055 16.6817 48.8629 15.4407 48.0337C14.1996 47.2044 13.2323 46.0257 12.6611 44.6467C12.0899 43.2677 11.9404 41.7503 12.2316 40.2863C12.5228 38.8224 13.2416 37.4777 14.297 36.4222C15.3525 35.3668 16.6972 34.648 18.1612 34.3568C19.6251 34.0656 21.1425 34.2151 22.5215 34.7863C23.9006 35.3575 25.0792 36.3248 25.9085 37.5659C26.7377 38.8069 27.1804 40.266 27.1804 41.7587C27.1804 42.7497 26.9852 43.7311 26.6059 44.6467C26.2266 45.5624 25.6707 46.3943 24.9699 47.0951C24.2691 47.7959 23.4372 48.3518 22.5215 48.7311C21.6059 49.1103 20.6246 49.3055 19.6335 49.3055ZM78.5319 66.204H30.2221V60.4913L36.7649 62.5848C37.5397 62.7539 38.3454 62.715 39.1004 62.4721C39.8553 62.2292 40.5325 61.7909 41.0633 61.2017L52.6297 48.3048C53.0296 47.8596 53.3239 47.3299 53.4908 46.7553C53.6577 46.1806 53.6928 45.5758 53.5937 44.9856C53.4945 44.3955 53.2636 43.8354 52.918 43.3468C52.5724 42.8583 52.1212 42.454 51.5978 42.1639C50.8114 41.7167 49.8967 41.5491 49.0028 41.6885C48.1089 41.828 47.2887 42.2662 46.6759 42.9317L37.4326 53.0724L32.957 51.5187C30.0826 50.518 28.1516 49.8453 24.5373 49.5582C26.2333 48.4932 27.5362 46.9047 28.2489 45.0331C28.9615 43.1615 29.045 41.1087 28.4868 39.1854C27.9286 37.2621 26.7591 35.5729 25.1552 34.3737C23.5513 33.1744 21.6004 32.5302 19.5978 32.5386C17.5951 32.5471 15.6497 33.2077 14.056 34.4204C12.4623 35.6332 11.3071 37.3321 10.7651 39.26C10.2231 41.188 10.3239 43.24 11.0523 45.1055C11.7807 46.9711 13.0969 48.5485 14.8018 49.5992C11.8993 50.1148 9.25005 51.5793 7.26974 53.7631V11.7418H78.527L78.5319 66.204Z" fill="#FA5B37" stroke="#FA5B37"/>
<path d="M32.3709 20.4938H69.0503C69.2722 20.4938 69.4851 20.4056 69.642 20.2487C69.7989 20.0918 69.8871 19.8789 69.8871 19.657C69.8871 19.4351 69.7989 19.2223 69.642 19.0654C69.4851 18.9085 69.2722 18.8203 69.0503 18.8203H32.3709C32.149 18.8203 31.9362 18.9085 31.7792 19.0654C31.6223 19.2223 31.5342 19.4351 31.5342 19.657C31.5342 19.8789 31.6223 20.0918 31.7792 20.2487C31.9362 20.4056 32.149 20.4938 32.3709 20.4938Z" fill="#FA5B37" stroke="#FA5B37"/>
<path d="M69.0511 27.166H62.0603C61.9505 27.166 61.8417 27.1877 61.7402 27.2297C61.6386 27.2718 61.5464 27.3334 61.4687 27.4111C61.391 27.4888 61.3294 27.581 61.2873 27.6825C61.2453 27.7841 61.2236 27.8929 61.2236 28.0027C61.2236 28.1126 61.2453 28.2214 61.2873 28.3229C61.3294 28.4244 61.391 28.5167 61.4687 28.5944C61.5464 28.6721 61.6386 28.7337 61.7402 28.7758C61.8417 28.8178 61.9505 28.8395 62.0603 28.8395H69.0511C69.1609 28.8395 69.2697 28.8178 69.3713 28.7758C69.4728 28.7337 69.565 28.6721 69.6427 28.5944C69.7204 28.5167 69.782 28.4244 69.8241 28.3229C69.8661 28.2214 69.8878 28.1126 69.8878 28.0027C69.8878 27.8929 69.8661 27.7841 69.8241 27.6825C69.782 27.581 69.7204 27.4888 69.6427 27.4111C69.565 27.3334 69.4728 27.2718 69.3713 27.2297C69.2697 27.1877 69.1609 27.166 69.0511 27.166Z" fill="#FA5B37" stroke="#FA5B37"/>
<path d="M32.3709 28.8395H53.6203C53.7302 28.8395 53.839 28.8178 53.9405 28.7758C54.042 28.7337 54.1342 28.6721 54.2119 28.5944C54.2896 28.5167 54.3513 28.4244 54.3933 28.3229C54.4354 28.2214 54.457 28.1126 54.457 28.0027C54.457 27.8929 54.4354 27.7841 54.3933 27.6825C54.3513 27.581 54.2896 27.4888 54.2119 27.4111C54.1342 27.3334 54.042 27.2718 53.9405 27.2297C53.839 27.1877 53.7302 27.166 53.6203 27.166H32.3709C32.149 27.166 31.9362 27.2542 31.7792 27.4111C31.6223 27.568 31.5342 27.7808 31.5342 28.0027C31.5342 28.2246 31.6223 28.4375 31.7792 28.5944C31.9362 28.7513 32.149 28.8395 32.3709 28.8395Z" fill="#FA5B37" stroke="#FA5B37"/>
<path d="M69.0504 35.5117H55.3396C55.1177 35.5117 54.9049 35.5999 54.748 35.7568C54.5911 35.9137 54.5029 36.1265 54.5029 36.3484C54.5029 36.5704 54.5911 36.7832 54.748 36.9401C54.9049 37.097 55.1177 37.1852 55.3396 37.1852H69.0504C69.2723 37.1852 69.4851 37.097 69.642 36.9401C69.7989 36.7832 69.8871 36.5704 69.8871 36.3484C69.8871 36.1265 69.7989 35.9137 69.642 35.7568C69.4851 35.5999 69.2723 35.5117 69.0504 35.5117Z" fill="#FA5B37" stroke="#FA5B37"/>
<path d="M32.3709 37.1852H39.5585C39.7804 37.1852 39.9932 37.097 40.1501 36.9401C40.307 36.7832 40.3952 36.5704 40.3952 36.3484C40.3952 36.1265 40.307 35.9137 40.1501 35.7568C39.9932 35.5999 39.7804 35.5117 39.5585 35.5117H32.3709C32.149 35.5117 31.9362 35.5999 31.7792 35.7568C31.6223 35.9137 31.5342 36.1265 31.5342 36.3484C31.5342 36.5704 31.6223 36.7832 31.7792 36.9401C31.9362 37.097 32.149 37.1852 32.3709 37.1852Z" fill="#FA5B37" stroke="#FA5B37"/>
</svg>
