<svg width="94" height="94" viewBox="0 0 94 94" fill="none" xmlns="http://www.w3.org/2000/svg">
<path d="M94 64.625V8.8125H20.5625V14.6875H0V76.375H35.25V64.625H52.875V73.4375H41.125V76.375H73.4375V73.4375H61.6875V64.625H94ZM20.5625 52.875H8.8125V47H20.5625V52.875ZM20.5625 38.1875H2.9375V29.375H20.5625V38.1875ZM20.5625 17.625V26.4375H2.9375V17.625H20.5625ZM32.3125 73.4375H2.9375V41.125H20.5625V44.0625H5.875V55.8125H20.5625V64.625H32.3125V73.4375ZM23.5 61.6875V11.75H91.0625V61.6875H23.5ZM58.75 73.4375H55.8125V64.625H58.75V73.4375Z" fill="#FA5B37"/>
<path d="M8.8125 67.5625C10.4348 67.5625 11.75 66.2473 11.75 64.625C11.75 63.0027 10.4348 61.6875 8.8125 61.6875C7.19016 61.6875 5.875 63.0027 5.875 64.625C5.875 66.2473 7.19016 67.5625 8.8125 67.5625Z" fill="#FA5B37"/>
<path d="M88.125 14.6875H26.4375V58.75H88.125V14.6875ZM85.1875 55.8125H29.375V17.625H85.1875V55.8125Z" fill="#FA5B37"/>
</svg>
