<svg width="90" height="90" viewBox="0 0 90 90" fill="none" xmlns="http://www.w3.org/2000/svg">
<path d="M32.9941 57.832H30.9902V66.8496H32.9941C33.9785 66.8496 34.7695 66.5156 35.3496 65.8477C35.9297 65.1797 36.2285 64.3184 36.2285 63.2813V61.4004C36.2285 60.3633 35.9297 59.5195 35.3496 58.8516C34.7695 58.166 33.9785 57.832 32.9941 57.832Z" fill="#FA5B37"/>
<path d="M64.2656 50.2559H7.08398V73.793H55.6523L64.2656 50.2559ZM25.2949 62.7891C24.5215 63.4922 23.4668 63.8262 22.1133 63.8262H19.459V68.4844H17.4023V56.1797H22.1133C23.4668 56.1797 24.5391 56.5313 25.2949 57.2344C26.0684 57.9375 26.4551 58.8516 26.4551 59.9941C26.4551 61.1719 26.0684 62.0859 25.2949 62.7891ZM38.2676 63.2813C38.2676 64.8281 37.7754 66.0762 36.8086 67.043C35.8242 68.0098 34.5586 68.502 32.9941 68.502H28.9336V56.1973H32.9941C34.5586 56.1973 35.8242 56.6895 36.8086 57.6563C37.793 58.623 38.2676 59.8887 38.2676 61.418V63.2813ZM48.9199 57.832H43.1016V61.5938H48.0586V63.2461H43.1016V68.502H41.0449V56.1973H48.9199V57.832Z" fill="#FA5B37"/>
<path d="M22.1113 57.832H19.457V62.1738H22.1113C22.8672 62.1738 23.4473 61.9629 23.834 61.5586C24.2207 61.1543 24.4141 60.6445 24.4141 60.0117C24.4141 59.3789 24.2207 58.8691 23.834 58.4473C23.4473 58.043 22.8672 57.832 22.1113 57.832Z" fill="#FA5B37"/>
<path d="M62.0312 1.05469H18.877C17.5938 1.05469 16.5391 2.10937 16.5391 3.39258V48.5332H21.2148V5.73047H62.0312V21.9375H78.2383V84.2695H21.2148V75.5156H16.5391V86.6074C16.5391 87.8906 17.5938 88.9453 18.877 88.9453H80.5762C81.8594 88.9453 82.9141 87.8906 82.9141 86.6074V21.9375L62.0312 1.05469Z" fill="#FA5B37"/>
<path d="M72 30.1289H27.457V33.5742H72V30.1289Z" fill="#FA5B37"/>
<path d="M64.9512 36.8262H27.457V40.2715H64.9512V36.8262Z" fill="#FA5B37"/>
</svg>
