<svg width="94" height="94" viewBox="0 0 94 94" fill="none" xmlns="http://www.w3.org/2000/svg">
<path d="M5.875 64.6252L13.5125 61.9815C24.9688 58.1627 37.8938 60.8065 47 69.0315C56.1062 77.2565 68.7375 79.9002 80.4875 76.0815L88.125 73.4377" stroke="#FA5B37" stroke-width="2" stroke-miterlimit="10" stroke-linecap="round" stroke-linejoin="round"/>
<path d="M67.5625 47C74.0518 47 79.3125 41.7393 79.3125 35.25C79.3125 28.7607 74.0518 23.5 67.5625 23.5C61.0732 23.5 55.8125 28.7607 55.8125 35.25C55.8125 41.7393 61.0732 47 67.5625 47Z" stroke="#FA5B37" stroke-width="2" stroke-miterlimit="10" stroke-linecap="round" stroke-linejoin="round"/>
<path d="M52.8758 73.4379L55.8133 70.5004C60.807 65.5066 60.807 57.5754 55.8133 52.8754L33.782 30.8441C29.6695 26.7316 23.207 26.7316 19.0945 30.8441L6.16953 43.7691C4.40703 45.5316 4.40703 48.4691 6.16953 50.2316C7.63828 51.7004 9.98828 51.9941 12.0445 50.8191L26.4383 41.1254L35.2508 49.9379L24.9695 60.2191" stroke="#FA5B37" stroke-width="2" stroke-miterlimit="10" stroke-linecap="round" stroke-linejoin="round"/>
</svg>
