<svg width="75" height="85" viewBox="0 0 75 85" fill="none" xmlns="http://www.w3.org/2000/svg">
<path d="M59.9434 8.59375C59.9434 12.3217 56.9213 15.3438 53.1934 15.3438C49.4654 15.3438 46.4434 12.3217 46.4434 8.59375C46.4434 4.86583 49.4654 1.84375 53.1934 1.84375C56.9213 1.84375 59.9434 4.86583 59.9434 8.59375Z" stroke="#FA5B37" stroke-width="2"/>
<path d="M67.6393 21.3654L67.6449 21.3548L67.6503 21.3441C68.3499 19.9449 70.0433 19.4071 71.5223 20.1357C72.9804 20.9489 73.4389 22.655 72.6717 23.9802L72.6611 23.9985L72.6513 24.0172L67.3232 34.1891L67.3188 34.1975L67.3146 34.2059C66.9674 34.9002 66.3374 35.404 65.524 35.6259C64.7329 35.8416 63.8693 35.6925 63.2418 35.2742L63.2309 35.2669L63.2197 35.2599L51.9822 28.188L51.0754 27.6173L50.5685 28.5614L40.6873 46.9676L40.3219 47.6483L40.8882 48.1737L50.2851 56.8924L50.2929 56.8997L50.3009 56.9068C50.9653 57.4974 51.2959 58.266 51.2281 59.0795L51.2265 59.0983L51.2256 59.1171L50.257 80.4274C50.257 80.4281 50.2569 80.4287 50.2569 80.4294C50.1846 81.9246 48.8859 83.1562 47.3809 83.1562H47.3803H47.3797H47.3792H47.3786H47.3781H47.3775H47.3769H47.3764H47.3758H47.3753H47.3748H47.3742H47.3737H47.3731H47.3726H47.3721H47.3715H47.371H47.3705H47.3699H47.3694H47.3689H47.3684H47.3679H47.3673H47.3668H47.3663H47.3658H47.3653H47.3648H47.3643H47.3638H47.3633H47.3628H47.3623H47.3618H47.3613H47.3608H47.3603H47.3598H47.3594H47.3589H47.3584H47.3579H47.3574H47.357H47.3565H47.356H47.3555H47.3551H47.3546H47.3541H47.3537H47.3532H47.3528H47.3523H47.3518H47.3514H47.3509H47.3505H47.35H47.3496H47.3491H47.3487H47.3483H47.3478H47.3474H47.3469H47.3465H47.3461H47.3456H47.3452H47.3448H47.3443H47.3439H47.3435H47.3431H47.3426H47.3422H47.3418H47.3414H47.341H47.3406H47.3401H47.3397H47.3393H47.3389H47.3385H47.3381H47.3377H47.3373H47.3369H47.3365H47.3361H47.3357H47.3353H47.3349H47.3345H47.3341H47.3337H47.3334H47.333H47.3326H47.3322H47.3318H47.3314H47.3311H47.3307H47.3303H47.3299H47.3295H47.3292H47.3288H47.3284H47.3281H47.3277H47.3273H47.3269H47.3266H47.3262H47.3259H47.3255H47.3251H47.3248H47.3244H47.3241H47.3237H47.3233H47.323H47.3226H47.3223H47.3219H47.3216H47.3212H47.3209H47.3205H47.3202H47.3199H47.3195H47.3192H47.3188H47.3185H47.3181H47.3178H47.3175H47.3171H47.3168H47.3165H47.3161H47.3158H47.3155H47.3151H47.3148H47.3145H47.3141H47.3138H47.3135H47.3132H47.3128H47.3125H47.3122H47.3119H47.3115H47.3112H47.3109H47.3106H47.3103H47.3099H47.3096H47.3093H47.309H47.3087H47.3084H47.3081H47.3077H47.3074H47.3071H47.3068H47.3065H47.3062H47.3059H47.3056H47.3053H47.305H47.3047H47.3043H47.304H47.3037H47.3034H47.3031H47.3028H47.3025H47.3022H47.3019H47.3016H47.3013H47.301H47.3007H47.3004H47.3001H47.2998H47.2995H47.2992H47.299H47.2987H47.2984H47.2981H47.2978H47.2975H47.2972H47.2969H47.2966H47.2963H47.296H47.2957H47.2954H47.2951H47.2949H47.2946H47.2943H47.294H47.2937H47.2934H47.2931H47.2928H47.2925H47.2923H47.292H47.2917H47.2914H47.2911H47.2908H47.2905H47.2902H47.29H47.2897H47.2894H47.2891H47.2888H47.2885H47.2882H47.288H47.2877H47.2874H47.2871H47.2868H47.2865H47.2863H47.286H47.2857H47.2854H47.2851H47.2848H47.2846H47.2843H47.284H47.2837H47.2834H47.2831H47.2829H47.2826H47.2823H47.282H47.2817H47.2814H47.2811H47.2809H47.2806H47.2803H47.28H47.2797H47.2794H47.2792H47.2789H47.2786H47.2783H47.278H47.2777H47.2774H47.2772H47.2769H47.2766H47.2763H47.276H47.2757H47.2754H47.2751H47.2749H47.2746H47.2743H47.274H47.2737H47.2734H47.2731H47.2728H47.2725H47.2723H47.272H47.2717H47.2714H47.2711H47.2708H47.2705H47.2702H47.2699H47.2696H47.2693H47.269H47.2687H47.2684H47.2681H47.2678H47.2675H47.2672H47.2669H47.2666H47.2663H47.266H47.2657H47.2654H47.2651H47.2648H47.2645H47.2642H47.2639H47.2636H47.2633H47.263H47.2627H47.2624H47.2621H47.2618H47.2615H47.2612H47.2609H47.2605H47.2602H47.2599H47.2596H47.2593H47.259H47.2587H47.2583H47.258H47.2577H47.2574H47.2571H47.2568H47.2564H47.2561H47.2558H47.2555H47.2551H47.2548H47.2545H47.2542H47.2538H47.2535H47.2532H47.2528H47.2525H47.2522H47.2519H47.2515H47.2512H47.2508H47.2505H47.2502H47.2498H47.2495H47.2492H47.2488H47.2485H47.2481H47.2478H47.2474H47.2471H47.2467H47.2464H47.246H47.2457H47.2453H47.245H47.2446H47.2443H47.2439H47.2436H47.2432H47.2428H47.2425H47.2421H47.2418H47.2414H47.241H47.2407H47.2403H47.2399H47.2396H47.2392H47.2388H47.2384H47.2381H47.2377H47.2373H47.2369H47.2365H47.2362H47.2358H47.2354H47.235H47.2346H47.2342H47.2338H47.2334H47.2331H47.2327H47.2323H47.2319H47.2315H47.2311H47.2307H47.2303H47.2299H47.2295H47.2291H47.2286H47.2282H47.2278H47.2274H47.227H47.2266H47.2262H47.2257H47.2253H47.2249H47.2245H47.2241H47.2236H47.2232H47.2228H47.2223H47.2219H47.2215H47.221H47.2206H47.2202H47.2197H47.2193H47.2188H47.2184H47.2179H47.2175H47.217H47.2166H47.2161H47.2157H47.2152H47.2148H47.2143H47.2138H47.2134H47.2129H47.2124H47.212H47.2116C45.6461 83.0736 44.4584 81.7208 44.5986 80.178L44.6007 80.1552L44.6017 80.1322L45.4736 60.6604L45.4943 60.1985L45.1558 59.8835L34.0152 49.5179L33.0705 48.6389L32.4551 49.7731L25.6738 62.2699L25.6723 62.2728C25.1648 63.2152 24.2395 63.7812 23.1621 63.7812H4.75586C3.17689 63.7812 1.88086 62.4852 1.88086 60.9062C1.88086 59.3273 3.17689 58.0312 4.75586 58.0312H20.8371H21.4355L21.7183 57.5039L38.8652 25.5352L39.6551 24.0625H37.984H32.2684H31.6747L31.3905 24.5836L26.1592 34.1743L26.1592 34.1743L26.1566 34.179C25.6559 35.109 24.6411 35.6875 23.6465 35.6875C23.2629 35.6875 22.7431 35.552 22.2626 35.3134C20.9069 34.5933 20.3556 32.7955 21.1213 31.4729L21.1284 31.4606L21.1352 31.4482L27.432 19.8232L27.4332 19.821C27.9407 18.8786 28.8659 18.3125 29.9434 18.3125H46.4121C47.0121 18.3125 47.4925 18.4596 47.8918 18.7258L47.9026 18.733L47.9135 18.7399L62.8323 28.1368L63.7439 28.711L64.2487 27.7591L67.6393 21.3654Z" stroke="#FA5B37" stroke-width="2"/>
</svg>
