<svg width="91" height="91" viewBox="0 0 91 91" fill="none" xmlns="http://www.w3.org/2000/svg">
<path d="M45.5 73.9375C44.3751 73.9375 43.2755 73.6039 42.3402 72.979C41.4049 72.354 40.6759 71.4658 40.2454 70.4265C39.815 69.3873 39.7023 68.2437 39.9218 67.1404C40.1412 66.0372 40.6829 65.0237 41.4783 64.2283C42.2737 63.4329 43.2872 62.8912 44.3904 62.6718C45.4937 62.4523 46.6373 62.565 47.6765 62.9954C48.7158 63.4259 49.604 64.1549 50.229 65.0902C50.8539 66.0255 51.1875 67.1251 51.1875 68.25C51.1875 69.7584 50.5883 71.2051 49.5217 72.2717C48.4551 73.3383 47.0084 73.9375 45.5 73.9375V73.9375Z" fill="#FA5B37"/>
<path d="M45.5 56.875C44.7458 56.875 44.0225 56.5754 43.4892 56.0421C42.9559 55.5088 42.6562 54.7855 42.6562 54.0312V31.2812C42.6562 30.527 42.9559 29.8037 43.4892 29.2704C44.0225 28.7371 44.7458 28.4375 45.5 28.4375C46.2542 28.4375 46.9775 28.7371 47.5108 29.2704C48.0441 29.8037 48.3438 30.527 48.3438 31.2812V54.0312C48.3438 54.7855 48.0441 55.5088 47.5108 56.0421C46.9775 56.5754 46.2542 56.875 45.5 56.875Z" fill="#FA5B37"/>
<path d="M78.9994 85.3125H12.0006C10.4116 85.3234 8.84762 84.9167 7.46519 84.1332C6.08275 83.3496 4.93039 82.2167 4.12345 80.8478C3.31613 79.5097 2.87534 77.9827 2.84539 76.4202C2.81543 74.8577 3.19738 73.3149 3.95283 71.9468L37.4522 10.4365C38.2449 8.99567 39.4099 7.79405 40.8255 6.95713C42.2411 6.12022 43.8555 5.67871 45.5 5.67871C47.1445 5.67871 48.7589 6.12022 50.1745 6.95713C51.5902 7.79405 52.7551 8.99567 53.5478 10.4365L87.0472 71.9468C87.8026 73.3149 88.1846 74.8577 88.1546 76.4202C88.1247 77.9827 87.6839 79.5097 86.8766 80.8478C86.0696 82.2167 84.9173 83.3496 83.5348 84.1332C82.1524 84.9167 80.5884 85.3234 78.9994 85.3125V85.3125ZM45.5 11.375C44.8764 11.3613 44.2614 11.5217 43.7239 11.8382C43.1864 12.1546 42.7478 12.6146 42.4572 13.1665L8.95783 74.6484C8.65669 75.1459 8.49749 75.7163 8.49749 76.2978C8.49749 76.8793 8.65669 77.4497 8.95783 77.9472C9.24909 78.4464 9.66338 78.8627 10.1612 79.1564C10.659 79.4501 11.2237 79.6114 11.8016 79.625H78.9994C79.5772 79.6114 80.142 79.4501 80.6398 79.1564C81.1376 78.8627 81.5519 78.4464 81.8431 77.9472C82.1443 77.4497 82.3035 76.8793 82.3035 76.2978C82.3035 75.7163 82.1443 75.1459 81.8431 74.6484L48.5428 13.1665C48.2523 12.6146 47.8136 12.1546 47.2761 11.8382C46.7386 11.5217 46.1236 11.3613 45.5 11.375V11.375Z" fill="#FA5B37"/>
</svg>
