<svg width="80" height="80" viewBox="0 0 80 80" fill="none" xmlns="http://www.w3.org/2000/svg">
<g clip-path="url(#clip0_929_3388)">
<path d="M6.1361 75.325L11.0839 65.4297H68.9163L73.8639 75.325H6.1361ZM79.7525 76.6206L72.4611 62.0378C72.0641 61.2437 71.2527 60.7422 70.3649 60.7422H9.63532C8.74751 60.7422 7.9361 61.2437 7.53907 62.0378L0.247352 76.6206C-0.115773 77.347 -0.0770232 78.21 0.350008 78.9009C0.777039 79.592 1.53141 80.0125 2.34376 80.0125H77.6561C78.4684 80.0125 79.2227 79.592 79.6499 78.9009C80.0769 78.21 80.1156 77.347 79.7525 76.6206Z" fill="#FA5B37"/>
<path d="M25.0102 37.4609H54.8918L60.9534 49.5844H18.9485L25.0102 37.4609ZM15.1563 54.2719H64.7457C65.5579 54.2719 66.3123 53.8512 66.7393 53.1603C67.1663 52.4694 67.2052 51.6064 66.8419 50.88L58.4366 34.0691C58.0396 33.275 57.228 32.7734 56.3404 32.7734H23.5616C22.674 32.7734 21.8624 33.275 21.4654 34.0691L13.0599 50.88C12.6966 51.6064 12.7355 52.4694 13.1626 53.1603C13.5896 53.8512 14.344 54.2719 15.1563 54.2719Z" fill="#FA5B37"/>
<path d="M40.0378 7.58469L47.0648 21.6391H33.0109L40.0378 7.58469ZM29.2188 26.3266H50.857C51.6694 26.3266 52.4238 25.9061 52.8508 25.215C53.2778 24.5241 53.3166 23.6612 52.9534 22.9347L42.1342 1.29562C41.737 0.501562 40.9256 0 40.0378 0C39.15 0 38.3386 0.501562 37.9414 1.29562L27.1224 22.9347C26.7592 23.6612 26.798 24.5241 27.225 25.215C27.652 25.9061 28.4064 26.3266 29.2188 26.3266Z" fill="#FA5B37"/>
</g>
<defs>
<clipPath id="clip0_929_3388">
<rect width="80" height="80" fill="white"/>
</clipPath>
</defs>
</svg>
