<svg width="70" height="85" viewBox="0 0 70 85" fill="none" xmlns="http://www.w3.org/2000/svg">
<path d="M64.2188 84.25H5.78125C4.41373 84.25 3.10221 83.7068 2.13523 82.7398C1.16825 81.7728 0.625 80.4613 0.625 79.0938V30.9688C0.625 29.6012 1.16825 28.2897 2.13523 27.3227C3.10221 26.3557 4.41373 25.8125 5.78125 25.8125H64.2188C65.5863 25.8125 66.8978 26.3557 67.8648 27.3227C68.8317 28.2897 69.375 29.6012 69.375 30.9688V79.0938C69.375 80.4613 68.8317 81.7728 67.8648 82.7398C66.8978 83.7068 65.5863 84.25 64.2188 84.25ZM5.78125 29.25C5.32541 29.25 4.88824 29.4311 4.56591 29.7534C4.24358 30.0757 4.0625 30.5129 4.0625 30.9688V79.0938C4.0625 79.5496 4.24358 79.9868 4.56591 80.3091C4.88824 80.6314 5.32541 80.8125 5.78125 80.8125H64.2188C64.6746 80.8125 65.1118 80.6314 65.4341 80.3091C65.7564 79.9868 65.9375 79.5496 65.9375 79.0938V30.9688C65.9375 30.5129 65.7564 30.0757 65.4341 29.7534C65.1118 29.4311 64.6746 29.25 64.2188 29.25H5.78125Z" fill="#FA5B37"/>
<path d="M35 68.7812C33.1963 68.7812 31.4384 68.2137 29.9751 67.1591C28.5119 66.1045 27.4176 64.6162 26.8473 62.9051C26.2769 61.194 26.2594 59.3468 26.7971 57.6251C27.3349 55.9035 28.4008 54.3947 29.8437 53.3125V46.4375C29.8437 45.07 30.387 43.7585 31.354 42.7915C32.321 41.8245 33.6325 41.2813 35 41.2812C36.3675 41.2813 37.679 41.8245 38.646 42.7915C39.613 43.7585 40.1562 45.07 40.1562 46.4375V53.3125C41.5992 54.3947 42.6651 55.9035 43.2029 57.6251C43.7407 59.3468 43.7231 61.194 43.1527 62.9051C42.5824 64.6162 41.4881 66.1045 40.0249 67.1591C38.5616 68.2137 36.8037 68.7812 35 68.7812ZM35 44.7188C34.5442 44.7188 34.107 44.8998 33.7847 45.2222C33.4623 45.5445 33.2812 45.9817 33.2812 46.4375V54.2578C33.2825 54.5607 33.2036 54.8585 33.0527 55.1211C32.9018 55.3836 32.6842 55.6017 32.4219 55.7531C31.6426 56.203 30.9946 56.8491 30.5423 57.627C30.09 58.4049 29.8492 59.2877 29.8437 60.1875C29.8437 61.555 30.387 62.8665 31.354 63.8335C32.321 64.8005 33.6325 65.3438 35 65.3438C36.3675 65.3438 37.679 64.8005 38.646 63.8335C39.613 62.8665 40.1562 61.555 40.1562 60.1875C40.1508 59.2877 39.91 58.4049 39.4577 57.627C39.0054 56.8491 38.3574 56.203 37.5781 55.7531C37.3158 55.6017 37.0982 55.3836 36.9473 55.1211C36.7964 54.8585 36.7175 54.5607 36.7188 54.2578V46.4375C36.7188 45.9817 36.5377 45.5445 36.2153 45.2222C35.893 44.8998 35.4558 44.7188 35 44.7188Z" fill="#FA5B37"/>
<path d="M17.8125 29.25C17.3567 29.25 16.9195 29.0689 16.5972 28.7466C16.2748 28.4243 16.0938 27.9871 16.0938 27.5312V18.9375C16.0938 13.9233 18.0857 9.11437 21.6313 5.56876C25.1769 2.02315 29.9858 0.03125 35 0.03125C40.0142 0.03125 44.8231 2.02315 48.3687 5.56876C51.9143 9.11437 53.9062 13.9233 53.9062 18.9375C53.9062 19.3933 53.7252 19.8305 53.4028 20.1528C53.0805 20.4752 52.6433 20.6562 52.1875 20.6562C51.7317 20.6562 51.2945 20.4752 50.9722 20.1528C50.6498 19.8305 50.4688 19.3933 50.4688 18.9375C50.4688 14.8349 48.839 10.9004 45.9381 7.99944C43.0371 5.09849 39.1026 3.46875 35 3.46875C30.8974 3.46875 26.9629 5.09849 24.0619 7.99944C21.161 10.9004 19.5312 14.8349 19.5312 18.9375V27.5312C19.5312 27.9871 19.3502 28.4243 19.0278 28.7466C18.7055 29.0689 18.2683 29.25 17.8125 29.25Z" fill="#FA5B37"/>
</svg>
