<svg width="103" height="103" viewBox="0 0 103 103" fill="none" xmlns="http://www.w3.org/2000/svg">
<path d="M58.3654 92.5452H21.1653C21.0917 92.5452 21.0188 92.5304 20.951 92.5018C20.8832 92.4731 20.8219 92.4311 20.7706 92.3782C20.7194 92.3254 20.6793 92.2628 20.6527 92.1941C20.6262 92.1255 20.6136 92.0522 20.6159 91.9787V54.3837C22.039 55.0347 23.5577 55.4521 25.1136 55.6197V87.5497C25.1136 88.0049 25.2945 88.4416 25.6164 88.7635C25.9383 89.0855 26.375 89.2663 26.8303 89.2663H47.8766C48.3319 89.2663 48.7685 89.0855 49.0905 88.7635C49.4124 88.4416 49.5933 88.0049 49.5933 87.5497C49.5933 87.0944 49.4124 86.6577 49.0905 86.3358C48.7685 86.0138 48.3319 85.833 47.8766 85.833H28.4783V55.6197C31.2187 55.3177 33.8248 54.2741 36.0162 52.6011C38.2075 50.9282 39.9012 48.6892 40.9147 46.1253C41.9283 43.5614 42.2234 40.7696 41.7683 38.0505C41.3132 35.3313 40.1251 32.7878 38.3319 30.6936H74.5879V53.7485C74.5879 54.2038 74.7688 54.6404 75.0907 54.9623C75.4127 55.2843 75.8493 55.4652 76.3046 55.4652C76.7599 55.4652 77.1965 55.2843 77.5185 54.9623C77.8404 54.6404 78.0213 54.2038 78.0213 53.7485V29.0113C78.0213 28.556 77.8404 28.1194 77.5185 27.7974C77.1965 27.4755 76.7599 27.2946 76.3046 27.2946H34.3321C32.257 26.106 29.9275 25.4313 27.5384 25.3268C25.1492 25.2222 22.7698 25.691 20.5988 26.6938V20.016C20.5965 19.9424 20.609 19.8691 20.6356 19.8005C20.6621 19.7318 20.7022 19.6692 20.7535 19.6164C20.8047 19.5636 20.8661 19.5216 20.9338 19.4929C21.0016 19.4642 21.0745 19.4494 21.1481 19.4495H38.6066V22.3163C38.6066 22.7716 38.7875 23.2082 39.1094 23.5302C39.4313 23.8521 39.868 24.033 40.3233 24.033H62.8116C63.2669 24.033 63.7035 23.8521 64.0255 23.5302C64.3474 23.2082 64.5283 22.7716 64.5283 22.3163V19.4495H81.9009C81.9746 19.4494 82.0474 19.4642 82.1152 19.4929C82.183 19.5216 82.2443 19.5636 82.2956 19.6164C82.3468 19.6692 82.3869 19.7318 82.4135 19.8005C82.4401 19.8691 82.4526 19.9424 82.4503 20.016V55.3622C82.4503 55.8174 82.6311 56.2541 82.9531 56.576C83.275 56.898 83.7117 57.0788 84.1669 57.0788C84.6222 57.0788 85.0589 56.898 85.3808 56.576C85.7028 56.2541 85.8836 55.8174 85.8836 55.3622V20.016C85.8791 18.9748 85.4635 17.9775 84.7272 17.2412C83.991 16.505 82.9937 16.0893 81.9525 16.0848H64.4596V15.4496C64.4596 14.9944 64.2787 14.5577 63.9568 14.2358C63.6349 13.9138 63.1982 13.733 62.7429 13.733H58.8461V12.0163C58.8236 10.6654 58.2711 9.3774 57.3077 8.43008C56.3443 7.48275 55.0472 6.95196 53.6961 6.95215H49.2843C47.9333 6.97467 46.6454 7.52718 45.698 8.49056C44.7507 9.45394 44.2199 10.751 44.2201 12.1021V13.8188H40.2889C39.8337 13.8188 39.397 13.9997 39.0751 14.3216C38.7531 14.6436 38.5723 15.0802 38.5723 15.5355V16.102H21.1653C20.6453 16.0952 20.1292 16.1911 19.6464 16.3844C19.1637 16.5776 18.7238 16.8643 18.3522 17.228C17.9805 17.5916 17.6844 18.0252 17.4807 18.5036C17.2771 18.982 17.1699 19.496 17.1654 20.016V28.7538C15.4116 30.1766 13.9975 31.9729 13.0262 34.0117C12.0548 36.0505 11.5508 38.2804 11.5508 40.5387C11.5508 42.7971 12.0548 45.027 13.0262 47.0658C13.9975 49.1046 15.4116 50.9009 17.1654 52.3236V91.9787C17.1654 93.0229 17.5791 94.0245 18.3158 94.7645C19.0526 95.5045 20.0524 95.9224 21.0966 95.927H58.3654C58.8207 95.927 59.2574 95.7461 59.5793 95.4242C59.9013 95.1023 60.0821 94.6656 60.0821 94.2103C60.0821 93.755 59.9013 93.3184 59.5793 92.9965C59.2574 92.6745 58.8207 92.4937 58.3654 92.4937V92.5452ZM49.2843 10.4541H53.7819C54.2372 10.4541 54.6739 10.635 54.9958 10.9569C55.3177 11.2789 55.4986 11.7155 55.4986 12.1708V13.8875H47.6019V12.1708C47.6019 11.7214 47.778 11.2899 48.0925 10.9689C48.4071 10.648 48.835 10.4631 49.2843 10.4541ZM41.9713 17.1663H61.0949V20.5996H41.9713V17.1663ZM14.9853 40.5473C14.9819 38.2121 15.6708 35.9283 16.965 33.9846C18.2592 32.0408 20.1006 30.5243 22.2564 29.6268C24.4122 28.7292 26.7857 28.4909 29.0769 28.9419C31.3682 29.3929 33.4743 30.513 35.1291 32.1606C36.7839 33.8083 37.9132 35.9095 38.3742 38.1987C38.8352 40.488 38.6072 42.8625 37.719 45.0222C36.8309 47.1819 35.3224 49.0298 33.3843 50.3325C31.4462 51.6351 29.1655 52.334 26.8303 52.3408V52.3408C23.6963 52.3454 20.6886 51.106 18.4678 48.8947C16.2469 46.6835 14.9944 43.6813 14.9853 40.5473V40.5473Z" fill="#FA5B37"/>
<path d="M77.7652 61.4395C75.2829 61.4517 72.8314 61.9899 70.5724 63.0188L70.229 62.4352C70.0029 62.0516 69.6365 61.771 69.2073 61.6525C68.7781 61.534 68.3196 61.5869 67.9287 61.8C64.9457 63.5362 62.4696 66.0236 60.7468 69.0143C59.024 72.0051 58.1147 75.395 58.1094 78.8465C58.1094 79.3018 58.2902 79.7384 58.6122 80.0604C58.9341 80.3823 59.3708 80.5632 59.826 80.5632H60.4612C60.7904 83.9224 62.0882 87.1136 64.1969 89.7492C66.3056 92.3847 69.1344 94.3511 72.3395 95.4093C75.5446 96.4675 78.9881 96.572 82.2515 95.7102C85.5149 94.8483 88.4577 93.0571 90.7224 90.5543C92.987 88.0515 94.476 84.9449 95.0084 81.6118C95.5407 78.2788 95.0936 74.8628 93.7212 71.7791C92.3488 68.6954 90.1104 66.0767 87.2778 64.2412C84.4452 62.4056 81.1405 61.4323 77.7652 61.4395ZM68.2034 65.6625L74.8469 77.25H61.577C61.806 74.9615 62.5144 72.747 63.6561 70.7505C64.7978 68.754 66.3472 67.0204 68.2034 65.6625V65.6625ZM77.7652 92.9232C74.331 92.9185 71.0173 91.657 68.4494 89.3769C65.8814 87.0967 64.2368 83.9555 63.8259 80.546H77.7652C78.0568 80.5365 78.3411 80.4529 78.5914 80.3031C78.8417 80.1532 79.0497 79.9421 79.1957 79.6895C79.3418 79.437 79.421 79.1514 79.426 78.8597C79.431 78.568 79.3616 78.2799 79.2244 78.0225L72.2547 66.0058C74.1756 65.1566 76.2623 64.7485 78.3616 64.8116C80.4609 64.8746 82.5194 65.4072 84.3858 66.3701C86.2523 67.3331 87.8793 68.7019 89.1473 70.3762C90.4154 72.0504 91.2922 73.9874 91.7134 76.045C92.1346 78.1025 92.0895 80.2283 91.5814 82.2661C91.0733 84.304 90.1151 86.2021 88.7772 87.821C87.4393 89.44 85.7557 90.7386 83.8501 91.6215C81.9445 92.5044 79.8653 92.9492 77.7652 92.9232V92.9232Z" fill="#FA5B37"/>
<path d="M41.7671 59.2075C41.447 58.8981 41.0192 58.7252 40.574 58.7252C40.1288 58.7252 39.701 58.8981 39.3809 59.2075L34.3339 64.1859C34.0245 64.506 33.8516 64.9337 33.8516 65.3789C33.8516 65.8241 34.0245 66.2519 34.3339 66.572C34.4867 66.7317 34.6707 66.8583 34.8745 66.9439C35.0782 67.0295 35.2974 67.0724 35.5184 67.0699C35.9688 67.068 36.4003 66.8892 36.7201 66.572L40.4968 62.7954L43.9301 66.2287C44.2502 66.5381 44.678 66.7111 45.1232 66.7111C45.5684 66.7111 45.9962 66.5381 46.3163 66.2287L52.7881 59.7397L55.7408 62.6924C56.0609 63.0018 56.4887 63.1747 56.9339 63.1747C57.379 63.1747 57.8068 63.0018 58.1269 62.6924L68.6673 52.3065C68.9767 51.9864 69.1496 51.5586 69.1496 51.1134C69.1496 50.6682 68.9767 50.2405 68.6673 49.9204C68.3472 49.6109 67.9194 49.438 67.4742 49.438C67.029 49.438 66.6012 49.6109 66.2811 49.9204L57.0454 59.1732L54.0928 56.2205C53.7727 55.9111 53.3449 55.7382 52.8997 55.7382C52.4545 55.7382 52.0267 55.9111 51.7066 56.2205L45.2176 62.7095L41.7671 59.2075Z" fill="#FA5B37"/>
<path d="M22.1958 42.1615C22.7091 42.4617 23.2775 42.6559 23.8672 42.7326C24.4569 42.8092 25.0561 42.7668 25.6291 42.6078L28.8908 41.7323C29.0344 41.6921 29.1848 41.682 29.3325 41.7027C29.4802 41.7234 29.622 41.7744 29.7491 41.8525C29.8781 41.9205 29.9908 42.0155 30.0797 42.131C30.1686 42.2465 30.2315 42.3799 30.2641 42.522C30.3431 42.8111 30.3044 43.1197 30.1564 43.3803C30.0084 43.6409 29.7632 43.8323 29.4744 43.9125L24.5819 45.2172C24.22 45.3549 23.9152 45.6111 23.7172 45.944C23.5192 46.2768 23.4396 46.6669 23.4913 47.0507C23.543 47.4346 23.723 47.7897 24.002 48.0583C24.2811 48.3269 24.6427 48.4933 25.0283 48.5303C25.1656 48.5303 27.0883 48.0325 27.0883 48.0325L27.2428 48.5818C27.342 48.936 27.5524 49.249 27.8429 49.4746C28.1334 49.7002 28.4887 49.8266 28.8564 49.835C29.0042 49.86 29.155 49.86 29.3028 49.835C29.7278 49.7107 30.0883 49.4269 30.3091 49.0431C30.5298 48.6592 30.5936 48.2049 30.4873 47.775L30.3499 47.2257C30.9269 47.0784 31.4688 46.818 31.9444 46.4597C32.4199 46.1014 32.8195 45.6522 33.1201 45.1382C33.4207 44.6242 33.6162 44.0556 33.6954 43.4655C33.7745 42.8753 33.7357 42.2753 33.5811 41.7003C33.4265 41.1253 33.1594 40.5867 32.795 40.1157C32.4307 39.6447 31.9765 39.2508 31.4587 38.9568C30.9409 38.6627 30.37 38.4744 29.7788 38.4027C29.1877 38.3311 28.5883 38.3775 28.0153 38.5393L24.7708 39.4148C24.4821 39.4934 24.1743 39.4565 23.9124 39.3118C23.6545 39.1586 23.4643 38.9132 23.3803 38.6252C23.307 38.3361 23.3506 38.0299 23.5016 37.7728C23.6527 37.5157 23.899 37.3285 24.1871 37.2518L29.0624 35.93C29.4906 35.8093 29.8552 35.527 30.0794 35.1427C30.3035 34.7584 30.3698 34.3021 30.2641 33.87C30.2101 33.6477 30.1122 33.4385 29.9762 33.2546C29.8402 33.0706 29.6688 32.9158 29.4721 32.799C29.2754 32.6823 29.0573 32.606 28.8307 32.5747C28.6041 32.5434 28.3736 32.5578 28.1526 32.6168L26.5389 33.0632L26.3844 32.5138C26.2121 32.151 25.9181 31.8602 25.5534 31.6918C25.1888 31.5234 24.7767 31.4883 24.3888 31.5924C24.0009 31.6965 23.6618 31.9333 23.4304 32.2617C23.1991 32.59 23.0903 32.989 23.1228 33.3893L23.2773 33.9387C22.4181 34.1692 21.6466 34.6494 21.0603 35.3184C20.474 35.9875 20.0993 36.8153 19.9836 37.6973C19.8678 38.5793 20.0162 39.4759 20.41 40.2735C20.8037 41.0712 21.4252 41.7342 22.1958 42.1787V42.1615Z" fill="#FA5B37"/>
<path d="M67.5167 36.0498H47.2772C46.8219 36.0498 46.3853 36.2307 46.0633 36.5526C45.7414 36.8745 45.5605 37.3112 45.5605 37.7665C45.5605 38.2218 45.7414 38.6584 46.0633 38.9803C46.3853 39.3023 46.8219 39.4831 47.2772 39.4831H67.5167C67.972 39.4831 68.4086 39.3023 68.7306 38.9803C69.0525 38.6584 69.2334 38.2218 69.2334 37.7665C69.2334 37.3112 69.0525 36.8745 68.7306 36.5526C68.4086 36.2307 67.972 36.0498 67.5167 36.0498Z" fill="#FA5B37"/>
<path d="M67.5157 41.6636H55.1385C54.6833 41.6636 54.2466 41.8444 53.9247 42.1664C53.6027 42.4883 53.4219 42.925 53.4219 43.3802C53.4219 43.8355 53.6027 44.2722 53.9247 44.5941C54.2466 44.916 54.6833 45.0969 55.1385 45.0969H67.5157C67.971 45.0969 68.4076 44.916 68.7296 44.5941C69.0515 44.2722 69.2324 43.8355 69.2324 43.3802C69.2324 42.925 69.0515 42.4883 68.7296 42.1664C68.4076 41.8444 67.971 41.6636 67.5157 41.6636Z" fill="#FA5B37"/>
</svg>
