<svg width="86" height="86" viewBox="0 0 86 86" fill="none" xmlns="http://www.w3.org/2000/svg">
<path d="M68.3213 39.0014V8.77045H19.0378C11.3689 8.77045 5.08539 15.0539 5.08539 22.7239V77.2263H68.3213V68.114C61.1003 67.0779 55.7218 60.8665 55.7218 53.5572C55.7218 46.2478 61.1013 40.0364 68.3213 39.0014V39.0014ZM13.7264 68.3171C10.9565 68.3171 10.9565 64.1048 13.7264 64.1048H43.5378C46.3078 64.1048 46.3078 68.3171 43.5378 68.3171H13.7264ZM13.7264 59.3094C10.9565 59.3094 10.9565 55.097 13.7264 55.097H43.5378C46.3078 55.097 46.3078 59.3094 43.5378 59.3094H13.7264ZM13.7264 50.3017C10.9565 50.3017 10.9565 46.0893 13.7264 46.0893H43.5378C46.3078 46.0893 46.3078 50.3017 43.5378 50.3017H13.7264V50.3017ZM39.8669 27.889C37.0969 27.889 37.0969 23.6777 39.8669 23.6777H57.668C60.438 23.6777 60.438 27.889 57.668 27.889H39.8669ZM39.8669 35.3954C37.0969 35.3954 37.0969 31.1841 39.8669 31.1841H57.668C60.438 31.1841 60.438 35.3954 57.668 35.3954H39.8669ZM15.7386 19.1728H32.2538C33.4158 19.1728 34.3595 20.1164 34.3595 21.2795V37.7936C34.3595 38.9567 33.4158 39.8993 32.2538 39.8993H15.7386C14.5756 39.8993 13.633 38.9567 13.633 37.7936V21.2795C13.633 20.1164 14.5756 19.1728 15.7386 19.1728ZM30.1471 23.3851H17.8453V35.688H30.1471V23.3851ZM80.9217 53.5572C80.9217 47.7613 76.2239 43.0634 70.428 43.0634C64.6321 43.0634 59.9342 47.7613 59.9342 53.5572C59.9342 59.3531 64.631 64.0509 70.428 64.0509C76.2228 64.0509 80.9217 59.352 80.9217 53.5572ZM79.0101 65.5004L84.8263 76.6829C86.1031 79.139 82.3682 81.0811 81.0914 78.625L75.2772 67.4446C74.3975 67.7513 73.4803 67.9778 72.5336 68.114V79.332C72.5336 80.495 71.591 81.4386 70.428 81.4386H2.97972C1.81668 81.4386 0.873047 80.495 0.873047 79.332V22.7239C0.873047 12.7288 9.04277 4.55811 19.0378 4.55811H70.428C71.591 4.55811 72.5336 5.50174 72.5336 6.66478V39.0014C79.7546 40.0374 85.1341 46.2478 85.1341 53.5572C85.1341 58.3109 82.8547 62.7335 79.0101 65.5004Z" fill="#FA5B37"/>
</svg>
