<svg width="99" height="99" viewBox="0 0 99 99" fill="none" xmlns="http://www.w3.org/2000/svg">
<path d="M71.3099 18.7561C72.0447 22.5072 75.3318 25.2529 79.1603 25.2529C82.9888 25.2529 86.2759 22.5072 87.0107 18.7561L87.9775 13.8447C88.2868 11.4471 87.5907 9.04941 86.0052 7.23184C84.4197 5.41426 82.138 4.37012 79.7404 4.37012H78.6189C76.2212 4.37012 73.9396 5.41426 72.354 7.23184C70.7685 9.04941 70.0337 11.4471 70.3818 13.9607L71.3099 18.7561ZM75.2544 9.78418C76.1052 8.81738 77.3427 8.2373 78.6575 8.2373H79.779C81.0939 8.2373 82.2927 8.77871 83.1822 9.78418C84.0329 10.751 84.4197 12.0658 84.265 13.226L83.3368 18.0213C82.9501 19.9936 81.2486 21.3857 79.2376 21.3857C77.2267 21.3857 75.5251 19.9549 75.1384 18.0213L74.2103 13.342C74.0169 12.0658 74.4036 10.751 75.2544 9.78418Z" fill="#FA5B37"/>
<path d="M97.1821 44.2408L94.9778 33.7994C94.7071 32.5232 93.779 31.4791 92.5802 31.0537L84.9618 28.3467L79.2384 34.0701L73.5149 28.3467L65.8966 31.0537C64.6977 31.4791 63.7696 32.5232 63.4989 33.7994L61.2946 44.2408C61.0626 45.285 61.72 46.2904 62.7642 46.5225C63.8083 46.7545 64.8138 46.0971 65.0458 45.0529L67.2114 34.6889L72.5481 32.7939L79.2771 39.5228L86.006 32.7939L91.2653 34.6115L93.4696 45.0529C93.663 45.9424 94.4751 46.5611 95.3646 46.5611C95.4806 46.5611 95.6353 46.5611 95.7513 46.5225C96.7181 46.3291 97.3755 45.285 97.1821 44.2408Z" fill="#FA5B37"/>
<path d="M11.9486 18.7561C12.6833 22.5072 15.9704 25.2529 19.799 25.2529C23.6275 25.2529 26.9146 22.5072 27.6493 18.7561L28.6161 13.8447C28.9255 11.4471 28.2294 9.04941 26.6439 7.23184C25.0583 5.41426 22.7767 4.37012 20.379 4.37012H19.2575C16.8599 4.37012 14.5783 5.41426 12.9927 7.23184C11.4072 9.04941 10.6724 11.4471 11.0204 13.9607L11.9486 18.7561ZM15.8931 9.78418C16.7439 8.81738 17.9814 8.2373 19.2962 8.2373H20.4177C21.7325 8.2373 22.9314 8.77871 23.8208 9.78418C24.6716 10.751 25.0583 12.0658 24.9036 13.226L23.9755 18.0213C23.5888 19.9936 21.8872 21.3857 19.8763 21.3857C17.8654 21.3857 16.1638 19.9549 15.7771 18.0213L14.849 13.342C14.6169 12.0658 15.0423 10.751 15.8931 9.78418Z" fill="#FA5B37"/>
<path d="M26.5665 32.7939L31.8259 34.6115L34.0302 45.0529C34.2235 45.9424 35.0356 46.5611 35.9251 46.5611C36.0411 46.5611 36.1958 46.5611 36.3118 46.5225C37.356 46.2904 38.0134 45.285 37.7813 44.2408L35.577 33.7994C35.3063 32.5232 34.3782 31.4791 33.1794 31.0537L25.561 28.3467L19.7989 34.1088L14.0755 28.3467L6.45713 31.0537C5.2583 31.4791 4.33017 32.5232 4.05947 33.7994L1.85517 44.2408C1.62314 45.285 2.28056 46.2904 3.3247 46.5225C4.36885 46.7545 5.37431 46.0971 5.60635 45.0529L7.7333 34.6889L13.07 32.7939L19.7989 39.5228L26.5665 32.7939Z" fill="#FA5B37"/>
<path d="M49.5001 73.2832C53.3286 73.2832 56.6158 70.5375 57.3505 66.7863L58.3173 61.875C58.6267 59.4773 57.9306 57.0797 56.3451 55.2621C54.7595 53.4445 52.4779 52.4004 50.0802 52.4004H48.9587C46.5611 52.4004 44.2794 53.4445 42.6939 55.2621C41.1083 57.0797 40.3736 59.4773 40.7216 61.991L41.6497 66.7863C42.3845 70.5375 45.6716 73.2832 49.5001 73.2832ZM45.5556 57.8145C46.4064 56.8477 47.6439 56.2676 48.9587 56.2676H50.0802C51.3951 56.2676 52.5939 56.809 53.4833 57.8145C54.3341 58.7813 54.7208 60.0961 54.5662 61.2562L53.638 66.0516C53.2513 68.0238 51.5497 69.416 49.5388 69.416C47.5279 69.416 45.8263 67.9852 45.4396 66.0516L44.5115 61.3723C44.3181 60.0961 44.7048 58.7813 45.5556 57.8145Z" fill="#FA5B37"/>
<path d="M65.2763 81.8687C65.0056 80.5926 64.0774 79.5484 62.8786 79.123L55.2603 76.416L49.4981 82.1394L43.7747 76.416L36.1563 79.123C34.9575 79.5484 34.0294 80.5926 33.7587 81.8687L31.5544 92.3102C31.3224 93.3543 31.9798 94.3598 33.0239 94.5918C34.0681 94.8238 35.0735 94.1664 35.3056 93.1223L37.4325 82.7582L42.7692 80.8633L49.4981 87.5922L56.227 80.8633L61.4864 82.6809L63.6907 93.1223C63.8841 94.0117 64.6962 94.6305 65.5856 94.6305C65.7017 94.6305 65.8563 94.6305 65.9724 94.5918C67.0165 94.3598 67.6739 93.3543 67.4419 92.3102L65.2763 81.8687Z" fill="#FA5B37"/>
<path d="M82.5244 51.6268C81.4416 51.5107 80.5134 52.2842 80.4361 53.367C79.6627 61.3721 75.8341 68.6424 69.724 73.8631C68.9119 74.5592 68.8345 75.758 69.4919 76.5701C69.8787 77.0342 70.4201 77.2275 70.9615 77.2275C71.3869 77.2275 71.8509 77.0729 72.199 76.7635C79.0826 70.8854 83.3752 62.7256 84.2646 53.715C84.3419 52.6709 83.5685 51.7428 82.5244 51.6268Z" fill="#FA5B37"/>
<path d="M18.6014 53.3676C18.4854 52.3235 17.5573 51.5501 16.5131 51.6274C15.469 51.7434 14.6956 52.6715 14.7729 53.7157C15.6624 62.7262 19.9549 70.9247 26.8385 76.7641C27.1866 77.0735 27.6506 77.2282 28.076 77.2282C28.6174 77.2282 29.1588 76.9961 29.5456 76.5321C30.2417 75.72 30.1256 74.5212 29.3135 73.8251C23.2034 68.643 19.3749 61.3727 18.6014 53.3676Z" fill="#FA5B37"/>
<path d="M39.3279 20.9216C45.7861 18.6399 53.2111 18.6399 59.708 20.9216C59.9014 20.9989 60.1334 21.0376 60.3654 21.0376C61.1389 21.0376 61.9123 20.5349 62.183 19.7614C62.5311 18.756 62.0283 17.6731 61.0229 17.3251C53.7139 14.7341 45.3994 14.7341 38.0904 17.3251C37.085 17.6731 36.5822 18.7946 36.9303 19.7614C37.201 20.7669 38.3225 21.2696 39.3279 20.9216Z" fill="#FA5B37"/>
</svg>
