<svg width="32" height="32" viewBox="0 0 32 32" fill="none" xmlns="http://www.w3.org/2000/svg">
<path d="M16 1.125C7.78302 1.125 1.125 7.78302 1.125 16C1.125 24.217 7.78302 30.875 16 30.875C24.217 30.875 30.875 24.217 30.875 16C30.875 7.78302 24.217 1.125 16 1.125ZM16 29.1586C8.74814 29.1586 2.84141 23.2587 2.84141 16C2.84141 8.74814 8.74128 2.84141 16 2.84141C23.2519 2.84141 29.1586 8.74128 29.1586 16C29.1586 23.2518 23.2518 29.1586 16 29.1586Z" fill="white" stroke="white" stroke-width="0.5"/>
<path d="M15.75 7V15.75H9.25H9V16V17.2164V17.4664H9.25H17.2164H17.4664V17.2164V7V6.75H17.2164H16H15.75V7Z" fill="white" stroke="white" stroke-width="0.5"/>
</svg>
