<svg width="86" height="86" viewBox="0 0 86 86" fill="none" xmlns="http://www.w3.org/2000/svg">
<path d="M75.2494 38.5923V21.4998C75.2494 16.5907 65.0369 14.3332 55.541 14.3332C52.5401 14.3216 49.5436 14.5613 46.5827 15.0498V14.3332C46.5827 9.424 36.3702 7.1665 26.8743 7.1665C17.3785 7.1665 7.16602 9.424 7.16602 14.3332V68.0832C7.16602 72.9923 17.3785 75.2498 26.8743 75.2498C30.2779 75.2557 33.6741 74.9317 37.0152 74.2823C42.0481 77.6738 48.0819 79.2594 54.132 78.7803C60.182 78.3013 65.8911 75.7859 70.3276 71.6446C74.7641 67.5033 77.6661 61.9807 78.5599 55.9779C79.4538 49.9751 78.2868 43.8465 75.2494 38.5923ZM64.1052 28.0215C66.7208 27.6762 69.2696 26.9394 71.666 25.8357V33.7548C69.5032 31.4132 66.9435 29.4723 64.1052 28.0215V28.0215ZM26.8743 21.4998C32.3888 21.7027 37.8838 20.738 42.9994 18.669V25.0832C42.7127 26.0865 37.3377 28.6665 26.8743 28.6665C16.411 28.6665 11.036 26.0507 10.7493 25.0832V18.669C15.8649 20.738 21.3599 21.7027 26.8743 21.4998V21.4998ZM26.6594 42.9998C25.7808 45.2972 25.2494 47.7126 25.0827 50.1665C15.766 49.8798 10.9285 47.5507 10.7493 46.5832V40.169C15.8003 42.2013 21.2174 43.1651 26.6594 42.9998V42.9998ZM10.7493 57.3332V50.919C15.2885 52.8158 20.1633 53.7785 25.0827 53.7498C25.2546 56.1963 25.7609 58.6076 26.5877 60.9165C16.3394 60.9165 11.036 58.3007 10.7493 57.3332ZM28.236 39.4165H26.8743C16.411 39.4165 11.036 36.8007 10.7493 35.8332V29.419C15.8649 31.488 21.3599 32.4527 26.8743 32.2498C29.3425 32.2587 31.8085 32.1031 34.256 31.784C31.8038 33.9427 29.7641 36.5289 28.236 39.4165V39.4165ZM55.541 17.9165C66.0402 17.9165 71.4152 20.5323 71.666 21.4998C71.9169 22.4673 66.0402 25.0832 55.541 25.0832C52.5388 25.09 49.5417 24.8383 46.5827 24.3307V18.669C49.5417 18.1614 52.5388 17.9097 55.541 17.9165V17.9165ZM26.8743 10.7498C37.266 10.7498 42.641 13.3298 42.9994 14.3332C42.641 15.3007 37.6244 17.7015 27.9852 17.9165H26.8743C16.411 17.9165 11.036 15.3007 10.7493 14.3332C11.036 13.3657 16.411 10.7498 26.8743 10.7498ZM26.8743 71.6665C16.411 71.6665 11.036 69.0507 10.7493 68.0832V61.669C15.8649 63.738 21.3599 64.7027 26.8743 64.4998H28.2002C29.5276 67.0121 31.2451 69.298 33.2885 71.2723C31.1605 71.5344 29.0184 71.666 26.8743 71.6665V71.6665ZM51.9577 75.2498C47.351 75.2498 42.8478 73.8838 39.0175 71.3245C35.1872 68.7652 32.2019 65.1275 30.439 60.8715C28.6761 56.6155 28.2148 51.9323 29.1136 47.4142C30.0123 42.8961 32.2306 38.7459 35.488 35.4885C38.7454 32.2311 42.8956 30.0128 47.4137 29.114C51.9318 28.2153 56.615 28.6766 60.871 30.4395C65.127 32.2024 68.7647 35.1877 71.324 39.018C73.8833 42.8483 75.2494 47.3515 75.2494 51.9582C75.2399 58.1326 72.7829 64.0514 68.4169 68.4174C64.0509 72.7834 58.1321 75.2404 51.9577 75.2498V75.2498Z" fill="#FA5B37"/>
<path d="M53.7501 50.1663V41.9247C54.5778 42.0745 55.3488 42.4474 55.9803 43.003C56.6117 43.5587 57.0796 44.2761 57.3334 45.078C57.4475 45.5532 57.7456 45.9636 58.1623 46.219C58.5789 46.4743 59.0799 46.5537 59.5551 46.4397C60.0303 46.3256 60.4407 46.0275 60.6961 45.6109C60.9514 45.1942 61.0308 44.6932 60.9168 44.218C60.4044 42.6652 59.4565 41.2924 58.1858 40.2632C56.9152 39.234 55.3755 38.5917 53.7501 38.413V37.6247C53.7501 37.1495 53.5613 36.6938 53.2253 36.3578C52.8893 36.0218 52.4336 35.833 51.9584 35.833C51.4833 35.833 51.0275 36.0218 50.6915 36.3578C50.3555 36.6938 50.1668 37.1495 50.1668 37.6247V38.3772C48.2706 38.6009 46.5135 39.4846 45.2033 40.8735C43.893 42.2623 43.1131 44.0678 43.0001 45.9738C43.0045 46.5279 43.0645 47.0801 43.1793 47.6222C43.6307 49.2077 44.5301 50.6293 45.7696 51.7162C47.009 52.8031 48.5359 53.5092 50.1668 53.7497V62.0272C49.3391 61.8773 48.568 61.5045 47.9366 60.9488C47.3052 60.3931 46.8373 59.6757 46.5834 58.8738C46.4694 58.3987 46.1713 57.9882 45.7546 57.7329C45.338 57.4775 44.8369 57.3981 44.3618 57.5122C43.8866 57.6262 43.4762 57.9244 43.2208 58.341C42.9655 58.7576 42.8861 59.2587 43.0001 59.7338C43.5103 61.2846 44.4585 62.6546 45.7302 63.6783C47.002 64.702 48.5428 65.3358 50.1668 65.503V66.2913C50.1668 66.7665 50.3555 67.2222 50.6915 67.5582C51.0275 67.8942 51.4833 68.083 51.9584 68.083C52.4336 68.083 52.8893 67.8942 53.2253 67.5582C53.5613 67.2222 53.7501 66.7665 53.7501 66.2913V65.503C55.4002 65.3192 56.9597 64.6537 58.2341 63.5896C59.5086 62.5254 60.4416 61.1097 60.9168 59.5188C61.0275 59.0003 61.0875 58.4723 61.0959 57.9422C61.011 55.9794 60.2216 54.113 58.8725 52.6849C57.5234 51.2568 55.7049 50.3627 53.7501 50.1663ZM46.5834 46.583C46.5462 46.3216 46.5462 46.0561 46.5834 45.7947C46.6762 44.8431 47.076 43.9474 47.7224 43.2429C48.3687 42.5384 49.2267 42.0631 50.1668 41.8888V49.7363C49.3611 49.5986 48.6058 49.2512 47.9768 48.7292C47.3478 48.2071 46.8673 47.5287 46.5834 46.7622V46.583ZM57.3334 58.6947C57.0796 59.4966 56.6117 60.214 55.9803 60.7696C55.3488 61.3253 54.5778 61.6982 53.7501 61.848V54.0005C54.6957 54.1766 55.5577 54.6571 56.2046 55.3687C56.8516 56.0804 57.248 56.9842 57.3334 57.9422C57.3657 58.192 57.3657 58.4449 57.3334 58.6947V58.6947Z" fill="#FA5B37"/>
</svg>
