<svg width="60" height="60" viewBox="0 0 60 60" fill="none" xmlns="http://www.w3.org/2000/svg">
<path d="M46.9888 28.3136L16.8013 4.73546C16.7225 4.67335 16.6277 4.63476 16.5278 4.62411C16.428 4.61345 16.3272 4.63117 16.237 4.67523C16.1468 4.71929 16.0708 4.78789 16.0179 4.87317C15.9649 4.95845 15.937 5.05694 15.9375 5.15733V10.3337C15.9375 10.6618 16.0915 10.9765 16.346 11.1774L40.4531 30.0011L16.346 48.8247C16.0848 49.0256 15.9375 49.3404 15.9375 49.6685V54.8448C15.9375 55.2935 16.4531 55.5413 16.8013 55.2667L46.9888 31.6886C47.2454 31.4884 47.453 31.2324 47.5957 30.94C47.7385 30.6476 47.8127 30.3265 47.8127 30.0011C47.8127 29.6757 47.7385 29.3546 47.5957 29.0621C47.453 28.7697 47.2454 28.5137 46.9888 28.3136Z" fill="#FA5B37"/>
</svg>
