<svg width="100" height="58" viewBox="0 0 100 58" fill="none" xmlns="http://www.w3.org/2000/svg">
<g clip-path="url(#clip0_752_175)">
<path d="M61.1338 33.875C60.9212 33.8746 60.7106 33.9161 60.514 33.9972C60.3175 34.0783 60.1389 34.1973 59.9884 34.3475C59.8379 34.4977 59.7185 34.6761 59.6371 34.8725C59.5556 35.0689 59.5137 35.2794 59.5137 35.492V56.7048C59.5319 57.1218 59.7104 57.5157 60.0119 57.8044C60.3135 58.0931 60.7148 58.2542 61.1323 58.2542C61.5497 58.2542 61.951 58.0931 62.2526 57.8044C62.5541 57.5157 62.7326 57.1218 62.7508 56.7048V35.4797C62.7476 35.053 62.5758 34.6448 62.2729 34.3443C61.97 34.0437 61.5605 33.875 61.1338 33.875Z" fill="#FA5B37"/>
<path d="M38.912 33.875C38.6995 33.8746 38.489 33.9162 38.2927 33.9973C38.0963 34.0784 37.9179 34.1975 37.7676 34.3477C37.6174 34.498 37.4983 34.6764 37.4172 34.8727C37.3361 35.0691 37.2945 35.2796 37.2949 35.492V56.7048C37.2949 57.1336 37.4653 57.5449 37.7685 57.8482C38.0718 58.1514 38.4831 58.3218 38.912 58.3218C39.3408 58.3218 39.7521 58.1514 40.0554 57.8482C40.3586 57.5449 40.529 57.1336 40.529 56.7048V35.4797C40.5265 35.0527 40.355 34.6441 40.0519 34.3434C39.7488 34.0426 39.3389 33.8742 38.912 33.875V33.875Z" fill="#FA5B37"/>
<path d="M90.0704 27.1181H88.6386C90.2234 25.5583 91.3083 23.5621 91.7552 21.3837C92.202 19.2053 91.9906 16.9433 91.1478 14.8854C90.3049 12.8276 88.8689 11.0671 87.0224 9.82795C85.1759 8.58884 83.0024 7.92717 80.7787 7.92717C78.5549 7.92717 76.3815 8.58884 74.535 9.82795C72.6885 11.0671 71.2524 12.8276 70.4096 14.8854C69.5668 16.9433 69.3553 19.2053 69.8022 21.3837C70.249 23.5621 71.3339 25.5583 72.9188 27.1181H70.0242C67.7997 24.8962 64.7838 23.6486 61.6397 23.6495H58.7266C60.8757 21.8607 62.4213 19.453 63.153 16.7543C63.8847 14.0556 63.767 11.1969 62.8159 8.56752C61.8647 5.93809 60.1264 3.66566 57.8375 2.05957C55.5486 0.453489 52.8204 -0.408203 50.0242 -0.408203C47.2281 -0.408203 44.4998 0.453489 42.2109 2.05957C39.922 3.66566 38.1837 5.93809 37.2326 8.56752C36.2814 11.1969 36.1637 14.0556 36.8954 16.7543C37.6272 19.453 39.1728 21.8607 41.3219 23.6495H38.4088C36.8523 23.6488 35.311 23.9547 33.8729 24.5499C32.4348 25.1451 31.1281 26.0178 30.0273 27.1181H27.0803C28.6662 25.5581 29.752 23.5614 30.1995 21.3822C30.6469 19.2031 30.4358 16.9401 29.5929 14.8813C28.75 12.8226 27.3136 11.0612 25.4664 9.82148C23.6193 8.58176 21.445 7.91975 19.2204 7.91975C16.9958 7.91975 14.8215 8.58176 12.9743 9.82148C11.1272 11.0612 9.69074 12.8226 8.84788 14.8813C8.00502 16.9401 7.79387 19.2031 8.24132 21.3822C8.68878 23.5614 9.77458 25.5581 11.3605 27.1181H9.92863C7.32101 27.1206 4.8209 28.1576 2.97703 30.0014C1.13316 31.8453 0.0962012 34.3454 0.09375 36.953V53.8886C0.111964 54.3057 0.290453 54.6996 0.592001 54.9883C0.893549 55.2769 1.29488 55.4381 1.71233 55.4381C2.12977 55.4381 2.5311 55.2769 2.83265 54.9883C3.1342 54.6996 3.31268 54.3057 3.3309 53.8886V36.953C3.33253 35.2037 4.02817 33.5265 5.26513 32.2895C6.5021 31.0526 8.17931 30.3569 9.92863 30.3553H27.7623C26.9588 31.9648 26.5365 33.7377 26.5279 35.5366V56.7061C26.5279 57.135 26.6983 57.5463 27.0015 57.8495C27.3048 58.1528 27.7161 58.3231 28.1449 58.3231C28.5738 58.3231 28.9851 58.1528 29.2883 57.8495C29.5916 57.5463 29.762 57.135 29.762 56.7061V35.5366C29.7677 33.2467 30.6798 31.0522 32.299 29.433C33.9182 27.8138 36.1127 26.9017 38.4026 26.8959H61.6335C63.9234 26.9017 66.1179 27.8138 67.7371 29.433C69.3563 31.0522 70.2684 33.2467 70.2741 35.5366V36.808C70.2741 36.845 70.2525 36.879 70.2525 36.916V53.8886C70.2525 53.9257 70.2711 53.9596 70.2741 53.9967V56.7061C70.2924 57.1232 70.4708 57.5171 70.7724 57.8057C71.0739 58.0944 71.4753 58.2555 71.8927 58.2555C72.3102 58.2555 72.7115 58.0944 73.013 57.8057C73.3146 57.5171 73.4931 57.1232 73.5113 56.7061V35.5366C73.5027 33.7377 73.0803 31.9648 72.2769 30.3553H90.0581C91.8074 30.3569 93.4846 31.0526 94.7216 32.2895C95.9585 33.5265 96.6542 35.2037 96.6558 36.953V53.8886C96.674 54.3057 96.8525 54.6996 97.1541 54.9883C97.4556 55.2769 97.857 55.4381 98.2744 55.4381C98.6918 55.4381 99.0932 55.2769 99.3947 54.9883C99.6963 54.6996 99.8748 54.3057 99.893 53.8886V36.953C99.8905 34.3475 98.8553 31.8493 97.0141 30.0058C95.1729 28.1623 92.6759 27.1239 90.0704 27.1181V27.1181ZM11.2494 19.1472C11.2494 17.5707 11.7169 16.0295 12.5928 14.7187C13.4686 13.4079 14.7135 12.3862 16.17 11.7829C17.6265 11.1796 19.2292 11.0218 20.7755 11.3293C22.3217 11.6369 23.742 12.3961 24.8567 13.5108C25.9715 14.6256 26.7306 16.0459 27.0382 17.5921C27.3458 19.1383 27.1879 20.741 26.5846 22.1975C25.9813 23.654 24.9596 24.8989 23.6488 25.7748C22.338 26.6506 20.7969 27.1181 19.2204 27.1181C17.1071 27.1157 15.0811 26.2751 13.5868 24.7808C12.0924 23.2865 11.2519 21.2604 11.2494 19.1472ZM39.64 13.2839C39.64 11.2331 40.2482 9.22845 41.3875 7.52331C42.5268 5.81818 44.1462 4.48919 46.0408 3.70441C47.9355 2.91962 50.0203 2.71428 52.0316 3.11436C54.043 3.51444 55.8905 4.50197 57.3406 5.95207C58.7907 7.40217 59.7782 9.2497 60.1783 11.261C60.5784 13.2724 60.3731 15.3572 59.5883 17.2518C58.8035 19.1465 57.4745 20.7659 55.7694 21.9052C54.0642 23.0445 52.0595 23.6526 50.0088 23.6526C47.262 23.6453 44.63 22.5496 42.6895 20.6056C40.7489 18.6615 39.6579 16.0276 39.6555 13.2808L39.64 13.2839ZM72.7923 19.1472C72.7923 17.5708 73.2597 16.0298 74.1354 14.719C75.0111 13.4083 76.2558 12.3866 77.7122 11.7832C79.1685 11.1798 80.771 11.0218 82.3172 11.3291C83.8633 11.6364 85.2836 12.3953 86.3985 13.5097C87.5134 14.6242 88.2728 16.0442 88.5807 17.5902C88.8886 19.1362 88.7312 20.7388 88.1283 22.1954C87.5255 23.6519 86.5043 24.8971 85.1939 25.7733C83.8835 26.6495 82.3427 27.1175 80.7663 27.1181C78.6552 27.1124 76.6323 26.2704 75.1407 24.7764C73.649 23.2825 72.8101 21.2583 72.8077 19.1472H72.7923Z" fill="#FA5B37"/>
<path d="M89.6639 35.2988C89.235 35.2988 88.8237 35.4692 88.5205 35.7724C88.2172 36.0757 88.0469 36.487 88.0469 36.9159V53.8885C88.0469 54.3174 88.2172 54.7287 88.5205 55.0319C88.8237 55.3352 89.235 55.5055 89.6639 55.5055C90.0928 55.5055 90.5041 55.3352 90.8073 55.0319C91.1106 54.7287 91.2809 54.3174 91.2809 53.8885V36.9159C91.2809 36.7035 91.2391 36.4932 91.1578 36.297C91.0766 36.1009 90.9575 35.9226 90.8073 35.7724C90.6572 35.6223 90.4789 35.5032 90.2827 35.4219C90.0865 35.3407 89.8763 35.2988 89.6639 35.2988V35.2988Z" fill="#FA5B37"/>
<path d="M10.3299 35.2988C9.90106 35.2988 9.48976 35.4692 9.18651 35.7724C8.88326 36.0757 8.71289 36.487 8.71289 36.9159V53.8885C8.71289 54.3174 8.88326 54.7287 9.18651 55.0319C9.48976 55.3352 9.90106 55.5055 10.3299 55.5055C10.7588 55.5055 11.1701 55.3352 11.4733 55.0319C11.7766 54.7287 11.9469 54.3174 11.9469 53.8885V36.9159C11.9469 36.487 11.7766 36.0757 11.4733 35.7724C11.1701 35.4692 10.7588 35.2988 10.3299 35.2988V35.2988Z" fill="#FA5B37"/>
</g>
<defs>
<clipPath id="clip0_752_175">
<rect width="100" height="58" fill="white"/>
</clipPath>
</defs>
</svg>
