<svg width="88" height="87" viewBox="0 0 88 87" fill="none" xmlns="http://www.w3.org/2000/svg">
<path d="M0.835938 47.6153C1.33485 46.8071 2.06053 46.5377 2.99031 46.6051C3.37583 46.65 3.78403 46.5826 4.16955 46.6051C4.60043 46.6275 4.80453 46.5153 4.94059 46.0663C5.89305 43.0581 7.95672 41.2622 11.1089 40.9254C14.1477 40.5887 16.5062 41.8234 18.1163 44.4275C18.207 44.5622 18.2977 44.6969 18.4338 44.8989C19.3636 43.1928 20.6562 41.9581 22.4704 41.3071C26.3029 39.8928 30.6344 41.9805 31.7909 45.8418C31.9723 46.4479 32.2445 46.65 32.9021 46.65C35.4647 46.6051 35.6688 46.852 35.6688 49.3663C35.6688 61.1522 35.6688 72.938 35.6915 84.7239C35.6915 85.6443 35.4874 86.3627 34.671 86.8566C23.3775 86.8566 12.1067 86.8566 0.835938 86.8566C0.835937 73.7687 0.835938 60.7032 0.835938 47.6153ZM22.5384 83.9382C22.5384 72.4217 22.5384 60.9726 22.5384 49.5459C19.6357 49.5459 16.8237 49.5459 13.9663 49.5459C13.9663 61.0399 13.9663 72.4666 13.9663 83.9382C16.8237 83.9382 19.6584 83.9382 22.5384 83.9382ZM3.80671 49.5459C3.80671 61.0399 3.80671 72.4891 3.80671 83.9382C6.23322 83.9382 8.59169 83.9382 10.9728 83.9382C10.9728 72.4442 10.9728 61.0175 10.9728 49.5459C8.56901 49.5459 6.23322 49.5459 3.80671 49.5459ZM25.5772 49.5459C25.5772 61.0399 25.5772 72.4891 25.5772 83.9382C28.0038 83.9382 30.3622 83.9382 32.7434 83.9382C32.7434 72.4442 32.7434 61.0175 32.7434 49.5459C30.3396 49.5459 28.0038 49.5459 25.5772 49.5459ZM20.951 46.5602C23.6496 46.5602 26.2803 46.5602 28.9562 46.5602C28.48 44.9438 26.9152 43.7989 25.1917 43.7316C23.2188 43.6867 21.6313 44.7193 20.951 46.5602ZM7.88869 46.6275C9.2947 46.6275 10.61 46.6275 11.948 46.6275C13.2633 46.6275 14.5786 46.6275 15.9166 46.6275C15.2589 44.7867 13.6715 43.7091 11.7666 43.7316C10.0204 43.7765 8.45563 44.8989 7.88869 46.6275Z" fill="#FA5B37"/>
<path d="M53.062 43.7537C49.1388 43.7537 45.3516 43.7537 41.5191 43.7537C41.5191 42.8109 41.5191 41.9129 41.5191 40.9476C45.3063 40.9476 49.1161 40.9476 52.994 40.9476C52.994 36.57 52.994 32.2822 52.994 27.8821C52.6765 28.0842 52.4044 28.2189 52.1549 28.3985C49.6831 30.0372 47.2112 31.676 44.7393 33.2924C42.6303 34.6618 40.3399 34.3699 38.8658 32.5965C37.4144 30.8679 37.6412 28.2413 39.3647 26.7821C39.6822 26.5127 40.0451 26.2658 40.3852 26.0413C45.6238 22.5841 50.8396 19.1269 56.0781 15.6697C56.3049 15.5126 56.5317 15.3555 56.8265 15.1534C54.8536 12.886 54.1505 10.2595 54.7628 7.38598C55.1937 5.3431 56.3049 3.68186 58.0057 2.40225C61.4527 -0.179407 66.5325 0.247129 69.5487 3.36757C72.4514 6.37577 73.041 11.7411 69.1858 15.6473C69.4353 15.8269 69.6847 16.0065 69.9342 16.1861C74.9006 19.6433 79.867 23.078 84.8107 26.5352C86.5796 27.7699 87.2599 29.3638 86.7837 31.0699C85.99 33.8985 82.8378 34.9536 80.3205 33.1352C78.2569 31.6536 76.2386 30.1046 74.1976 28.6005C73.9708 28.4434 73.744 28.2862 73.4492 28.0617C73.4492 32.372 73.4492 36.57 73.4492 40.8353C78.2115 40.8353 82.9738 40.8353 87.8268 40.8353C87.8268 41.8231 87.8268 42.7211 87.8268 43.7313C83.0645 43.7313 78.3022 43.7313 73.4039 43.7313C73.4039 44.1354 73.4039 44.4721 73.4039 44.7864C73.4039 49.5456 73.4039 54.3273 73.4039 59.0865C73.4039 61.1743 72.7235 62.9478 70.9774 64.1825C68.7096 65.7989 65.8069 65.6193 63.6978 63.756C63.5618 63.6213 63.403 63.509 63.4257 63.5315C62.2238 64.1152 61.2033 64.8335 60.0467 65.0805C56.3049 65.9336 53.062 63.1723 53.0393 59.2212C53.0167 54.4171 53.0393 49.6354 53.0393 44.8313C53.062 44.517 53.062 44.2027 53.062 43.7537ZM55.9648 37.3332C58.7768 36.0312 61.1579 36.4802 63.2443 38.5006C65.376 36.4353 67.7345 36.0761 70.5011 37.3108C70.5011 36.9067 70.5011 36.6149 70.5011 36.323C70.5011 32.7985 70.5011 29.2515 70.5011 25.727C70.5011 24.9862 70.5011 24.2454 71.2948 23.8413C72.0886 23.4596 72.7009 23.8413 73.3132 24.3127C75.3541 25.8392 77.3951 27.3433 79.4361 28.8474C80.3659 29.5434 81.273 30.2393 82.2255 30.9128C82.7924 31.2944 83.382 31.272 83.7902 30.6883C84.1984 30.127 84.0397 29.5658 83.5181 29.1393C83.3593 29.0046 83.2006 28.9148 83.0419 28.8025C78.0301 25.3229 73.041 21.8433 68.0066 18.3861C67.6211 18.1167 67.0768 17.9596 66.6006 17.9596C63.9473 17.9147 61.2713 17.9147 58.618 17.9596C58.1645 17.9596 57.6656 18.1167 57.2801 18.3412C52.1096 21.731 46.9617 25.1433 41.7912 28.5556C41.5645 28.7127 41.315 28.8699 41.1336 29.0719C40.7027 29.5883 40.6574 30.1495 41.0429 30.6883C41.4284 31.2046 41.9727 31.4291 42.6076 31.1373C42.8798 31.025 43.1519 30.8454 43.424 30.6883C46.7803 28.4883 50.1139 26.2882 53.4702 24.0658C54.0372 23.7066 54.6721 23.4596 55.1937 23.9086C55.5792 24.2453 55.9194 24.8739 55.9194 25.3678C55.9874 29.0046 55.9421 32.6638 55.9421 36.3006C55.9648 36.6149 55.9648 36.9067 55.9648 37.3332ZM70.5011 50.9375C70.5011 48.266 70.5011 45.617 70.5011 42.9455C70.5011 42.5864 70.4785 42.2047 70.4331 41.868C70.229 40.5435 69.1858 39.6006 67.8478 39.4884C66.5099 39.3761 65.2853 40.1394 64.8771 41.3741C64.741 41.8006 64.6957 42.2496 64.6957 42.6986C64.673 48.1987 64.6957 53.6763 64.6957 59.1763C64.6957 59.4457 64.7183 59.7376 64.7637 60.007C64.9678 61.309 66.011 62.2743 67.3489 62.409C68.6416 62.5437 69.9115 61.7355 70.3197 60.5008C70.4785 60.0294 70.5011 59.5131 70.5238 59.0192C70.5011 56.3253 70.5011 53.6314 70.5011 50.9375ZM61.7702 50.915C61.7702 48.0864 61.7929 45.2578 61.7702 42.4292C61.7476 40.7231 60.5683 39.4884 58.9355 39.4659C57.3254 39.4435 56.0101 40.6108 55.9874 42.317C55.9421 48.064 55.9648 53.811 55.9874 59.558C55.9874 60.8151 56.6451 61.758 57.847 62.2294C59.7292 62.9703 61.7249 61.6458 61.7702 59.5804C61.8156 56.7069 61.7702 53.811 61.7702 50.915ZM63.1536 14.9963C66.3738 15.0636 68.959 12.6391 69.0498 9.49621C69.1405 6.26352 66.6006 3.63696 63.2896 3.54717C60.1601 3.47982 57.5068 5.99413 57.4615 9.11457C57.3934 12.3473 59.888 14.9289 63.1536 14.9963Z" fill="#FA5B37"/>
<path d="M7.79795 36.5247C7.09494 36.5247 6.21052 36.5247 5.28073 36.5247C5.19002 35.1778 5.66625 34.0778 6.39194 33.0451C6.50533 32.8879 6.61872 32.7308 6.77746 32.5961C8.3649 31.1369 8.6597 29.1614 6.80014 27.1409C4.64576 24.8287 4.73647 21.6858 6.70943 19.2388C7.3444 18.4531 7.82063 17.5551 8.50096 16.5225C9.11326 16.5225 10.0204 16.5225 10.9955 16.5225C10.9955 18.1837 10.3605 19.5307 9.272 20.698C7.72992 22.4042 7.72992 23.8634 9.24932 25.6144C11.6078 28.3532 11.6078 31.3389 9.29468 34.1227C8.70506 34.7961 8.34222 35.6043 7.79795 36.5247Z" fill="#FA5B37"/>
<path d="M15.4168 36.5696C15.3941 34.9533 15.9837 33.7186 16.9135 32.5512C17.4578 31.8777 17.934 31.0696 18.1834 30.2389C18.4556 29.2512 18.0247 28.3308 17.2763 27.5675C15.5301 25.7491 14.8952 23.6389 15.7342 21.2368C16.0291 20.4062 16.6414 19.7102 17.1176 18.947C17.5711 18.2062 18.0247 17.4429 18.569 16.5225C19.2039 16.5225 20.1337 16.5225 21.0862 16.5225C21.1769 17.847 20.7007 18.9919 19.9523 20.0245C19.7935 20.249 19.5894 20.4735 19.408 20.6756C17.8659 22.4266 17.8433 23.8634 19.4307 25.6593C21.0635 27.5001 21.6078 29.5879 20.746 31.9002C20.4285 32.7757 19.7255 33.4941 19.2266 34.3023C18.9091 34.7961 18.5009 35.29 18.3875 35.8288C18.2515 36.4349 18.0247 36.6145 17.4351 36.5696C16.8001 36.5247 16.1651 36.5696 15.4168 36.5696Z" fill="#FA5B37"/>
<path d="M28.4114 16.5C29.4319 16.5 30.3163 16.5 31.2688 16.5C31.3141 17.8694 30.8606 19.0368 30.0442 20.0919C29.8174 20.3837 29.5679 20.6531 29.3185 20.9225C28.0939 22.3368 28.0939 23.998 29.3412 25.4123C31.9491 28.3307 31.9491 31.294 29.3865 34.3022C28.8876 34.9084 28.5928 35.6941 28.0939 36.5696C27.8671 36.5696 27.3909 36.5696 26.9147 36.5696C26.4611 36.5696 26.0302 36.5696 25.5313 36.5696C25.5313 35.1777 25.9395 34.0104 26.7106 32.9777C26.9373 32.6859 27.1868 32.4165 27.4136 32.1471C28.6835 30.7104 28.7062 29.0042 27.4136 27.6124C26.4384 26.5573 25.7127 25.3899 25.554 23.9307C25.3499 22.2246 25.7808 20.698 26.8693 19.3959C27.6177 18.5429 28.4114 17.7572 28.4114 16.5Z" fill="#FA5B37"/>
</svg>
