<svg width="30" height="30" viewBox="0 0 30 30" fill="none" xmlns="http://www.w3.org/2000/svg">
<path d="M29.2006 27.2364L19.9256 17.9614C21.3648 16.1006 22.1434 13.8256 22.1434 11.4328C22.1434 8.56851 21.0256 5.88279 19.0041 3.85779C16.9827 1.83279 14.2898 0.718506 11.4291 0.718506C8.56841 0.718506 5.87556 1.83636 3.85413 3.85779C1.82913 5.87922 0.714844 8.56851 0.714844 11.4328C0.714844 14.2935 1.8327 16.9864 3.85413 19.0078C5.87556 21.0328 8.56484 22.1471 11.4291 22.1471C13.822 22.1471 16.0934 21.3685 17.9541 19.9328L27.2291 29.2042C27.2563 29.2314 27.2886 29.253 27.3242 29.2677C27.3597 29.2825 27.3978 29.2901 27.4363 29.2901C27.4747 29.2901 27.5128 29.2825 27.5484 29.2677C27.5839 29.253 27.6162 29.2314 27.6434 29.2042L29.2006 27.6506C29.2278 27.6234 29.2494 27.5912 29.2641 27.5556C29.2788 27.5201 29.2864 27.482 29.2864 27.4435C29.2864 27.405 29.2788 27.3669 29.2641 27.3314C29.2494 27.2959 29.2278 27.2636 29.2006 27.2364V27.2364ZM17.0863 17.0899C15.572 18.6006 13.5648 19.4328 11.4291 19.4328C9.29341 19.4328 7.28627 18.6006 5.77199 17.0899C4.26127 15.5756 3.42913 13.5685 3.42913 11.4328C3.42913 9.29708 4.26127 7.28636 5.77199 5.77565C7.28627 4.26493 9.29341 3.43279 11.4291 3.43279C13.5648 3.43279 15.5756 4.26136 17.0863 5.77565C18.597 7.28993 19.4291 9.29708 19.4291 11.4328C19.4291 13.5685 18.597 15.5792 17.0863 17.0899Z" fill="white"/>
</svg>
