<svg width="50" height="61" viewBox="0 0 50 61" fill="none" xmlns="http://www.w3.org/2000/svg">
<path d="M24.7004 40.421C13.707 40.421 4.72461 31.4385 4.72461 20.3111C4.72461 9.25062 13.707 0.201172 24.7004 0.201172C35.6938 0.201172 44.6763 9.18359 44.6763 20.3111C44.6763 31.4385 35.6938 40.421 24.7004 40.421ZM24.7004 3.61985C15.5169 3.61985 8.07626 11.1275 8.07626 20.3781C8.07626 29.6286 15.5169 37.0693 24.7004 37.0693C33.8839 37.0693 41.3246 29.5616 41.3246 20.3781C41.3246 11.1275 33.8169 3.61985 24.7004 3.61985Z" fill="#FA5B37"/>
<path d="M47.358 60.53C46.4195 60.53 45.6821 59.7927 45.6821 58.8542V44.308C45.6821 39.4817 43.1349 36.13 37.8393 33.985C36.9679 33.6498 36.5657 32.6443 36.9008 31.7729C37.236 30.9015 38.2415 30.4993 39.1129 30.8344C45.6151 33.4487 49.1008 38.074 49.1008 44.241V58.7201C49.0338 59.7927 48.2964 60.53 47.358 60.53Z" fill="#FA5B37"/>
<path d="M2.31157 60.5307C1.3731 60.5307 0.635742 59.7934 0.635742 58.8549V44.3087C0.635742 38.2087 3.98739 33.5835 10.3555 30.9692C11.2269 30.634 12.2324 31.0362 12.5676 31.9076C12.9028 32.7791 12.5006 33.7846 11.6291 34.1197C6.46761 36.2648 3.98739 39.6164 3.98739 44.3087V58.7879C3.98739 59.7934 3.25003 60.5307 2.31157 60.5307Z" fill="#FA5B37"/>
<path d="M24.7009 32.2427C20.6119 32.2427 16.9921 29.6284 15.6514 25.6735C15.3833 24.802 15.8525 23.8636 16.724 23.5284C17.5954 23.2603 18.5339 23.7295 18.869 24.6009C19.7405 27.1482 22.0866 28.891 24.7679 28.891C27.3822 28.891 29.7954 27.1482 30.6668 24.6009C31.002 23.7295 31.9405 23.2603 32.8119 23.5284C33.6833 23.8636 34.1525 24.802 33.8844 25.6735C32.4097 29.6284 28.7899 32.2427 24.7009 32.2427Z" fill="#FA5B37"/>
<path d="M17.6617 17.6964C18.8463 17.6964 19.8067 16.736 19.8067 15.5513C19.8067 14.3666 18.8463 13.4062 17.6617 13.4062C16.477 13.4062 15.5166 14.3666 15.5166 15.5513C15.5166 16.736 16.477 17.6964 17.6617 17.6964Z" fill="#FA5B37"/>
<path d="M31.7388 17.6964C32.9235 17.6964 33.8839 16.736 33.8839 15.5513C33.8839 14.3666 32.9235 13.4062 31.7388 13.4062C30.5541 13.4062 29.5938 14.3666 29.5938 15.5513C29.5938 16.736 30.5541 17.6964 31.7388 17.6964Z" fill="#FA5B37"/>
</svg>
