<svg width="28" height="24" viewBox="0 0 28 24" fill="none" xmlns="http://www.w3.org/2000/svg">
<path d="M27.9279 3.37271C26.9033 3.81468 25.7884 4.13276 24.6399 4.25664C25.8323 3.54828 26.7252 2.42918 27.1511 1.10932C26.0322 1.77491 24.8065 2.24163 23.5283 2.48878C22.9941 1.91767 22.348 1.46269 21.6302 1.1522C20.9125 0.841713 20.1385 0.682368 19.3564 0.684096C16.1924 0.684096 13.6477 3.24883 13.6477 6.39615C13.6477 6.83811 13.7013 7.28008 13.7884 7.7053C9.05064 7.45753 4.8252 5.19414 2.01604 1.72874C1.50419 2.60301 1.23596 3.59847 1.23926 4.61155C1.23926 6.59369 2.24707 8.34146 3.7839 9.36936C2.87822 9.3337 1.99375 9.08476 1.20243 8.6428V8.71311C1.20243 11.4888 3.16448 13.789 5.77944 14.318C5.28845 14.4456 4.78337 14.5108 4.27609 14.5122C3.90444 14.5122 3.55287 14.4754 3.19796 14.4252C3.92118 16.6886 6.0272 18.3325 8.53502 18.3861C6.57296 19.9229 4.11537 20.827 1.44685 20.827C0.968053 20.827 0.526088 20.8102 0.0673828 20.7566C2.59863 22.3805 5.60198 23.318 8.83636 23.318C19.3364 23.318 25.0819 14.6194 25.0819 7.06914C25.0819 6.82137 25.0819 6.57361 25.0652 6.32584C26.1768 5.51222 27.1511 4.50441 27.9279 3.37271Z" fill="#DE1026" fill-opacity="0.85"/>
</svg>
