<svg width="26" height="18" viewBox="0 0 26 18" fill="none" xmlns="http://www.w3.org/2000/svg">
<path d="M18.012 0.655273C18.2154 0.655273 18.4188 0.655273 18.6221 0.655273C18.6475 0.660661 18.673 0.666049 18.6984 0.671437C18.8382 0.687601 18.9717 0.698376 19.1115 0.71454C19.9694 0.83846 20.7257 1.14018 21.3866 1.61431C21.5073 1.70051 21.6154 1.79211 21.7298 1.8837C21.7552 1.90525 21.7806 1.92141 21.8251 1.90525C21.8442 1.89986 21.8632 1.89986 21.8759 1.89448C22.861 1.71668 23.7952 1.41496 24.6722 0.989319C24.6976 0.973156 24.7294 0.96238 24.7548 0.951604C24.7612 0.956992 24.7675 0.96238 24.7675 0.96238C24.3989 1.88909 23.7189 2.61106 22.7466 3.14445C22.8292 3.13907 22.9118 3.13368 22.9881 3.1229C23.7888 3.02053 24.5578 2.83735 25.3014 2.56795C25.3331 2.55718 25.3649 2.54102 25.3967 2.52485C25.3967 2.53563 25.3967 2.5464 25.3967 2.55718C25.3776 2.57873 25.3586 2.60028 25.3395 2.62183C24.8374 3.23605 24.2528 3.78022 23.5791 4.25973C23.4075 4.37827 23.2296 4.49141 23.058 4.60994C23.058 4.64766 23.058 4.68537 23.058 4.72848C23.0834 5.26187 23.058 5.78988 22.9881 6.32327C22.9245 6.80818 22.8292 7.28231 22.6894 7.75644C22.1683 9.55597 21.2277 11.1723 19.8232 12.5947C18.6031 13.8339 17.1414 14.7983 15.4128 15.4826C13.8304 16.1076 12.159 16.4416 10.4177 16.5171C10.3795 16.5171 10.3478 16.5278 10.3096 16.5278C9.84571 16.5278 9.38178 16.5278 8.92421 16.5278C8.89244 16.5224 8.86702 16.5171 8.83524 16.5171C8.44122 16.5009 8.05356 16.4686 7.65954 16.4201C6.94142 16.3339 6.24235 16.1938 5.54965 16.0106C4.44385 15.7143 3.40161 15.3048 2.42293 14.7822C2.40386 14.7714 2.37844 14.7552 2.35938 14.7445C3.60498 14.8522 4.83152 14.7768 6.03263 14.4912C7.23375 14.2057 8.32048 13.7369 9.30552 13.085C8.64459 13.0581 8.02179 12.9341 7.42441 12.7025C6.82702 12.4654 6.31226 12.1367 5.87376 11.7165C5.46067 11.3232 4.95226 10.5473 4.9332 10.2941C5.27637 10.348 5.62591 10.3749 5.96908 10.3588C6.31861 10.348 6.66179 10.3103 6.99861 10.2241C4.32946 9.70683 3.16648 7.65946 3.26816 6.24246C3.59227 6.39332 3.92909 6.51185 4.28498 6.59267C4.69806 6.68965 5.23824 6.7543 5.35899 6.72197C2.98218 5.30497 2.88049 2.82657 3.94815 1.39341C5.15563 2.638 6.59824 3.62936 8.2887 4.3621C9.97916 5.08946 11.7777 5.49355 13.6778 5.57975C13.6715 5.54743 13.6715 5.52588 13.6651 5.50432C13.6397 5.37502 13.6143 5.2511 13.5952 5.12179C13.5253 4.65305 13.5635 4.1843 13.6969 3.72634C14.1735 2.05072 15.8449 0.860011 17.7642 0.682213C17.8595 0.676825 17.9358 0.666049 18.012 0.655273Z" stroke="white" stroke-miterlimit="10"/>
</svg>
