<svg width="30" height="30" viewBox="0 0 30 30" fill="none" xmlns="http://www.w3.org/2000/svg">
<path d="M28.9279 6.37268C27.9033 6.81465 26.7884 7.13273 25.6399 7.25661C26.8323 6.54825 27.7252 5.42915 28.1511 4.10929C27.0322 4.77488 25.8065 5.2416 24.5283 5.48875C23.9941 4.91764 23.348 4.46266 22.6302 4.15217C21.9125 3.84168 21.1385 3.68234 20.3564 3.68407C17.1924 3.68407 14.6477 6.2488 14.6477 9.39612C14.6477 9.83808 14.7013 10.28 14.7884 10.7053C10.0506 10.4575 5.8252 8.19411 3.01604 4.72871C2.50419 5.60298 2.23596 6.59844 2.23926 7.61152C2.23926 9.59366 3.24707 11.3414 4.7839 12.3693C3.87822 12.3337 2.99375 12.0847 2.20243 11.6428V11.7131C2.20243 14.4888 4.16448 16.789 6.77944 17.318C6.28845 17.4455 5.78337 17.5108 5.27609 17.5122C4.90444 17.5122 4.55287 17.4754 4.19796 17.4251C4.92118 19.6885 7.0272 21.3325 9.53502 21.3861C7.57296 22.9229 5.11537 23.8269 2.44685 23.8269C1.96805 23.8269 1.52609 23.8102 1.06738 23.7566C3.59863 25.3805 6.60198 26.318 9.83636 26.318C20.3364 26.318 26.0819 17.6193 26.0819 10.0691C26.0819 9.82134 26.0819 9.57357 26.0652 9.32581C27.1768 8.51219 28.1511 7.50438 28.9279 6.37268Z" fill="white" fill-opacity="0.85"/>
</svg>
