<svg width="99" height="99" viewBox="0 0 99 99" fill="none" xmlns="http://www.w3.org/2000/svg">
<path d="M49.5001 88.8523C48.2765 88.8553 47.0643 88.6163 45.9334 88.1491C44.8025 87.6819 43.7751 86.9956 42.9104 86.1298L11.0448 54.2642C8.52753 51.7196 6.54181 48.6995 5.20332 45.3798C3.86483 42.0601 3.20033 38.5073 3.24854 34.9283C3.2728 31.6484 3.94389 28.4055 5.22338 25.3854C6.50287 22.3653 8.36562 19.6273 10.7049 17.3282C13.0442 15.0292 15.8142 13.2142 18.856 11.9873C21.8979 10.7604 25.1519 10.1456 28.4317 10.1783C31.7702 10.1446 35.0814 10.7818 38.1691 12.0519C41.2567 13.322 44.0579 15.1993 46.4064 17.5723L49.5001 20.6661L52.037 18.1292C56.4175 13.6326 62.2791 10.8759 68.5362 10.3697C74.7933 9.86343 81.0218 11.6419 86.0682 15.3758C88.9408 17.5879 91.3092 20.3868 93.0155 23.5858C94.7219 26.7849 95.727 30.3108 95.9641 33.9287C96.2012 37.5467 95.6648 41.1736 94.3906 44.568C93.1163 47.9624 91.1335 51.0464 88.5742 53.6145L56.0898 86.1298C55.2251 86.9956 54.1977 87.6819 53.0668 88.1491C51.9359 88.6163 50.7237 88.8553 49.5001 88.8523ZM28.3079 16.3348C23.3905 16.3298 18.664 18.2382 15.1285 21.6561C13.3261 23.3903 11.8928 25.4708 10.9145 27.7728C9.93631 30.0748 9.43342 32.5508 9.43604 35.052C9.40893 37.8033 9.92821 40.5327 10.9638 43.0818C11.9994 45.6309 13.5307 47.9491 15.4689 49.902L47.3345 81.7676C47.6221 82.0576 47.9643 82.2878 48.3413 82.4448C48.7183 82.6019 49.1226 82.6828 49.531 82.6828C49.9395 82.6828 50.3438 82.6019 50.7208 82.4448C51.0978 82.2878 51.44 82.0576 51.7276 81.7676L84.2429 49.2214C86.1515 47.2724 87.6261 44.9417 88.5699 42.3823C89.5137 39.823 89.9052 37.0929 89.7188 34.3714C89.5536 31.622 88.7963 28.9408 87.4988 26.5113C86.2013 24.0817 84.3941 21.9612 82.201 20.2948C78.3528 17.4575 73.6043 16.116 68.8403 16.5201C64.0763 16.9242 59.6217 19.0464 56.3064 22.4914L51.6967 27.2248C51.4091 27.5148 51.0669 27.745 50.6899 27.902C50.3129 28.0591 49.9085 28.14 49.5001 28.14C49.0917 28.14 48.6873 28.0591 48.3103 27.902C47.9333 27.745 47.5911 27.5148 47.3035 27.2248L42.0442 21.9655C38.4217 18.3745 33.5324 16.3521 28.4317 16.3348H28.3079Z" fill="#FA5B37"/>
</svg>
