<svg width="65" height="65" viewBox="0 0 65 65" fill="none" xmlns="http://www.w3.org/2000/svg">
<path d="M6.84395 24.907C0.506445 18.5695 0.506445 8.57578 6.84395 2.23828L33.9002 29.2945L42.9189 38.3133L56.8127 52.207C59.2502 54.6445 59.2502 58.3008 56.8127 60.7383C54.3752 63.1758 49.9877 63.1758 47.7939 60.2508L37.8002 47.8195C35.3627 44.6508 30.9752 43.6758 27.0752 45.1383L6.84395 24.907Z" stroke="#FA5B37" stroke-width="3" stroke-miterlimit="10" stroke-linecap="round" stroke-linejoin="round"/>
<path d="M42.9189 21.4945L56.0814 8.33203" stroke="#FA5B37" stroke-width="3" stroke-miterlimit="10" stroke-linecap="round" stroke-linejoin="round"/>
<path d="M37.5557 32.9496C38.5307 32.7059 39.2619 32.7059 40.2369 32.4621C43.4057 32.2184 47.0619 30.5121 50.7182 26.8559L62.6619 14.9121" stroke="#FA5B37" stroke-width="3" stroke-miterlimit="10" stroke-linecap="round" stroke-linejoin="round"/>
<path d="M20.9807 39.043L3.91818 52.9367C1.23693 54.8867 0.993181 58.7867 3.43068 60.9805C5.86818 63.418 9.52443 62.9305 11.4744 60.493L25.3682 43.1867" stroke="#FA5B37" stroke-width="3" stroke-miterlimit="10" stroke-linecap="round" stroke-linejoin="round"/>
<path d="M49.5 1.75L37.3125 13.6937C33.6562 17.35 31.7063 21.0062 31.7063 24.175C31.7063 25.15 31.4625 25.8813 31.2188 26.8563" stroke="#FA5B37" stroke-width="3" stroke-miterlimit="10" stroke-linecap="round" stroke-linejoin="round"/>
</svg>
