<svg width="80" height="102" viewBox="0 0 80 102" fill="none" xmlns="http://www.w3.org/2000/svg">
<path d="M43.6367 98.3571H18.1822C10.1489 98.3571 3.63672 91.8331 3.63672 83.7857V18.2143C3.63672 10.1667 10.1489 3.64282 18.1822 3.64282H54.5458C62.5789 3.64282 69.0913 10.1667 69.0913 18.2143V52.8214" stroke="#FA5B37" stroke-width="3" stroke-linecap="round"/>
<path d="M18.1816 21.8572H54.5453" stroke="#FA5B37" stroke-width="3" stroke-linecap="round"/>
<path d="M18.1816 40.0715H54.5453" stroke="#FA5B37" stroke-width="3" stroke-linecap="round"/>
<path d="M18.1816 58.2856H29.0907" stroke="#FA5B37" stroke-width="3" stroke-linecap="round"/>
<path d="M61.8184 83.7856L74.6747 96.665" stroke="#FA5B37" stroke-width="3" stroke-linecap="round"/>
<path d="M50.9087 87.4285C58.942 87.4285 65.4542 80.9047 65.4542 72.8571C65.4542 64.8095 58.942 58.2856 50.9087 58.2856C42.8755 58.2856 36.3633 64.8095 36.3633 72.8571C36.3633 80.9047 42.8755 87.4285 50.9087 87.4285Z" stroke="#FA5B37" stroke-width="3"/>
</svg>
