<svg width="32" height="30" viewBox="0 0 32 30" fill="none" xmlns="http://www.w3.org/2000/svg">
<path d="M31.0002 17.0001C30.6729 14.1076 29.2818 11.4401 27.0973 9.51619C24.9128 7.59225 22.0909 6.54931 19.1802 6.59011H4.00022L7.25022 2.00011C7.32804 1.89169 7.38337 1.7688 7.41295 1.63867C7.44254 1.50854 7.44578 1.3738 7.42248 1.2424C7.39918 1.111 7.34982 0.98559 7.2773 0.873563C7.20478 0.761536 7.11057 0.665158 7.00022 0.590107C6.78385 0.438284 6.51616 0.378303 6.25569 0.423276C5.99522 0.46825 5.76315 0.614519 5.61022 0.830107L1.15022 7.08011C1.04737 7.22655 0.992188 7.40115 0.992188 7.58011C0.992188 7.75906 1.04737 7.93366 1.15022 8.08011L5.62022 14.3401C5.78222 14.5268 6.00761 14.6468 6.25291 14.6771C6.49821 14.7074 6.74604 14.6458 6.94858 14.5041C7.15112 14.3625 7.29402 14.1508 7.34972 13.91C7.40543 13.6692 7.36998 13.4163 7.25022 13.2001L4.00022 8.59011H19.1802C21.6308 8.55741 24.0034 9.45068 25.8239 11.0914C27.6445 12.7321 28.7788 14.9994 29.0002 17.4401C29.0878 18.7392 28.9078 20.0425 28.4711 21.2692C28.0345 22.4959 27.3506 23.6198 26.4618 24.5714C25.5731 25.523 24.4984 26.2819 23.3043 26.8012C22.1103 27.3204 20.8223 27.589 19.5202 27.5901H2.00022C1.735 27.5901 1.48065 27.6955 1.29311 27.883C1.10558 28.0705 1.00022 28.3249 1.00022 28.5901C1.00022 28.8553 1.10558 29.1097 1.29311 29.2972C1.48065 29.4848 1.735 29.5901 2.00022 29.5901H19.5002C21.1062 29.5958 22.6957 29.2653 24.1663 28.62C25.6369 27.9746 26.9562 27.0286 28.0394 25.8428C29.1225 24.657 29.9455 23.2576 30.4554 21.7347C30.9653 20.2118 31.1509 18.599 31.0002 17.0001Z" fill="#FA5B37"/>
<path d="M5.60018 14.77L1.13018 8.51005C1.0313 8.36205 0.978516 8.18805 0.978516 8.01005C0.978516 7.83205 1.0313 7.65805 1.13018 7.51005L5.60018 1.23005C5.67673 1.12268 5.77376 1.0315 5.88568 0.961777C5.9976 0.892052 6.12221 0.845152 6.25233 0.823775C6.38245 0.802398 6.51552 0.806967 6.64386 0.837219C6.77221 0.867471 6.89331 0.922809 7.00018 1.00005C7.10756 1.07659 7.19873 1.17362 7.26845 1.28554C7.33818 1.39747 7.38508 1.52208 7.40646 1.6522C7.42783 1.78232 7.42326 1.91538 7.39301 2.04373C7.36276 2.17207 7.30742 2.29317 7.23018 2.40005L3.23018 8.00005L7.23018 13.6C7.30742 13.7069 7.36276 13.828 7.39301 13.9564C7.42326 14.0847 7.42783 14.2178 7.40646 14.3479C7.38508 14.478 7.33818 14.6026 7.26845 14.7146C7.19873 14.8265 7.10756 14.9235 7.00018 15C6.89331 15.0773 6.77221 15.1326 6.64386 15.1629C6.51552 15.1931 6.38245 15.1977 6.25233 15.1763C6.12221 15.1549 5.9976 15.108 5.88568 15.0383C5.77376 14.9686 5.67673 14.8774 5.60018 14.77Z" fill="#FA5B37"/>
<path d="M19.16 7.00017H2C1.73478 7.00017 1.48043 7.10552 1.29289 7.29306C1.10536 7.4806 1 7.73495 1 8.00017C1 8.26538 1.10536 8.51974 1.29289 8.70727C1.48043 8.89481 1.73478 9.00017 2 9.00017H19.16C21.614 8.96239 23.9916 9.85337 25.8164 11.4946C27.6412 13.1358 28.7783 15.4059 29 17.8502C29.0877 19.151 28.9071 20.4559 28.4692 21.684C28.0314 22.912 27.3457 24.0369 26.4548 24.9888C25.5639 25.9406 24.4868 26.6992 23.2903 27.2172C22.0939 27.7352 20.8038 28.0018 19.5 28.0002H2C1.73478 28.0002 1.48043 28.1055 1.29289 28.2931C1.10536 28.4806 1 28.735 1 29.0002C1 29.2654 1.10536 29.5197 1.29289 29.7073C1.48043 29.8948 1.73478 30.0002 2 30.0002H19.5C21.1079 30.0061 22.6991 29.6752 24.1713 29.0286C25.6434 28.382 26.9637 27.4341 28.0472 26.2461C29.1306 25.0581 29.9531 23.6563 30.4617 22.1309C30.9703 20.6056 31.1537 18.9907 31 17.3902C30.6699 14.4969 29.2746 11.8301 27.0858 9.90941C24.8971 7.98869 22.0716 6.95159 19.16 7.00017Z" fill="#FA5B37"/>
</svg>
