<svg width="77" height="56" viewBox="0 0 77 56" fill="none" xmlns="http://www.w3.org/2000/svg">
<path d="M38.5001 56.0007C36.8941 56.0007 35.3241 55.5218 33.9887 54.6245C32.6534 53.7272 31.6126 52.4519 30.998 50.9598C30.3834 49.4676 30.2226 47.8258 30.5359 46.2417C30.8492 44.6577 31.6226 43.2027 32.7582 42.0607C33.8939 40.9187 35.3408 40.1409 36.9159 39.8259C38.4911 39.5108 40.1238 39.6725 41.6076 40.2905C43.0913 40.9086 44.3595 41.9552 45.2518 43.2981C46.1441 44.641 46.6203 46.2198 46.6203 47.8348C46.6153 49.999 45.7582 52.0731 44.2364 53.6034C42.7147 55.1337 40.6522 55.9957 38.5001 56.0007ZM38.5001 43.9517C37.7514 43.9517 37.0194 44.175 36.3969 44.5933C35.7744 45.0116 35.2891 45.6062 35.0026 46.3018C34.7161 46.9975 34.6411 47.7629 34.7872 48.5014C34.9333 49.2399 35.2938 49.9182 35.8232 50.4506C36.3527 50.983 37.0272 51.3456 37.7616 51.4925C38.4959 51.6394 39.2571 51.564 39.9488 51.2758C40.6405 50.9877 41.2318 50.4998 41.6477 49.8737C42.0637 49.2477 42.2857 48.5116 42.2857 47.7587C42.2882 47.2572 42.1922 46.7601 42.003 46.296C41.8139 45.8319 41.5354 45.41 41.1837 45.0545C40.8319 44.6989 40.4137 44.4168 39.9532 44.2243C39.4926 44.0318 38.9988 43.9327 38.5001 43.9327V43.9517Z" fill="#FA5B37"/>
<path d="M74.8797 22.5947C74.549 22.5954 74.2227 22.5183 73.9269 22.3696C73.6311 22.2209 73.374 22.0046 73.1761 21.7381C69.1441 16.3103 63.9083 11.9034 57.8853 8.86778C51.8622 5.83213 45.2179 4.25146 38.4807 4.25146C31.7435 4.25146 25.0992 5.83213 19.0762 8.86778C13.0531 11.9034 7.81737 16.3103 3.78529 21.7381C3.62977 21.9935 3.42292 22.2135 3.17798 22.3839C2.93305 22.5543 2.65543 22.6713 2.3629 22.7276C2.07037 22.7838 1.76938 22.778 1.47921 22.7106C1.18904 22.6431 0.916085 22.5154 0.677821 22.3357C0.439558 22.156 0.24124 21.9282 0.0955689 21.667C-0.0501025 21.4058 -0.139917 21.1168 -0.168121 20.8187C-0.196326 20.5205 -0.1623 20.2197 -0.0682225 19.9355C0.0258553 19.6514 0.177911 19.3901 0.378207 19.1684C4.8081 13.2196 10.5554 8.39071 17.1644 5.06463C23.7733 1.73855 31.062 0.00683594 38.4523 0.00683594C45.8427 0.00683594 53.1314 1.73855 59.7403 5.06463C66.3492 8.39071 72.0965 13.2196 76.5264 19.1684C76.7675 19.4856 76.9151 19.8644 76.9525 20.2618C76.9899 20.6593 76.9157 21.0592 76.7382 21.4163C76.5606 21.7733 76.287 22.0731 75.9484 22.2814C75.6098 22.4897 75.2198 22.5983 74.8229 22.5947H74.8797Z" fill="#FA5B37"/>
<path d="M66.9486 30.551C66.6017 30.5523 66.2598 30.4679 65.9529 30.3053C65.646 30.1426 65.3834 29.9068 65.1883 29.6183C62.2434 25.2214 58.2694 21.6194 53.6157 19.1291C48.962 16.6388 43.7711 15.3363 38.4995 15.3363C33.2279 15.3363 28.0371 16.6388 23.3834 19.1291C18.7296 21.6194 14.7556 25.2214 11.8107 29.6183C11.6647 29.8771 11.467 30.1026 11.2299 30.2805C10.9928 30.4585 10.7217 30.585 10.4335 30.6522C10.1453 30.7194 9.84637 30.7258 9.55563 30.6709C9.26488 30.6159 8.98863 30.501 8.74432 30.3332C8.50001 30.1655 8.29296 29.9486 8.13626 29.6963C7.97955 29.4439 7.8766 29.1617 7.83391 28.8673C7.79122 28.5729 7.80972 28.2728 7.88824 27.986C7.96675 27.6992 8.10358 27.4319 8.29007 27.2009C11.6364 22.2388 16.1402 18.1762 21.4079 15.3681C26.6756 12.56 32.5469 11.0918 38.509 11.0918C44.471 11.0918 50.3424 12.56 55.6101 15.3681C60.8778 18.1762 65.3815 22.2388 68.7279 27.2009C68.9502 27.522 69.0804 27.8985 69.1042 28.2891C69.128 28.6797 69.0444 29.0693 68.8626 29.4153C68.6808 29.7612 68.4078 30.0502 68.0735 30.2506C67.7393 30.4509 67.3567 30.5548 66.9676 30.551H66.9486Z" fill="#FA5B37"/>
<path d="M60.0774 37.4606C59.6956 37.4709 59.3183 37.3772 58.9851 37.1896C58.6519 37.002 58.3753 36.7273 58.1845 36.3947C56.1995 32.893 53.3283 29.9819 49.8626 27.9569C46.3969 25.932 42.4601 24.8654 38.4519 24.8654C34.4437 24.8654 30.5068 25.932 27.0411 27.9569C23.5754 29.9819 20.7043 32.893 18.7192 36.3947C18.6151 36.692 18.4467 36.9625 18.2262 37.1865C18.0056 37.4105 17.7384 37.5826 17.4438 37.6903C17.1492 37.798 16.8345 37.8386 16.5224 37.8093C16.2103 37.78 15.9085 37.6814 15.6388 37.5207C15.3691 37.36 15.1382 37.1412 14.9628 36.8799C14.7873 36.6187 14.6717 36.3216 14.6241 36.01C14.5766 35.6984 14.5984 35.3801 14.6879 35.0779C14.7774 34.7758 14.9324 34.4974 15.1418 34.2628C17.5081 30.1185 20.9199 26.6754 25.0325 24.2811C29.1452 21.8868 33.8133 20.626 38.5654 20.626C43.3176 20.626 47.9857 21.8868 52.0983 24.2811C56.211 26.6754 59.6228 30.1185 61.9891 34.2628C62.1827 34.5916 62.2848 34.9666 62.2849 35.3486C62.2849 35.7307 62.1828 36.1057 61.9894 36.4346C61.7959 36.7634 61.5181 37.0338 61.1851 37.2177C60.8521 37.4016 60.476 37.492 60.0963 37.4797L60.0774 37.4606Z" fill="#FA5B37"/>
<path d="M52.9985 44.5988C52.5609 44.5986 52.134 44.4634 51.7752 44.2116C51.4164 43.9597 51.1431 43.6032 50.9921 43.1903C50.079 40.592 48.3873 38.3424 46.15 36.7512C43.9127 35.16 41.2398 34.3056 38.4995 34.3056C35.7592 34.3056 33.0863 35.16 30.8489 36.7512C28.6116 38.3424 26.9199 40.592 26.0068 43.1903C25.9308 43.4802 25.7953 43.751 25.609 43.9852C25.4227 44.2193 25.1898 44.4118 24.9252 44.5501C24.6607 44.6884 24.3702 44.7696 24.0726 44.7883C23.775 44.8071 23.4768 44.7631 23.1971 44.6591C22.9174 44.5551 22.6624 44.3935 22.4485 44.1846C22.2345 43.9756 22.0664 43.724 21.9549 43.4459C21.8434 43.1678 21.791 42.8693 21.801 42.5695C21.811 42.2698 21.8832 41.9755 22.013 41.7055C23.2535 38.3124 25.4995 35.3836 28.4477 33.3148C31.396 31.246 34.9044 30.1367 38.4995 30.1367C42.0945 30.1367 45.603 31.246 48.5512 33.3148C51.4994 35.3836 53.7454 38.3124 54.9859 41.7055C55.1089 42.029 55.1517 42.3776 55.1106 42.7214C55.0695 43.0652 54.9458 43.3937 54.7501 43.6786C54.5544 43.9635 54.2926 44.1962 53.9874 44.3565C53.6822 44.5169 53.3428 44.6 52.9985 44.5988Z" fill="#FA5B37"/>
</svg>
