<svg width="30" height="22" viewBox="0 0 30 22" fill="none" xmlns="http://www.w3.org/2000/svg">
<path d="M30 10.9081C30 10.8345 30 10.7508 29.9967 10.6537C29.9933 10.3825 29.9866 10.0778 29.9799 9.753C29.9531 8.81885 29.9062 7.88804 29.8326 7.01081C29.7321 5.80211 29.5848 4.79429 29.3839 4.0376C29.1719 3.24792 28.7564 2.52772 28.1788 1.94897C27.6012 1.37022 26.8819 0.953209 26.0926 0.739606C25.1451 0.485142 23.2902 0.327776 20.6786 0.230678C19.4364 0.183803 18.1071 0.153669 16.7779 0.136928C16.3125 0.130231 15.8806 0.126883 15.4922 0.123535H14.5078C14.1194 0.126883 13.6875 0.130231 13.2221 0.136928C11.8929 0.153669 10.5636 0.183803 9.32143 0.230678C6.70982 0.331124 4.85156 0.48849 3.90737 0.739606C3.11786 0.952685 2.39822 1.36952 1.82057 1.94835C1.24292 2.52718 0.827545 3.24766 0.616071 4.0376C0.41183 4.79429 0.267857 5.80211 0.167411 7.01081C0.09375 7.88804 0.0468749 8.81885 0.0200892 9.753C0.0100446 10.0778 0.00669638 10.3825 0.00334816 10.6537C0.00334816 10.7508 0 10.8345 0 10.9081V11.0956C0 11.1693 -5.11396e-08 11.253 0.00334816 11.3501C0.00669638 11.6213 0.0133928 11.926 0.0200892 12.2508C0.0468749 13.1849 0.09375 14.1157 0.167411 14.993C0.267857 16.2017 0.415179 17.2095 0.616071 17.9662C1.04464 19.57 2.30357 20.8356 3.90737 21.2642C4.85156 21.5186 6.70982 21.676 9.32143 21.7731C10.5636 21.82 11.8929 21.8501 13.2221 21.8668C13.6875 21.8735 14.1194 21.8769 14.5078 21.8802H15.4922C15.8806 21.8769 16.3125 21.8735 16.7779 21.8668C18.1071 21.8501 19.4364 21.82 20.6786 21.7731C23.2902 21.6726 25.1484 21.5153 26.0926 21.2642C27.6964 20.8356 28.9554 19.5733 29.3839 17.9662C29.5882 17.2095 29.7321 16.2017 29.8326 14.993C29.9062 14.1157 29.9531 13.1849 29.9799 12.2508C29.99 11.926 29.9933 11.6213 29.9967 11.3501C29.9967 11.253 30 11.1693 30 11.0956V10.9081V10.9081ZM27.5893 11.0822C27.5893 11.1526 27.5893 11.2296 27.5859 11.32C27.5826 11.5811 27.5759 11.8691 27.5692 12.1805C27.5458 13.0711 27.4989 13.9617 27.4286 14.7887C27.3382 15.8668 27.2109 16.7508 27.0536 17.3434C26.846 18.1168 26.2366 18.7296 25.4665 18.9338C24.7634 19.1213 22.9922 19.272 20.5848 19.3624C19.3661 19.4093 18.0536 19.4394 16.7444 19.4561C16.2857 19.4628 15.8605 19.4662 15.4788 19.4662H14.5212L13.2556 19.4561C11.9464 19.4394 10.6373 19.4093 9.41518 19.3624C7.00781 19.2686 5.23326 19.1213 4.53348 18.9338C3.76339 18.7262 3.15402 18.1168 2.94643 17.3434C2.78906 16.7508 2.66183 15.8668 2.57143 14.7887C2.50112 13.9617 2.45759 13.0711 2.4308 12.1805C2.42076 11.8691 2.41741 11.5778 2.41406 11.32C2.41406 11.2296 2.41071 11.1492 2.41071 11.0822V10.9215C2.41071 10.8512 2.41071 10.7742 2.41406 10.6838C2.41741 10.4226 2.42411 10.1347 2.4308 9.82331C2.45424 8.93269 2.50112 8.04206 2.57143 7.21505C2.66183 6.13693 2.78906 5.253 2.94643 4.66037C3.15402 3.88693 3.76339 3.27421 4.53348 3.06996C5.23661 2.88246 7.00781 2.73179 9.41518 2.64139C10.6339 2.59452 11.9464 2.56438 13.2556 2.54764C13.7143 2.54095 14.1395 2.5376 14.5212 2.5376H15.4788L16.7444 2.54764C18.0536 2.56438 19.3627 2.59452 20.5848 2.64139C22.9922 2.73514 24.7667 2.88246 25.4665 3.06996C26.2366 3.27755 26.846 3.88693 27.0536 4.66037C27.2109 5.253 27.3382 6.13693 27.4286 7.21505C27.4989 8.04206 27.5424 8.93269 27.5692 9.82331C27.5792 10.1347 27.5826 10.426 27.5859 10.6838C27.5859 10.7742 27.5893 10.8546 27.5893 10.9215V11.0822ZM12.0201 15.4885L19.7879 10.9684L12.0201 6.51528V15.4885Z" fill="#DE1026" fill-opacity="0.85"/>
</svg>
