<svg width="30" height="30" viewBox="0 0 30 30" fill="none" xmlns="http://www.w3.org/2000/svg">
<g clip-path="url(#clip0_222_918)">
<path d="M30 14.9081C30 14.8344 30 14.7507 29.9967 14.6536C29.9933 14.3824 29.9866 14.0777 29.9799 13.7529C29.9531 12.8188 29.9062 11.888 29.8326 11.0108C29.7321 9.80205 29.5848 8.79424 29.3839 8.03754C29.1719 7.24787 28.7564 6.52766 28.1788 5.94892C27.6012 5.37017 26.8819 4.95316 26.0926 4.73955C25.1451 4.48509 23.2902 4.32772 20.6786 4.23062C19.4364 4.18375 18.1071 4.15362 16.7779 4.13687C16.3125 4.13018 15.8806 4.12683 15.4922 4.12348H14.5078C14.1194 4.12683 13.6875 4.13018 13.2221 4.13687C11.8929 4.15362 10.5636 4.18375 9.32143 4.23062C6.70982 4.33107 4.85156 4.48844 3.90737 4.73955C3.11786 4.95263 2.39822 5.36947 1.82057 5.9483C1.24292 6.52712 0.827545 7.24761 0.616071 8.03754C0.41183 8.79424 0.267857 9.80205 0.167411 11.0108C0.09375 11.888 0.0468749 12.8188 0.0200892 13.7529C0.0100446 14.0777 0.00669638 14.3824 0.00334816 14.6536C0.00334816 14.7507 0 14.8344 0 14.9081V15.0956C0 15.1692 -5.11396e-08 15.2529 0.00334816 15.35C0.00669638 15.6213 0.0133928 15.9259 0.0200892 16.2507C0.0468749 17.1849 0.09375 18.1157 0.167411 18.9929C0.267857 20.2016 0.415179 21.2094 0.616071 21.9661C1.04464 23.5699 2.30357 24.8355 3.90737 25.2641C4.85156 25.5186 6.70982 25.6759 9.32143 25.773C10.5636 25.8199 11.8929 25.85 13.2221 25.8668C13.6875 25.8735 14.1194 25.8768 14.5078 25.8802H15.4922C15.8806 25.8768 16.3125 25.8735 16.7779 25.8668C18.1071 25.85 19.4364 25.8199 20.6786 25.773C23.2902 25.6726 25.1484 25.5152 26.0926 25.2641C27.6964 24.8355 28.9554 23.5733 29.3839 21.9661C29.5882 21.2094 29.7321 20.2016 29.8326 18.9929C29.9062 18.1157 29.9531 17.1849 29.9799 16.2507C29.99 15.9259 29.9933 15.6213 29.9967 15.35C29.9967 15.2529 30 15.1692 30 15.0956V14.9081V14.9081ZM27.5893 15.0822C27.5893 15.1525 27.5893 15.2295 27.5859 15.3199C27.5826 15.5811 27.5759 15.869 27.5692 16.1804C27.5458 17.071 27.4989 17.9617 27.4286 18.7887C27.3382 19.8668 27.2109 20.7507 27.0536 21.3434C26.846 22.1168 26.2366 22.7295 25.4665 22.9338C24.7634 23.1213 22.9922 23.2719 20.5848 23.3623C19.3661 23.4092 18.0536 23.4393 16.7444 23.4561C16.2857 23.4628 15.8605 23.4661 15.4788 23.4661H14.5212L13.2556 23.4561C11.9464 23.4393 10.6373 23.4092 9.41518 23.3623C7.00781 23.2686 5.23326 23.1213 4.53348 22.9338C3.76339 22.7262 3.15402 22.1168 2.94643 21.3434C2.78906 20.7507 2.66183 19.8668 2.57143 18.7887C2.50112 17.9617 2.45759 17.071 2.4308 16.1804C2.42076 15.869 2.41741 15.5777 2.41406 15.3199C2.41406 15.2295 2.41071 15.1492 2.41071 15.0822V14.9215C2.41071 14.8512 2.41071 14.7742 2.41406 14.6838C2.41741 14.4226 2.42411 14.1346 2.4308 13.8233C2.45424 12.9326 2.50112 12.042 2.57143 11.215C2.66183 10.1369 2.78906 9.25295 2.94643 8.66031C3.15402 7.88687 3.76339 7.27415 4.53348 7.06991C5.23661 6.88241 7.00781 6.73174 9.41518 6.64134C10.6339 6.59446 11.9464 6.56433 13.2556 6.54759C13.7143 6.54089 14.1395 6.53754 14.5212 6.53754H15.4788L16.7444 6.54759C18.0536 6.56433 19.3627 6.59446 20.5848 6.64134C22.9922 6.73509 24.7667 6.88241 25.4665 7.06991C26.2366 7.2775 26.846 7.88687 27.0536 8.66031C27.2109 9.25295 27.3382 10.1369 27.4286 11.215C27.4989 12.042 27.5424 12.9326 27.5692 13.8233C27.5792 14.1346 27.5826 14.4259 27.5859 14.6838C27.5859 14.7742 27.5893 14.8545 27.5893 14.9215V15.0822ZM12.0201 19.4884L19.7879 14.9683L12.0201 10.5152V19.4884Z" fill="white" fill-opacity="0.85"/>
</g>
<defs>
<clipPath id="clip0_222_918">
<rect width="30" height="30" fill="white"/>
</clipPath>
</defs>
</svg>
